<?xml version="1.0" encoding="iso-8859-1"?>
<!-- Generator: Adobe Illustrator 19.0.0, SVG Export Plug-In . SVG Version: 6.00 Build 0)  -->
<svg version="1.1" id="Layer_1" xmlns="http://www.w3.org/2000/svg" xmlns:xlink="http://www.w3.org/1999/xlink" x="0px" y="0px"
	 viewBox="0 0 512 512" style="enable-background:new 0 0 512 512;" xml:space="preserve">
<circle style="fill:#FFC400;" cx="256" cy="256" r="256"/>
<path style="fill:#8F4D38;" d="M256,171.343c3.202-0.014,6.032-0.386,8.69-0.977l5.274-63.311h-30.552l5.222,62.646
	C248.045,170.691,251.699,171.32,256,171.343z"/>
<path style="fill:#00897B;" d="M330.473,153.6c13.256,0,26.48,3.421,38.056,10.524c7.424-26.061,1.755-54.984,1.755-54.984
	s-54.174-10.64-81.012,16.202c-13.819,13.824-22.402,30.134-25.079,45.149C281.162,166.963,289.922,153.6,330.473,153.6z"/>
<path style="fill:#D32F2F;" d="M330.473,153.6c-46.545,0-51.2,17.617-74.473,17.743c-23.273-0.126-27.927-17.743-74.473-17.743
	c-37.236,0-74.473,26.433-74.473,88.106c0,52.857,60.509,158.585,97.745,158.585s32.582-17.617,51.2-17.617
	s13.964,17.617,51.2,17.617s97.745-105.728,97.745-158.585C404.945,180.033,367.709,153.6,330.473,153.6z"/>
<path style="fill:#26A69A;" d="M370.283,109.135c0,0-54.174-10.64-81.012,16.202c-13.819,13.824-22.402,30.134-25.079,45.149
	c16.431-3.412,25.26-16.016,62.608-16.808l43.646-43.65C370.344,109.489,370.283,109.135,370.283,109.135z"/>
<path style="fill:#EF5350;" d="M181.527,153.6c-37.236,0-74.473,26.433-74.473,88.106c0,52.857,60.509,158.585,97.745,158.585
	s32.582-17.617,51.2-17.617v-211.33C232.727,171.217,228.073,153.6,181.527,153.6z"/>
<g>
</g>
<g>
</g>
<g>
</g>
<g>
</g>
<g>
</g>
<g>
</g>
<g>
</g>
<g>
</g>
<g>
</g>
<g>
</g>
<g>
</g>
<g>
</g>
<g>
</g>
<g>
</g>
<g>
</g>
</svg>
