<svg id="Layer_1" enable-background="new 0 0 512 512" height="512" viewBox="0 0 512 512" width="512" xmlns="http://www.w3.org/2000/svg"><circle cx="233.841" cy="253.196" fill="#736e6e" r="233.841"/><path d="m374.996 439.641c-39.219 29.752-88.122 47.399-141.155 47.399-129.144-.001-233.841-104.698-233.841-233.841 0-128.196 103.152-232.286 230.977-233.821-56.32 42.691-92.696 110.322-92.696 186.442 0 129.154 104.697 233.841 233.841 233.841.958 0 1.916-.01 2.874-.02z" fill="#595454"/><path d="m455.636 492.645h-31.23c-31.079 0-56.364-25.285-56.364-56.364s25.285-56.364 56.364-56.364h31.23c31.079 0 56.364 25.285 56.364 56.364 0 31.08-25.285 56.364-56.364 56.364zm-29.677-78.971c-12.466 0-22.607 10.142-22.607 22.607 0 12.466 10.142 22.608 22.607 22.608h28.123c12.466 0 22.607-10.142 22.607-22.607 0-12.466-10.142-22.608-22.607-22.608z" fill="#f6f1f1"/><path d="m454.082 458.889h17.117c12.466 0 22.607-10.142 22.607-22.607 0-12.466-10.142-22.608-22.607-22.608h-17.117c12.466 0 22.607 10.142 22.607 22.608.001 12.465-10.141 22.607-22.607 22.607z" fill="#eadfda"/><path d="m385.159 436.281c0-31.079 25.285-56.364 56.364-56.364h-17.117c-31.079 0-56.364 25.285-56.364 56.364s25.285 56.364 56.364 56.364h17.117c-31.08 0-56.364-25.284-56.364-56.364z" fill="#eadfda"/><path d="m311.678 492.645h-31.23c-31.079 0-56.364-25.285-56.364-56.364s25.285-56.364 56.364-56.364h31.23c31.079 0 56.364 25.285 56.364 56.364 0 31.08-25.285 56.364-56.364 56.364zm-29.677-78.971c-12.466 0-22.607 10.142-22.607 22.607 0 12.466 10.142 22.608 22.607 22.608h28.123c12.466 0 22.607-10.142 22.607-22.607 0-12.466-10.142-22.608-22.607-22.608z" fill="#f6f1f1"/><path d="m310.124 458.889h17.117c12.466 0 22.607-10.142 22.607-22.607 0-12.466-10.142-22.608-22.607-22.608h-17.117c12.466 0 22.607 10.142 22.607 22.608 0 12.465-10.141 22.607-22.607 22.607z" fill="#eadfda"/><path d="m241.2 436.281c0-31.079 25.285-56.364 56.364-56.364h-17.117c-31.079 0-56.364 25.285-56.364 56.364s25.285 56.364 56.364 56.364h17.117c-31.079 0-56.364-25.284-56.364-56.364z" fill="#eadfda"/><path d="m320.806 458.889h94.472c12.486 0 22.607-10.122 22.607-22.607 0-12.486-10.122-22.607-22.607-22.607h-94.472c-12.486 0-22.607 10.122-22.607 22.607-.001 12.485 10.121 22.607 22.607 22.607z" fill="#f6f1f1"/><path d="m435.28 446.815c-3.781 7.18-11.311 12.074-19.996 12.074h-94.478c-6.243 0-11.899-2.524-15.978-6.624-4.1-4.08-6.624-9.735-6.624-15.978 0-12.486 10.116-22.612 22.602-22.612h6.181c-1.669 3.142-2.606 6.727-2.606 10.528 0 6.243 2.534 11.899 6.614 15.988 4.1 4.09 9.746 6.624 15.988 6.624z" fill="#eadfda"/><g fill="#9b9595"><circle cx="379.532" cy="165.483" r="39.604"/><circle cx="324.695" cy="103.961" r="25.172"/><path d="m164.981 175.007c-4.489-1.692-9.496-.517-12.763 2.991-.053.057-.106.115-.157.173l-67.208 75.79c-3.515 3.963-3.151 10.026.812 13.54 3.962 3.514 10.026 3.15 13.54-.813l12.352-13.93 41.798 15.807-.013 18.567c-.004 5.297 4.288 9.595 9.585 9.598h.007c5.294-.001 9.588-4.29 9.592-9.585l.071-101.185c0-.095-.001-.189-.004-.283-.138-4.79-3.126-8.979-7.612-10.67zm-39.803 62.394 28.222-31.826-.03 42.488z"/><path d="m297.871 227.135c-2.971-4.386-8.936-5.531-13.321-2.56l-33.882 22.958-10.179-39.616c-1.319-5.131-6.55-8.22-11.677-6.903-5.131 1.319-8.222 6.546-6.903 11.677l11.889 46.272-46.479 31.493c-4.386 2.971-5.531 8.936-2.56 13.321 1.855 2.737 4.875 4.212 7.949 4.212 1.852 0 3.724-.535 5.372-1.652l40.789-27.638 12.254 47.692c1.113 4.33 5.01 7.207 9.283 7.207.79 0 1.594-.098 2.394-.304 5.131-1.319 8.222-6.546 6.903-11.677l-13.964-54.349 39.572-26.813c4.385-2.971 5.531-8.935 2.56-13.32z"/><path d="m109.725 174.619c1.117.422 2.264.623 3.391.623 3.874 0 7.522-2.364 8.973-6.201 1.874-4.955-.624-10.491-5.579-12.365l-49.597-18.756c-4.958-1.875-10.491.624-12.364 5.579-1.874 4.955.624 10.491 5.579 12.365l15.727 5.947-30.571 80.837c-1.874 4.955.624 10.49 5.579 12.364 1.117.422 2.264.623 3.391.623 3.874 0 7.522-2.364 8.973-6.201l30.571-80.837z"/></g></svg>