<svg enable-background="new 0 0 100 100" height="512" viewBox="0 0 100 100" width="512" xmlns="http://www.w3.org/2000/svg"><path d="m15.8625822 50.7378807h-4.2515001v-31.0724888c0-3.9193516 1.5258074-7.6041231 4.2971706-10.3744488 5.7212582-5.7212572 15.0276413-5.7212572 20.7488976 0l2.6052895 2.6052895-3.0059433 3.0059433-2.6052895-2.6052895c-4.0625896-4.0625906-10.6744194-4.0625906-14.737011 0-1.9679794 1.9679794-3.0516138 4.5846863-3.0516138 7.3685055z" fill="#ededed"/><path d="m24.7818737 83.9869537-2.9350777 8.014679c-.3862457 1.0548935.0719643 2.2323761 1.0696487 2.7485962.9977512.5162506 2.2236691.2101669 2.8616009-.7145004l4.8469353-7.0254517z" fill="#b1b2b6"/><path d="m76.1365662 83.9869537 2.9350739 8.014679c.3862457 1.0548935-.0719604 2.2323761-1.0696487 2.7485962-.9977493.5162506-2.2236633.2101669-2.8615952-.7145004l-4.8469391-7.0254517z" fill="#b1b2b6"/><path d="m92.80439 51.8379555-3.4930115 22.9158669c-.2447052 1.5907516-.7119675 3.1036224-1.3682556 4.4941483-2.6364288 5.6288376-8.3542786 9.4333572-14.8508987 9.4333572h-45.620163c-8.2541943 0-15.217947-6.1405716-16.2635555-14.3168945l-2.1915017-17.1200715-1.6018858-12.492508c3.4039984 0 19.3894501-2.0245399 40.447525 7.0861015 21.0470095 9.110714 44.9417468.0000001 44.9417468.0000001z" fill="#ededed"/><path d="m91.4432678 51.1953964c-7.5320511 2.1941681-26.5062714 6.3502998-43.6822128-1.0843086-18.7896194-8.1274529-33.7266121-7.7852325-39.9220085-7.5081673-1.2943892.0578537-2.2602372 1.2103004-2.0966845 2.4955215l.024322.1908646c.1456904 1.144352 1.1395283 1.9855614 2.2921343 1.9356003 6.3190002-.2738342 21.1309547-.5230713 39.70224 7.5177803 18.2609253 7.8984299 38.5499496 2.7059593 44.9659195.6979485.8077164-.2527847 1.39534-.9445152 1.5226135-1.7812195.2432142-1.6008034-1.2516512-2.9168816-2.8063235-2.4640198z" fill="#dbd8dd"/><path d="m53.2882309 11.0719051c-4.8853607-4.3818731-12.3938675-4.2387528-17.090332.4577103s-4.8395824 12.2049694-.4577103 17.090332z" fill="#ededed"/><g fill="#dbd8dd"><path d="m53.5438309 9.4662027-19.4093437 19.4093428c-.6105537.6105556-.610508 1.6005192.0000916 2.2111206.6106033.6106014 1.6005669.6106472 2.2111206.0000916l19.4093436-19.4093428c.6105576-.6105556.610508-1.6005182-.0000916-2.2111206-.6106033-.6106014-1.600563-.6106472-2.2111205-.0000916z"/><path d="m43.9445724 29.7794876c-.5621948.4947624.1329079 2.2036438.6276855 2.7658577.4947815.5622101 1.3516731.6168442 1.913868.1220779.562233-.4947968.6168976-1.3516502.1221161-1.9138622-.4947815-.5622139-2.1014366-1.4688721-2.6636696-.9740734z"/><path d="m47.9751472 25.8572445c-.5621948.4947643.1329079 2.2036438.6276855 2.7658577.4947815.562212 1.3516731.6168442 1.913868.1220798.5622292-.4947968.6168938-1.3516502.1221161-1.9138641-.4947815-.562212-2.1014366-1.4688702-2.6636696-.9740734z"/><path d="m52.005722 21.9350033c-.5621948.4947624.1329041 2.2036438.6276855 2.7658558.4947815.5622139 1.3516731.6168442 1.9138641.1220818.562233-.4947968.6168976-1.3516502.1221199-1.9138641-.4947814-.562214-2.1014403-1.4688703-2.6636695-.9740735z"/><path d="m58.0018463 24.3847561c-.5621948.4947624.1329079 2.2036438.6276894 2.7658558.4947777.5622139 1.3516693.6168442 1.9138641.1220818.562233-.4947968.6168976-1.3516502.1221161-1.9138641s-2.1014366-1.4688703-2.6636696-.9740735z"/><path d="m53.7755127 27.9997292c-.5621948.4947643.1329041 2.2036438.6276855 2.7658577.4947815.562212 1.3516731.6168442 1.9138641.1220798.562233-.4947968.6168976-1.3516502.1221161-1.9138641-.4947776-.562212-2.1014365-1.4688702-2.6636657-.9740734z"/><path d="m49.9368782 32.1678391c-.5621948.4947624.1329079 2.2036438.6276894 2.7658577.4947777.5622139 1.3516693.6168442 1.9138641.1220818.562233-.4947968.6168976-1.3516541.1221161-1.9138641-.4947777-.562214-2.1014366-1.4688722-2.6636696-.9740754z"/><path d="m58.4531937 31.637886c-.562191.4947624.1329079 2.2036438.6276894 2.7658577.4947777.5622101 1.3516693.6168442 1.9138641.1220779.562233-.4947968.6168976-1.3516502.1221161-1.9138641-.4947777-.56221-2.1014367-1.4688682-2.6636696-.9740715z"/><path d="m56.036293 18.0127602c-.5621948.4947643.1329079 2.2036438.6276894 2.7658577.4947777.562212 1.3516693.6168442 1.9138641.1220798.562233-.4947968.6168976-1.3516502.1221161-1.9138641-.4947777-.562212-2.1014366-1.4688702-2.6636696-.9740734z"/><path d="m9.017004 57.2443619 2.1914997 17.1200714c1.0456085 8.1763229 8.0093613 14.3168945 16.2635555 14.3168945h45.620163c6.4966202 0 12.2144699-3.8045197 14.8508987-9.4333572-63.6192245 3.3483887-78.9261169-22.0036087-78.9261169-22.0036087z"/></g></svg>