<svg height="512pt" viewBox="-25 0 512 512.00104" width="512pt" xmlns="http://www.w3.org/2000/svg"><path d="m393.753906 512h-324.988281c-37.976563 0-68.765625-30.785156-68.765625-68.765625v-316.261719c0-37.976562 30.789062-68.761718 68.765625-68.761718h324.988281c37.976563 0 68.765625 30.785156 68.765625 68.761718v316.261719c0 37.980469-30.789062 68.765625-68.765625 68.765625zm0 0" fill="#f3f3f3"/><path d="m137.359375 0h177.722656v58.210938h-177.722656zm0 0" fill="#2f357c"/><path d="m224.949219 282.386719 129.8125-212c4.46875-7.300781 3.851562-16.621094-1.539063-23.265625l-38.222656-47.121094-123.53125 222.167969zm0 0" fill="#405db2"/><path d="m294.371094 282.386719-157.011719-282.386719-32.0625 50.363281c-3.078125 4.832031-3.261719 10.964844-.476563 15.972657l120.128907 216.050781 124.457031 229.613281h45.546875c10.773437 0 17.632813-11.515625 12.5-20.988281zm0 0" fill="#6c9cdc"/><g fill="#ddd"><path d="m57.363281 306.816406c-4.292969 0-7.777343-3.480468-7.777343-7.777344v-25.738281c0-4.296875 3.484374-7.78125 7.777343-7.78125 4.296875 0 7.78125 3.484375 7.78125 7.78125v25.738281c0 4.296876-3.484375 7.777344-7.78125 7.777344zm0 0"/><path d="m100.191406 306.816406c-4.296875 0-7.777344-3.480468-7.777344-7.777344v-25.738281c0-4.296875 3.480469-7.78125 7.777344-7.78125s7.777344 3.484375 7.777344 7.78125v25.738281c0 4.296876-3.480469 7.777344-7.777344 7.777344zm0 0"/><path d="m143.019531 306.816406c-4.296875 0-7.78125-3.480468-7.78125-7.777344v-25.738281c0-4.296875 3.484375-7.78125 7.78125-7.78125 4.292969 0 7.777344 3.484375 7.777344 7.78125v25.738281c0 4.296876-3.484375 7.777344-7.777344 7.777344zm0 0"/></g><path d="m404.488281 207.769531h-48.753906c-4.296875 0-7.78125-3.484375-7.78125-7.777343 0-4.296876 3.484375-7.78125 7.78125-7.78125h48.753906c4.296875 0 7.777344 3.484374 7.777344 7.78125 0 4.292968-3.480469 7.777343-7.777344 7.777343zm0 0" fill="#a7a7a7"/><path d="m0 299.210938h462.519531v54.277343h-462.519531zm0 0" fill="#515151"/><path d="m209.09375 299.039062h-136.355469v3.085938h-.152343v143.597656c0 9.050782 7.476562 16.382813 16.699218 16.382813h22.125c9.222656 0 16.695313-7.332031 16.695313-16.382813v-92.234375h80.988281zm0 0" fill="#4c4c4c"/><path d="m393.753906 58.210938h-31.113281c37.976563 0 68.765625 30.785156 68.765625 68.761718v172.242188l10.371094 28.953125-10.371094 25.320312v89.746094c0 37.980469-30.789062 68.765625-68.765625 68.765625h31.113281c37.976563 0 68.765625-30.785156 68.765625-68.765625v-89.746094l-10.371093-24.683593 10.371093-29.59375v-172.238282c0-37.976562-30.789062-68.761718-68.765625-68.761718zm0 0" fill="#ddd"/><path d="m431.40625 299.210938h31.113281v54.277343h-31.113281zm0 0" fill="#4c4c4c"/></svg>