<?xml version="1.0" encoding="iso-8859-1"?>
<!-- Generator: Adobe Illustrator 19.0.0, SVG Export Plug-In . SVG Version: 6.00 Build 0)  -->
<svg version="1.1" id="Capa_1" xmlns="http://www.w3.org/2000/svg" xmlns:xlink="http://www.w3.org/1999/xlink" x="0px" y="0px"
	 viewBox="0 0 512.001 512.001" style="enable-background:new 0 0 512.001 512.001;" xml:space="preserve">
<path style="fill:#AA785F;" d="M9.859,245.313c3.634,16.876,12.803,52.994,29.148,78.625l365.663-1.333
	c75.415-28.409,93.598-88.836,97.963-114.611c0.922-5.442-4.372-9.721-9.543-7.79c-159.627,59.598-423.149,41.033-475.774,36.574
	C12.567,236.374,8.856,240.654,9.859,245.313z"/>
<g>
	<path style="fill:#96695A;" d="M15.752,268.642c5.01,17.407,12.576,38.55,23.254,55.295l365.663-1.333
		c40.171-15.133,64.077-39.328,78.316-62.539c6.252-10.192-3.674-22.847-15.107-19.347
		C305.339,290.479,61.965,272.628,15.752,268.642z"/>
	<path style="fill:#96695A;" d="M78.33,240.736c-28.144-1.355-49.573-2.991-61.014-3.96c-4.749-0.402-8.46,3.877-7.457,8.537
		c3.634,16.875,12.804,52.993,29.148,78.624l119.578-0.436C119.937,299.751,93.96,266.333,78.33,240.736z"/>
</g>
<path style="fill:#825A50;" d="M101.899,273.72c-41.223-1.496-72.422-3.895-86.147-5.078c5.01,17.407,12.576,38.55,23.254,55.295
	l119.578-0.436C135.228,309.148,116.502,291.286,101.899,273.72z"/>
<path style="fill:#694641;" d="M195.794,296.394c-2.047,0-4.094-0.781-5.656-2.344c-3.125-3.125-3.125-8.187,0-11.312
	l132.335-132.331c3.125-3.125,8.187-3.125,11.312,0s3.125,8.187,0,11.312L201.45,294.051
	C199.887,295.613,197.84,296.394,195.794,296.394z"/>
<path style="fill:#825A50;" d="M203.941,277.337c-6.14-4.585-15.014-2.594-19.468,3.642l-15.579,21.81
	c-1.646,2.305-1.1,5.51,1.217,7.139l8.19,5.758c1.889,1.328,4.435,1.222,6.206-0.259l19.29-16.126
	C211.163,294.04,211.52,282.995,203.941,277.337z"/>
<path style="fill:#7FE1FF;" d="M463.999,331.876c-0.487,0.012-0.853,0.061-1.383,0.061c-7.359,0-10.375-1.164-14.93-2.922
	c-5.844-2.262-13.125-5.078-26.461-5.078c-13.328,0-20.609,2.816-26.453,5.078c-4.547,1.758-7.555,2.922-14.898,2.922
	s-10.344-1.16-14.891-2.922c-5.844-2.262-13.117-5.078-26.437-5.078s-20.601,2.816-26.445,5.078
	c-4.547,1.758-7.547,2.922-14.898,2.922c-7.344,0-10.344-1.16-14.891-2.922c-5.844-2.262-13.117-5.078-26.437-5.078
	c-13.328,0-20.601,2.816-26.445,5.078c-4.547,1.762-7.547,2.922-14.891,2.922c-7.344,0-10.344-1.16-14.891-2.922
	c-5.844-2.262-13.117-5.078-26.437-5.078s-20.594,2.816-26.445,5.082c-4.539,1.758-7.539,2.918-14.875,2.918
	c-7.328,0-10.32-1.16-14.859-2.918c-5.844-2.266-13.109-5.082-26.43-5.082s-20.594,2.816-26.445,5.082
	c-4.539,1.758-7.539,2.918-14.875,2.918c-0.492,0-0.827-0.046-1.281-0.056v8.124c0,14.215,14.273,24.054,27.529,18.924
	c0.061-0.023,0.121-0.047,0.181-0.07c4.547-1.762,7.547-2.922,14.891-2.922c7.336,0,10.328,1.16,14.867,2.918
	c5.844,2.266,13.109,5.082,26.422,5.082c13.32,0,20.586-2.816,26.43-5.078c4.547-1.762,7.547-2.922,14.891-2.922
	c7.344,0,10.344,1.16,14.891,2.922c5.844,2.262,13.117,5.078,26.437,5.078s20.594-2.816,26.437-5.078
	c4.547-1.758,7.547-2.922,14.898-2.922c7.344,0,10.344,1.16,14.891,2.922c5.844,2.262,13.117,5.078,26.437,5.078
	s20.601-2.816,26.445-5.078c4.547-1.758,7.547-2.922,14.898-2.922c7.344,0,10.344,1.16,14.891,2.922
	c5.844,2.262,13.117,5.078,26.437,5.078s20.601-2.816,26.445-5.078c4.547-1.758,7.555-2.922,14.906-2.922
	c7.359,0,10.375,1.164,14.93,2.922c0.104,0.04,0.208,0.081,0.313,0.121c13.257,5.127,27.531-4.71,27.531-18.924L463.999,331.876z"/>
<path style="fill:#00C3FF;" d="M462.616,347.937c-13.336,0-20.617-2.816-26.461-5.078c-4.555-1.758-7.57-2.922-14.93-2.922
	c-7.352,0-10.359,1.164-14.906,2.922c-5.844,2.262-13.125,5.078-26.445,5.078s-20.594-2.816-26.437-5.078
	c-4.547-1.762-7.547-2.922-14.891-2.922c-7.352,0-10.351,1.164-14.898,2.922c-5.844,2.262-13.125,5.078-26.445,5.078
	s-20.594-2.816-26.437-5.078c-4.547-1.762-7.547-2.922-14.891-2.922c-7.352,0-10.351,1.164-14.898,2.922
	c-5.844,2.262-13.117,5.078-26.437,5.078s-20.594-2.816-26.437-5.078c-4.547-1.762-7.547-2.922-14.891-2.922
	c-7.344,0-10.344,1.16-14.891,2.922c-5.844,2.262-13.109,5.078-26.43,5.078c-13.312,0-20.578-2.816-26.422-5.082
	c-4.539-1.758-7.531-2.918-14.867-2.918c-7.344,0-10.344,1.16-14.891,2.922c-5.844,2.262-13.109,5.078-26.43,5.078
	c-13.312,0-20.586-2.816-26.422-5.082c-3.172-1.227-5.453-2.113-8.953-2.574c-8.766-1.156-14.922-9.199-13.766-17.957
	c1.156-8.766,9.258-14.922,17.953-13.769c7.305,0.965,12.305,2.906,16.328,4.465c4.531,1.758,7.531,2.918,14.859,2.918
	c7.336,0,10.336-1.16,14.875-2.918c5.852-2.266,13.125-5.082,26.445-5.082s20.586,2.816,26.43,5.082
	c4.539,1.758,7.531,2.918,14.859,2.918c7.336,0,10.336-1.16,14.875-2.918c5.852-2.266,13.125-5.082,26.445-5.082
	s20.594,2.816,26.437,5.078c4.547,1.762,7.547,2.922,14.891,2.922c7.344,0,10.344-1.16,14.891-2.922
	c5.844-2.262,13.117-5.078,26.445-5.078c13.32,0,20.594,2.816,26.437,5.078c4.547,1.762,7.547,2.922,14.891,2.922
	c7.352,0,10.351-1.164,14.898-2.922c5.844-2.262,13.125-5.078,26.445-5.078s20.594,2.816,26.437,5.078
	c4.547,1.762,7.547,2.922,14.891,2.922s10.351-1.164,14.898-2.922c5.844-2.262,13.125-5.078,26.453-5.078
	c13.336,0,20.617,2.816,26.461,5.078c4.555,1.758,7.57,2.922,14.93,2.922c7.359,0,10.367-1.164,14.922-2.922
	c4.031-1.563,9.055-3.504,16.383-4.461c8.656-1.164,16.797,5.02,17.945,13.785c1.148,8.762-5.023,16.793-13.789,17.941
	c-3.523,0.461-5.82,1.352-9,2.582C483.224,345.124,475.944,347.937,462.616,347.937z"/>
<g>
</g>
<g>
</g>
<g>
</g>
<g>
</g>
<g>
</g>
<g>
</g>
<g>
</g>
<g>
</g>
<g>
</g>
<g>
</g>
<g>
</g>
<g>
</g>
<g>
</g>
<g>
</g>
<g>
</g>
</svg>
