<svg height="512" viewBox="0 0 512 512" width="512" xmlns="http://www.w3.org/2000/svg"><path d="m440 346.69v149.31h-368v-149.31a64 64 0 0 1 49.34-62.3l74.32-17.49a16 16 0 0 0 12.34-15.57v-19.33h-24a16 16 0 0 1 -16-16v-48h-24s24.5-66.81 25.45-72a88.06 88.06 0 0 1 96.65-71.44c40.12 4.47 72.74 37.02 77.31 77.12a87.527 87.527 0 0 1 -17.63 63.82c-13.5 17.5-21.78 38.44-21.78 60.54v25.29a16 16 0 0 0 12.34 15.57l17.14 4.03 57.18 13.46a64 64 0 0 1 49.34 62.3z" fill="#348fd9"/><path d="m440 346.69v149.31h-368v-41.34c85.95-33.73 185.47-91.71 261.48-183.73l57.18 13.46a64 64 0 0 1 49.34 62.3z" fill="#3086cd"/><path d="m168.88 488h-48.88v-79.953a64 64 0 0 1 15.835-42.147l33.588-38.386a22.012 22.012 0 0 1 16.565-7.514 22.012 22.012 0 0 1 22.012 22.011v106.869a39.12 39.12 0 0 1 -39.12 39.12z" fill="#f35244"/><path d="m343.12 488h48.88v-79.953a64 64 0 0 0 -15.835-42.147l-33.588-38.386a22.012 22.012 0 0 0 -16.565-7.514 22.012 22.012 0 0 0 -22.012 22.011v106.869a39.12 39.12 0 0 0 39.12 39.12z" fill="#f35244"/><path d="m168 168v32h64a8 8 0 0 1 8 8v136l-32 24v40l48-32 48 32v-40l-32-24v-176a32 32 0 0 0 -32-32h-84.373c-5.977 16.586-11.627 32-11.627 32z" fill="#48add9"/><path d="m16 288a8 8 0 0 0 13.656 5.656l24-24-11.312-11.312-7.11 7.109a80.139 80.139 0 0 1 76.766-57.453h8v-16h-8a96.1 96.1 0 0 0 -96 96z" fill="#4db7e5"/><path d="m125.656 162.344-24-24-11.312 11.312 9.406 9.406a80.127 80.127 0 0 1 -67.75-79.062h-16a96.1 96.1 0 0 0 96 96h8a8 8 0 0 0 5.656-13.656z" fill="#4db7e5"/><g fill="#c9392d"><path d="m163.578 368.844-7.156 14.312 20.277 10.139-10.952 6.705h-21.747v16h13.392l-13.087 45.805 15.39 4.39 5.153-18.035 13.496 13.496 11.312-11.312-19.781-19.782 4.961-17.367 33.164-20.305v-18.759l-15.216 9.316z"/><path d="m337.172 413.219 4.954 17.343-19.782 19.782 11.312 11.312 13.497-13.496 5.152 18.035 15.39-4.39-13.087-45.805h13.392v-16h-21.759l-11.008-6.671 20.345-10.173-7.156-14.312-29.364 14.682-15.058-9.127v18.716z"/></g></svg>