<svg id="Capa_1" enable-background="new 0 0 512 512" height="512" viewBox="0 0 512 512" width="512" xmlns="http://www.w3.org/2000/svg"><g><g><g><path d="m503.214 230.292c-9.615-10.594-25.625-12.347-37.305-4.084l-155.269 110.268-222.156 54.417-88.484 121.107h75.838 69.796l42.003-64.475 168.883-32.585 146.695-142.229c11.713-11.713 11.713-30.705-.001-42.419z" fill="#ffcebf"/><path d="m88.484 390.893 211.435-49.55c18.683-5.006 29.771-24.21 24.764-42.893-5.006-18.683-24.21-29.771-42.893-24.764l-96.494 25.856c-21.089 5.651-39.355 18.18-52.176 35.194z" fill="#ffdfcf"/></g></g><g><g><g><path d="m350.212 225.773-111.202-111.603c-12.615-12.614-19.573-29.412-19.573-47.279s6.958-34.665 19.592-47.299 29.432-19.592 47.299-19.592 34.665 6.958 47.299 19.592l16.585 16.585 16.585-16.585c12.634-12.634 29.432-19.592 47.299-19.592s34.665 6.958 47.299 19.592 19.592 29.432 19.592 47.299-6.958 34.665-19.592 47.299z" fill="#fc2444"/></g></g><g><g><path d="m350.212 225.773v-189.596l16.585-16.585c12.634-12.634 29.432-19.592 47.299-19.592s34.665 6.958 47.299 19.592 19.592 29.432 19.592 47.299-6.958 34.665-19.592 47.299z" fill="#bd0710"/></g></g></g></g></svg>