<svg id="Capa_1" enable-background="new 0 0 512 512" height="512" viewBox="0 0 512 512" width="512" xmlns="http://www.w3.org/2000/svg"><g><path d="m431.603 97.844c-7.633-8.296-20.063-10.044-29.688-4.175l-58.638 41.805-25.722 15.31c-6.136 3.652-13.666 4.087-20.181 1.167-10.717-4.804-17.614-15.454-17.614-27.199v-1.156h-45.453v.229c0 11.745-6.897 22.394-17.614 27.199l-2.069.928c-6.515 2.921-14.045 2.486-20.181-1.166l-25.722-15.31-58.638-41.805c-9.625-5.868-22.055-4.12-29.688 4.175-9.926 10.787-7.736 27.916 4.585 35.859l101.922 72.116c4.989 3.406 7.973 9.057 7.973 15.098v259.972c0 17.182 13.929 31.111 31.111 31.111.512 0 1.022-.012 1.528-.037 16.078-.778 28.484-14.53 28.484-30.626v-90.829c3.688 13.539 16.282 23.405 31.103 22.898 16.863-.577 30.02-14.887 30.02-31.76v-160.73c0-6.041 2.984-11.692 7.973-15.098l101.922-72.116c12.323-7.944 14.514-25.073 4.587-35.86z" fill="#60b7ff"/><path d="m427.021 133.698-101.924 72.122c-4.994 3.401-7.975 9.052-7.975 15.1v160.722c0 16.876-13.152 31.191-30.018 31.761-4.273.151-8.363-.57-12.098-1.98 11.904-4.542 20.234-16.349 20.234-29.781v-173.96c0-6.038 2.981-11.688 7.975-15.1l101.915-72.112c10.343-6.673 13.55-19.815 8.438-30.244 6.651-.183 13.281 2.443 18.038 7.62 9.924 10.785 7.728 27.909-4.585 35.852z" fill="#26a6fe"/><circle cx="256.991" cy="68.818" fill="#fed2a4" r="68.818"/><g><path d="m256.78 108.02c-7.795 0-14.976-3.562-19.699-9.771-2.508-3.296-1.868-8.002 1.429-10.51 3.295-2.508 8.002-1.869 10.51 1.429 1.862 2.448 4.691 3.853 7.761 3.853 3.084 0 5.921-1.415 7.783-3.883 2.496-3.306 7.199-3.964 10.505-1.469 3.307 2.495 3.964 7.198 1.47 10.504-4.725 6.257-11.926 9.847-19.759 9.847z" fill="#f6a96c"/></g><path d="m325.806 68.815c0 38.015-30.81 68.825-68.816 68.825-20.292 0-38.536-8.785-51.129-22.762 10.626 6.737 23.238 10.635 36.757 10.635 38.006 0 68.816-30.81 68.816-68.825 0-17.705-6.692-33.865-17.687-46.054 19.267 12.19 32.059 33.695 32.059 58.181z" fill="#ffbd86"/><g><path d="m255.999 394.116c-4.271 0-7.733-3.462-7.733-7.733v-42.33c0-4.271 3.462-7.733 7.733-7.733s7.733 3.462 7.733 7.733v42.33c.001 4.271-3.462 7.733-7.733 7.733z" fill="#26a6fe"/></g><path d="m484.705 238.021 14.521-34.574c2.017-4.803-3.214-9.428-7.724-6.82-17.608 10.182-51.785 26.623-105.786 39.395-85.269 20.168-174.169 20.168-259.439 0-54.001-12.772-88.177-29.213-105.785-39.395-4.51-2.608-9.741 2.017-7.724 6.82l14.521 34.574c.882 2.1.362 4.528-1.303 6.082l-23.624 22.048c-2.918 2.723-2.016 7.575 1.699 9.036 107.267 42.172 257.161 41.351 257.161 41.351s139.939.821 246.723-41.348c3.709-1.465 4.609-6.312 1.693-9.033l-23.629-22.054c-1.666-1.554-2.186-3.982-1.304-6.082z" fill="#ee6161"/><path d="m507.948 275.188c-8.382 3.31-16.96 6.351-25.662 9.145 1.722-2.124 1.691-5.402-.516-7.465l-23.775-22.187c-1.67-1.557-2.196-4-1.309-6.114l14.609-34.786c.979-2.33.258-4.629-1.268-6.083 8.846-4.093 15.97-7.887 21.476-11.073 4.505-2.608 9.743 2.021 7.722 6.825l-14.517 34.57c-.887 2.103-.361 4.526 1.299 6.083l23.631 22.053c2.919 2.722 2.012 7.568-1.69 9.032z" fill="#e94444"/></g></svg>