<svg height="464pt" viewBox="0 -24 464 464" width="464pt" xmlns="http://www.w3.org/2000/svg"><path d="m40 0h384v384h-384zm0 0" fill="#f4f4e6"/><path d="m40 0h192v384h-192zm0 0" fill="#fef9e1"/><path d="m0 16h40v32h-40zm0 0" fill="#f9bb4b"/><path d="m0 80h40v32h-40zm0 0" fill="#5ab89d"/><path d="m424 40h40v32h-40zm0 0" fill="#5ab89d"/><path d="m424 104h40v32h-40zm0 0" fill="#f3bb59"/><path d="m0 184h40v32h-40zm0 0" fill="#f9bb4b"/><path d="m272 311.996094 16-96.003906 96.003906 16-16 96.003906zm0 0" fill="#5ab89d"/><path d="m392 80-24-24 8-8c6.78125-6.25 17.21875-6.25 24 0 6.25 6.78125 6.25 17.21875 0 24zm0 0" fill="#aabece"/><path d="m280.003906 144.003906 87.996094-88 24.003906 24.003906-88 87.996094zm0 0" fill="#d75745"/><path d="m256 192 24-48 24 24zm0 0" fill="#aabece"/><g fill="#ffd782"><path d="m256 24h16v16h-16zm0 0"/><path d="m288 24h64v16h-64zm0 0"/><path d="m256 56h32v16h-32zm0 0"/><path d="m64 24h144v16h-144zm0 0"/><path d="m224 24h16v16h-16zm0 0"/><path d="m64 56h64v16h-64zm0 0"/><path d="m144 56h16v16h-16zm0 0"/><path d="m64 88h128v16h-128zm0 0"/><path d="m64 120h64v16h-64zm0 0"/><path d="m144 120h16v16h-16zm0 0"/><path d="m176 120h32v16h-32zm0 0"/><path d="m224 120h16v16h-16zm0 0"/></g><path d="m72 168h128v32h-128zm0 0" fill="#4481c3"/><path d="m72 232h128v32h-128zm0 0" fill="#4481c3"/><path d="m96 360h-32v-48h16v32h16zm0 0" fill="#ffd782"/><path d="m112 344h16v16h-16zm0 0" fill="#ffd782"/><path d="m40 384h192v32h-192zm0 0" fill="#f4f4e6"/><path d="m232 384h192v32h-192zm0 0" fill="#cfdfe8"/></svg>