<svg height="512pt" viewBox="0 0 512.00197 512" width="512pt" xmlns="http://www.w3.org/2000/svg"><path d="m0 490.539062 297.625-297.625 21.457031 21.460938-297.621093 297.621094zm0 0" fill="#deecf1"/><path d="m10.730469 501.265625 297.625-297.621094 10.726562 10.726563-297.621093 297.625zm0 0" fill="#c6e2e7"/><path d="m386.449219 251.105469c-32.167969 0-64.332031-12.242188-88.820313-36.730469-48.976562-48.976562-48.976562-128.667969 0-177.640625 48.976563-48.976563 128.664063-48.976563 177.640625 0 48.976563 48.972656 48.976563 128.664063 0 177.640625-24.488281 24.488281-56.652343 36.730469-88.820312 36.730469zm0 0" fill="#fd7eb8"/><path d="m297.628906 214.375c24.488282 24.488281 56.652344 36.730469 88.820313 36.730469 32.164062 0 64.332031-12.242188 88.820312-36.730469 48.976563-48.976562 48.976563-128.667969 0-177.640625zm0 0" fill="#fc6097"/><path d="m276.007812 36.574219 21.457032-21.457031 199.417968 199.417968-21.457031 21.457032zm0 0" fill="#fc6097"/><path d="m375.714844 136.285156 21.460937-21.460937 99.707031 99.710937-21.457031 21.457032zm0 0" fill="#ea588b"/></svg>