<svg id="Capa_1" enable-background="new 0 0 504.501 504.501" height="512" viewBox="0 0 504.501 504.501" width="512" xmlns="http://www.w3.org/2000/svg"><g><g><g><path clip-rule="evenodd" d="m60.135 254.95-24.371 30.166c-2.063 2.961-3.169 6.483-3.169 10.092 0 7.928 5.286 14.883 12.924 17.006l24.642 9.588 18.198 84.745c6.672 31.596 27.342 40.671 46.081 43.054 4.656.553 9.199.766 13.387.766h47.401c12.663 0 15.19 4.822 19.222 15.826l9.671 38.308h153.701c3.088 0 4.484.157 4.484-3.035v-94.334c0-20.307 6.894-40.06 19.738-55.79 194.399-238.087-60.205-424.95-236.887-322.766-41.337 23.906-68.781 66.156-74.815 113.525-2.412 18.934-4.624 38.955-6.306 55.035-2.214 21.176-10.522 41.253-23.901 57.814z" fill="#fed1a3" fill-rule="evenodd"/></g><path clip-rule="evenodd" d="m319.678 5.365c39.707 52.234 63.292 117.391 63.292 188.066 0 120.08-68.048 224.253-167.677 276.101l8.828 34.968h153.701c3.088 0 4.484.157 4.484-3.035v-94.334c0-20.307 6.894-40.06 19.738-55.79 140.201-171.709 46.856-316.767-82.366-345.976z" fill="#ffbc85" fill-rule="evenodd"/></g><g><path clip-rule="evenodd" d="m251.61 317.697c74.446 0 135.164-60.671 135.164-135.06 0-74.36-60.717-135.031-135.164-135.031s-135.163 60.671-135.163 135.031c0 74.389 60.717 135.06 135.163 135.06z" fill="#f8f2f0" fill-rule="evenodd"/></g><g><path clip-rule="evenodd" d="m234.092 127.821h35.037c3.76 0 6.85 3.087 6.85 6.845v23.651h23.669c3.76 0 6.821 3.058 6.821 6.816v35.039c0 3.757-3.061 6.816-6.821 6.816h-23.669v23.651c0 3.757-3.09 6.816-6.85 6.816h-35.037c-3.76 0-6.85-3.058-6.85-6.816v-23.651h-23.669c-3.76 0-6.821-3.058-6.821-6.816v-35.039c0-3.757 3.061-6.816 6.821-6.816h23.669v-23.651c0-3.758 3.089-6.845 6.85-6.845z" fill="#fd8087" fill-rule="evenodd"/></g><g><path clip-rule="evenodd" d="m386.774 182.637c0-69.933-53.226-127.429-121.376-134.332-4.547-.466-9.124-.699-13.787-.699-11.543 0-22.765 1.456-33.463 4.165 62.787 11.651 110.329 66.671 110.329 132.759 0 63.059-43.257 116.011-101.701 130.895 8.045 1.485 16.353 2.272 24.835 2.272 26.38 0 50.981-7.544 71.765-20.592 38.067-23.885 63.398-66.206 63.398-114.468z" fill="#d6dcea" fill-rule="evenodd"/></g><g><path clip-rule="evenodd" d="m299.647 158.316h-23.669v-23.651c0-3.757-3.09-6.845-6.85-6.845h-22.853c6.267 15.583 9.736 32.622 9.736 50.447 0 21.233-4.926 41.331-13.642 59.185h26.759c3.76 0 6.85-3.058 6.85-6.816v-23.651h23.669c3.76 0 6.821-3.058 6.821-6.816v-35.039c0-3.756-3.06-6.814-6.821-6.814z" fill="#fe636e" fill-rule="evenodd"/></g></g></svg>