<?xml version="1.0" encoding="iso-8859-1"?>
<!-- Generator: Adobe Illustrator 19.0.0, SVG Export Plug-In . SVG Version: 6.00 Build 0)  -->
<svg version="1.1" id="Capa_1" xmlns="http://www.w3.org/2000/svg" xmlns:xlink="http://www.w3.org/1999/xlink" x="0px" y="0px"
	 viewBox="0 0 512 512" style="enable-background:new 0 0 512 512;" xml:space="preserve">
<path style="fill:#FCDE76;" d="M364.592,424.831l61.415-61.415c1.696-1.697,4.061-2.549,6.449-2.331
	c2.389,0.22,4.557,1.491,5.914,3.469c33.881,49.35,71.328,131.386,72.906,134.854c1.393,3.063,0.74,6.671-1.64,9.05
	c-1.547,1.547-3.612,2.364-5.71,2.364c-1.129,0-2.268-0.237-3.341-0.724c-3.468-1.577-85.504-39.025-134.854-72.906
	c-1.978-1.358-3.249-3.526-3.469-5.914C362.042,428.89,362.895,426.528,364.592,424.831z"/>
<path style="fill:#FACF57;" d="M364.592,424.831l13.622-13.622c-1.696,1.696-2.551,4.059-2.331,6.449
	c0.22,2.389,1.491,4.557,3.469,5.914c42.685,29.304,109.811,61.272,129.413,70.396c1.425,3.061,2.298,4.973,2.51,5.442
	c1.393,3.063,0.74,6.671-1.64,9.05c-1.547,1.547-3.612,2.364-5.71,2.364c-1.129,0-2.268-0.237-3.341-0.724
	c-3.468-1.577-85.504-39.025-134.854-72.906c-1.978-1.358-3.249-3.526-3.469-5.914C362.041,428.891,362.895,426.528,364.592,424.831
	z"/>
<path style="fill:#787485;" d="M485.005,445.462c15.167,29.581,26.161,53.707,26.271,53.948c1.393,3.063,0.74,6.671-1.64,9.05
	c-1.547,1.547-3.612,2.364-5.71,2.364c-1.129,0-2.268-0.237-3.341-0.724c-0.24-0.109-24.367-11.104-53.948-26.271"/>
<path style="fill:#696578;" d="M460.244,470.219c22.555,11.564,41.152,21.473,49.194,25.21c1.164,2.505,1.81,3.923,1.836,3.981
	c1.393,3.063,0.74,6.671-1.64,9.05c-1.547,1.547-3.612,2.364-5.71,2.364c-1.129,0-2.268-0.237-3.341-0.724
	c-0.24-0.109-24.367-11.104-53.948-26.271L460.244,470.219z"/>
<path style="fill:#38C7C2;" d="M26.093,24.918c15.004-15.004,49.09-4.228,104.209,32.941c49.68,33.502,109.358,84.27,168.04,142.951
	s109.449,118.359,142.951,168.04c0.865,1.282,1.7,2.541,2.536,3.8l-70.008,70.008c-1.254-0.833-2.52-1.678-3.797-2.54
	c-49.68-33.502-109.358-84.27-168.04-142.951c-58.681-58.681-109.449-118.359-142.951-168.04
	C21.865,74.008,11.089,39.921,26.093,24.918z"/>
<g>
	<path style="fill:#00B5B8;" d="M26.093,24.918c2.624-2.624,5.847-4.443,9.65-5.486c-4.922,17.936,7.759,49.083,38.426,94.56
		c33.502,49.68,84.27,109.358,142.951,168.04c26.728,26.728,53.66,51.806,79.764,74.367l-15.135,15.135
		c10.792,9.327-41.985-36.588-79.764-74.367c-58.681-58.681-109.449-118.359-142.951-168.04
		C21.865,74.008,11.089,39.921,26.093,24.918z"/>
	<path style="fill:#00B5B8;" d="M385.16,424.983c1.277,0.862,2.542,1.706,3.797,2.54l-15.135,15.135
		c-1.254-0.833-2.52-1.678-3.797-2.54c-17.695-11.933-36.663-26.065-56.397-41.956l15.135-15.135
		C348.497,398.917,367.464,413.05,385.16,424.983z"/>
</g>
<path style="fill:#787485;" d="M372.709,280.573c9.328,10.794,18.225,21.443,26.627,31.878l-70.575,70.575
	c-10.435-8.403-21.086-17.299-31.878-26.627L372.709,280.573z"/>
<path style="fill:#696578;" d="M296.883,356.398c10.794,9.328,21.443,18.225,31.878,26.627l-15.135,15.135
	c-0.002-0.001-0.003-0.003-0.005-0.004c-10.433-8.401-21.082-17.296-31.873-26.623L296.883,356.398z"/>
<path style="fill:#FCDE76;" d="M13.888,12.712L13.888,12.712C30.598-3.998,57.2-11.883,127.791,56.338
	c1.556,1.504,2.444,3.571,2.462,5.735c0.019,2.165-0.833,4.246-2.364,5.777l-58.865,58.865c-1.573,1.573-3.639,2.364-5.709,2.364
	c-1.964,0-3.93-0.712-5.48-2.146C19.341,91.331,0.426,63.613,0.007,42.195C-0.291,26.89,8.584,18.015,13.888,12.712z"/>
<path style="fill:#FACF57;" d="M13.888,12.712L13.888,12.712c1.826-1.827,3.771-3.548,5.879-5.075
	c-3.896,5.249-7.333,12.325-7.145,21.945C13.04,51,31.955,78.718,70.45,114.32c1.55,1.434,3.516,2.146,5.48,2.146
	c2.07,0,4.136-0.791,5.709-2.364l-12.613,12.613c-1.573,1.573-3.639,2.364-5.709,2.364c-1.964,0-3.93-0.712-5.48-2.146
	C19.341,91.331,0.426,63.613,0.007,42.195C-0.291,26.89,8.584,18.015,13.888,12.712z"/>
<path style="fill:#F6A952;" d="M135.64,323.148c-2.961,0-5.812-1.636-7.227-4.464c-1.994-3.988-0.377-8.836,3.61-10.83
	c6.233-3.116,13.715-8.213,13.968-14.796c0.265-6.923-7.098-15.048-14.511-19.495c-63.529-38.117-95.74-75.074-95.74-109.843
	c0-23.902,17.258-41.16,22.929-46.831l67.874-67.874c3.152-3.152,8.263-3.152,11.415,0c3.153,3.152,3.153,8.263,0,11.415
	l-67.874,67.874c-12.247,12.248-18.201,23.831-18.201,35.415c0,28.299,30.396,61.495,87.902,95.999
	c10.66,6.396,22.907,19.128,22.337,33.959c-0.307,7.988-4.525,19.439-22.88,28.616C138.084,322.872,136.852,323.148,135.64,323.148z
	"/>
<g>
</g>
<g>
</g>
<g>
</g>
<g>
</g>
<g>
</g>
<g>
</g>
<g>
</g>
<g>
</g>
<g>
</g>
<g>
</g>
<g>
</g>
<g>
</g>
<g>
</g>
<g>
</g>
<g>
</g>
</svg>
