<svg id="Layer_1" enable-background="new 0 0 497 497" height="512" viewBox="0 0 497 497" width="512" xmlns="http://www.w3.org/2000/svg"><path d="m361.333 407h-30v45l45 45h30z" fill="#adf5ff"/><path d="m135.667 407-45 90h285.666l-45-90z" fill="#d6faff"/><path d="m301.334 120h-30l30 167.511c0 8.28 6.71 14.5 15 14.5 8.28 0 15-6.22 15-14.5v-137.511c0-16.5-13.5-30-30-30z" fill="#2275ff"/><path d="m195.667 120h30l-30 167.011c0 8.28-6.72 15-15 15s-15-6.72-15-15v-137.011c0-16.5 13.5-30 30-30z" fill="#10beff"/><path d="m301.334 150c0-16.5-13.5-30-30-30h-45.667c-16.5 0-30 13.5-30 30v283.084c0 10.447 8.469 18.916 18.917 18.916 10.447 0 18.917-8.469 18.917-18.916v-146.073h30v146.073c0 10.447 8.469 18.916 18.917 18.916 10.447 0 18.916-8.469 18.916-18.916z" fill="#199aff"/><path d="m248.829 0v90c24.853 0 45-20.147 45-45s-20.147-45-45-45z" fill="#2275ff"/><path d="m263.829 45c0-24.853-6.716-45-15-45-24.853 0-45 20.147-45 45s20.147 45 45 45c8.285 0 15-20.147 15-45z" fill="#199aff"/></svg>