<svg height="512" viewBox="0 0 64 64" width="512" xmlns="http://www.w3.org/2000/svg"><g id="flat"><path d="m3 49h4v8h-4z" fill="#e97424"/><path d="m7 47h4v12h-4z" fill="#50b4f8"/><path d="m11 49h8v8h-8z" fill="#2d75bb"/><path d="m57 49h4v8h-4z" fill="#e97424" transform="matrix(-1 0 0 -1 118 106)"/><path d="m53 47h4v12h-4z" fill="#50b4f8" transform="matrix(-1 0 0 -1 110 106)"/><path d="m45 49h8v8h-8z" fill="#2d75bb" transform="matrix(-1 0 0 -1 98 106)"/><path d="m51 24a19 19 0 1 0 -22 18.741v4.259h6v-4.259a18.989 18.989 0 0 0 16-18.741z" fill="#dd3e46"/><path d="m37 50v-3h-10v3h-8v6h8v3h10v-3h8v-6z" fill="#50b4f8"/><path d="m47 24c0 .34-.01.67-.04 1a14.765 14.765 0 0 1 -1.32 5.23 13.324 13.324 0 0 1 -.97 1.78 14.252 14.252 0 0 1 -1.86 2.38 14.533 14.533 0 0 1 -1.48 1.35 14.983 14.983 0 0 1 -19.2-.45 13.6 13.6 0 0 1 -1.42-1.42 14.9 14.9 0 0 1 -1.7-2.38 14.625 14.625 0 0 1 -1.97-6.49c-.03-.33-.04-.66-.04-1s.01-.67.04-1a15.2 15.2 0 0 1 1.59-5.8 15.353 15.353 0 0 1 2.08-3.07 14.641 14.641 0 0 1 1.42-1.42 15.141 15.141 0 0 1 2.59-1.83 13.8 13.8 0 0 1 1.83-.85 14.636 14.636 0 0 1 4.45-.99c.33-.03.66-.04 1-.04s.67.01 1 .04a14.636 14.636 0 0 1 4.45.99 13.859 13.859 0 0 1 1.83.86 14.707 14.707 0 0 1 2.59 1.82 13.6 13.6 0 0 1 1.42 1.42 15.073 15.073 0 0 1 2.08 3.07 13.59 13.59 0 0 1 .79 1.84 14.515 14.515 0 0 1 .8 3.96c.03.33.04.66.04 1z" fill="#f4f4e6"/><path d="m14 52h2v2h-2z" fill="#f4f4e6"/><path d="m29 52h2v2h-2z" fill="#f4f4e6"/><path d="m33 52h2v2h-2z" fill="#f4f4e6"/><path d="m48 52h2v2h-2z" fill="#f4f4e6"/><path d="m26 31a1 1 0 0 1 -.707-1.707l4-4a1 1 0 0 1 1.414 1.414l-4 4a1 1 0 0 1 -.707.293z" fill="#dd3e46"/><g fill="#f9bb4b"><path d="m33 9.04v3.96h-2v-3.96c.33-.03.66-.04 1-.04s.67.01 1 .04z"/><path d="m21 23v2h-3.96c-.03-.33-.04-.66-.04-1s.01-.67.04-1z"/><path d="m47 24c0 .34-.01.67-.04 1h-3.96v-2h3.96c.03.33.04.66.04 1z"/><path d="m24.71 32.71-2.58 2.58a13.6 13.6 0 0 1 -1.42-1.42l2.58-2.58z"/><path d="m43.29 14.13-2.58 2.58-1.42-1.42 2.58-2.58a13.6 13.6 0 0 1 1.42 1.42z"/><path d="m46.16 19.04-3.71 1.85-.9-1.78 3.82-1.91a13.59 13.59 0 0 1 .79 1.84z"/><path d="m39.28 10.89-2.45 3.66-1.66-1.1 2.28-3.42a13.859 13.859 0 0 1 1.83.86z"/><path d="m24.71 15.29-1.42 1.42-2.58-2.58a14.641 14.641 0 0 1 1.42-1.42z"/><path d="m22.45 19.11-.9 1.78-3.7-1.85a14.931 14.931 0 0 1 .78-1.84z"/><path d="m28.83 13.45-1.66 1.1-2.45-3.67a13.8 13.8 0 0 1 1.83-.85z"/><path d="m22.6 28.8-3.59 2.69a14.655 14.655 0 0 1 -.9-1.82l3.29-2.47z"/><path d="m42.81 34.39a14.533 14.533 0 0 1 -1.48 1.35l-3.04-3.03 1.42-1.42z"/><path d="m45.64 30.23a13.324 13.324 0 0 1 -.97 1.78l-4.27-3.21 1.2-1.6z"/></g><path d="m29 31h2v2h-2z" fill="#e97424"/><path d="m33 31h2v2h-2z" fill="#e97424"/><path d="m34 23a1 1 0 0 1 -.707-1.707l4-4a1 1 0 0 1 1.414 1.414l-4 4a1 1 0 0 1 -.707.293z" fill="#dd3e46"/><circle cx="32" cy="24" fill="#e97424" r="3"/></g></svg>