<?xml version="1.0" encoding="iso-8859-1"?>
<!-- Generator: Adobe Illustrator 19.0.0, SVG Export Plug-In . SVG Version: 6.00 Build 0)  -->
<svg version="1.1" id="Capa_1" xmlns="http://www.w3.org/2000/svg" xmlns:xlink="http://www.w3.org/1999/xlink" x="0px" y="0px"
	 viewBox="0 0 512 512" style="enable-background:new 0 0 512 512;" xml:space="preserve">
<polygon style="fill:#C06100;" points="447.145,182.5 447.145,212.5 382.795,212.5 327.735,255.76 356.325,265.14 346.985,293.65 
	306.085,280.23 306.085,432.46 352.255,512 174.665,512 220.845,432.46 220.845,333.1 166.915,291.24 185.315,267.54 
	220.845,295.12 220.845,270.37 199.535,241.08 119.605,241.08 89.895,152.84 118.325,143.27 141.155,211.08 177.715,211.08 
	155.725,180.87 179.985,163.21 201.925,193.37 217.955,163.41 164.595,96.87 109.925,112.75 64.855,80.89 82.165,56.39 
	115.435,79.91 144.275,71.53 106.475,24.38 129.875,5.62 203.525,97.46 219.485,67.46 206.795,32.06 235.035,21.94 252.205,69.83 
	223.945,122.94 253.745,160.1 221.535,220.32 243.485,250.49 285.895,250.49 305.105,235.39 301.085,217.5 266.035,230.42 
	264.295,225.7 255.655,202.27 264.295,199.09 294.455,187.97 285.065,146.19 299.555,136 264.295,93.93 263.715,93.24 263.715,0 
	293.715,0 293.715,82.34 324.175,118.68 347.465,102.29 324.815,37.09 353.155,27.24 372.985,84.34 424.495,48.11 441.755,72.65 
	377.615,117.77 427.045,133.78 417.795,162.32 346.915,139.36 318.735,159.19 331.245,214.86 372.425,182.5 "/>
<polygon style="fill:#9A4C00;" points="447.145,182.5 447.145,212.5 382.795,212.5 327.735,255.76 356.325,265.14 346.985,293.65 
	306.085,280.23 306.085,432.46 352.255,512 264.295,512 264.295,250.49 285.895,250.49 305.105,235.39 301.085,217.5 
	266.035,230.42 264.295,225.7 264.295,199.09 294.455,187.97 285.065,146.19 299.555,136 264.295,93.93 264.295,0 293.715,0 
	293.715,82.34 324.175,118.68 347.465,102.29 324.815,37.09 353.155,27.24 372.985,84.34 424.495,48.11 441.755,72.65 
	377.615,117.77 427.045,133.78 417.795,162.32 346.915,139.36 318.735,159.19 331.245,214.86 372.425,182.5 "/>
<g>
</g>
<g>
</g>
<g>
</g>
<g>
</g>
<g>
</g>
<g>
</g>
<g>
</g>
<g>
</g>
<g>
</g>
<g>
</g>
<g>
</g>
<g>
</g>
<g>
</g>
<g>
</g>
<g>
</g>
</svg>
