<svg height="511pt" viewBox="0 -20 511.99971 511" width="511pt" xmlns="http://www.w3.org/2000/svg"><path d="m512 79.433594v45.042968l-86.96875-9.902343c-13.316406-1.515625-26.546875 3.476562-35.539062 13.414062l-37.082032 40.96875-220.320312-47.390625-56.414063-62.4375 84.648438-46.960937c21.074219-11.691407 45.867187-14.738281 69.148437-8.5zm0 0" fill="#e5e5e5"/><path d="m229.472656 3.667969 86.898438 23.296875c-31.058594-8.128906-64.144532-1.769532-89.964844 17.351562l-65.640625 48.578125-60.789063 6.183594-24.300781-39.949219 84.648438-46.960937c21.074219-11.691407 45.867187-14.738281 69.148437-8.5zm0 0" fill="#cbcbcb"/><path d="m364.730469 192.964844c0 3.460937-.636719 6.980468-1.996094 10.386718-5.722656 14.425782-22.035156 21.496094-36.460937 15.835938l-210.511719-83.542969-.011719-.011719-55.375-21.972656c-11.054688-4.394531-17.785156-14.992187-17.785156-26.199218 0-3.460938.640625-6.96875 1.988281-10.375 5.742187-14.449219 22.113281-21.519532 36.574219-15.789063l55.386718 21.996094 55.398438 21.980469 155.257812 61.613281c10.90625 4.445312 17.535157 14.964843 17.535157 26.078125zm0 0" fill="#1876a9"/><path d="m364.730469 192.964844c0 3.460937-.636719 6.980468-1.996094 10.386718-5.722656 14.425782-22.035156 21.496094-36.460937 15.835938l-210.511719-83.542969-.011719-.011719c-11.03125-4.394531-17.761719-14.984374-17.761719-26.179687 0-3.460937.636719-6.96875 1.988281-10.375 5.742188-14.460937 22.113282-21.53125 36.5625-15.785156l55.398438 21.980469 155.257812 61.613281c10.90625 4.445312 17.535157 14.964843 17.535157 26.078125zm0 0" fill="#4297d0"/><g fill="#ace4ea"><path d="m7.726562 471.542969c-.5 0-1.011718-.046875-1.523437-.152344-4.179687-.835937-6.890625-4.902344-6.050781-9.082031l63.078125-314.722656c.839843-4.179688 4.90625-6.890626 9.085937-6.050782 4.179688.839844 6.886719 4.90625 6.050782 9.085938l-63.078126 314.722656c-.738281 3.664062-3.957031 6.199219-7.5625 6.199219zm0 0"/><path d="m330.300781 471.542969c-3.882812 0-7.222656-2.914063-7.664062-6.863281l-24.371094-218.15625c-.472656-4.238282 2.574219-8.054688 6.8125-8.527344 4.25-.480469 8.054687 2.578125 8.527344 6.8125l24.375 218.160156c.472656 4.234375-2.578125 8.054688-6.8125 8.527344-.292969.03125-.582031.046875-.867188.046875zm0 0"/><path d="m68.800781 471.542969c-.359375 0-.722656-.023438-1.089843-.074219-4.222657-.597656-7.160157-4.503906-6.5625-8.726562l14.777343-104.425782 27.46875-194.195312c.597657-4.222656 4.507813-7.160156 8.722657-6.5625 4.222656.597656 7.160156 4.503906 6.5625 8.722656l-31.769532 224.609375-10.476562 74.015625c-.542969 3.855469-3.847656 6.636719-7.632813 6.636719zm0 0"/><path d="m265.929688 471.542969c-4.101563 0-7.515626-3.226563-7.707032-7.363281l-10.289062-224.195313c-.195313-4.257813 3.097656-7.867187 7.355468-8.066406 4.269532-.191407 7.867188 3.101562 8.0625 7.359375l10.292969 224.195312c.195313 4.257813-3.097656 7.867188-7.355469 8.0625-.121093.003906-.242187.007813-.359374.007813zm0 0"/><path d="m140.984375 471.542969c-.175781 0-.347656-.003907-.523437-.015625-4.253907-.285156-7.472657-3.964844-7.1875-8.21875l18.105468-270.460938c.285156-4.253906 3.976563-7.472656 8.21875-7.1875 4.253906.285156 7.46875 3.964844 7.183594 8.214844l-18.105469 270.464844c-.273437 4.078125-3.664062 7.203125-7.691406 7.203125zm0 0"/><path d="m199.878906 471.542969c-.078125 0-.160156 0-.242187-.003907-4.261719-.128906-7.609375-3.691406-7.476563-7.953124l7.71875-250.34375c.132813-4.261719 3.695313-7.605469 7.953125-7.480469 4.261719.132812 7.609375 3.691406 7.476563 7.953125l-7.71875 250.347656c-.128906 4.179688-3.558594 7.480469-7.710938 7.480469zm0 0"/></g><path d="m323.597656 28.910156-2.964844-.800781 2.953126.792969zm0 0" fill="#1876a9"/></svg>