<svg height="512pt" viewBox="0 0 512 512.001" width="512pt" xmlns="http://www.w3.org/2000/svg"><path d="m71.570312 497.859375c-3.839843 0-7.679687-1.464844-10.605468-4.394531l-42.429688-42.425782c-2.8125-2.8125-4.394531-6.628906-4.394531-10.605468 0-3.980469 1.582031-7.796875 4.394531-10.609375l107.230469-107.226563c5.855469-5.859375 15.355469-5.859375 21.210937 0l42.429688 42.425782c2.8125 2.8125 4.394531 6.628906 4.394531 10.605468 0 3.976563-1.582031 7.792969-4.394531 10.605469l-107.230469 107.230469c-2.929687 2.929687-6.769531 4.394531-10.605469 4.394531zm0 0" fill="#8f5040"/><path d="m60.960938 493.464844c2.929687 2.929687 6.769531 4.394531 10.605468 4.394531 3.839844 0 7.679688-1.464844 10.609375-4.394531l107.226563-107.230469c2.8125-2.8125 4.394531-6.628906 4.394531-10.605469 0-3.976562-1.578125-7.792968-4.394531-10.605468l-21.210938-21.214844-128.441406 128.441406zm0 0" fill="#7d4436"/><path d="m200.011719 411.84375c-3.980469 0-7.792969-1.582031-10.605469-4.394531l-84.855469-84.855469c-2.8125-2.8125-4.394531-6.628906-4.394531-10.605469 0-3.976562 1.582031-7.792969 4.394531-10.605469l113.140625-113.136718c5.855469-5.859375 15.355469-5.859375 21.210938 0l84.855468 84.851562c5.855469 5.855469 5.855469 15.355469 0 21.214844l-113.140624 113.136719c-2.8125 2.8125-6.628907 4.394531-10.605469 4.394531zm0 0" fill="#c2886c"/><path d="m189.40625 407.449219c2.8125 2.8125 6.628906 4.394531 10.605469 4.394531 3.976562 0 7.792969-1.582031 10.605469-4.394531l113.136718-113.140625c5.859375-5.855469 5.859375-15.355469 0-21.210938l-42.425781-42.425781-134.347656 134.347656zm0 0" fill="#a66856"/><path d="m486.9375 161.367188c-3.945312 0-7.773438-1.558594-10.605469-4.394532l-121.304687-121.304687c-3.382813-3.382813-4.949219-8.171875-4.214844-12.898438.730469-4.726562 3.671875-8.820312 7.917969-11.023437 14.820312-7.683594 31.507812-11.746094 48.269531-11.746094 57.898438 0 105 47.101562 105 105 0 16.761719-4.0625 33.449219-11.746094 48.269531-2.203125 4.246094-6.296875 7.1875-11.023437 7.917969-.765625.121094-1.53125.179688-2.292969.179688zm0 0" fill="#d2fafa"/><path d="m327.289062 312.847656c-3.976562 0-7.792968-1.582031-10.605468-4.394531l-113.136719-113.136719c-2.8125-2.8125-4.394531-6.628906-4.394531-10.605468 0-3.980469 1.582031-7.796876 4.394531-10.605469l113.136719-113.140625c5.859375-5.855469 15.355468-5.855469 21.214844 0l113.136718 113.136718c5.859375 5.859376 5.859375 15.355469 0 21.214844l-113.136718 113.136719c-2.8125 2.8125-6.628907 4.394531-10.609376 4.394531zm0 0" fill="#5a5a6b"/><path d="m316.683594 308.453125c2.8125 2.8125 6.628906 4.394531 10.605468 4.394531 3.980469 0 7.796876-1.582031 10.609376-4.394531l113.136718-113.136719c5.855469-5.859375 5.855469-15.355468 0-21.214844l-56.570312-56.566406-134.347656 134.347656zm0 0" fill="#464655"/><path d="m415.679688 96.320312 60.652343 60.652344c2.832031 2.835938 6.65625 4.394532 10.605469 4.394532.761719 0 1.527344-.058594 2.292969-.175782 4.726562-.730468 8.820312-3.675781 11.023437-7.917968 7.683594-14.824219 11.746094-31.511719 11.746094-48.273438 0-28.949219-11.777344-55.199219-30.789062-74.210938zm0 0" fill="#aaebeb"/><path d="m454.570312 213.851562c-3.839843 0-7.679687-1.464843-10.605468-4.394531l-141.421875-141.421875c-5.859375-5.855468-5.859375-15.351562 0-21.210937l42.425781-42.425781c5.855469-5.859376 15.355469-5.859376 21.214844 0l141.417968 141.417968c5.859376 5.859375 5.859376 15.355469 0 21.214844l-42.425781 42.425781c-2.929687 2.929688-6.769531 4.394531-10.605469 4.394531zm0 0" fill="#fae114"/><path d="m443.964844 209.457031c2.925781 2.929688 6.765625 4.394531 10.605468 4.394531 3.835938 0 7.675782-1.464843 10.605469-4.394531l42.425781-42.425781c5.859376-5.855469 5.859376-15.355469 0-21.214844l-70.710937-70.707031-63.636719 63.636719zm0 0" fill="#f0d205"/><path d="m85.710938 512c-3.839844 0-7.679688-1.464844-10.605469-4.394531l-70.710938-70.710938c-5.859375-5.855469-5.859375-15.355469 0-21.210937 5.855469-5.859375 15.355469-5.859375 21.210938 0l70.710937 70.710937c5.859375 5.855469 5.859375 15.355469 0 21.210938-2.925781 2.929687-6.765625 4.394531-10.605468 4.394531zm0 0" fill="#fae114"/><path d="m96.316406 486.394531-35.351562-35.355469-21.214844 21.214844 35.355469 35.351563c2.929687 2.929687 6.765625 4.394531 10.605469 4.394531 3.839843 0 7.679687-1.464844 10.605468-4.394531 5.859375-5.855469 5.859375-15.355469 0-21.210938zm0 0" fill="#f0d205"/></svg>