<svg height="512" viewBox="0 0 58 58" width="512" xmlns="http://www.w3.org/2000/svg"><g id="Page-1" fill="none" fill-rule="evenodd"><g id="014---Touch-Interaction" fill-rule="nonzero"><path id="Shape" d="m29.66 46h-27.66c-1.10320187-.0032948-1.9967052-.8967981-2-2v-36h52v23z" fill="#ecf0f1"/><path id="Shape" d="m52 2v6h-52v-6c.0032948-1.10320187.89679813-1.9967052 2-2h48c1.1032019.0032948 1.9967052.89679813 2 2z" fill="#547580"/><path id="Shape" d="m48 5h-7c-.5522847 0-1-.44771525-1-1s.4477153-1 1-1h7c.5522847 0 1 .44771525 1 1s-.4477153 1-1 1z" fill="#ecf0f1"/><rect id="Rectangle-path" fill="#e64c3c" height="18" rx="2" width="22" x="5" y="13"/><path id="Shape" d="m17.721 22 5.86-4.186c.4495598-.3208774.5538774-.9454402.233-1.395s-.9454402-.5538774-1.395-.233l-6.419 4.585-6.419-4.585c-.29081419-.2075713-.67027556-.2442276-.99544469-.0961608-.32516912.1480669-.54664507.4583619-.581.814-.03435493.3556382.12363049.7025895.41444469.9101608l5.86 4.186-5.86 4.186c-.44955978.3208774-.55387742.9454402-.23299999 1.395.32087744.4495598.9454402.5538774 1.39499999.233l6.419-4.585 6.419 4.585c.4495598.3208774 1.0741226.2165598 1.395-.233s.2165598-1.0741226-.233-1.395z" fill="#fff"/><path id="Shape" d="m58 34.169v9.791c.0004542.6817657-.1715468 1.3525695-.5 1.95l-4 7.18c-.3284532.5974305-.5004542 1.2682343-.5 1.95v.96c0 1.1045695-.8954305 2-2 2h-14c-1.1045695 0-2-.8954305-2-2v-.79c.0000314-.7930399-.2348489-1.5683189-.675-2.228l-4.655-6.972c0-.0055228-.0044772-.01-.01-.01-.4305014-.6566847-.6598881-1.4247827-.66-2.21v-5.326c-.0001759-.9402907.3288571-1.850969.93-2.574l2.07-2.49 2-2.4v-15c0-1.6568542 1.3431458-3 3-3 .3415766-.0021256.6806042.0588994 1 .18 1.201836.41463 2.0061167 1.5486659 2 2.82v12c0-1.6568542 1.3431458-3 3-3 .3415766-.0021256.6806042.0588994 1 .18 1.201836.41463 2.0061167 1.5486659 2 2.82v3c0-1.6568542 1.3431458-3 3-3 .3415766-.0021256.6806042.0588994 1 .18 1.201836.41463 2.0061167 1.5486659 2 2.82v3c-.0000216-.8338855.3470372-1.6301553.9579138-2.1977772.6108766-.567622 1.430446-.8553744 2.2620862-.7942228 1.6061355.1733932 2.8131884 1.545873 2.78 3.161z" fill="#fdd7ad"/><g fill="#f9c795"><path id="Shape" d="m34 31v9c0 .5522847-.4477153 1-1 1s-1-.4477153-1-1v-6.6z"/><path id="Shape" d="m40 16v20c0 .5522847-.4477153 1-1 1s-1-.4477153-1-1v-22.82c1.201836.41463 2.0061167 1.5486659 2 2.82z"/><path id="Shape" d="m46 28v8c0 .5522847-.4477153 1-1 1s-1-.4477153-1-1v-10.82c1.201836.41463 2.0061167 1.5486659 2 2.82z"/><path id="Shape" d="m52 31v5c0 .5522847-.4477153 1-1 1s-1-.4477153-1-1v-7.82c1.201836.41463 2.0061167 1.5486659 2 2.82z"/></g><path id="Shape" d="m11 36h-6c-.55228475 0-1-.4477153-1-1s.44771525-1 1-1h6c.5522847 0 1 .4477153 1 1s-.4477153 1-1 1z" fill="#464f5d"/><path id="Shape" d="m24 36h-8c-.5522847 0-1-.4477153-1-1s.4477153-1 1-1h8c.5522847 0 1 .4477153 1 1s-.4477153 1-1 1z" fill="#464f5d"/><path id="Shape" d="m24 40h-19c-.55228475 0-1-.4477153-1-1s.44771525-1 1-1h19c.5522847 0 1 .4477153 1 1s-.4477153 1-1 1z" fill="#464f5d"/><circle id="Oval" cx="4" cy="4" fill="#e64c3c" r="1"/><circle id="Oval" cx="8" cy="4" fill="#f0c419" r="1"/><circle id="Oval" cx="12" cy="4" fill="#24ae5f" r="1"/></g></g></svg>