<svg id="flat" height="512" viewBox="0 0 512 512" width="512" xmlns="http://www.w3.org/2000/svg"><path d="m408 368v32a8 8 0 0 1 -8 8h-288a8 8 0 0 1 -8-8v-32z" fill="#a27b60"/><path d="m136 136h240v240h-240z" fill="#3775a4"/><path d="m304 247.25a40.007 40.007 0 0 1 -34.49 24.41c-.79.06-1.59.08-2.39.08a40 40 0 0 1 -4.53-79.74q-.15.465-.27.93a41.8 41.8 0 0 0 33.68 53.07z" fill="#fbca75"/><path d="m304 247.25a40.007 40.007 0 0 1 -34.49 24.41 40 40 0 0 1 -7.19-78.73 41.8 41.8 0 0 0 33.68 53.07z" fill="#fbb540"/><path d="m311.03 384.97a23.917 23.917 0 0 1 -6.69-12.99 22.663 22.663 0 0 1 -.34-3.98 24.019 24.019 0 0 1 17.03-22.97 24.113 24.113 0 0 1 9.15-12.65 32.018 32.018 0 0 1 45.82-16.1v67.72z" fill="#f3f3f0"/><path d="m310.115 384a23.869 23.869 0 0 1 -5.775-12.02 24.032 24.032 0 0 1 16.69-18.95 24.113 24.113 0 0 1 9.15-12.65 32.018 32.018 0 0 1 45.82-16.1v59.72z" fill="#e4e4e2"/><path d="m256 276a27.693 27.693 0 0 1 -.29 4 28 28 0 0 1 -27.71 24h-72a27.986 27.986 0 0 1 -27.71-24.01 27.554 27.554 0 0 1 -.29-3.99 28 28 0 0 1 17.1-25.8 15.917 15.917 0 0 1 18.89-9.68 32.007 32.007 0 0 1 59 7.48h5.01a28 28 0 0 1 28 28z" fill="#f3f3f0"/><path d="m255.71 280a28 28 0 0 1 -27.71 24h-72a27.986 27.986 0 0 1 -27.71-24.01 27.994 27.994 0 0 1 16.81-21.79 15.917 15.917 0 0 1 18.89-9.68 32.007 32.007 0 0 1 59 7.48h5.01a27.989 27.989 0 0 1 27.71 24z" fill="#e4e4e2"/><path d="m331.889 167.211 3.787 11.656a2.083 2.083 0 0 0 1.981 1.439h12.256a2.083 2.083 0 0 1 1.224 3.769l-9.915 7.2a2.084 2.084 0 0 0 -.757 2.329l3.788 11.656a2.083 2.083 0 0 1 -3.206 2.329l-9.915-7.2a2.085 2.085 0 0 0 -2.449 0l-9.915 7.2a2.083 2.083 0 0 1 -3.206-2.329l3.787-11.656a2.082 2.082 0 0 0 -.756-2.329l-9.915-7.2a2.083 2.083 0 0 1 1.224-3.769h12.256a2.083 2.083 0 0 0 1.981-1.439l3.787-11.656a2.084 2.084 0 0 1 3.963 0z" fill="#ea9d2d"/><path d="m259.889 313.439 3.787 11.656a2.083 2.083 0 0 0 1.981 1.44h12.256a2.083 2.083 0 0 1 1.224 3.768l-9.915 7.2a2.085 2.085 0 0 0 -.757 2.329l3.788 11.656a2.083 2.083 0 0 1 -3.206 2.329l-9.915-7.2a2.085 2.085 0 0 0 -2.449 0l-9.915 7.2a2.083 2.083 0 0 1 -3.206-2.329l3.787-11.656a2.083 2.083 0 0 0 -.756-2.329l-9.915-7.2a2.083 2.083 0 0 1 1.224-3.768h12.256a2.083 2.083 0 0 0 1.981-1.44l3.787-11.656a2.084 2.084 0 0 1 3.963 0z" fill="#ea9d2d"/><path d="m408 144h-304v-32a8 8 0 0 1 8-8h288a8 8 0 0 1 8 8z" fill="#a27b60"/><g fill="#fbb540"><path d="m176 184h16v16h-16z"/><path d="m320 280h16v16h-16z"/><path d="m200 160h16v16h-16z"/></g><path d="m376 136h106a6 6 0 0 1 6 6v228a6 6 0 0 1 -6 6h-106a0 0 0 0 1 0 0v-240a0 0 0 0 1 0 0z" fill="#bb8e6f"/><path d="m408 168h48v72h-48z" fill="#a27b60"/><path d="m408 272h48v72h-48z" fill="#a27b60"/><path d="m30 136h106a0 0 0 0 1 0 0v240a0 0 0 0 1 0 0h-106a6 6 0 0 1 -6-6v-228a6 6 0 0 1 6-6z" fill="#bb8e6f"/><path d="m56 168h48v72h-48z" fill="#a27b60"/><path d="m56 272h48v72h-48z" fill="#a27b60"/><path d="m104 376h304v15.84h-304z" fill="#8d6b54"/><path d="m128 136h8v240h-8z" fill="#c99977"/><path d="m376 136h8v240h-8z" fill="#c99977"/></svg>