<?xml version="1.0" encoding="UTF-8" standalone="no"?>
<svg
   xmlns:dc="http://purl.org/dc/elements/1.1/"
   xmlns:cc="http://creativecommons.org/ns#"
   xmlns:rdf="http://www.w3.org/1999/02/22-rdf-syntax-ns#"
   xmlns:svg="http://www.w3.org/2000/svg"
   xmlns="http://www.w3.org/2000/svg"
   xmlns:sodipodi="http://sodipodi.sourceforge.net/DTD/sodipodi-0.dtd"
   xmlns:inkscape="http://www.inkscape.org/namespaces/inkscape"
   inkscape:export-ydpi="824"
   inkscape:export-xdpi="824"
   inkscape:export-filename="/Users/mike.xiao/Documents/GitHub/DBT_diary_card/images/dayNightEmotion.png"
   id="emoji"
   x="0"
   y="0"
   viewBox="0 0 72 72"
   version="1.1"
   sodipodi:docname="dayNightEmotion.svg"
   inkscape:version="1.0beta2 (2b71d25, 2019-12-03)">
  <metadata
     id="metadata1186">
    <rdf:RDF>
      <cc:Work
         rdf:about="">
        <dc:format>image/svg+xml</dc:format>
        <dc:type
           rdf:resource="http://purl.org/dc/dcmitype/StillImage" />
        <dc:title />
      </cc:Work>
    </rdf:RDF>
  </metadata>
  <defs
     id="defs1184" />
  <sodipodi:namedview
     pagecolor="#ffffff"
     bordercolor="#666666"
     inkscape:document-rotation="0"
     borderopacity="1"
     objecttolerance="10"
     gridtolerance="10"
     guidetolerance="10"
     inkscape:pageopacity="0"
     inkscape:pageshadow="2"
     inkscape:window-width="1812"
     inkscape:window-height="1097"
     id="namedview1182"
     showgrid="false"
     inkscape:zoom="11.35693"
     inkscape:cx="38.465091"
     inkscape:cy="36"
     inkscape:window-x="383"
     inkscape:window-y="124"
     inkscape:window-maximized="0"
     inkscape:current-layer="emoji" />
  <g
     id="hair" />
  <g
     id="skin" />
  <g
     id="skin-shadow" />
  <g
     id="hair-1"
     transform="matrix(0.41657586,0,0,0.42690768,19.220205,-8.1369167)" />
  <g
     id="skin-7"
     transform="matrix(0.41657586,0,0,0.42690768,19.220205,-8.1369167)" />
  <g
     id="skin-shadow-55"
     transform="matrix(0.41657586,0,0,0.42690768,19.220205,-8.1369167)" />
  <g
     id="hair-0"
     transform="matrix(0.65951557,0,0,0.65951557,-4.1855215,26.18174)" />
  <g
     id="skin-2"
     transform="matrix(0.65951557,0,0,0.65951557,-4.1855215,26.18174)" />
  <g
     id="skin-shadow-4"
     transform="matrix(0.65951557,0,0,0.65951557,-4.1855215,26.18174)" />
  <g
     id="g253"
     transform="matrix(1.1879243,0,0,1.1879243,-0.67952409,-38.240433)">
    <g
       style="fill:#ff5555"
       transform="matrix(0.65951557,0,0,0.65951557,-4.5793945,26.339289)"
       id="color-8">
      <circle
         style="fill:#ff5555"
         id="circle82"
         r="22.999901"
         cy="36"
         cx="36.000099"
         fill="#FCEA2B" />
    </g>
    <g
       transform="matrix(0.65951557,0,0,0.65951557,-4.1855215,26.18174)"
       id="line-8">
      <circle
         id="circle88"
         r="23"
         cy="36"
         cx="36"
         stroke-linejoin="round"
         stroke-linecap="round"
         stroke-width="2"
         stroke="#000000"
         fill="none" />
      <path
         id="path90"
         d="m 45.8149,44.9293 c -2.8995,1.6362 -6.2482,2.5699 -9.8149,2.5699 -3.5667,0 -6.9153,-0.9336 -9.8149,-2.5699"
         stroke-linejoin="round"
         stroke-linecap="round"
         stroke-width="2"
         stroke="#000000"
         fill="none"
         inkscape:connector-curvature="0" />
      <path
         id="path92"
         d="m 30,31 c 0,1.6568 -1.3448,3 -3,3 -1.6553,0 -3,-1.3433 -3,-3 0,-1.6552 1.3447,-3 3,-3 1.6552,0 3,1.3448 3,3"
         inkscape:connector-curvature="0" />
      <path
         id="path94"
         d="m 48,31 c 0,1.6568 -1.3447,3 -3,3 -1.6553,0 -3,-1.3433 -3,-3 0,-1.6552 1.3447,-3 3,-3 1.6553,0 3,1.3448 3,3"
         inkscape:connector-curvature="0" />
    </g>
  </g>
  <g
     id="hair-05"
     transform="matrix(0.65951557,0,0,0.65951557,29.74261,27.155912)" />
  <g
     id="skin-22"
     transform="matrix(0.65951557,0,0,0.65951557,29.74261,27.155912)" />
  <g
     id="skin-shadow-7"
     transform="matrix(0.65951557,0,0,0.65951557,29.74261,27.155912)" />
  <g
     id="g244"
     transform="matrix(1.1879243,0,0,1.1879243,-13.189766,-10.213957)">
    <g
       style="fill:#5599ff"
       transform="matrix(0.65951557,0,0,0.65951557,29.74261,27.155912)"
       id="color-9">
      <path
         style="fill:#5599ff"
         id="path116"
         d="M 36,13 C 23.3177,13 13,23.3177 13,36 13,48.6822 23.3177,59 36,59 48.6822,59 59,48.6822 59,36 59,23.3177 48.6822,13 36,13 Z"
         fill="#FCEA2B"
         inkscape:connector-curvature="0" />
    </g>
    <g
       transform="matrix(0.65951557,0,0,0.65951557,29.74261,27.155912)"
       id="line-3">
      <circle
         id="circle122"
         r="23"
         cy="36"
         cx="36"
         stroke-miterlimit="10"
         stroke-width="2"
         stroke="#000000"
         fill="none" />
      <path
         id="path124"
         d="m 30,31 c 0,1.6568 -1.3448,3 -3,3 -1.6553,0 -3,-1.3433 -3,-3 0,-1.6552 1.3447,-3 3,-3 1.6552,0 3,1.3448 3,3"
         inkscape:connector-curvature="0" />
      <path
         id="path126"
         d="m 48,31 c 0,1.6568 -1.3447,3 -3,3 -1.6553,0 -3,-1.3433 -3,-3 0,-1.6552 1.3447,-3 3,-3 1.6553,0 3,1.3448 3,3"
         inkscape:connector-curvature="0" />
      <path
         id="path128"
         d="m 28,46 c 1.5805,-2.5575 4.9043,-4.1349 8.4211,-4.0038 C 39.6499,42.1166 42.5622,43.6595 44,46"
         stroke-miterlimit="10"
         stroke-linejoin="round"
         stroke-linecap="round"
         stroke-width="2"
         stroke="#000000"
         fill="none"
         inkscape:connector-curvature="0" />
    </g>
  </g>
</svg>
