<?xml version="1.0" encoding="UTF-8" standalone="no"?>
<svg
   xmlns:dc="http://purl.org/dc/elements/1.1/"
   xmlns:cc="http://creativecommons.org/ns#"
   xmlns:rdf="http://www.w3.org/1999/02/22-rdf-syntax-ns#"
   xmlns:svg="http://www.w3.org/2000/svg"
   xmlns="http://www.w3.org/2000/svg"
   xmlns:sodipodi="http://sodipodi.sourceforge.net/DTD/sodipodi-0.dtd"
   xmlns:inkscape="http://www.inkscape.org/namespaces/inkscape"
   viewBox="0 0 512 512"
   version="1.1"
   id="svg45"
   sodipodi:docname="dayNightTarget.svg"
   inkscape:version="1.0beta2 (2b71d25, 2019-12-03)"
   inkscape:export-filename="/Users/mike.xiao/Documents/GitHub/DBT_diary_card/images/dayNightTarget.png"
   inkscape:export-xdpi="115.875"
   inkscape:export-ydpi="115.875">
  <metadata
     id="metadata51">
    <rdf:RDF>
      <cc:Work
         rdf:about="">
        <dc:format>image/svg+xml</dc:format>
        <dc:type
           rdf:resource="http://purl.org/dc/dcmitype/StillImage" />
        <dc:title />
      </cc:Work>
    </rdf:RDF>
  </metadata>
  <defs
     id="defs49" />
  <sodipodi:namedview
     pagecolor="#ffffff"
     bordercolor="#666666"
     inkscape:document-rotation="0"
     borderopacity="1"
     objecttolerance="10"
     gridtolerance="10"
     guidetolerance="10"
     inkscape:pageopacity="0"
     inkscape:pageshadow="2"
     inkscape:window-width="1368"
     inkscape:window-height="975"
     id="namedview47"
     showgrid="false"
     inkscape:zoom="1.588677"
     inkscape:cx="146.16018"
     inkscape:cy="256"
     inkscape:window-x="134"
     inkscape:window-y="256"
     inkscape:window-maximized="0"
     inkscape:current-layer="svg45" />
  <g
     id="Filled_outline"
     data-name="Filled outline"
     transform="matrix(0.75475054,0,0,0.75475054,66.881103,82.605843)">
    <path
       d="M 440,488 H 392 L 383.6,472.59 344,400 h 48 l 26.02,47.71 z"
       fill="#4d5e78"
       id="path10"
       inkscape:connector-curvature="0" />
    <path
       d="M 168,400 128.5,472.41 120,488 H 72 L 93.72,448.18 120,400 Z"
       fill="#4d5e78"
       id="path12"
       inkscape:connector-curvature="0" />
    <path
       d="M 418.02,447.71 A 303.844,303.844 0 0 1 383.6,472.59 L 344,400 h 48 z"
       fill="#404f66"
       id="path14"
       inkscape:connector-curvature="0" />
    <path
       d="m 168,400 -39.5,72.41 A 289.25,289.25 0 0 1 93.72,448.18 L 120,400 Z"
       fill="#404f66"
       id="path16"
       inkscape:connector-curvature="0" />
    <path
       d="m 408.72,430.65 a 231.762,231.762 0 0 1 -305.43,-0.01 c 0,0 -0.01,0.01 -0.01,0 A 231.384,231.384 0 0 1 24.07,261.51 C 21.02,133.41 122.4,27.11 250.49,24.07 a 232,232 0 0 1 158.23,406.58 z"
       fill="#348fd9"
       id="path18"
       inkscape:connector-curvature="0" />
    <path
       d="m 479.11,192.2 -25,-10.64 -188.91,76.08 a 8,8 0 0 1 -5.97,-14.84 l 188.9,-76.08 10.29,-24.17 a 230.65,230.65 0 0 1 20.69,49.65 z"
       fill="#3086cd"
       id="path20"
       inkscape:connector-curvature="0" />
    <path
       d="m 440,256 a 183.89,183.89 0 1 1 -17.72,-78.87 q 3.435,7.2 6.23,14.74 A 183.552,183.552 0 0 1 440,256 Z"
       fill="#ffb531"
       id="path22"
       inkscape:connector-curvature="0" />
    <path
       d="M 428.51,191.87 265.2,257.64 a 8,8 0 0 1 -5.97,-14.84 l 163.05,-65.67 q 3.435,7.2 6.23,14.74 z"
       fill="#ffa912"
       id="path24"
       inkscape:connector-curvature="0" />
    <path
       d="m 392,256 a 135.915,135.915 0 1 1 -14.36,-60.89 133.846,133.846 0 0 1 6.32,14.7 A 135.89,135.89 0 0 1 392,256 Z"
       fill="#f35244"
       id="path26"
       inkscape:connector-curvature="0" />
    <path
       d="M 383.96,209.81 265.2,257.64 a 8,8 0 0 1 -5.97,-14.84 l 118.41,-47.69 a 133.846,133.846 0 0 1 6.32,14.7 z"
       fill="#ea4a3b"
       id="path28"
       inkscape:connector-curvature="0" />
    <path
       d="M 344,256 A 87.289,87.289 0 1 1 339.38,227.77 88,88 0 0 1 344,256 Z"
       fill="#ffb531"
       id="path30"
       inkscape:connector-curvature="0" />
    <path
       d="m 339.38,227.77 -74.18,29.87 a 8,8 0 0 1 -5.97,-14.84 l 73.64,-29.66 a 87.322,87.322 0 0 1 6.51,14.63 z"
       fill="#ffa912"
       id="path32"
       inkscape:connector-curvature="0" />
    <path
       d="M 296,256 A 39.989,39.989 0 1 1 294.67,245.77 40,40 0 0 1 296,256 Z"
       fill="#f35244"
       id="path34"
       inkscape:connector-curvature="0" />
    <path
       d="m 294.67,245.77 -29.47,11.87 a 8,8 0 0 1 -5.97,-14.84 l 28.31,-11.4 a 39.72,39.72 0 0 1 7.13,14.37 z"
       fill="#ea4a3b"
       id="path36"
       inkscape:connector-curvature="0" />
    <path
       d="m 400,64 v 48 l 48,-48 -8,-40 z"
       fill="#f35244"
       id="path38"
       inkscape:connector-curvature="0" />
    <path
       d="m 488,72 -40,-8 -48,48 h 48 z"
       fill="#ea4a3b"
       id="path40"
       inkscape:connector-curvature="0" />
    <path
       d="M 418.767,432.354 A 240.017,240.017 0 0 0 496,256 237.012,237.012 0 0 0 452.666,118.487 a 7.881,7.881 0 0 0 0.991,-0.83 l 40,-40 a 8,8 0 0 0 -4.088,-13.5 L 454.8,57.2 447.846,22.43 a 8,8 0 0 0 -13.5,-4.088 l -40,40 A 8,8 0 0 0 392,64 v 44.686 l -141.657,141.657 11.314,11.314 21.923,-21.924 A 32.015,32.015 0 1 1 256,224 v -16 a 47.952,47.952 0 1 0 39.137,20.177 l 22.824,-22.824 a 79.693,79.693 0 1 1 -26.52,-21.128 l 7.038,-14.37 A 96.087,96.087 0 1 0 329.318,194 l 22.663,-22.663 A 127.629,127.629 0 1 1 325.718,148.63 l 8.724,-13.412 A 143.515,143.515 0 0 0 256,112 c -79.4,0 -144,64.6 -144,144 0,79.4 64.6,144 144,144 79.4,0 144,-64.6 144,-144 a 142.936,142.936 0 0 0 -36.685,-96 l 22.634,-22.634 A 174.687,174.687 0 0 1 432,256 C 432,353.047 353.047,432 256,432 158.953,432 80,353.047 80,256 80,158.953 158.953,80 256,80 a 174.712,174.712 0 0 1 103.836,33.9 l 9.448,-12.914 A 190.615,190.615 0 0 0 256,64 C 150.131,64 64,150.131 64,256 c 0,105.869 86.131,192 192,192 105.869,0 192,-86.131 192,-192 A 190.583,190.583 0 0 0 397.27,126.044 L 403.314,120 h 30.612 A 221.321,221.321 0 0 1 480,256 C 480,406 345,480 256,480 121,480 32,362 32,256 A 224,224 0 0 1 371.853,64.29 l 8.3,-13.68 A 240,240 0 0 0 93.229,432.361 L 64.977,484.17 A 8,8 0 0 0 72,496 h 48 a 8,8 0 0 0 7.022,-4.168 l 13.772,-25.238 a 240.378,240.378 0 0 0 230.412,0 l 13.772,25.238 A 8,8 0 0 0 392,496 h 48 a 8,8 0 0 0 7.023,-11.83 z M 444.687,104 h -25.373 l 26.343,-26.343 4.972,-4.972 21.144,4.228 z m -9.6,-63.773 4.229,21.143 -4.973,4.973 L 408,92.686 V 67.313 Z M 115.252,480 H 85.475 l 20.29,-37.208 c 1.526,1.161 15.924,11.878 21.323,15.517 z m 281.5,0 -11.842,-21.695 c 7.079,-4.783 15.358,-10.981 21.3,-15.56 L 426.525,480 Z"
       id="path42"
       inkscape:connector-curvature="0" />
  </g>
</svg>
