<svg viewBox="0 0 512 512" xmlns="http://www.w3.org/2000/svg"><g id="Filled_outline" data-name="Filled outline"><path d="m440 488h-48l-8.4-15.41-39.6-72.59h48l26.02 47.71z" fill="#4d5e78"/><path d="m168 400-39.5 72.41-8.5 15.59h-48l21.72-39.82 26.28-48.18z" fill="#4d5e78"/><path d="m418.02 447.71a303.844 303.844 0 0 1 -34.42 24.88l-39.6-72.59h48z" fill="#404f66"/><path d="m168 400-39.5 72.41a289.25 289.25 0 0 1 -34.78-24.23l26.28-48.18z" fill="#404f66"/><path d="m408.72 430.65a231.762 231.762 0 0 1 -305.43-.01s-.01.01-.01 0a231.384 231.384 0 0 1 -79.21-169.13c-3.05-128.1 98.33-234.4 226.42-237.44a232 232 0 0 1 158.23 406.58z" fill="#348fd9"/><path d="m479.11 192.2-25-10.64-188.91 76.08a8 8 0 0 1 -5.97-14.84l188.9-76.08 10.29-24.17a230.65 230.65 0 0 1 20.69 49.65z" fill="#3086cd"/><path d="m440 256a183.89 183.89 0 1 1 -17.72-78.87q3.435 7.2 6.23 14.74a183.552 183.552 0 0 1 11.49 64.13z" fill="#ffb531"/><path d="m428.51 191.87-163.31 65.77a8 8 0 0 1 -5.97-14.84l163.05-65.67q3.435 7.2 6.23 14.74z" fill="#ffa912"/><path d="m392 256a135.915 135.915 0 1 1 -14.36-60.89 133.846 133.846 0 0 1 6.32 14.7 135.89 135.89 0 0 1 8.04 46.19z" fill="#f35244"/><path d="m383.96 209.81-118.76 47.83a8 8 0 0 1 -5.97-14.84l118.41-47.69a133.846 133.846 0 0 1 6.32 14.7z" fill="#ea4a3b"/><path d="m344 256a87.289 87.289 0 1 1 -4.62-28.23 88 88 0 0 1 4.62 28.23z" fill="#ffb531"/><path d="m339.38 227.77-74.18 29.87a8 8 0 0 1 -5.97-14.84l73.64-29.66a87.322 87.322 0 0 1 6.51 14.63z" fill="#ffa912"/><path d="m296 256a39.989 39.989 0 1 1 -1.33-10.23 40 40 0 0 1 1.33 10.23z" fill="#f35244"/><path d="m294.67 245.77-29.47 11.87a8 8 0 0 1 -5.97-14.84l28.31-11.4a39.72 39.72 0 0 1 7.13 14.37z" fill="#ea4a3b"/><path d="m400 64v48l48-48-8-40z" fill="#f35244"/><path d="m488 72-40-8-48 48h48z" fill="#ea4a3b"/><path d="m418.767 432.354a240.017 240.017 0 0 0 77.233-176.354 237.012 237.012 0 0 0 -43.334-137.513 7.881 7.881 0 0 0 .991-.83l40-40a8 8 0 0 0 -4.088-13.5l-34.769-6.957-6.954-34.77a8 8 0 0 0 -13.5-4.088l-40 40a8 8 0 0 0 -2.346 5.658v44.686l-141.657 141.657 11.314 11.314 21.923-21.924a32.015 32.015 0 1 1 -27.58-15.733v-16a47.952 47.952 0 1 0 39.137 20.177l22.824-22.824a79.693 79.693 0 1 1 -26.52-21.128l7.038-14.37a96.087 96.087 0 1 0 30.839 24.145l22.663-22.663a127.629 127.629 0 1 1 -26.263-22.707l8.724-13.412a143.515 143.515 0 0 0 -78.442-23.218c-79.4 0-144 64.6-144 144s64.6 144 144 144 144-64.6 144-144a142.936 142.936 0 0 0 -36.685-96l22.634-22.634a174.687 174.687 0 0 1 46.051 118.634c0 97.047-78.953 176-176 176s-176-78.953-176-176 78.953-176 176-176a174.712 174.712 0 0 1 103.836 33.9l9.448-12.914a190.615 190.615 0 0 0 -113.284-36.986c-105.869 0-192 86.131-192 192s86.131 192 192 192 192-86.131 192-192a190.583 190.583 0 0 0 -50.73-129.956l6.044-6.044h30.612a221.321 221.321 0 0 1 46.074 136c0 150-135 224-224 224-135 0-224-118-224-224a224 224 0 0 1 339.853-191.71l8.3-13.68a240 240 0 0 0 -286.924 381.751l-28.252 51.809a8 8 0 0 0 7.023 11.83h48a8 8 0 0 0 7.022-4.168l13.772-25.238a240.378 240.378 0 0 0 230.412 0l13.772 25.238a8 8 0 0 0 7.022 4.168h48a8 8 0 0 0 7.023-11.83zm25.92-328.354h-25.373l26.343-26.343 4.972-4.972 21.144 4.228zm-9.6-63.773 4.229 21.143-4.973 4.973-26.343 26.343v-25.373zm-319.835 439.773h-29.777l20.29-37.208c1.526 1.161 15.924 11.878 21.323 15.517zm281.5 0-11.842-21.695c7.079-4.783 15.358-10.981 21.3-15.56l20.315 37.255z"/></g></svg>