<?xml version="1.0" encoding="UTF-8" standalone="no"?>
<svg
   xmlns:dc="http://purl.org/dc/elements/1.1/"
   xmlns:cc="http://creativecommons.org/ns#"
   xmlns:rdf="http://www.w3.org/1999/02/22-rdf-syntax-ns#"
   xmlns:svg="http://www.w3.org/2000/svg"
   xmlns="http://www.w3.org/2000/svg"
   xmlns:sodipodi="http://sodipodi.sourceforge.net/DTD/sodipodi-0.dtd"
   xmlns:inkscape="http://www.inkscape.org/namespaces/inkscape"
   inkscape:export-ydpi="370.76001"
   inkscape:export-xdpi="370.76001"
   inkscape:export-filename="/Users/mike.xiao/Documents/Projects/DBT_icons/dbt_icons/accumulatePositive.png"
   sodipodi:docname="accumulatePositive.svg"
   inkscape:version="1.0beta2 (2b71d25, 2019-12-03)"
   id="svg870"
   version="1.1"
   viewBox="0 0 7.9374997 7.937501"
   height="30"
   width="30">
  <defs
     id="defs864">
    <inkscape:path-effect
       lpeversion="1"
       is_visible="true"
       id="path-effect1253"
       effect="spiro" />
    <inkscape:path-effect
       lpeversion="1"
       is_visible="true"
       id="path-effect1082"
       effect="spiro" />
    <inkscape:path-effect
       lpeversion="1"
       is_visible="true"
       id="path-effect1010"
       effect="spiro" />
    <inkscape:path-effect
       lpeversion="1"
       is_visible="true"
       id="path-effect1006"
       effect="spiro" />
    <inkscape:path-effect
       lpeversion="1"
       is_visible="true"
       id="path-effect1002"
       effect="spiro" />
    <inkscape:path-effect
       lpeversion="1"
       is_visible="true"
       id="path-effect998"
       effect="spiro" />
    <inkscape:path-effect
       lpeversion="1"
       is_visible="true"
       id="path-effect994"
       effect="spiro" />
    <inkscape:path-effect
       lpeversion="1"
       is_visible="true"
       id="path-effect990"
       effect="spiro" />
    <inkscape:path-effect
       lpeversion="1"
       is_visible="true"
       id="path-effect982"
       effect="spiro" />
  </defs>
  <sodipodi:namedview
     inkscape:window-maximized="0"
     inkscape:window-y="70"
     inkscape:window-x="188"
     inkscape:window-height="664"
     inkscape:window-width="1137"
     units="px"
     showgrid="false"
     inkscape:document-rotation="0"
     inkscape:current-layer="layer1"
     inkscape:document-units="mm"
     inkscape:cy="11.870486"
     inkscape:cx="16.447366"
     inkscape:zoom="14.15"
     inkscape:pageshadow="2"
     inkscape:pageopacity="0.0"
     borderopacity="1.0"
     bordercolor="#666666"
     pagecolor="#ffffff"
     id="base" />
  <metadata
     id="metadata867">
    <rdf:RDF>
      <cc:Work
         rdf:about="">
        <dc:format>image/svg+xml</dc:format>
        <dc:type
           rdf:resource="http://purl.org/dc/dcmitype/StillImage" />
        <dc:title></dc:title>
      </cc:Work>
    </rdf:RDF>
  </metadata>
  <g
     id="layer1"
     inkscape:groupmode="layer"
     inkscape:label="Layer 1">
    <g
       style="fill:#a0ecff;fill-opacity:1"
       transform="matrix(0.01498617,0,0,0.01498617,0.11655693,0.15294148)"
       id="g908">
      <circle
         style="fill:#a0ecff;fill-opacity:1"
         cx="256"
         cy="256"
         r="256"
         id="circle838" />
      <g
         style="fill:#a0ecff;fill-opacity:1"
         id="g850">
</g>
      <g
         style="fill:#a0ecff;fill-opacity:1"
         id="g852">
</g>
      <g
         style="fill:#a0ecff;fill-opacity:1"
         id="g854">
</g>
      <g
         style="fill:#a0ecff;fill-opacity:1"
         id="g856">
</g>
      <g
         style="fill:#a0ecff;fill-opacity:1"
         id="g858">
</g>
      <g
         style="fill:#a0ecff;fill-opacity:1"
         id="g860">
</g>
      <g
         style="fill:#a0ecff;fill-opacity:1"
         id="g862">
</g>
      <g
         style="fill:#a0ecff;fill-opacity:1"
         id="g864">
</g>
      <g
         style="fill:#a0ecff;fill-opacity:1"
         id="g866">
</g>
      <g
         style="fill:#a0ecff;fill-opacity:1"
         id="g868">
</g>
      <g
         style="fill:#a0ecff;fill-opacity:1"
         id="g870">
</g>
      <g
         style="fill:#a0ecff;fill-opacity:1"
         id="g872">
</g>
      <g
         style="fill:#a0ecff;fill-opacity:1"
         id="g874">
</g>
      <g
         style="fill:#a0ecff;fill-opacity:1"
         id="g876">
</g>
      <g
         style="fill:#a0ecff;fill-opacity:1"
         id="g878">
</g>
    </g>
    <path
       transform="scale(0.26458333)"
       d="M 3.1757812 23.509766 A 14.500004 14.500004 0 0 0 3.2265625 23.580078 A 14.500004 14.500004 0 0 0 3.4160156 23.837891 A 14.500004 14.500004 0 0 0 3.6113281 24.091797 A 14.500004 14.500004 0 0 0 3.8125 24.341797 A 14.500004 14.500004 0 0 0 4.0175781 24.587891 A 14.500004 14.500004 0 0 0 4.2285156 24.828125 A 14.500004 14.500004 0 0 0 4.4453125 25.064453 A 14.500004 14.500004 0 0 0 4.6679688 25.294922 A 14.500004 14.500004 0 0 0 4.8945312 25.521484 A 14.500004 14.500004 0 0 0 5.125 25.742188 A 14.500004 14.500004 0 0 0 5.3632812 25.957031 A 14.500004 14.500004 0 0 0 5.6035156 26.167969 A 14.500004 14.500004 0 0 0 5.8496094 26.373047 A 14.500004 14.500004 0 0 0 6.0996094 26.572266 A 14.500004 14.500004 0 0 0 6.3535156 26.767578 A 14.500004 14.500004 0 0 0 6.6132812 26.955078 A 14.500004 14.500004 0 0 0 6.8769531 27.138672 A 14.500004 14.500004 0 0 0 7.1425781 27.314453 A 14.500004 14.500004 0 0 0 7.4140625 27.486328 A 14.500004 14.500004 0 0 0 7.6875 27.650391 A 14.500004 14.500004 0 0 0 7.9667969 27.810547 A 14.500004 14.500004 0 0 0 8.046875 27.853516 L 24.507812 20.953125 L 5.4765625 22.621094 L 3.1757812 23.509766 z "
       style="fill:#7d7d7d;fill-opacity:0.237903;stroke:none;stroke-width:0.188976;stroke-linecap:butt;stroke-linejoin:miter;stroke-miterlimit:4;stroke-dasharray:none;stroke-opacity:1"
       id="path1372" />
    <rect
       inkscape:transform-center-y="0.95642876"
       inkscape:transform-center-x="-3.9017883"
       style="opacity:0.998058;fill:#00aad4;fill-opacity:1;stroke:none;stroke-width:0.0284424;stroke-linecap:round;stroke-linejoin:round;stroke-miterlimit:4;stroke-dasharray:none;stroke-dashoffset:7.40787;stroke-opacity:1;paint-order:stroke fill markers"
       id="rect1012-0-0-2"
       width="1.3884251"
       height="3.7275777"
       x="-17.469913"
       y="17.905285"
       rx="0.066535555"
       ry="0"
       transform="matrix(0.94196887,-0.33570025,0.99997744,0.00671729,0,0)" />
    <rect
       style="opacity:0.998058;fill:#a3a3a3;fill-opacity:0.592742;stroke:none;stroke-width:0.0270828;stroke-linecap:round;stroke-linejoin:round;stroke-miterlimit:4;stroke-dasharray:none;stroke-dashoffset:7.40787;stroke-opacity:1;paint-order:stroke fill markers"
       id="rect1012-2-5-2"
       width="1.2154257"
       height="3.565202"
       x="-17.811205"
       y="18.49531"
       rx="0.06323152"
       ry="0"
       transform="matrix(0.94566472,-0.32514342,0.99997924,0.00644411,0,0)" />
    <rect
       transform="matrix(0.94196887,-0.33570025,0.99997744,0.00671729,0,0)"
       ry="0"
       rx="0.066535555"
       y="17.490423"
       x="-17.050282"
       height="3.7275777"
       width="1.3884251"
       id="rect1012-0-0"
       style="opacity:0.998058;fill:#87deaa;fill-opacity:1;stroke:none;stroke-width:0.0284424;stroke-linecap:round;stroke-linejoin:round;stroke-miterlimit:4;stroke-dasharray:none;stroke-dashoffset:7.40787;stroke-opacity:1;paint-order:stroke fill markers"
       inkscape:transform-center-x="-3.9017875"
       inkscape:transform-center-y="0.95642967" />
    <rect
       transform="matrix(0.9410881,-0.33816147,0.999978,0.00663261,0,0)"
       ry="0"
       rx="0.064292416"
       y="17.38199"
       x="-16.764641"
       height="3.6073465"
       width="1.2358181"
       id="rect1012-2-5"
       style="opacity:0.998058;fill:#a3a3a3;fill-opacity:0.592742;stroke:none;stroke-width:0.02747;stroke-linecap:round;stroke-linejoin:round;stroke-miterlimit:4;stroke-dasharray:none;stroke-dashoffset:7.40787;stroke-opacity:1;paint-order:stroke fill markers" />
    <rect
       inkscape:transform-center-y="0.95643042"
       inkscape:transform-center-x="-3.9017841"
       style="opacity:0.998058;fill:#ffdd55;fill-opacity:1;stroke:none;stroke-width:0.0284424;stroke-linecap:round;stroke-linejoin:round;stroke-miterlimit:4;stroke-dasharray:none;stroke-dashoffset:7.40787;stroke-opacity:1;paint-order:stroke fill markers"
       id="rect1012-0"
       width="1.3884251"
       height="3.7275777"
       x="-16.637287"
       y="17.167885"
       rx="0.066535555"
       ry="0"
       transform="matrix(0.94196887,-0.33570025,0.99997744,0.00671729,0,0)" />
    <rect
       style="opacity:0.998058;fill:#a3a3a3;fill-opacity:0.592742;stroke:none;stroke-width:0.0276853;stroke-linecap:round;stroke-linejoin:round;stroke-miterlimit:4;stroke-dasharray:none;stroke-dashoffset:7.40787;stroke-opacity:1;paint-order:stroke fill markers"
       id="rect1012-2"
       width="1.24287"
       height="3.6433403"
       x="-16.908976"
       y="17.63216"
       rx="0.064659283"
       ry="0"
       transform="matrix(0.94506896,-0.32687103,0.99997931,0.00643325,0,0)" />
    <path
       transform="scale(0.26458333)"
       d="M 21.703125 19.320312 L 11.158203 19.25 C 11.018893 19.249064 10.801151 19.287217 10.669922 19.333984 L 6.1992188 20.925781 C 6.0679543 20.972561 6.0755335 21.010783 6.2148438 21.011719 L 17.662109 21.089844 L 21.703125 19.320312 z "
       style="opacity:0.998058;fill:#e09898;fill-opacity:1;stroke:none;stroke-width:0.062868;stroke-linecap:round;stroke-linejoin:round;stroke-miterlimit:4;stroke-dasharray:none;stroke-dashoffset:7.40787;stroke-opacity:1;paint-order:stroke fill markers"
       id="rect1012" />
    <path
       transform="scale(0.26458333)"
       d="M 21.703125 19.320312 L 17.662109 21.089844 L 19.798828 21.103516 C 19.938138 21.104451 20.157834 21.068252 20.289062 21.021484 L 24.757812 19.427734 C 24.889077 19.380954 24.881498 19.342733 24.742188 19.341797 L 21.703125 19.320312 z "
       style="opacity:0.998058;fill:#ffaaaa;fill-opacity:1;stroke:none;stroke-width:0.062868;stroke-linecap:round;stroke-linejoin:round;stroke-miterlimit:4;stroke-dasharray:none;stroke-dashoffset:7.40787;stroke-opacity:1;paint-order:stroke fill markers"
       id="path1200" />
    <path
       transform="scale(0.26458333)"
       d="M 13.792969 18.369141 L 10.925781 18.675781 C 10.787256 18.690582 10.574328 18.751214 10.449219 18.8125 L 6.1894531 20.900391 C 6.0643442 20.961677 6.0743656 20.999175 6.2128906 20.984375 L 9.7089844 20.611328 L 13.792969 18.369141 z "
       style="opacity:0.998058;fill:#71d498;fill-opacity:1;stroke:none;stroke-width:0.062868;stroke-linecap:round;stroke-linejoin:round;stroke-miterlimit:4;stroke-dasharray:none;stroke-dashoffset:7.40787;stroke-opacity:1;paint-order:stroke fill markers"
       id="rect1012-4" />
    <path
       transform="scale(0.26458333)"
       d="M 13.792969 18.369141 L 9.7089844 20.611328 L 19.722656 19.541016 C 19.861181 19.526215 20.072157 19.46363 20.197266 19.402344 L 24.458984 17.316406 C 24.584127 17.255104 24.572119 17.217622 24.433594 17.232422 L 13.792969 18.369141 z "
       style="opacity:0.998058;fill:#87deaa;fill-opacity:1;stroke:none;stroke-width:0.062868;stroke-linecap:round;stroke-linejoin:round;stroke-miterlimit:4;stroke-dasharray:none;stroke-dashoffset:7.40787;stroke-opacity:1;paint-order:stroke fill markers"
       id="path1248" />
    <path
       transform="scale(0.26458333)"
       d="M 8.8164062 9.7441406 L 12.941406 6.1289062 L 10.517578 7.1152344 C 10.388523 7.1677136 10.200979 7.2854525 10.097656 7.3789062 L 6.578125 10.5625 C 6.4748005 10.655954 6.495945 10.687245 6.625 10.634766 L 8.8164062 9.7441406 z "
       style="opacity:0.998058;fill:#f9e07b;fill-opacity:1;stroke:none;stroke-width:0.062868;stroke-linecap:round;stroke-linejoin:round;stroke-miterlimit:4;stroke-dasharray:none;stroke-dashoffset:7.40787;stroke-opacity:1;paint-order:stroke fill markers"
       id="rect1012-4-7" />
    <path
       transform="scale(0.26458333)"
       d="M 23.101562 1.9980469 L 12.941406 6.1289062 L 8.8164062 9.7441406 L 19.208984 5.5175781 C 19.338036 5.4651003 19.525583 5.34736 19.628906 5.2539062 L 23.148438 2.0722656 C 23.251761 1.9788118 23.230614 1.945569 23.101562 1.9980469 z "
       style="opacity:0.998058;fill:#ffe990;fill-opacity:1;stroke:none;stroke-width:0.062868;stroke-linecap:round;stroke-linejoin:round;stroke-miterlimit:4;stroke-dasharray:none;stroke-dashoffset:7.40787;stroke-opacity:1;paint-order:stroke fill markers"
       id="path1353" />
    <path
       transform="scale(0.26458333)"
       d="M 19.695312 14.851562 L 14.654297 14.6875 L 19.001953 16.507812 C 19.130457 16.561618 19.347168 16.608624 19.486328 16.615234 L 24.224609 16.841797 C 24.36377 16.848407 24.372644 16.809665 24.244141 16.755859 L 19.695312 14.851562 z "
       style="opacity:0.998058;fill:#ffccaa;fill-opacity:1;stroke:none;stroke-width:0.062868;stroke-linecap:round;stroke-linejoin:round;stroke-miterlimit:4;stroke-dasharray:none;stroke-dashoffset:7.40787;stroke-opacity:1;paint-order:stroke fill markers"
       id="rect1012-4-7-8" />
    <path
       transform="scale(0.26458333)"
       d="M 6.4902344 11.175781 C 6.3510759 11.169172 6.3421961 11.205958 6.4707031 11.259766 L 14.654297 14.6875 L 19.695312 14.851562 L 11.712891 11.509766 C 11.584387 11.45596 11.369629 11.407001 11.230469 11.400391 L 6.4902344 11.175781 z "
       style="opacity:0.998058;fill:#f3c09e;fill-opacity:1;stroke:none;stroke-width:0.062868;stroke-linecap:round;stroke-linejoin:round;stroke-miterlimit:4;stroke-dasharray:none;stroke-dashoffset:7.40787;stroke-opacity:1;paint-order:stroke fill markers"
       id="path1264" />
    <path
       inkscape:connector-curvature="0"
       id="rect1012-4-3"
       style="opacity:0.998058;fill:#71d498;fill-opacity:1;stroke:none;stroke-width:0.0166338;stroke-linecap:round;stroke-linejoin:round;stroke-miterlimit:4;stroke-dasharray:none;stroke-dashoffset:7.40787;stroke-opacity:1;paint-order:stroke fill markers"
       d="M 4.4903211,4.7578937 3.731711,4.8390256 c -0.036652,0.00392 -0.092989,0.019958 -0.1260904,0.036174 L 2.4785575,5.4276203 c -0.033102,0.016216 -0.03045,0.026136 0.0062,0.02222 l 0.9250081,-0.098702 z" />
    <path
       d="m 5.3141153,4.6771294 -0.7586101,0.081132 c -0.036652,0.00392 -0.092989,0.019958 -0.1260904,0.036174 L 3.3023517,5.346856 c -0.033102,0.016216 -0.03045,0.026136 0.0062,0.02222 L 4.2335598,5.270374 Z"
       style="opacity:0.998058;fill:#71d498;fill-opacity:1;stroke:none;stroke-width:0.0166338;stroke-linecap:round;stroke-linejoin:round;stroke-miterlimit:4;stroke-dasharray:none;stroke-dashoffset:7.40787;stroke-opacity:1;paint-order:stroke fill markers"
       id="rect1012-4-3-1"
       inkscape:connector-curvature="0" />
  </g>
</svg>
