<?xml version="1.0" encoding="UTF-8" standalone="no"?>
<svg
   xmlns:dc="http://purl.org/dc/elements/1.1/"
   xmlns:cc="http://creativecommons.org/ns#"
   xmlns:rdf="http://www.w3.org/1999/02/22-rdf-syntax-ns#"
   xmlns:svg="http://www.w3.org/2000/svg"
   xmlns="http://www.w3.org/2000/svg"
   xmlns:sodipodi="http://sodipodi.sourceforge.net/DTD/sodipodi-0.dtd"
   xmlns:inkscape="http://www.inkscape.org/namespaces/inkscape"
   height="300"
   viewBox="0 0 37.5 37.5"
   width="300"
   version="1.1"
   id="svg898"
   sodipodi:docname="anger.svg"
   inkscape:version="1.0beta2 (2b71d25, 2019-12-03)"
   inkscape:export-filename="/Users/mike.xiao/Documents/Projects/DBT_icons/dbt_icons/anger.png"
   inkscape:export-xdpi="197.75999"
   inkscape:export-ydpi="197.75999">
  <metadata
     id="metadata904">
    <rdf:RDF>
      <cc:Work
         rdf:about="">
        <dc:format>image/svg+xml</dc:format>
        <dc:type
           rdf:resource="http://purl.org/dc/dcmitype/StillImage" />
        <dc:title></dc:title>
      </cc:Work>
    </rdf:RDF>
  </metadata>
  <defs
     id="defs902" />
  <sodipodi:namedview
     pagecolor="#ffffff"
     bordercolor="#666666"
     inkscape:document-rotation="0"
     borderopacity="1"
     objecttolerance="10"
     gridtolerance="10"
     guidetolerance="10"
     inkscape:pageopacity="0"
     inkscape:pageshadow="2"
     inkscape:window-width="1324"
     inkscape:window-height="657"
     id="namedview900"
     showgrid="false"
     inkscape:zoom="0.68766523"
     inkscape:cx="256"
     inkscape:cy="256"
     inkscape:window-x="71"
     inkscape:window-y="23"
     inkscape:window-maximized="0"
     inkscape:current-layer="g952" />
  <g
     id="flat"
     transform="matrix(0.75167814,0,0,0.75167814,7.6596622,17.693457)">
    <g
       id="g952"
       transform="matrix(1.3303566,0,0,1.3303566,-6.8571168,-28.160683)">
      <g
         transform="translate(0.25000001,0.50000002)"
         id="g1027">
        <circle
           style="opacity:1;fill:#ff7979;fill-opacity:0.802419;stroke-width:0.241772"
           id="path943"
           cx="16.15205"
           cy="21.524918"
           r="18.125" />
        <g
           id="g941"
           transform="matrix(0.49878912,0,0,0.49878912,1.530653,2.2649326)">
          <path
             d="m 3,49 h 4 v 8 H 3 Z"
             fill="#e97424"
             id="path833"
             inkscape:connector-curvature="0"
             transform="matrix(0.75167816,0,0,0.75167816,5.154345,21.167771)" />
          <path
             d="m 7,47 h 4 V 59 H 7 Z"
             fill="#50b4f8"
             id="path835"
             inkscape:connector-curvature="0"
             transform="matrix(0.75167816,0,0,0.75167816,5.154345,21.167771)" />
          <path
             d="m 11,49 h 8 v 8 h -8 z"
             fill="#2d75bb"
             id="path837"
             inkscape:connector-curvature="0"
             transform="matrix(0.75167816,0,0,0.75167816,5.154345,21.167771)" />
          <path
             d="m 57,49 h 4 v 8 h -4 z"
             fill="#e97424"
             transform="matrix(-0.75167816,0,0,-0.75167816,93.852367,100.84566)"
             id="path839"
             inkscape:connector-curvature="0" />
          <path
             d="m 53,47 h 4 v 12 h -4 z"
             fill="#50b4f8"
             transform="matrix(-0.75167816,0,0,-0.75167816,87.838942,100.84566)"
             id="path841"
             inkscape:connector-curvature="0" />
          <path
             d="m 45,49 h 8 v 8 h -8 z"
             fill="#2d75bb"
             transform="matrix(-0.75167816,0,0,-0.75167816,78.818805,100.84566)"
             id="path843"
             inkscape:connector-curvature="0" />
          <path
             d="M 51,24 A 19,19 0 1 0 29,42.741 V 47 h 6 V 42.741 A 18.989,18.989 0 0 0 51,24 Z"
             fill="#dd3e46"
             id="path845"
             inkscape:connector-curvature="0"
             transform="matrix(0.75167816,0,0,0.75167816,5.154345,21.167771)" />
          <path
             d="M 37,50 V 47 H 27 v 3 h -8 v 6 h 8 v 3 h 10 v -3 h 8 v -6 z"
             fill="#50b4f8"
             id="path847"
             inkscape:connector-curvature="0"
             transform="matrix(0.75167816,0,0,0.75167816,5.154345,21.167771)" />
          <path
             d="m 47,24 c 0,0.34 -0.01,0.67 -0.04,1 a 14.765,14.765 0 0 1 -1.32,5.23 13.324,13.324 0 0 1 -0.97,1.78 14.252,14.252 0 0 1 -1.86,2.38 14.533,14.533 0 0 1 -1.48,1.35 14.983,14.983 0 0 1 -19.2,-0.45 13.6,13.6 0 0 1 -1.42,-1.42 14.9,14.9 0 0 1 -1.7,-2.38 A 14.625,14.625 0 0 1 17.04,25 C 17.01,24.67 17,24.34 17,24 c 0,-0.34 0.01,-0.67 0.04,-1 a 15.2,15.2 0 0 1 1.59,-5.8 15.353,15.353 0 0 1 2.08,-3.07 14.641,14.641 0 0 1 1.42,-1.42 15.141,15.141 0 0 1 2.59,-1.83 13.8,13.8 0 0 1 1.83,-0.85 A 14.636,14.636 0 0 1 31,9.04 C 31.33,9.01 31.66,9 32,9 c 0.34,0 0.67,0.01 1,0.04 a 14.636,14.636 0 0 1 4.45,0.99 13.859,13.859 0 0 1 1.83,0.86 14.707,14.707 0 0 1 2.59,1.82 13.6,13.6 0 0 1 1.42,1.42 15.073,15.073 0 0 1 2.08,3.07 13.59,13.59 0 0 1 0.79,1.84 14.515,14.515 0 0 1 0.8,3.96 c 0.03,0.33 0.04,0.66 0.04,1 z"
             fill="#f4f4e6"
             id="path849"
             inkscape:connector-curvature="0"
             transform="matrix(0.75167816,0,0,0.75167816,5.154345,21.167771)" />
          <path
             d="m 14,52 h 2 v 2 h -2 z"
             fill="#f4f4e6"
             id="path851"
             inkscape:connector-curvature="0"
             transform="matrix(0.75167816,0,0,0.75167816,5.154345,21.167771)" />
          <path
             d="m 29,52 h 2 v 2 h -2 z"
             fill="#f4f4e6"
             id="path853"
             inkscape:connector-curvature="0"
             transform="matrix(0.75167816,0,0,0.75167816,5.154345,21.167771)" />
          <path
             d="m 33,52 h 2 v 2 h -2 z"
             fill="#f4f4e6"
             id="path855"
             inkscape:connector-curvature="0"
             transform="matrix(0.75167816,0,0,0.75167816,5.154345,21.167771)" />
          <path
             d="m 48,52 h 2 v 2 h -2 z"
             fill="#f4f4e6"
             id="path857"
             inkscape:connector-curvature="0"
             transform="matrix(0.75167816,0,0,0.75167816,5.154345,21.167771)" />
          <path
             d="m 25.87345,19.867079 a 1,1 0 0 1 1.649415,-0.832546 l 4.287641,3.690003 A 1,1 0 0 1 30.50609,24.240219 L 26.218447,20.550214 A 1,1 0 0 1 25.87345,19.867079 Z"
             fill="#dd3e46"
             id="path859"
             inkscape:connector-curvature="0"
             inkscape:transform-center-x="2.2803056"
             inkscape:transform-center-y="-2.3021461"
             transform="matrix(0.75167816,0,0,0.75167816,5.154345,21.167771)" />
          <g
             fill="#f9bb4b"
             id="g887"
             transform="matrix(0.75167816,0,0,0.75167816,5.154345,21.167771)">
            <path
               d="M 33,9.04 V 13 H 31 V 9.04 C 31.33,9.01 31.66,9 32,9 c 0.34,0 0.67,0.01 1,0.04 z"
               id="path861"
               inkscape:connector-curvature="0" />
            <path
               d="m 21,23 v 2 H 17.04 C 17.01,24.67 17,24.34 17,24 c 0,-0.34 0.01,-0.67 0.04,-1 z"
               id="path863"
               inkscape:connector-curvature="0" />
            <path
               d="m 47,24 c 0,0.34 -0.01,0.67 -0.04,1 H 43 v -2 h 3.96 c 0.03,0.33 0.04,0.66 0.04,1 z"
               id="path865"
               inkscape:connector-curvature="0" />
            <path
               d="m 24.71,32.71 -2.58,2.58 a 13.6,13.6 0 0 1 -1.42,-1.42 l 2.58,-2.58 z"
               id="path867"
               inkscape:connector-curvature="0" />
            <path
               d="m 43.29,14.13 -2.58,2.58 -1.42,-1.42 2.58,-2.58 a 13.6,13.6 0 0 1 1.42,1.42 z"
               id="path869"
               inkscape:connector-curvature="0" />
            <path
               d="m 46.16,19.04 -3.71,1.85 -0.9,-1.78 3.82,-1.91 a 13.59,13.59 0 0 1 0.79,1.84 z"
               id="path871"
               inkscape:connector-curvature="0" />
            <path
               d="m 39.28,10.89 -2.45,3.66 -1.66,-1.1 2.28,-3.42 a 13.859,13.859 0 0 1 1.83,0.86 z"
               id="path873"
               inkscape:connector-curvature="0" />
            <path
               d="m 24.71,15.29 -1.42,1.42 -2.58,-2.58 a 14.641,14.641 0 0 1 1.42,-1.42 z"
               id="path875"
               inkscape:connector-curvature="0" />
            <path
               d="m 22.45,19.11 -0.9,1.78 -3.7,-1.85 a 14.931,14.931 0 0 1 0.78,-1.84 z"
               id="path877"
               inkscape:connector-curvature="0" />
            <path
               d="m 28.83,13.45 -1.66,1.1 -2.45,-3.67 a 13.8,13.8 0 0 1 1.83,-0.85 z"
               id="path879"
               inkscape:connector-curvature="0" />
            <path
               d="m 22.6,28.8 -3.59,2.69 a 14.655,14.655 0 0 1 -0.9,-1.82 L 21.4,27.2 Z"
               id="path881"
               inkscape:connector-curvature="0" />
            <path
               d="m 42.81,34.39 a 14.533,14.533 0 0 1 -1.48,1.35 l -3.04,-3.03 1.42,-1.42 z"
               id="path883"
               inkscape:connector-curvature="0" />
            <path
               d="m 45.64,30.23 a 13.324,13.324 0 0 1 -0.97,1.78 L 40.4,28.8 41.6,27.2 Z"
               id="path885"
               inkscape:connector-curvature="0" />
          </g>
          <path
             d="m 29,31 h 2 v 2 h -2 z"
             fill="#e97424"
             id="path889"
             inkscape:connector-curvature="0"
             transform="matrix(0.75167816,0,0,0.75167816,5.154345,21.167771)" />
          <path
             d="m 33,31 h 2 v 2 h -2 z"
             fill="#e97424"
             id="path891"
             inkscape:connector-curvature="0"
             transform="matrix(0.75167816,0,0,0.75167816,5.154345,21.167771)" />
          <path
             d="m 33.086634,25.894057 a 1,1 0 0 1 1.66887,-0.792826 l 4.198086,3.791579 a 1,1 0 0 1 -1.340323,1.484024 l -4.198086,-3.791579 a 1,1 0 0 1 -0.328547,-0.691198 z"
             fill="#dd3e46"
             id="path893"
             inkscape:connector-curvature="0"
             inkscape:transform-center-x="-0.13829393"
             inkscape:transform-center-y="-4.9785816"
             transform="matrix(0.75167816,0,0,0.75167816,5.154345,21.167771)" />
          <circle
             cx="32"
             cy="24"
             fill="#e97424"
             r="3"
             id="circle895"
             transform="matrix(0.75167816,0,0,0.75167816,5.154345,21.167771)" />
          <path
             id="path916"
             fill="#e6e9ed"
             d="m 8.4123273,13.137605 c 0.00351,0.006 0.00351,0.006 0.012486,0.0081 -0.075885,-0.800257 0.1005815,-1.617538 0.4946561,-2.300608 0.046042,-0.06622 0.083103,-0.134567 0.129141,-0.200774 0.046042,-0.06622 0.092071,-0.132423 0.1416205,-0.192654 0.062422,-0.07774 0.1248401,-0.15549 0.1942802,-0.221268 0.076853,-0.07945 0.1482445,-0.155049 0.232111,-0.222542 0.085823,-0.077305 0.1751556,-0.1486353 0.267996,-0.2139809 0.1256079,-0.08841 0.2691569,-0.1725396 0.4107509,-0.2468478 1.10702,-0.5594114 2.447114,-0.3531341 3.393923,0.4849427 0.726485,0.646612 1.068363,1.479406 1.163351,2.325382 0.644869,-0.715902 1.499537,-1.25829 2.648983,-1.416504 1.504772,-0.197004 3.054612,0.419485 4.032532,1.692081 1.807672,2.345203 1.273374,5.81475 -1.003954,7.417632 -0.109226,0.07687 -0.216507,0.143911 -0.327275,0.204997 l 0.01354,0.522956 c 0.05265,1.839318 0.559694,3.637739 1.47203,5.193156 l 0.01056,0.018 -2.184488,1.537536 -0.01056,-0.018 c -0.912333,-1.555371 -2.19487,-2.807964 -3.700206,-3.624821 -0.367535,0.596771 -0.915237,1.083696 -1.618127,1.358663 -1.157719,0.45986 -2.493882,0.115582 -3.364994,-0.843415 -0.170014,-0.184613 -0.309213,-0.38246 -0.432028,-0.591845 -0.05966,-0.101709 -0.113844,-0.207244 -0.159065,-0.310649 -0.03664,-0.07564 -0.0733,-0.151271 -0.09902,-0.234585 -0.0382,-0.09144 -0.06743,-0.180744 -0.09472,-0.279873 -0.1367998,-0.470009 -0.1741377,-0.967763 -0.1307428,-1.44627 -0.00548,0.0038 -0.010946,0.0076 -0.016386,0.01158 C 9.7151284,21.712438 9.5380258,21.870908 9.3359607,22.01313 6.9767084,23.673699 3.7389131,22.639356 2.6420161,19.624837 1.9735097,17.787923 2.4010494,15.635982 3.6970149,14.267409 5.0405755,12.848434 6.8585636,12.540851 8.4123086,13.137689 Z"
             inkscape:connector-curvature="0"
             style="fill:#ececec;fill-opacity:1;stroke-width:0.679404" />
          <path
             style="fill:#ececec;fill-opacity:1;stroke-width:0.465667"
             inkscape:connector-curvature="0"
             d="m 48.777387,44.063943 c 3.79e-4,0.0049 3.79e-4,0.0049 -0.0038,0.0093 -0.264216,-0.483477 -0.678233,-0.879714 -1.164263,-1.116191 -0.05157,-0.01992 -0.09884,-0.0445 -0.150414,-0.0644 -0.05156,-0.0199 -0.103132,-0.03981 -0.154378,-0.05501 -0.0653,-0.02017 -0.130583,-0.04035 -0.195264,-0.05101 -0.07414,-0.01559 -0.143703,-0.03109 -0.217234,-0.03722 -0.07844,-0.01095 -0.156524,-0.01713 -0.234325,-0.01858 -0.105263,-0.002 -0.219061,0.0054 -0.327988,0.01758 -0.843305,0.107511 -1.524918,0.739199 -1.740636,1.578578 -0.164154,0.646074 -0.03846,1.250163 0.232478,1.766928 -0.64102,-0.158816 -1.334521,-0.138559 -2.047859,0.213003 -0.929958,0.465985 -1.573131,1.411122 -1.639657,2.509141 -0.125727,2.025601 1.509914,3.790219 3.418339,3.825743 0.09152,0.0017 0.178178,-0.0014 0.264528,-0.0093 l 0.193157,0.30208 c 0.676398,1.064468 1.079125,2.280198 1.158439,3.513599 l 8.67e-4,0.01439 1.830623,0.03407 -8.68e-4,-0.01439 c -0.0793,-1.233376 0.167854,-2.437009 0.708815,-3.478814 0.437823,0.197675 0.935752,0.263803 1.440393,0.150005 0.833865,-0.183491 1.460252,-0.892026 1.58656,-1.770993 0.02563,-0.170084 0.02869,-0.335872 0.01801,-0.501908 -0.0051,-0.08066 -0.01493,-0.161379 -0.02901,-0.237442 -0.0083,-0.05702 -0.01642,-0.114044 -0.03382,-0.171216 -0.01344,-0.06658 -0.0311,-0.128518 -0.0537,-0.195266 -0.10283,-0.319366 -0.272757,-0.616303 -0.481136,-0.871305 0.0044,2.2e-5 0.0092,1.03e-4 0.01374,2.16e-4 0.161701,0.02671 0.323102,0.04866 0.492434,0.0518 1.977089,0.03682 3.418115,-1.793725 2.883295,-3.926385 -0.325835,-1.299554 -1.39491,-2.357113 -2.656204,-2.636453 -1.307675,-0.289679 -2.457921,0.233801 -3.110857,1.169281 z"
             fill="#e6e9ed"
             id="path916-3" />
          <path
             id="path916-3-4"
             fill="#e6e9ed"
             d="m 51.946708,21.23843 c -0.0036,0.004 -0.0036,0.004 -0.01048,0.0042 0.18569,-0.590752 0.183988,-1.234852 -0.0032,-1.812783 -0.02405,-0.0573 -0.04098,-0.114733 -0.06506,-0.172013 -0.02406,-0.05727 -0.04812,-0.114558 -0.07575,-0.167897 -0.03455,-0.0686 -0.06909,-0.137202 -0.110839,-0.197907 -0.04513,-0.07218 -0.0868,-0.140619 -0.139137,-0.204948 -0.05226,-0.07205 -0.108105,-0.140119 -0.167548,-0.20427 -0.08043,-0.08679 -0.175086,-0.173212 -0.269831,-0.251947 -0.744235,-0.599243 -1.787016,-0.659054 -2.634961,-0.179675 -0.651197,0.370508 -1.04252,0.943058 -1.249936,1.565196 -0.370892,-0.642946 -0.927719,-1.18885 -1.768339,-1.492649 -1.102102,-0.39008 -2.368803,-0.174497 -3.309968,0.627266 -1.73858,1.476647 -1.89321,4.176512 -0.434816,5.749895 0.06995,0.07545 0.14002,0.143183 0.213653,0.20702 l -0.09415,0.391844 c -0.335057,1.377342 -1.005888,2.650898 -1.943058,3.676282 l -0.01098,0.01186 1.398939,1.509241 0.01098,-0.01186 c 0.937162,-1.025349 2.104622,-1.763123 3.369968,-2.136819 0.181077,0.508649 0.515534,0.963471 1.000952,1.283519 0.798416,0.532389 1.860404,0.487586 2.670738,-0.09506 0.157732,-0.111775 0.294389,-0.238498 0.420548,-0.376531 0.0613,-0.06704 0.119077,-0.137843 0.16971,-0.208521 0.03975,-0.05113 0.07957,-0.102177 0.112324,-0.160809 0.04345,-0.06277 0.07985,-0.125337 0.116305,-0.19566 0.178537,-0.332153 0.286614,-0.701178 0.330768,-1.068666 0.0034,0.0036 0.0071,0.0075 0.01048,0.01123 0.104374,0.151779 0.21237,0.29961 0.341774,0.439213 1.510855,1.630003 4.116413,1.370668 5.426963,-0.724407 0.798673,-1.276626 0.822138,-2.966625 0.06551,-4.205873 -0.784402,-1.284866 -2.104733,-1.808563 -3.37122,-1.608413 z"
             inkscape:connector-curvature="0"
             style="fill:#ececec;fill-opacity:1;stroke-width:0.523382" />
        </g>
      </g>
    </g>
  </g>
</svg>
