<?xml version="1.0" encoding="UTF-8" standalone="no"?>
<svg
   xmlns:dc="http://purl.org/dc/elements/1.1/"
   xmlns:cc="http://creativecommons.org/ns#"
   xmlns:rdf="http://www.w3.org/1999/02/22-rdf-syntax-ns#"
   xmlns:svg="http://www.w3.org/2000/svg"
   xmlns="http://www.w3.org/2000/svg"
   xmlns:sodipodi="http://sodipodi.sourceforge.net/DTD/sodipodi-0.dtd"
   xmlns:inkscape="http://www.inkscape.org/namespaces/inkscape"
   inkscape:export-ydpi="204.57932"
   inkscape:export-xdpi="204.57932"
   inkscape:export-filename="/Users/mike.xiao/Documents/Projects/DBT_icons/dbt_icons/anxietyFear.png"
   inkscape:version="1.0beta2 (2b71d25, 2019-12-03)"
   sodipodi:docname="anxietyFear.svg"
   xml:space="preserve"
   viewBox="0 0 300 300"
   y="0px"
   x="0px"
   id="Capa_1"
   version="1.1"
   width="300"
   height="300"><metadata
   id="metadata2487"><rdf:RDF><cc:Work
       rdf:about=""><dc:format>image/svg+xml</dc:format><dc:type
         rdf:resource="http://purl.org/dc/dcmitype/StillImage" /><dc:title /></cc:Work></rdf:RDF></metadata><defs
   id="defs2485">
	
	

	
	

	
	
	
</defs><sodipodi:namedview
   inkscape:current-layer="g949"
   inkscape:window-maximized="0"
   inkscape:window-y="23"
   inkscape:window-x="105"
   inkscape:cy="106.86131"
   inkscape:cx="191.39045"
   inkscape:zoom="1.0289025"
   showgrid="false"
   id="namedview2483"
   inkscape:window-height="765"
   inkscape:window-width="1182"
   inkscape:pageshadow="2"
   inkscape:pageopacity="0"
   guidetolerance="10"
   gridtolerance="10"
   objecttolerance="10"
   borderopacity="1"
   inkscape:document-rotation="0"
   bordercolor="#666666"
   pagecolor="#ffffff" />








<g
   id="g2452">
</g>
<g
   id="g2454">
</g>
<g
   id="g2456">
</g>
<g
   id="g2458">
</g>
<g
   id="g2460">
</g>
<g
   id="g2462">
</g>
<g
   id="g2464">
</g>
<g
   id="g2466">
</g>
<g
   id="g2468">
</g>
<g
   id="g2470">
</g>
<g
   id="g2472">
</g>
<g
   id="g2474">
</g>
<g
   id="g2476">
</g>
<g
   id="g2478">
</g>
<g
   id="g2480">
</g>
<g
   id="g949"
   transform="matrix(0.50877193,0,0,0.50877193,37.898022,29.781479)"><circle
     r="285"
     cy="236.9563"
     cx="224.50052"
     id="path886"
     style="opacity:0.995569;fill:#375952;fill-opacity:1;stroke-width:3.36546" /><path
     inkscape:connector-curvature="0"
     d="M 475.8953,370.11542 H -27.749237 A 285,285 0 0 0 224.07304,521.66034 285,285 0 0 0 475.8953,370.11542 Z"
     style="opacity:0.995569;fill:#666666;fill-opacity:1;stroke:none;stroke-width:3.36546;stroke-opacity:1"
     id="path886-9" /><path
     inkscape:connector-curvature="0"
     id="path2434"
     d="m 149.59264,421.93113 h 118.29927 v 34.50395 H 149.59264 Z"
     style="fill:#e2c675;stroke-width:0.616142" /><path
     style="fill:#c3922e;stroke-width:0.616142"
     d="m 228.45882,382.49805 v 39.43309 h -39.43309 v -39.43309 z"
     id="path2438"
     inkscape:connector-curvature="0" /><g
     id="g2444"
     transform="matrix(0.61614203,0,0,0.61614203,-0.12987689,166.84833)">
	<path
   style="fill:#cda349"
   d="m 214.37936,350 h 64 v 64 h -64 z"
   id="path2440"
   inkscape:connector-curvature="0" />
	<g
   id="g3076"
   transform="rotate(21.147294,391.89416,210.80215)"><path
     style="fill:#c3922e;stroke-width:1"
     d="m 292.76012,-84.178594 21.3325,60.340072 -60.34008,21.332502 -21.3325,-60.340072 z"
     id="path2424"
     inkscape:connector-curvature="0" /><path
     style="fill:#cda349;stroke-width:1"
     d="M 171.44708,-37.428188 194.66331,22.212458 135.02266,45.4287 111.80643,-14.211946 Z"
     id="path2418"
     inkscape:connector-curvature="0"
     inkscape:transform-center-x="-18.990868"
     inkscape:transform-center-y="-14.921396" /><path
     style="fill:#cda349;stroke-width:1"
     d="m 227.9434,71.710367 63.20195,-10.075368 10.07537,63.201951 -63.20195,10.07537 z"
     id="path2420"
     inkscape:connector-curvature="0" /><path
     style="fill:#e2c675;stroke-width:1"
     d="m 256.75265,252.42845 189.60586,-30.22611 8.81595,55.30171 -189.60586,30.2261 z"
     id="path2430"
     inkscape:connector-curvature="0" /><path
     style="fill:#e2c675;stroke-width:1"
     d="m 238.01877,134.91232 189.60586,-30.2261 8.81594,55.3017 -189.60586,30.2261 z"
     id="path2432"
     inkscape:connector-curvature="0" /><path
     inkscape:connector-curvature="0"
     id="path2442"
     d="m 310.03667,180.13866 63.20196,-10.07537 10.07537,63.20195 -63.20196,10.07537 z"
     style="fill:#cda349" /><path
     inkscape:transform-center-y="-14.921396"
     inkscape:transform-center-x="-18.990868"
     inkscape:connector-curvature="0"
     id="path2418-2"
     d="M 292.76012,-84.178594 315.97635,-24.537951 256.3357,-1.32171 233.11947,-60.962354 Z"
     style="fill:#cda349;stroke-width:1" /></g>
<path
   inkscape:connector-curvature="0"
   id="path2440-6"
   d="m 223.03774,294.76499 56.77821,-29.53361 29.53361,56.77821 -56.77821,29.53361 z"
   style="fill:#cda349;stroke-width:1"
   inkscape:transform-center-x="-9.4954339"
   inkscape:transform-center-y="29.842792" /></g><path
     style="fill:#e2c675;stroke-width:0.616142"
     d="M 189.02573,347.99408 H 307.325 v 34.50396 H 189.02573 Z"
     id="path2448"
     inkscape:connector-curvature="0" /><path
     inkscape:connector-curvature="0"
     id="path2448-8"
     d="m 262.44134,381.37407 109.61824,44.48098 -12.97361,31.97198 -109.61824,-44.48098 z"
     style="fill:#e2c675;stroke-width:0.616142" /><path
     inkscape:connector-curvature="0"
     id="path2448-0"
     d="m 130.48154,144.60246 h 118.29927 v 34.50396 H 130.48154 Z"
     style="fill:#e2c675;stroke-width:0.616142" /><g
     id="g3237"
     transform="matrix(0.18276531,0.00396362,-0.00410526,0.168134,106.42748,18.713476)"><path
       id="path3179"
       d="m 427.818,294.165 c 0,138.464 -65.543,205.831 -149.304,216.361 -7.852,0.989 -15.858,1.473 -23.988,1.473 -94.889,0 -170.344,-66.398 -170.344,-217.835 C 84.182,142.739 180.885,-1.34 256,0.009 c 8.078,0.144 16.156,1.525 24.173,4.049 76.97,24.205 147.645,152.952 147.645,290.107 z"
       style="fill:#d9ccbc"
       inkscape:connector-curvature="0" /><path
       id="path3181"
       d="m 427.818,294.165 c 0,138.464 -65.543,205.831 -149.304,216.361 -83.348,-10.531 -146.419,-77.898 -146.419,-216.361 0,-135.847 77.836,-265.789 148.077,-290.106 76.971,24.204 147.646,152.951 147.646,290.106 z"
       style="fill:#ebe5dd"
       inkscape:connector-curvature="0" /><g
       id="g3183">
</g><g
       id="g3185">
</g><g
       id="g3187">
</g><g
       id="g3189">
</g><g
       id="g3191">
</g><g
       id="g3193">
</g><g
       id="g3195">
</g><g
       id="g3197">
</g><g
       id="g3199">
</g><g
       id="g3201">
</g><g
       id="g3203">
</g><g
       id="g3205">
</g><g
       id="g3207">
</g><g
       id="g3209">
</g><g
       id="g3211">
</g></g></g></svg>
