<?xml version="1.0" encoding="UTF-8" standalone="no"?>
<svg
   xmlns:dc="http://purl.org/dc/elements/1.1/"
   xmlns:cc="http://creativecommons.org/ns#"
   xmlns:rdf="http://www.w3.org/1999/02/22-rdf-syntax-ns#"
   xmlns:svg="http://www.w3.org/2000/svg"
   xmlns="http://www.w3.org/2000/svg"
   xmlns:sodipodi="http://sodipodi.sourceforge.net/DTD/sodipodi-0.dtd"
   xmlns:inkscape="http://www.inkscape.org/namespaces/inkscape"
   inkscape:export-ydpi="197.75999"
   inkscape:export-xdpi="197.75999"
   inkscape:export-filename="/Users/mike.xiao/Documents/Projects/DBT_icons/dbt_icons/behaviorUrges.png"
   inkscape:version="1.0beta2 (2b71d25, 2019-12-03)"
   sodipodi:docname="behaviorUrges.svg"
   id="svg898"
   version="1.1"
   width="300"
   viewBox="0 0 37.5 37.5"
   height="300">
  <metadata
     id="metadata904">
    <rdf:RDF>
      <cc:Work
         rdf:about="">
        <dc:format>image/svg+xml</dc:format>
        <dc:type
           rdf:resource="http://purl.org/dc/dcmitype/StillImage" />
        <dc:title />
      </cc:Work>
    </rdf:RDF>
  </metadata>
  <defs
     id="defs902">
    <inkscape:path-effect
       miter_limit="100"
       jointype="extrapolated"
       smoothing="0.5"
       end_offset="0.2"
       attach_start="0.2"
       stroke_width="1.18"
       lpeversion="1"
       is_visible="true"
       id="path-effect3608"
       effect="taper_stroke" />
    <inkscape:path-effect
       lpeversion="1"
       is_visible="true"
       id="path-effect3350"
       effect="spiro" />
    <marker
       inkscape:isstock="true"
       style="overflow:visible"
       id="Arrow1Lstart"
       refX="0.0"
       refY="0.0"
       orient="auto"
       inkscape:stockid="Arrow1Lstart">
      <path
         transform="scale(0.8) translate(12.5,0)"
         style="fill-rule:evenodd;stroke:#000000;stroke-width:1pt;stroke-opacity:1;fill:#000000;fill-opacity:1"
         d="M 0.0,0.0 L 5.0,-5.0 L -12.5,0.0 L 5.0,5.0 L 0.0,0.0 z "
         id="path1616" />
    </marker>
    <clipPath
       id="clipPath2042"
       clipPathUnits="userSpaceOnUse">
      <path
         id="path2044"
         style="fill:#ffe6d5;fill-opacity:0.802419;stroke-width:0.228359"
         d="m 21.838849,9.3041741 a 17.161554,17.077448 89.999966 0 0 -22.8504981,7.5942449 17.161554,17.077448 89.999966 0 0 -1.82289,8.68413 L 14.087455,24.659846 Z"
         inkscape:connector-curvature="0" />
    </clipPath>
    <clipPath
       id="clipPath3671"
       clipPathUnits="userSpaceOnUse">
      <path
         id="path3673"
         style="fill:#ffeeaa;fill-opacity:0.802419;stroke-width:8.5784"
         d="M 13.494557,660.25073 A 643.09836,643.09836 0 0 1 -72.679248,338.67551 643.09836,643.09836 0 0 1 570.41915,-304.42279 v 643.0983 z"
         inkscape:connector-curvature="0" />
    </clipPath>
    <clipPath
       id="clipPath4104"
       clipPathUnits="userSpaceOnUse">
      <path
         inkscape:connector-curvature="0"
         d="M -601.46309,795.9439 A 977.39036,977.39036 0 0 0 241.85204,1279.2545 977.39036,977.39036 0 0 0 1084.8907,796.4179 L 241.22011,309.44731 Z"
         style="fill:#f2f2b9;fill-opacity:0.802419;stroke-width:13.0376"
         id="path4106" />
    </clipPath>
    <clipPath
       id="clipPath4108"
       clipPathUnits="userSpaceOnUse">
      <path
         inkscape:connector-curvature="0"
         d="M -157.18688,170.00604 A 472.52894,472.52894 0 0 0 250.52208,403.66727 472.52894,472.52894 0 0 0 658.09739,170.2352 L 250.21656,-65.195497 Z"
         style="fill:#f2f2b9;fill-opacity:0.802419;stroke-width:6.30314"
         id="path4110" />
    </clipPath>
  </defs>
  <sodipodi:namedview
     inkscape:current-layer="g952"
     inkscape:window-maximized="0"
     inkscape:window-y="23"
     inkscape:window-x="601"
     inkscape:cy="150"
     inkscape:cx="150"
     inkscape:zoom="0.78666667"
     showgrid="false"
     id="namedview900"
     inkscape:window-height="651"
     inkscape:window-width="820"
     inkscape:pageshadow="2"
     inkscape:pageopacity="0"
     guidetolerance="10"
     gridtolerance="10"
     objecttolerance="10"
     borderopacity="1"
     inkscape:document-rotation="0"
     bordercolor="#666666"
     pagecolor="#ffffff" />
  <g
     transform="matrix(0.75167814,0,0,0.75167814,7.6596622,17.693457)"
     id="flat">
    <g
       transform="matrix(1.3303566,0,0,1.3303566,-6.8571168,-28.160683)"
       id="g952">
      <path
         inkscape:connector-curvature="0"
         d="m 32.261263,31.258768 a 18.125,18.125 0 0 0 2.428711,-9.063233 18.125,18.125 0 0 0 -18.125,-18.1249992 V 22.195535 Z"
         style="fill:#103a82;fill-opacity:1;stroke-width:0.241773"
         id="path943" />
      <path
         clip-path="none"
         inkscape:connector-curvature="0"
         d="M 0.84296883,31.41689 A 18.125,18.125 0 0 0 16.48164,40.379536 18.125,18.125 0 0 0 32.115185,31.425679 L 16.469922,22.395161 Z"
         style="fill:#27dc29;fill-opacity:0.59274191;stroke-width:0.241773"
         id="path1926" />
      <path
         inkscape:connector-curvature="0"
         d="M 16.335807,4.0710241 A 18.125,18.125 0 0 0 -1.6641926,22.195535 18.125,18.125 0 0 0 0.75963549,31.250223 L 16.335807,22.256083 Z"
         style="fill:#f99454;fill-opacity:1;stroke-width:0.241773"
         id="path1924" />
      <g
         transform="matrix(0.16666437,0,0,0.16666437,0.35529762,8.508422)"
         id="g1937"
         fill="#fff" />
      <g
         clip-path="url(#clipPath2042)"
         transform="matrix(0.94652162,-0.48014802,0.47779488,0.94188286,-10.440976,6.7088654)"
         id="g2010">
        <path
           style="fill:#f6d600;fill-opacity:1;stroke-width:0.142265"
           sodipodi:nodetypes="ccccscccccccssccccccscccccccsccccccccc"
           inkscape:connector-curvature="0"
           d="M 7.3808148,20.502767 C 6.5535719,19.863366 5.526944,19.536177 4.5430659,19.180622 4.172324,19.038414 3.8015822,18.896207 3.5305417,18.61209 3.430679,18.498448 3.3307984,18.356412 3.3592115,18.200261 c 0.028395,-0.184546 0.2136318,-0.326401 0.3989401,-0.354678 0.1853081,-0.02828 0.3706701,0.02863 0.5560231,0.07134 0.5418212,0.156514 1.0836423,0.313027 1.6254545,0.455344 0.1140647,0.02846 0.2566413,0.05695 0.3421137,-0.04238 0.09971,-0.127709 0.061216,-0.32404 -0.067149,-0.423502 C 5.4444099,17.32381 4.641271,16.667772 4.0277942,15.914929 3.8993929,15.758678 3.7709827,15.58823 3.7138248,15.375234 c -0.042893,-0.198788 0.013978,-0.440105 0.1849767,-0.553575 0.1995013,-0.127648 0.4561516,-0.0565 0.6558053,0.05721 0.1996536,0.113704 2.5488905,2.289503 2.7502355,2.179309 0.16984,-0.09295 -2.4551269,-2.811499 -2.5407785,-2.996118 -0.099916,-0.198825 -0.1998776,-0.468635 -0.028906,-0.624697 0.1139841,-0.09931 0.4413146,-0.134328 0.583909,-0.07745 0.8555754,0.355474 1.1475955,0.953868 1.8750025,1.52222 0.1568951,0.127874 1.2521231,1.268003 1.4517141,1.282328 -0.114692,-1.022275 -1.2977814,-2.476389 -1.1130914,-3.484276 0.042624,-0.227129 0.2135242,-0.496768 0.4416537,-0.439834 0.057033,0.01424 0.1140827,0.05686 0.1711331,0.09949 0.4706852,0.383624 0.7134021,0.965864 0.9703481,1.505523 0.4567877,0.951505 1.0275951,1.860491 1.7123871,2.670168 0.05707,0.07102 0.142658,0.156261 0.242431,0.12793 0.07127,-0.01415 0.113984,-0.09931 0.142451,-0.170277 0.327409,-0.752246 0.669022,-1.589666 1.424385,-1.901526 0.285045,-0.113397 0.669953,-0.113153 0.841185,0.142506 0.0999,0.170431 0.07152,0.383372 -0.0139,0.567881 -0.08542,0.18451 -0.213632,0.326401 -0.32758,0.482498 -0.526992,0.75212 -0.554877,1.745909 -0.511527,2.668757 0.01445,0.298151 0.04315,0.596312 -0.0137,0.88022 -0.05682,0.326501 -0.199179,0.63875 -0.313029,0.951018 -0.170783,0.454203 -0.284525,0.936836 -0.341235,1.433704 -0.02833,0.283927 0.188948,3.472527 0.07506,3.728004 -0.185057,0.4258 -3.6222185,0.641603 -3.7079597,0.315012 -0.071454,-0.28399 0.3402729,-3.292652 0.2545501,-3.590848 C 8.3936348,21.539809 7.937062,20.929037 7.3808148,20.502767 Z"
           fill="#f9e7cf"
           id="path1929" />
        <path
           sodipodi:nodetypes="csscccccccccc"
           inkscape:connector-curvature="0"
           d="m 8.6212446,20.773302 c 0.2567936,0.298305 0.4423437,0.653353 0.5281298,1.050931 0.085786,0.397577 0.1002838,0.780912 0.1005347,1.178435 5.38e-5,0.08519 -0.3358891,2.723859 -0.3928766,2.780611 -0.056988,0.05676 -0.128258,0.0709 -0.2137931,0.07085 -0.1140379,0.01413 -0.2075365,-0.01375 -0.2788785,-0.113184 -0.1775434,0.356663 -0.028891,-0.07811 -0.028918,-0.120701 C 8.1924543,24.938685 8.4365367,21.752794 8.0085116,21.19883 7.8658275,20.999978 7.5805581,20.758444 7.3951334,20.602157 7.1526584,20.403241 6.0260872,19.834636 5.7265888,19.635685 5.6552828,19.593047 5.5839586,19.522017 5.569649,19.436824 c -0.01431,-0.08519 0.085419,-0.18451 0.1567248,-0.141873 0,0 1.9104909,0.327749 2.8948708,1.478351 z"
           fill="#e2c5b4"
           id="path1939"
           style="fill:#ffc221;fill-opacity:1;stroke-width:0.142265" />
        <path
           sodipodi:nodetypes="ccccccsccscc"
           inkscape:connector-curvature="0"
           d="m 11.370493,17.396103 c -0.02839,0.184546 -0.19934,0.383199 -0.384649,0.411476 -0.171052,0.02828 -0.313718,-0.142171 -0.413599,-0.284208 -0.199779,-0.312465 -0.149601,-0.372278 -0.263872,-0.727282 -0.02856,-0.071 -0.261267,-1.12093 -0.190027,-1.177674 0.057,-0.04256 0.276075,0.394423 0.276075,0.394423 0.114092,0.07106 0.22593,0.303114 0.325783,0.402556 0.09985,0.09944 0.222172,0.284779 0.350438,0.228072 0.156769,-0.07089 0.227736,-0.567749 0.284974,-0.22698 0.01434,0.127785 0.02872,0.340753 0.02881,0.482725 1.16e-4,0.184564 2.15e-4,0.340734 -0.01394,0.496894 z"
           fill="#e2c5b4"
           id="path1941"
           style="fill:#ffc221;fill-opacity:1;stroke-width:0.142265" />
      </g>
      <path
         inkscape:transform-center-y="0.41945709"
         inkscape:transform-center-x="-1.0447883"
         inkscape:connector-curvature="0"
         d="M 5.0638664,24.846318 C 4.8096178,24.725184 4.4281154,24.679107 4.1435452,24.59969 3.8044804,24.507729 3.5017864,24.382399 3.2112282,24.232037 c -0.3208198,-0.171241 -0.684551,0.204177 -0.3455553,0.358724 0.3390052,0.154559 0.7083108,0.288264 1.1018894,0.371904 0.3208996,0.08778 0.7508283,0.158916 1.0779556,0.06725 0.1151001,-0.02915 0.1091753,-0.141825 0.018346,-0.183606 z"
         id="path1955"
         style="fill:#ffc221;fill-opacity:1;stroke-width:0.112413" />
      <path
         inkscape:transform-center-y="-0.47139698"
         inkscape:transform-center-x="-1.4928497"
         inkscape:connector-curvature="0"
         d="M 5.6157193,24.0829 C 4.8770079,23.919815 4.1081144,23.65239 3.5149216,23.314102 3.2304314,23.151224 2.9030509,23.493246 3.1996703,23.651977 c 0.3329168,0.187939 0.7082506,0.350858 1.1139269,0.451196 0.4238396,0.104519 0.8114311,0.117215 1.265672,0.09656 0.096912,-0.01247 0.1393895,-0.10009 0.036452,-0.116828 z"
         id="path1957"
         style="fill:#ffc221;fill-opacity:1;stroke-width:0.112413" />
      <path
         inkscape:transform-center-y="-0.19936614"
         inkscape:transform-center-x="-0.16616458"
         inkscape:connector-curvature="0"
         d="m 6.3123174,14.401934 c 0.3238526,-0.171481 0.6513878,-0.363923 1.0077435,-0.477288 0.356346,-0.113367 0.6942571,-0.121984 1.0500594,-0.201901 0.093916,-0.01804 0.1653337,-0.08998 0.2031656,-0.153174 0.013721,-0.01687 0.017372,-0.03786 0.031025,-0.05474 0.055199,-0.101054 -0.057067,-0.191571 -0.1808991,-0.185767 -0.8096232,0.01897 -1.8120388,0.374943 -2.2400761,0.986784 -0.031028,0.05474 0.034529,0.137521 0.1290191,0.0861 z"
         id="path1959"
         style="fill:#ffc221;fill-opacity:1;stroke-width:0.105773" />
      <path
         inkscape:transform-center-y="-0.85039389"
         inkscape:transform-center-x="0.22134852"
         inkscape:connector-curvature="0"
         d="m 5.9533096,13.666274 c 0.2882186,-0.24209 0.822466,-0.395419 1.2018865,-0.488193 0.2015222,-0.0528 0.399341,-0.08473 0.6003245,-0.104031 0.2009725,-0.01937 0.3846057,-8.82e-4 0.5661926,-0.06177 0.1983824,-0.06531 0.2955927,-0.283994 0.096269,-0.364999 -0.3855556,-0.14547 -1.0609786,0.05152 -1.471391,0.199063 -0.444001,0.156326 -0.9127153,0.392425 -1.135951,0.750723 -0.037805,0.06322 0.061296,0.137168 0.1426894,0.06919 z"
         id="path1961"
         style="fill:#ffc221;fill-opacity:1;stroke-width:0.105773" />
      <g
         style="fill:#37abc8"
         clip-path="url(#clipPath3671)"
         transform="matrix(-0.02818387,0,0,0.02818387,32.641593,12.650348)"
         id="g3634">
        <g
           style="fill:#37abc8"
           id="g3616">
          <g
             style="fill:#37abc8"
             id="g3612">
            <path
               style="fill:#00b1e2;fill-opacity:1"
               inkscape:connector-curvature="0"
               clip-rule="evenodd"
               d="m 60.135,272.69064 -24.371,30.166 c -2.063,2.961 -3.169,6.483 -3.169,10.092 0,7.928 5.286,14.883 12.924,17.006 l 24.642,9.588 18.198,84.745 c 6.672,31.596 27.342,40.671 46.081,43.054 4.656,0.553 9.199,0.766 13.387,0.766 h 47.401 c 12.663,0 15.19,4.822 19.222,15.826 l 9.671,38.308 h 153.701 c 3.088,0 4.484,0.157 4.484,-3.035 v -94.334 c 0,-20.307 6.894,-40.06 19.738,-55.79 194.399,-238.087 -60.205,-424.949996 -236.887,-322.765996 -41.337,23.906 -68.781,66.155996 -74.815,113.524996 -2.412,18.934 -4.624,38.955 -6.306,55.035 -2.214,21.176 -10.522,41.253 -23.901,57.814 z"
               fill="#fed1a3"
               fill-rule="evenodd"
               id="path3610" />
          </g>
          <path
             style="fill:#0098bf;fill-opacity:1"
             sodipodi:nodetypes="csccssscc"
             inkscape:connector-curvature="0"
             clip-rule="evenodd"
             d="m 319.678,23.105644 c 39.707,52.234 63.292,117.390996 63.292,188.065996 0,120.08 -68.048,224.253 -167.677,276.101 l 6.46887,110.4601 156.06013,-75.4921 c 2.77984,-1.34471 4.484,0.157 4.484,-3.035 v -94.334 c 0,-20.307 6.894,-40.06 19.738,-55.79 C 542.245,197.37264 448.9,52.314644 319.678,23.105644 Z"
             fill="#ffbc85"
             fill-rule="evenodd"
             id="path3614" />
        </g>
        <g
           style="fill:#37abc8"
           id="g3620" />
        <g
           style="fill:#37abc8"
           id="g3624" />
        <g
           style="fill:#37abc8"
           id="g3628" />
        <g
           style="fill:#37abc8"
           id="g3632" />
      </g>
      <path
         sodipodi:nodetypes="cccccccccccccccccccc"
         inkscape:connector-curvature="0"
         d="m 25.634719,11.509912 c -0.105873,0.06512 -0.298894,0.06488 0,0 0.18652,-0.03515 -0.764974,0.08875 -0.840191,0.05918 -0.60867,-0.05696 -1.202449,-0.224023 -1.800925,-0.343191 -0.405809,-0.01414 -0.826752,0.06133 -1.186965,0.254172 -0.538176,0.345599 -0.844682,0.935087 -1.17582,1.47023 -0.207263,0.344686 -0.509124,0.69349 -0.926435,0.728551 0.08011,0.06198 0.264919,-0.06532 0.03334,0.0031 -0.383494,0.04559 -0.795698,0.03441 -1.143489,0.221505 -0.315275,0.286963 -0.54872,0.693679 -0.529669,1.141068 -0.11966,0.276404 0.252256,0.647277 0.36123,0.242686 -0.06257,-0.433653 0.0285,-0.901397 0.3326,-1.219803 0.07468,-0.135812 0.464532,-0.302993 0.09273,-0.215232 -0.0938,0.01301 0.305117,-0.03511 0.414032,-0.03544 0.40174,-0.05739 0.830599,-0.08924 1.186204,-0.307362 0.402994,-0.273007 0.602045,-0.749195 0.86437,-1.14897 0.26059,-0.396853 0.490921,-0.880325 1.261544,-0.898353 0.640544,-0.08117 1.240419,0.136201 1.763863,0.20781 0.435695,0.06016 0.890007,0.02574 1.293598,-0.159962 -0.06359,1.09611 0.0012,0.01242 -1e-6,-4e-6 z"
         style="fill:#0c8caf;fill-opacity:1;stroke:none;stroke-width:0.998544;stroke-miterlimit:4;stroke-dasharray:none;stroke-opacity:1;paint-order:stroke fill markers;stop-color:#000000"
         id="path3840" />
      <path
         sodipodi:nodetypes="cccccccccccccccccccccccccccccccac"
         inkscape:connector-curvature="0"
         d="m 26.728707,10.535585 c -0.380285,0.04766 -0.765587,0.01678 -1.146953,-0.0081 -0.473356,-0.02868 -0.935832,-0.149153 -1.387901,-0.293074 -0.30716,-0.08574 -0.595344,-0.226577 -0.893502,-0.339188 -0.236359,-0.102438 -0.480967,-0.156916 -0.734681,-0.182047 -0.278752,-0.0095 -0.534152,0.05314 -0.808436,0.115804 -0.08481,0.01938 -0.203235,0.06347 -0.278728,0.108323 -0.04558,0.02708 -0.08608,0.0624 -0.129113,0.09357 -0.27026,0.191534 -0.422157,0.481409 -0.563067,0.777652 -0.142287,0.354802 -0.251486,0.720745 -0.426544,1.060403 -0.139516,0.273856 -0.336356,0.486744 -0.599624,0.631637 -0.03549,0.01638 -0.07027,0.0345 -0.106507,0.04913 -0.07276,0.02938 -0.138196,0.04683 -0.214457,0.06408 -0.03517,0.0079 -0.140913,0.03033 -0.106079,0.02095 0.238069,-0.06373 0.336443,-0.05946 0.136761,-0.05394 -0.122897,0.0068 -0.242973,-0.02166 -0.362586,-0.04693 -0.177514,-0.04618 -0.261999,0.02362 -0.334109,0.108796 v 0 c 0.120458,0.02579 0.241181,0.0591 0.365047,0.05452 0.329577,-0.0026 0.673155,-0.07444 0.972122,-0.218973 0.261691,-0.154936 0.458133,-0.37478 0.597661,-0.652458 0.172274,-0.341222 0.281847,-0.707322 0.426433,-1.061288 0.141405,-0.292039 0.294175,-0.574248 0.564916,-0.759158 0.126039,-0.08469 0.124435,-0.09487 0.265133,-0.145997 0.04692,-0.01705 0.191333,-0.02783 0.143471,-0.04245 -0.06029,-0.01846 -0.129804,8.74e-4 -0.185972,0.02947 -0.09293,0.04725 0.398332,-0.07786 0.310823,-0.02044 0.252759,0.02141 0.496752,0.06996 0.731888,0.173032 0.298942,0.111622 0.586793,0.253962 0.893983,0.3408 0.452246,0.14747 0.916349,0.269167 1.390482,0.301314 0.38175,0.02605 0.767991,0.05926 1.148841,0.01374 0,0 0.263561,-0.02077 0.330696,-0.119216 10e-7,-5e-6 -1e-6,-1.3e-5 -1e-6,-1.2e-5 z"
         id="path3842"
         style="fill:#0c8caf;fill-opacity:1;stroke:none;stroke-width:0.998544;stroke-miterlimit:4;stroke-dasharray:none;stroke-opacity:1;paint-order:stroke fill markers;stop-color:#000000" />
      <path
         sodipodi:nodetypes="ccccccccccccccccccccccc"
         inkscape:connector-curvature="0"
         d="m 31.000196,16.126523 c -0.09773,-0.131177 -0.111916,-0.288025 -0.122547,-0.445677 0.0038,-0.245751 0.0624,-0.485637 0.09436,-0.728488 0.03321,-0.225079 0.04791,-0.450142 0.03265,-0.677034 -0.01093,-0.119417 -0.05814,-0.207761 -0.149138,-0.283284 -0.106007,-0.06194 -0.220961,-0.109091 -0.334546,-0.155547 -0.244364,-0.09614 -0.49215,-0.182832 -0.737184,-0.277222 -0.203004,-0.09816 -0.447816,-0.163448 -0.608226,-0.332122 -0.02915,-0.03066 -0.05172,-0.067 -0.07755,-0.100493 -0.08625,-0.156806 -0.04714,-0.07825 -0.118124,-0.235275 -0.105408,-0.433737 -0.198126,-0.352449 -0.283552,0.02508 v 0 c 0.07151,0.160432 0.03217,0.07978 0.118767,0.241614 0.02609,0.03544 0.04874,0.07372 0.07826,0.106345 0.157994,0.174609 0.404874,0.242628 0.609704,0.341977 0.244873,0.09471 0.49245,0.181649 0.737123,0.276854 0.113024,0.04443 0.224097,0.09473 0.333338,0.147618 0.09074,0.06649 0.136219,0.145691 0.146872,0.259478 0.01518,0.225015 -6.3e-5,0.448197 -0.03302,0.671387 -0.03246,0.244637 -0.09142,0.486442 -0.09413,0.734137 0.0111,0.164613 0.0277,0.325298 0.124238,0.46502 0.353373,0.267031 0.402094,0.206693 0.282568,-0.03442 z"
         id="path3852"
         style="fill:#0c8caf;fill-opacity:1;stroke:none;stroke-width:0.797042;stroke-miterlimit:4;stroke-dasharray:none;stroke-opacity:1;paint-order:stroke fill markers;stop-color:#000000" />
      <path
         sodipodi:nodetypes="ccccccccccccccccccccccccc"
         inkscape:connector-curvature="0"
         d="m 29.237959,11.697374 c -0.04047,0.1471 -0.04747,0.298715 -0.04339,0.450265 0.0037,0.215922 0.121653,0.371508 0.28523,0.499725 0.251808,0.154799 0.540446,0.237146 0.82156,0.321475 0.29533,0.08289 0.594946,0.151587 0.887767,0.243263 0.19376,0.04617 0.302303,0.151323 0.42574,0.300204 0.171995,0.246407 0.222433,0.525251 0.216447,0.819412 -0.01442,0.214868 -0.07613,0.416496 -0.167917,0.609383 -0.06177,0.09585 -0.112132,0.195095 -0.139092,0.306137 -0.02219,0.117223 -0.02371,0.23701 -0.02823,0.355857 0.0011,0.03102 0.0024,0.06206 0.0037,0.09305 0.280764,0.386654 0.29622,0.215006 0.284301,-0.01424 v 0 c -0.0011,-0.0303 -0.0024,-0.06059 -0.0035,-0.09089 0.0044,-0.116889 0.0056,-0.23483 0.02842,-0.349984 0.02795,-0.108857 0.08107,-0.204863 0.139167,-0.300512 0.09254,-0.196672 0.152855,-0.403126 0.167641,-0.621404 0.0058,-0.300749 -0.04562,-0.585623 -0.218051,-0.839479 -0.118633,-0.145638 -0.237602,-0.272979 -0.428143,-0.31636 -0.291762,-0.09513 -0.59262,-0.160681 -0.887866,-0.243827 -0.279954,-0.08244 -0.565622,-0.165036 -0.819963,-0.311364 -0.168758,-0.123515 -0.275277,-0.258076 -0.28285,-0.474356 -0.004,-0.148653 0.0032,-0.297438 0.04369,-0.44151 -0.03446,-0.198373 -0.111025,-0.257288 -0.284609,0.0052 z"
         id="path3854"
         style="fill:#0c8caf;fill-opacity:1;stroke:none;stroke-width:0.797042;stroke-miterlimit:4;stroke-dasharray:none;stroke-opacity:1;paint-order:stroke fill markers;stop-color:#000000" />
      <path
         sodipodi:nodetypes="ccccccccccccccccccccccccccc"
         inkscape:connector-curvature="0"
         d="m 17.827186,19.271896 c 0.08362,0.109777 0.125156,0.234861 0.15485,0.367627 0.02977,0.142802 0.01776,0.287916 0.01298,0.43232 -0.01162,0.176105 0.0039,0.351464 0.02277,0.526427 0.0093,0.155436 0.04991,0.298647 0.117551,0.43763 0.07578,0.147729 0.181293,0.265523 0.31109,0.366598 0.10339,0.07579 0.214144,0.141447 0.32472,0.206222 0.09271,0.04313 0.185065,0.08617 0.27159,0.140765 0.07414,0.04977 0.154525,0.09082 0.223896,0.147382 0.03453,0.02953 0.0633,0.05552 0.05464,0.103017 0.0013,0.06388 0.0068,0.127667 0.01182,0.191366 -0.007,0.02364 -0.0026,0.0127 -0.01305,0.03305 0.183615,0.264039 0.25169,0.154953 0.234455,-0.09841 v 0 c 0.0081,-0.02689 0.005,-0.01242 0.0083,-0.04354 -0.0048,-0.06225 -0.01099,-0.124764 -0.0099,-0.187195 0.0024,-0.05501 -0.02486,-0.0906 -0.06599,-0.125137 -0.06885,-0.05899 -0.15058,-0.09991 -0.225577,-0.150263 -0.0865,-0.05516 -0.177691,-0.101165 -0.272084,-0.141594 -0.110049,-0.0637 -0.219623,-0.12938 -0.323032,-0.203358 -0.127663,-0.09796 -0.23157,-0.211452 -0.305453,-0.356357 -0.06632,-0.136439 -0.104498,-0.277311 -0.113615,-0.429746 -0.0184,-0.173924 -0.03294,-0.34822 -0.02127,-0.52322 0.0048,-0.146434 0.01557,-0.293557 -0.01576,-0.438169 -0.03093,-0.136017 -0.07464,-0.264275 -0.15971,-0.377102 -0.41354,-0.290461 -0.446385,-0.204433 -0.223288,0.121639 z"
         id="path3888"
         style="fill:#0c8caf;fill-opacity:1;stroke:none;stroke-width:0.711958;stroke-miterlimit:4;stroke-dasharray:none;stroke-opacity:1;paint-order:stroke fill markers;stop-color:#000000" />
      <path
         sodipodi:nodetypes="ccccccccccccccccccccccccc"
         inkscape:connector-curvature="0"
         d="m 17.349045,20.237762 c 0.05643,0.07514 0.07848,0.168204 0.09431,0.259053 0.0087,0.136351 4.75e-4,0.273551 0.0013,0.41042 0.0034,0.129762 0.02762,0.256207 0.06496,0.380033 0.04516,0.09332 0.103048,0.179707 0.164971,0.262605 0.100047,0.118993 0.224751,0.211662 0.347558,0.305374 0.08605,0.06398 0.176877,0.123201 0.254945,0.19704 0.05337,0.05114 0.09325,0.112151 0.113307,0.183337 0.01467,0.09288 0.04207,0.182493 0.07198,0.271431 0.01977,0.07526 0.06496,0.12969 0.123354,0.177485 0.07362,0.04996 0.162581,0.06382 0.242006,0.100575 0.413926,2.9e-5 0.419784,-0.05259 0.217256,-0.13211 v 0 c -0.07689,-0.03951 -0.16359,-0.05174 -0.238994,-0.09549 -0.05503,-0.04526 -0.09923,-0.09213 -0.116605,-0.164967 -0.02977,-0.08869 -0.05582,-0.178203 -0.07156,-0.270559 -0.02283,-0.07478 -0.06308,-0.1405 -0.11953,-0.195011 -0.07769,-0.07556 -0.16937,-0.135382 -0.256382,-0.19954 -0.12114,-0.09222 -0.244531,-0.182832 -0.344097,-0.299229 -0.06025,-0.08046 -0.116847,-0.164089 -0.160842,-0.254709 -0.03633,-0.121686 -0.05919,-0.246053 -0.06187,-0.373461 -5.87e-4,-0.138078 0.0087,-0.276817 -0.0032,-0.414336 -0.01717,-0.09528 -0.04215,-0.192158 -0.100668,-0.271279 -0.327988,-0.255066 -0.372398,-0.179292 -0.222344,0.12336 z"
         id="path3890"
         style="fill:#0c8caf;fill-opacity:1;stroke:none;stroke-width:0.711958;stroke-miterlimit:4;stroke-dasharray:none;stroke-opacity:1;paint-order:stroke fill markers;stop-color:#000000" />
      <g
         style="fill:#0f7640;fill-opacity:1"
         clip-path="url(#clipPath4108)"
         transform="matrix(0.03835744,0,0,0.038151,6.965035,24.983792)"
         id="g3987">
        <path
           style="fill:#0f7640;fill-opacity:1"
           inkscape:connector-curvature="0"
           d="m 485.026,512 h -44.632 c -1.913,0 -3.558,-1.352 -3.926,-3.229 -3.193,-16.31 -17.374,-90.834 -20.044,-141.375 -0.751,-14.171 5.338,-44.337 3.013,-58.333 -5.105,-30.599 -8.581,-80.204 -23.051,-113.344 -0.844,-1.934 -3.706,-1.407 -3.831,0.7 -2.125,35.898 -17.651,70.566 -27.608,97.143 -4.68,12.479 -10.799,50.484 -10.522,63.799 0.632,30.805 14.897,92.171 20.542,150.265 0.228,2.347 -1.629,4.374 -3.987,4.374 H 141.018 c -2.358,0 -4.215,-2.028 -3.987,-4.374 5.645,-58.094 19.91,-119.46 20.542,-150.265 0.278,-13.315 -5.842,-51.32 -10.522,-63.799 -9.957,-26.578 -25.482,-61.245 -27.608,-97.143 -0.125,-2.106 -2.986,-2.634 -3.831,-0.7 -14.47,33.14 -17.946,82.745 -23.051,113.344 -2.324,13.995 3.764,44.162 3.013,58.333 C 92.903,417.938 78.723,492.461 75.53,508.771 75.162,510.649 73.518,512 71.604,512 h -44.63 c -2.101,0 -3.843,-1.621 -3.99,-3.717 C 21.695,489.943 16.279,407.652 18.551,349.78 20.762,293.778 33.773,260.672 34.153,250.297 35.84,205.042 42.504,160.859 41.743,142.48 40.735,117.759 41.188,89.748 59.248,72.885 88.17,45.864 170.799,47.72 186.988,40.676 201.949,34.176 215.021,19.959 215.327,3.969 215.368,1.773 217.123,0 219.32,0 h 73.36 c 2.197,0 3.952,1.773 3.993,3.969 0.306,15.99 13.378,30.207 28.339,36.707 16.189,7.044 98.818,5.188 127.74,32.209 18.06,16.863 18.513,44.874 17.505,69.595 -0.761,18.379 5.904,62.561 7.59,107.817 0.381,10.375 13.391,43.481 15.602,99.483 2.273,57.872 -3.143,140.163 -4.433,158.503 -0.146,2.096 -1.889,3.717 -3.99,3.717 z"
           fill="#fdba91"
           id="path3963" />
        <path
           style="fill:#107e54;fill-opacity:1"
           sodipodi:nodetypes="ssccccccccssccccccccsscccccccsscccccccs"
           inkscape:connector-curvature="0"
           d="m 485.025,512 h -44.627 c -1.913,0 -3.558,-1.352 -3.926,-3.229 -3.194,-16.309 -17.376,-90.832 -20.043,-141.371 -0.75,-14.18 5.331,-44.34 3.01,-58.34 -5.101,-30.6 -8.581,-80.2 -23.053,-113.34 -0.84,-1.94 -3.7,-1.41 -3.83,0.7 -2.12,35.9 -17.652,70.56 -27.603,97.14 -4.681,12.48 -10.806,50.49 -10.526,63.8 0.624,30.806 14.901,92.176 20.539,150.266 0.228,2.347 -1.629,4.374 -3.987,4.374 H 141.022 c -2.358,0 -4.215,-2.027 -3.987,-4.374 5.638,-58.091 6.99248,-116.99271 7.61648,-147.79871 0.28,-13.31 -2.14656,-56.86165 -6.82656,-69.34165 -2.2651,-28.11718 -10.1112,-52.01692 -18.37992,-94.06564 -0.13,-2.11 -2.99,-2.64 -3.83,-0.7 -14.472,33.14 -17.952,82.74 -23.053,113.34 -2.32,14 3.76,44.16 3.01,58.34 C 92.904,417.939 78.722,492.461 75.529,508.771 75.16,510.648 73.516,512 71.602,512 H 26.975 c -2.101,0 -3.843,-1.621 -3.99,-3.717 -1.289,-18.34 -6.705,-100.631 -4.433,-158.503 2.21,-56 15.222,-89.11 15.602,-99.48 1.69,-45.26 8.351,-89.44 7.591,-107.82 -1.01,-24.72 -0.56,-52.73 17.502,-69.6 C 88.17,45.86 170.8,47.72 186.992,40.68 201.946,34.174 215.021,19.957 215.325,3.97 215.367,1.773 217.121,0 219.319,0 h 73.364 c 2.197,0 3.952,1.773 3.993,3.97 0.303,15.987 13.379,30.204 28.333,36.71 16.192,7.04 98.822,5.18 127.745,32.2 18.062,16.87 18.512,44.88 17.502,69.6 -0.76,18.38 5.901,62.56 7.591,107.82 0.38,10.37 13.392,43.48 15.602,99.48 2.272,57.872 -3.144,140.163 -4.433,158.503 -0.148,2.096 -1.891,3.717 -3.991,3.717 z"
           fill="#fdba91"
           id="path3965" />
        <g
           style="fill:#0f7640;fill-opacity:1"
           fill="#fc997d"
           id="g3975" />
        <g
           style="fill:#0f7640;fill-opacity:1"
           fill="#eb866c"
           id="g3985">
          <g
             style="fill:#0f7640;fill-opacity:1"
             id="g3981" />
        </g>
      </g>
      <g
         clip-path="url(#clipPath4104)"
         style="fill:#0f7640;fill-opacity:1"
         transform="matrix(0.01911951,0,0,0.01854428,11.857912,16.728235)"
         id="g4101">
        <g
           style="fill:#0f7640;fill-opacity:1"
           id="g4044">
          <path
             inkscape:connector-curvature="0"
             style="fill:#107e54;fill-opacity:1;stroke-width:0.912254"
             d="m 265.13232,48.363666 h -7.62718 -7.61885 c 0,0 -137.25178,-9.103 -137.25178,236.636004 0,64.297 4.17602,135.014 44.53474,181.064 14.47874,16.507 31.53066,29.235 47.99505,42.66 16.47271,13.425 31.00222,31.119 52.34084,31.119 21.34695,0 35.86812,-17.695 52.34916,-31.119 16.46438,-13.425 33.51631,-26.153 47.99505,-42.66 40.35955,-46.049 44.52642,-116.767 44.52642,-181.064 C 402.3766,39.260666 265.13232,48.363666 265.13232,48.363666"
             id="path4040" />
        </g>
        <g
           style="fill:#0f7640;fill-opacity:1"
           id="g4046" />
        <g
           style="fill:#0f7640;fill-opacity:1"
           id="g4048" />
        <g
           style="fill:#0f7640;fill-opacity:1"
           id="g4050" />
        <g
           style="fill:#0f7640;fill-opacity:1"
           id="g4052" />
        <g
           style="fill:#0f7640;fill-opacity:1"
           id="g4054" />
        <g
           style="fill:#0f7640;fill-opacity:1"
           id="g4056" />
        <g
           style="fill:#0f7640;fill-opacity:1"
           id="g4058" />
        <g
           style="fill:#0f7640;fill-opacity:1"
           id="g4060" />
        <g
           style="fill:#0f7640;fill-opacity:1"
           id="g4062" />
        <g
           style="fill:#0f7640;fill-opacity:1"
           id="g4064" />
        <g
           style="fill:#0f7640;fill-opacity:1"
           id="g4066" />
        <g
           style="fill:#0f7640;fill-opacity:1"
           id="g4068" />
        <g
           style="fill:#0f7640;fill-opacity:1"
           id="g4070" />
        <g
           style="fill:#0f7640;fill-opacity:1"
           id="g4072" />
        <g
           style="fill:#0f7640;fill-opacity:1"
           id="g4074" />
      </g>
      <path
         inkscape:connector-curvature="0"
         d="m 18.960832,37.724065 c -0.200165,-0.390084 -0.237595,-0.832114 -0.264405,-1.262363 -0.01479,-0.675565 0.308868,-1.260469 0.619409,-1.837627 0.181028,-0.370294 0.361336,-0.756644 0.452944,-1.161319 0.0633,-0.279625 0.105196,-0.740423 0.107557,-1.024674 0.0015,-0.186546 -0.0152,-0.372796 -0.02279,-0.559194 -0.05632,-0.575322 -0.193651,-1.131998 -0.37735,-1.678002 0,0 -0.08429,0.07245 -0.08429,0.07245 v 0 c 0.19817,0.529549 0.349904,1.072854 0.400849,1.638858 0.0074,0.163725 0.02396,0.32729 0.02222,0.491172 -0.0033,0.306926 -0.04287,0.702993 -0.114363,1.003471 -0.09511,0.399758 -0.277197,0.775518 -0.455023,1.142975 -0.218757,0.416928 -0.502877,0.862268 -0.606681,1.325897 -0.04183,0.186813 -0.04049,0.463101 -0.04665,0.644983 0.02838,0.44676 0.08399,0.893279 0.230659,1.318713 0,0 0.137926,-0.115341 0.137926,-0.115341 z"
         id="path4522"
         style="fill:#21aa62;fill-opacity:1;stroke:#21aa62;stroke-width:0.34375;stroke-linecap:round;stroke-miterlimit:4;stroke-dasharray:none;stroke-opacity:1;paint-order:stroke fill markers;stop-color:#000000" />
      <path
         inkscape:connector-curvature="0"
         d="m 17.521605,31.14047 c 0.142603,0.305256 0.188316,0.637521 0.22078,0.969447 0.03592,0.475879 -0.06593,0.937078 -0.208055,1.387281 -0.159349,0.403482 -0.266179,0.8232 -0.354978,1.246839 -0.106491,0.49963 -0.07591,1.019633 -0.07039,1.527799 0.02498,0.498372 0.10784,0.992304 0.192459,1.483667 0.08115,0.405308 0.218381,0.798602 0.39465,1.172059 0.104086,0.154023 0.168066,0.340358 0.271548,0.493159 0.02282,0.03531 0.04402,0.0716 0.06498,0.108027 0,0 0.116642,-0.135713 0.116642,-0.135713 v 0 c -0.02377,-0.03546 -0.0475,-0.07094 -0.07115,-0.106478 -0.09798,-0.151077 -0.175399,-0.315919 -0.275963,-0.465662 -0.180962,-0.36035 -0.310648,-0.74516 -0.389716,-1.140663 -0.09132,-0.485796 -0.163549,-0.976597 -0.185077,-1.47094 -0.01463,-0.461894 -0.03586,-0.929544 0.06757,-1.38374 0.08651,-0.42184 0.17869,-0.841736 0.346597,-1.240601 0.159036,-0.499829 0.251085,-1.010984 0.207891,-1.538689 -0.03111,-0.346855 -0.07145,-0.691712 -0.189865,-1.021134 0,0 -0.137925,0.115342 -0.137925,0.115342 z"
         id="path4534"
         style="fill:#21aa62;fill-opacity:1;stroke:#21aa62;stroke-width:0.34375;stroke-linecap:round;stroke-miterlimit:4;stroke-dasharray:none;stroke-opacity:1;paint-order:stroke fill markers;stop-color:#000000" />
      <path
         inkscape:connector-curvature="0"
         d="m 16.834563,39.638715 c -0.201682,-0.269588 -0.297827,-0.610488 -0.417253,-0.922262 -0.200935,-0.530407 -0.371885,-1.069935 -0.515274,-1.618467 -0.15436,-0.522838 -0.212299,-1.058809 -0.220754,-1.601299 0.0074,-0.471735 0.06605,-0.940757 0.142892,-1.405662 0.05502,-0.429793 0.175445,-0.845678 0.301941,-1.258725 0.125411,-0.433632 0.227367,-0.87376 0.27542,-1.32282 0.03812,-0.451715 -0.05602,-0.890545 -0.138219,-1.330738 -0.03694,-0.234442 -0.103655,-0.462255 -0.140042,-0.696837 0.03895,0.0029 0.0094,0.0041 0.03096,-0.08311 0,0 -0.128485,-0.103096 -0.128485,-0.103096 v 0 c -0.05483,0.158412 -0.034,0.06601 -0.04167,0.281088 0.04871,0.229607 0.115402,0.454732 0.159342,0.685372 0.08112,0.388276 0.163188,0.77871 0.142703,1.178167 -0.03976,0.444601 -0.147806,0.87512 -0.269928,1.303765 -0.124095,0.417851 -0.251466,0.83898 -0.306173,1.272464 -0.073,0.512079 -0.14594,1.025376 -0.148728,1.543881 0.01824,0.546311 0.09969,1.083214 0.244161,1.61129 0.147212,0.550814 0.315264,1.094638 0.51479,1.629029 0.113157,0.328826 0.21313,0.672431 0.399228,0.968839 0,0 0.115084,-0.13088 0.115083,-0.13088 z"
         id="path4538"
         style="fill:#21aa62;fill-opacity:1;stroke:#21aa62;stroke-width:0.34375;stroke-linecap:round;stroke-miterlimit:4;stroke-dasharray:none;stroke-opacity:1;paint-order:stroke fill markers;stop-color:#000000" />
      <path
         inkscape:connector-curvature="0"
         d="m 14.950005,39.48371 c -0.244391,-0.253238 -0.395741,-0.58686 -0.54632,-0.90083 -0.215497,-0.4611 -0.362304,-0.950085 -0.490219,-1.441514 -0.141314,-0.527768 -0.210789,-1.071354 -0.263611,-1.614111 -0.04739,-0.41501 -0.0067,-0.829633 0.06446,-1.238965 0.08847,-0.397272 0.161202,-0.797768 0.252464,-1.194442 0.11541,-0.473031 0.207943,-0.950802 0.276346,-1.432815 0.05643,-0.345931 0.06226,-0.691641 0.03417,-1.039871 -0.02972,-0.172359 -0.06607,-0.34335 -0.09209,-0.516336 0,0 -0.140014,0.09417 -0.140014,0.09417 v 0 c 0.03326,0.167466 0.07303,0.333911 0.09527,0.503294 0.03048,0.296146 0.02912,0.590243 -0.01233,0.886171 -0.05851,0.480774 -0.149985,0.955867 -0.271886,1.424767 -0.09233,0.397993 -0.178482,0.797013 -0.258621,1.197634 -0.07187,0.458484 -0.128451,0.922534 -0.06144,1.385999 0.06925,0.54428 0.138709,1.092246 0.273173,1.624607 0.138107,0.493804 0.278017,0.988988 0.503229,1.451842 0.155671,0.330702 0.306552,0.679696 0.546168,0.959305 0,0 0.09125,-0.148905 0.09125,-0.148905 z"
         id="path4540"
         style="fill:#21aa62;fill-opacity:1;stroke:#21aa62;stroke-width:0.34375;stroke-linecap:round;stroke-miterlimit:4;stroke-dasharray:none;stroke-opacity:1;paint-order:stroke fill markers;stop-color:#000000" />
      <path
         inkscape:transform-center-y="-0.10466495"
         inkscape:transform-center-x="-0.051634774"
         d="m 18.912206,30.223299 0.181284,-0.492863 0.181283,-0.492863 0.33619,0.403428 0.33619,0.403428 -0.517473,0.08943 z"
         inkscape:randomized="0"
         inkscape:rounded="0"
         inkscape:flatsided="false"
         sodipodi:arg2="3.4940519"
         sodipodi:arg1="2.4468544"
         sodipodi:r2="0.30319291"
         sodipodi:r1="0.60638583"
         sodipodi:cy="29.8351"
         sodipodi:cx="19.378045"
         sodipodi:sides="3"
         id="path4544"
         style="fill:#21aa62;fill-opacity:1;stroke:#21aa62;stroke-width:0.34375;stroke-linecap:round;stroke-miterlimit:4;stroke-dasharray:none;stroke-opacity:1;paint-order:stroke fill markers;stop-color:#000000"
         sodipodi:type="star" />
      <path
         transform="rotate(6.8046885,16.653187,33.1797)"
         sodipodi:type="star"
         style="fill:#21aa62;fill-opacity:1;stroke:#21aa62;stroke-width:0.34375;stroke-linecap:round;stroke-miterlimit:4;stroke-dasharray:none;stroke-opacity:1;paint-order:stroke fill markers;stop-color:#000000"
         id="path4544-7"
         sodipodi:sides="3"
         sodipodi:cx="17.317623"
         sodipodi:cy="30.70562"
         sodipodi:r1="0.60638583"
         sodipodi:r2="0.30319291"
         sodipodi:arg1="2.4468544"
         sodipodi:arg2="3.4940519"
         inkscape:flatsided="false"
         inkscape:rounded="0"
         inkscape:randomized="0"
         d="m 16.851785,31.093819 0.181284,-0.492863 0.181283,-0.492864 0.33619,0.403428 0.33619,0.403428 -0.517473,0.08944 z"
         inkscape:transform-center-x="-0.015871994"
         inkscape:transform-center-y="-0.13764329" />
      <path
         inkscape:transform-center-y="2.1529394"
         inkscape:transform-center-x="-2.4214112"
         d="m 16.851785,31.093819 0.181284,-0.492863 0.181283,-0.492864 0.33619,0.403428 0.33619,0.403428 -0.517473,0.08944 z"
         inkscape:randomized="0"
         inkscape:rounded="0"
         inkscape:flatsided="false"
         sodipodi:arg2="3.4940519"
         sodipodi:arg1="2.4468544"
         sodipodi:r2="0.30319291"
         sodipodi:r1="0.60638583"
         sodipodi:cy="30.70562"
         sodipodi:cx="17.317623"
         sodipodi:sides="3"
         id="path4544-7-9"
         style="fill:#21aa62;fill-opacity:1;stroke:#21aa62;stroke-width:0.34375;stroke-linecap:round;stroke-miterlimit:4;stroke-dasharray:none;stroke-opacity:1;paint-order:stroke fill markers;stop-color:#000000"
         sodipodi:type="star"
         transform="rotate(3.6406287,36.874362,9.4832239)" />
      <path
         transform="rotate(6.8201567,20.27252,3.2629901)"
         sodipodi:type="star"
         style="fill:#21aa62;fill-opacity:1;stroke:#21aa62;stroke-width:0.34375;stroke-linecap:round;stroke-miterlimit:4;stroke-dasharray:none;stroke-opacity:1;paint-order:stroke fill markers;stop-color:#000000"
         id="path4544-7-9-6"
         sodipodi:sides="3"
         sodipodi:cx="17.317623"
         sodipodi:cy="30.70562"
         sodipodi:r1="0.60638583"
         sodipodi:r2="0.30319291"
         sodipodi:arg1="2.4468544"
         sodipodi:arg2="3.4940519"
         inkscape:flatsided="false"
         inkscape:rounded="0"
         inkscape:randomized="0"
         d="m 16.851785,31.093819 0.181284,-0.492863 0.181283,-0.492864 0.33619,0.403428 0.33619,0.403428 -0.517473,0.08944 z"
         inkscape:transform-center-x="-2.2747569"
         inkscape:transform-center-y="2.2667401" />
    </g>
  </g>
</svg>
