<?xml version="1.0" encoding="UTF-8" standalone="no"?>
<svg
   xmlns:dc="http://purl.org/dc/elements/1.1/"
   xmlns:cc="http://creativecommons.org/ns#"
   xmlns:rdf="http://www.w3.org/1999/02/22-rdf-syntax-ns#"
   xmlns:svg="http://www.w3.org/2000/svg"
   xmlns="http://www.w3.org/2000/svg"
   xmlns:sodipodi="http://sodipodi.sourceforge.net/DTD/sodipodi-0.dtd"
   xmlns:inkscape="http://www.inkscape.org/namespaces/inkscape"
   height="300"
   viewBox="0 0 37.5 37.5"
   width="300"
   version="1.1"
   id="svg898"
   sodipodi:docname="conflict.svg"
   inkscape:version="1.0beta2 (2b71d25, 2019-12-03)"
   inkscape:export-filename="/Users/mike.xiao/Documents/Projects/DBT_icons/dbt_icons/conflict.png"
   inkscape:export-xdpi="197.75999"
   inkscape:export-ydpi="197.75999">
  <metadata
     id="metadata904">
    <rdf:RDF>
      <cc:Work
         rdf:about="">
        <dc:format>image/svg+xml</dc:format>
        <dc:type
           rdf:resource="http://purl.org/dc/dcmitype/StillImage" />
        <dc:title />
      </cc:Work>
    </rdf:RDF>
  </metadata>
  <defs
     id="defs902" />
  <sodipodi:namedview
     pagecolor="#ffffff"
     bordercolor="#666666"
     inkscape:document-rotation="0"
     borderopacity="1"
     objecttolerance="10"
     gridtolerance="10"
     guidetolerance="10"
     inkscape:pageopacity="0"
     inkscape:pageshadow="2"
     inkscape:window-width="1318"
     inkscape:window-height="686"
     id="namedview900"
     showgrid="false"
     inkscape:zoom="1.1383002"
     inkscape:cx="146.42281"
     inkscape:cy="171.4926"
     inkscape:window-x="102"
     inkscape:window-y="59"
     inkscape:window-maximized="0"
     inkscape:current-layer="g952" />
  <g
     id="flat"
     transform="matrix(0.75167814,0,0,0.75167814,7.6596622,17.693457)">
    <g
       id="g952"
       transform="matrix(1.3303566,0,0,1.3303566,-6.8571168,-28.160683)">
      <circle
         style="opacity:1;fill:#e5bba0;fill-opacity:1;stroke-width:0.241773"
         id="path943"
         cx="16.388126"
         cy="22.367756"
         r="18.125" />
      <g
         id="g953"
         transform="matrix(0.82607115,0,0,0.82607115,-1.8191563,7.6793293)">
        <path
           style="stroke-width:0.0500725"
           inkscape:connector-curvature="0"
           d="m 11.00107,10.827223 c 3.594661,0 6.508257,2.455314 6.508257,6.120781 0,3.665662 -2.913792,6.636763 -6.508257,6.636763 -3.5940742,0 -6.5076701,-2.971101 -6.5076701,-6.636763 0,-3.665467 2.9135959,-6.120781 6.5076701,-6.120781 z m 0,0"
           fill="#fbc4ac"
           id="path1946" />
        <path
           style="stroke-width:0.0500725;fill:#e0a88e;fill-opacity:1"
           inkscape:connector-curvature="0"
           d="m 5.7313261,16.948004 c 0,-3.452463 2.5851904,-5.831104 5.8888039,-6.095745 -0.20381,-0.01643 -0.410164,-0.02504 -0.61906,-0.02504 -3.5940742,0 -6.5076701,2.455314 -6.5076701,6.120781 0,3.665662 2.9135959,6.636763 6.5076701,6.636763 0.208896,0 0.41525,-0.01037 0.61906,-0.03012 C 8.3165165,23.236802 5.7313261,20.400662 5.7313261,16.948004 Z m 0,0"
           fill="#e3b098"
           id="path1948" />
        <path
           style="stroke-width:0.0500725"
           inkscape:connector-curvature="0"
           d="m 7.5321772,18.324999 c -0.2135907,0 -0.3868886,-0.173298 -0.3868886,-0.386889 V 17.2635 c 0,-0.213591 0.1732979,-0.386888 0.3868886,-0.386888 0.2135906,0 0.3868886,0.173297 0.3868886,0.386888 v 0.67461 c 0,0.213591 -0.173298,0.386889 -0.3868886,0.386889 z m 0,0"
           fill="#3a484a"
           id="path1950" />
        <path
           style="stroke-width:0.0500725"
           inkscape:connector-curvature="0"
           d="M 7.9916318,19.316474 H 7.0729181 c -0.2137863,0 -0.3868886,-0.173298 -0.3868886,-0.386888 0,-0.213787 0.1731023,-0.386889 0.3868886,-0.386889 h 0.9187137 c 0.2135907,0 0.3868887,0.173102 0.3868887,0.386889 0,0.21359 -0.173298,0.386888 -0.3868887,0.386888 z m 0,0"
           fill="#f98084"
           id="path1952" />
        <path
           style="stroke-width:0.0500725"
           inkscape:connector-curvature="0"
           d="m 14.470549,18.324999 c -0.213786,0 -0.386889,-0.173298 -0.386889,-0.386889 V 17.2635 c 0,-0.213591 0.173103,-0.386888 0.386889,-0.386888 0.213591,0 0.386889,0.173297 0.386889,0.386888 v 0.67461 c 0,0.213591 -0.173298,0.386889 -0.386889,0.386889 z m 0,0"
           fill="#3a484a"
           id="path1954" />
        <path
           style="stroke-width:0.0500725"
           inkscape:connector-curvature="0"
           d="m 14.929808,19.316474 h -0.918714 c -0.21359,0 -0.386888,-0.173298 -0.386888,-0.386888 0,-0.213787 0.173298,-0.386889 0.386888,-0.386889 h 0.918714 c 0.213786,0 0.386889,0.173102 0.386889,0.386889 0,0.21359 -0.173103,0.386888 -0.386889,0.386888 z m 0,0"
           fill="#f98084"
           id="path1956" />
        <path
           style="stroke-width:0.0500725"
           inkscape:connector-curvature="0"
           d="m 11.001265,18.229971 c -0.353441,0 -0.685759,0.148262 -0.911672,0.406839 -0.1406331,0.160976 -0.1242033,0.405275 0.03658,0.545908 0.16078,0.140634 0.405274,0.124204 0.545907,-0.03658 0.07902,-0.09056 0.199117,-0.142394 0.329188,-0.142394 0.130267,0 0.250167,0.05183 0.329188,0.142394 0.140633,0.16078 0.385128,0.17721 0.545908,0.03658 0.160976,-0.140633 0.177406,-0.385128 0.03677,-0.545908 -0.226109,-0.258577 -0.558426,-0.406839 -0.911868,-0.406839 z m 0,0"
           fill="#3a484a"
           id="path1958" />
        <path
           style="stroke-width:0.0500725"
           inkscape:connector-curvature="0"
           d="M 4.8047885,14.914394 C 5.251725,9.4735037 7.4457238,10.311436 11.00107,10.311436 c 2.687878,0 3.978615,-0.269139 4.528631,-0.440677 0.219849,-0.068654 0.456521,0.030317 0.561164,0.235693 0.438917,0.861404 1.418462,3.192124 1.418462,6.841747 0,0 -1.556552,-2.803084 -6.508257,-2.803084 -2.3033371,0 -2.1106752,0.769279 -6.1962815,0.769279 z m 0,0"
           fill="#3a484a"
           id="path1960" />
      </g>
      <path
         id="path1962"
         fill="#323e40"
         d="m 5.9683073,16.16871 c -2.1707749,-0.06091 -3.5071707,0.04298 -3.8183664,3.83097 0.3848744,0 0.7233763,-0.0084 1.0247157,-0.02295 0.2617532,-3.131183 1.2292709,-3.730145 2.7936507,-3.808025 z m 0,0"
         inkscape:connector-curvature="0"
         style="stroke-width:0.0413634" />
      <g
         style="fill:#3a484a"
         transform="matrix(0.04136348,0,0,0.04136348,-49.734319,16.872883)"
         inkscape:transform-center-y="-0.50549481"
         inkscape:transform-center-x="-1.1373632"
         id="g943">
        <g
           transform="matrix(19.971026,0,0,19.971026,603.79274,-456.38763)"
           id="g920">
          <path
             style="stroke-width:0.0500725"
             inkscape:connector-curvature="0"
             d="m 56.606172,38.540841 c -0.222979,-0.253296 -0.398233,-0.562533 -0.527522,-0.85534 -0.377109,-0.853189 -0.08293,-2.042021 -0.992453,-2.605728 -0.66444,-0.41173 -1.617774,-0.281463 -2.243485,0.143372 -0.190314,0.129288 -1.076364,0.948835 -0.90287,1.225799 9.76e-4,0.0016 2.28006,3.637887 2.28006,3.637887 1.281153,0.253297 2.032242,-0.350117 2.4027,-0.807028 0.17545,-0.216525 0.167626,-0.52987 -0.01643,-0.738962 z m 0,0"
             fill="#cc7643"
             id="path1944" />
          <path
             style="stroke-width:0.0500725"
             inkscape:connector-curvature="0"
             d="m 54.40122,41.646513 c 0,3.665662 -2.913596,6.636763 -6.507865,6.636763 -3.594466,0 -6.508061,-2.971101 -6.508061,-6.636763 2.158791,-5.315904 6.508061,-2.093854 6.508061,-2.093854 0,0 4.349465,-3.222051 6.507865,2.093854 z m 0,0"
             fill="#fbc4ac"
             id="path1964" />
          <path
             style="stroke-width:0.0500725;fill:#e0a88e;fill-opacity:1"
             inkscape:connector-curvature="0"
             d="m 47.893355,48.283276 c 0.204788,0 0.412316,-0.0061 0.615735,-0.02973 9.77e-4,0 0.0022,-2e-4 0.0031,-2e-4 -3.304005,-0.318039 -5.889,-3.154179 -5.889,-6.606837 0,-0.844583 0.155108,-1.652198 0.437352,-2.395267 -0.618083,0.468061 -1.199785,1.224626 -1.675278,2.395267 0,0.2265 0.01115,0.453391 0.03364,0.678717 0.333296,3.346841 3.104693,5.958046 6.474419,5.958046 z m 0,0"
             fill="#e3b098"
             id="path1966" />
          <path
             style="stroke-width:0.0500725"
             inkscape:connector-curvature="0"
             d="m 54.40122,41.646513 c -2.1584,-5.315905 -6.507865,-2.093854 -6.507865,-2.093854 0,0 -4.34927,-3.222051 -6.508061,2.093854 0,-3.665467 2.913595,-6.636568 6.508061,-6.636568 3.594269,0 6.507865,2.971101 6.507865,6.636568 z m 0,0"
             fill="#e0824a"
             id="path1968" />
          <path
             style="stroke-width:0.0500725"
             inkscape:connector-curvature="0"
             d="m 43.060572,39.251246 c 0.870988,-2.294144 2.95604,-3.970988 5.451648,-4.211375 -9.77e-4,0 -0.0022,0 -0.0031,-2e-4 -0.204397,-0.01878 -0.41036,-0.02973 -0.615735,-0.02973 -3.369726,0 -6.141123,2.611401 -6.474419,5.958046 -0.01115,0.111685 -0.01956,0.223957 -0.02523,0.337207 -0.0057,0.113054 -0.0084,0.226891 -0.0084,0.34151 0.475493,-1.170836 1.057195,-1.927401 1.675278,-2.395462 z m 0,0"
             fill="#cc7643"
             id="path1970" />
          <path
             style="stroke-width:0.0500725"
             inkscape:connector-curvature="0"
             d="m 51.362443,43.023508 c -0.213786,0 -0.386889,-0.173299 -0.386889,-0.386889 v -0.67461 c 0,-0.213591 0.173103,-0.386889 0.386889,-0.386889 0.21359,0 0.386693,0.173298 0.386693,0.386889 v 0.67461 c 0,0.21359 -0.173103,0.386889 -0.386693,0.386889 z m 0,0"
             fill="#3a484a"
             id="path1972" />
          <path
             style="stroke-width:0.0500725"
             inkscape:connector-curvature="0"
             d="m 51.821702,44.014983 h -0.918714 c -0.213786,0 -0.386888,-0.173298 -0.386888,-0.386889 0,-0.213786 0.173102,-0.386889 0.386888,-0.386889 h 0.918714 c 0.213786,0 0.386889,0.173103 0.386889,0.386889 0,0.213591 -0.173103,0.386889 -0.386889,0.386889 z m 0,0"
             fill="#f98084"
             id="path1974" />
          <path
             style="stroke-width:0.0500725"
             inkscape:connector-curvature="0"
             d="m 44.424071,43.023508 c -0.213786,0 -0.386889,-0.173299 -0.386889,-0.386889 v -0.67461 c 0,-0.213591 0.173103,-0.386889 0.386889,-0.386889 0.213786,0 0.386888,0.173298 0.386888,0.386889 v 0.67461 c 0,0.21359 -0.173102,0.386889 -0.386888,0.386889 z m 0,0"
             fill="#3a484a"
             id="path1976" />
          <path
             style="stroke-width:0.0500725"
             inkscape:connector-curvature="0"
             d="m 44.883525,44.014983 h -0.918713 c -0.213786,0 -0.386889,-0.173298 -0.386889,-0.386889 0,-0.213786 0.173103,-0.386889 0.386889,-0.386889 h 0.918713 c 0.213591,0 0.386889,0.173103 0.386889,0.386889 0,0.213591 -0.173298,0.386889 -0.386889,0.386889 z m 0,0"
             fill="#f98084"
             id="path1978" />
        </g>
        <path
           id="path1980"
           d="m 1560.2683,407.04891 c -7.0586,0 -13.6953,2.96094 -18.2071,8.125 -2.8086,3.21484 -2.4804,8.09375 0.7305,10.90234 3.2109,2.8086 8.0938,2.48047 10.9023,-0.73437 1.5782,-1.80469 3.9727,-2.83985 6.5743,-2.83985 2.6015,0 4.9961,1.03516 6.5781,2.83985 2.8047,3.21484 7.6875,3.54297 10.8984,0.73437 3.2149,-2.80859 3.543,-7.6875 0.7344,-10.90234 -4.5117,-5.16406 -11.1523,-8.125 -18.2109,-8.125 z m 0,0"
           inkscape:connector-curvature="0" />
      </g>
      <g
         style="fill:#f5d866;fill-opacity:1"
         id="g1013"
         transform="rotate(-31.454476,26.558602,66.009669)">
        <g
           style="fill:#f5d866;fill-opacity:1"
           transform="rotate(-1.3874756,-235.8521,-2688.2091)"
           id="g998">
          <path
             style="fill:#f5d866;fill-opacity:1;stroke-width:0.0500725"
             inkscape:connector-curvature="0"
             d="m -14.766889,28.55 c -0.142003,0 -0.278529,-0.07843 -0.3464,-0.213982 -0.09545,-0.191097 -0.018,-0.423465 0.173102,-0.519112 l 0.839497,-0.419748 c 0.191293,-0.09545 0.423465,-0.018 0.519112,0.173102 0.09565,0.191097 0.01819,0.423465 -0.173102,0.519112 l -0.839498,0.419748 c -0.05555,0.02758 -0.114619,0.04088 -0.172711,0.04088 z m 0,0"
             id="path1982" />
          <path
             style="fill:#f5d866;fill-opacity:1;stroke-width:0.0500725"
             inkscape:connector-curvature="0"
             d="m -13.927978,32.084417 c -0.05809,0 -0.117163,-0.01311 -0.172712,-0.04088 l -0.839692,-0.41975 c -0.190902,-0.09565 -0.268358,-0.328014 -0.172907,-0.519111 0.09545,-0.191097 0.327818,-0.268553 0.519111,-0.172907 l 0.839498,0.419749 c 0.191097,0.09565 0.268553,0.328015 0.173102,0.519112 -0.06787,0.135547 -0.204398,0.213786 -0.3464,0.213787 z m 0,0"
             id="path1984" />
          <path
             style="fill:#f5d866;fill-opacity:1;stroke-width:0.0500725"
             inkscape:connector-curvature="0"
             d="m -13.616199,30.107334 h -0.947857 c -0.213787,0 -0.386889,-0.173298 -0.386889,-0.386888 0,-0.213787 0.173102,-0.386889 0.386889,-0.386889 h 0.947857 c 0.213787,0 0.386889,0.173102 0.386889,0.386889 0,0.21359 -0.173102,0.386888 -0.386889,0.386888 z m 0,0"
             id="path1986" />
        </g>
        <g
           style="fill:#f5d866;fill-opacity:1"
           transform="rotate(-1.6243521,-642.22862,-2327.5331)"
           id="g1003">
          <path
             style="fill:#f5d866;fill-opacity:1;stroke-width:0.0500725"
             inkscape:connector-curvature="0"
             d="m -22.700061,40.893859 c -0.05809,0 -0.117163,-0.0131 -0.172712,-0.04088 l -0.839693,-0.419748 c -0.191097,-0.09565 -0.268553,-0.328015 -0.172907,-0.519112 0.09565,-0.191097 0.328015,-0.268553 0.519112,-0.173102 l 0.839498,0.419944 c 0.191096,0.09545 0.268553,0.327819 0.173102,0.518916 -0.06787,0.135548 -0.204398,0.213982 -0.3464,0.213982 z m 0,0"
             id="path1988" />
          <path
             style="fill:#f5d866;fill-opacity:1;stroke-width:0.0500725"
             inkscape:connector-curvature="0"
             d="m -23.538972,44.428472 c -0.142003,0 -0.278724,-0.07843 -0.346401,-0.213982 -0.09565,-0.191097 -0.01819,-0.423465 0.172907,-0.519111 l 0.839693,-0.41975 c 0.191098,-0.09565 0.423465,-0.01819 0.519112,0.172907 0.09545,0.191097 0.01799,0.423465 -0.173102,0.519112 l -0.839498,0.419944 c -0.05555,0.02758 -0.114619,0.04088 -0.172711,0.04088 z m 0,0"
             id="path1990" />
          <path
             style="fill:#f5d866;fill-opacity:1;stroke-width:0.0500725"
             inkscape:connector-curvature="0"
             d="m -22.902894,42.451193 h -0.947858 c -0.213786,0 -0.386888,-0.173298 -0.386888,-0.386888 0,-0.213787 0.173102,-0.386889 0.386888,-0.386889 h 0.947858 c 0.213786,0 0.386888,0.173102 0.386888,0.386889 0,0.21359 -0.173102,0.386888 -0.386888,0.386888 z m 0,0"
             id="path1992" />
        </g>
      </g>
      <path
         inkscape:connector-curvature="0"
         d="m 22.731966,11.646224 c 0.199032,0.02321 -0.355281,2.899034 -0.391353,3.08855 -0.03697,0.194244 -0.588529,3.130554 -0.824505,3.299404 -0.230232,0.164738 -3.197772,-0.25386 -3.393795,-0.281068 -0.200913,-0.02788 -3.245472,-0.443382 -3.213493,-0.636015 0.0312,-0.187944 3.553052,-2.645176 3.785146,-2.807483 0.237888,-0.166354 3.834002,-2.687172 4.038,-2.663388 z m -1.395189,1.755536 -4.320356,3.067989 c -0.101005,0.0717 -0.24003,0.04815 -0.311747,-0.05284 l -3.851181,-5.423252 c -0.0717,-0.101004 -0.04815,-0.24003 0.05284,-0.311746 l 4.320356,-3.0679903 c 0.101004,-0.0717 0.24003,-0.04815 0.311746,0.05284 l 3.851181,5.4232523 c 0.0717,0.101004 0.04815,0.240029 -0.05284,0.311745 z"
         inkscape:transform-center-y="-0.17645737"
         inkscape:transform-center-x="0.083127169"
         style="fill:#3a1010;fill-opacity:0.177419;stroke-width:0.099611;stroke-linecap:round;paint-order:stroke fill markers;stop-color:#000000"
         id="path957-2" />
      <path
         id="path957"
         style="fill:#d35f5f;stroke-width:0.099611;stroke-linecap:round;paint-order:stroke fill markers;stop-color:#000000"
         inkscape:transform-center-x="0.083127169"
         inkscape:transform-center-y="-0.17645737"
         d="m 22.913744,11.368586 c 0.199032,0.02321 -0.355281,2.899035 -0.391353,3.088551 -0.03697,0.194244 -0.588529,3.130554 -0.824505,3.299404 -0.230232,0.164738 -3.197772,-0.25386 -3.393795,-0.281068 -0.200913,-0.02788 -3.245472,-0.443382 -3.213493,-0.636015 0.0312,-0.187944 3.553052,-2.645176 3.785146,-2.807483 0.237888,-0.166354 3.834002,-2.687173 4.038,-2.663389 z m -1.395189,1.755537 -4.320356,3.067989 c -0.101005,0.0717 -0.24003,0.04815 -0.311747,-0.05284 l -3.851181,-5.423253 c -0.0717,-0.101004 -0.04815,-0.24003 0.05284,-0.311746 l 4.320356,-3.0679903 c 0.101004,-0.0717 0.24003,-0.04815 0.311746,0.05284 l 3.851181,5.4232533 c 0.0717,0.101004 0.04815,0.240029 -0.05284,0.311745 z"
         inkscape:connector-curvature="0" />
      <path
         id="path957-4-7"
         style="fill:#080808;fill-opacity:0.141129;stroke-width:0.099611;stroke-linecap:round;paint-order:stroke fill markers;stop-color:#000000"
         inkscape:transform-center-x="-0.092457523"
         inkscape:transform-center-y="0.18439173"
         d="m 21.667379,26.393351 c -0.199161,-0.02208 0.338866,-2.901 0.373865,-3.090717 0.03587,-0.194451 0.570802,-3.133834 0.805818,-3.304017 0.229311,-0.166019 3.199158,0.235757 3.395332,0.261854 0.201068,0.02675 3.24793,0.425008 3.217042,0.617819 -0.03014,0.188117 -3.538024,2.665242 -3.769196,2.82886 -0.236953,0.167683 -3.818732,2.70883 -4.022861,2.686201 z m 1.385231,-1.763406 4.302924,-3.092391 c 0.100583,-0.07229 0.239753,-0.04951 0.312039,0.05108 l 3.881814,5.401369 c 0.07229,0.100583 0.04951,0.239753 -0.05108,0.31204 l -4.302925,3.092391 c -0.100583,0.07229 -0.239753,0.04951 -0.31204,-0.05108 l -3.881814,-5.401369 c -0.07229,-0.100583 -0.04951,-0.239753 0.05108,-0.31204 z"
         inkscape:connector-curvature="0" />
      <path
         inkscape:connector-curvature="0"
         d="m 21.845343,26.000039 c -0.199161,-0.02208 0.338866,-2.901 0.373865,-3.090717 0.03587,-0.194451 0.570802,-3.133834 0.805818,-3.304017 0.229311,-0.166019 3.199158,0.235757 3.395332,0.261854 0.201068,0.02675 3.24793,0.425008 3.217042,0.617819 -0.03014,0.188117 -3.538024,2.665242 -3.769196,2.82886 -0.236953,0.167683 -3.818732,2.70883 -4.022861,2.686201 z m 1.385231,-1.763406 4.302924,-3.092391 c 0.100583,-0.07229 0.239753,-0.04951 0.312039,0.05108 l 3.881814,5.401369 c 0.07229,0.100583 0.04951,0.239753 -0.05108,0.31204 l -4.302925,3.092391 c -0.100583,0.07229 -0.239753,0.04951 -0.31204,-0.05108 l -3.881814,-5.401369 c -0.07229,-0.100583 -0.04951,-0.239753 0.05108,-0.31204 z"
         inkscape:transform-center-y="0.18439173"
         inkscape:transform-center-x="-0.092457523"
         style="fill:#3771c8;stroke-width:0.099611;stroke-linecap:round;paint-order:stroke fill markers;stop-color:#000000"
         id="path957-4" />
    </g>
  </g>
</svg>
