<?xml version="1.0" encoding="UTF-8" standalone="no"?>
<svg
   xmlns:dc="http://purl.org/dc/elements/1.1/"
   xmlns:cc="http://creativecommons.org/ns#"
   xmlns:rdf="http://www.w3.org/1999/02/22-rdf-syntax-ns#"
   xmlns:svg="http://www.w3.org/2000/svg"
   xmlns="http://www.w3.org/2000/svg"
   xmlns:sodipodi="http://sodipodi.sourceforge.net/DTD/sodipodi-0.dtd"
   xmlns:inkscape="http://www.inkscape.org/namespaces/inkscape"
   inkscape:export-ydpi="358.39999"
   inkscape:export-xdpi="358.39999"
   inkscape:export-filename="/Users/mike.xiao/Documents/Projects/DBT_icons/dbt_icons/describe.png"
   width="30"
   height="30"
   viewBox="0 0 7.9374997 7.937501"
   version="1.1"
   id="svg870"
   inkscape:version="1.0beta2 (2b71d25, 2019-12-03)"
   sodipodi:docname="describe.svg">
  <defs
     id="defs864" />
  <sodipodi:namedview
     id="base"
     pagecolor="#ffffff"
     bordercolor="#666666"
     borderopacity="1.0"
     inkscape:pageopacity="0.0"
     inkscape:pageshadow="2"
     inkscape:zoom="5.1"
     inkscape:cx="-21.808278"
     inkscape:cy="17.409639"
     inkscape:document-units="mm"
     inkscape:current-layer="layer1"
     inkscape:document-rotation="0"
     showgrid="false"
     units="px"
     inkscape:window-width="1137"
     inkscape:window-height="664"
     inkscape:window-x="169"
     inkscape:window-y="65"
     inkscape:window-maximized="0" />
  <metadata
     id="metadata867">
    <rdf:RDF>
      <cc:Work
         rdf:about="">
        <dc:format>image/svg+xml</dc:format>
        <dc:type
           rdf:resource="http://purl.org/dc/dcmitype/StillImage" />
        <dc:title />
      </cc:Work>
    </rdf:RDF>
  </metadata>
  <g
     inkscape:label="Layer 1"
     inkscape:groupmode="layer"
     id="layer1">
    <circle
       style="opacity:0.998058;fill:#f6d9c8;stroke-width:0.584002;stroke-linecap:round;stroke-linejoin:round;paint-order:stroke fill markers;fill-opacity:1"
       id="path3781"
       cx="3.9585319"
       cy="3.9652309"
       r="3.8364584" />
    <g
       id="g3913"
       transform="matrix(0.91574759,0.69564556,-0.69564556,0.91574759,3.6346107,-1.2487747)">
      <path
         id="path3976"
         style="opacity:0.998058;fill:#d38d5f;fill-opacity:1;stroke-width:5.81542;stroke-linecap:round;stroke-linejoin:round;paint-order:stroke fill markers"
         d="M 1.2480469 10.326172 A 14.500001 14.500001 0 0 0 1.2324219 10.369141 A 14.500001 14.500001 0 0 0 1.1308594 10.673828 A 14.500001 14.500001 0 0 0 1.0371094 10.980469 A 14.500001 14.500001 0 0 0 0.94921875 11.287109 A 14.500001 14.500001 0 0 0 0.86914062 11.597656 A 14.500001 14.500001 0 0 0 0.79492188 11.910156 A 14.500001 14.500001 0 0 0 0.72851562 12.222656 A 14.500001 14.500001 0 0 0 0.66992188 12.537109 A 14.500001 14.500001 0 0 0 0.6171875 12.853516 A 14.500001 14.500001 0 0 0 0.5703125 13.169922 A 14.500001 14.500001 0 0 0 0.53125 13.488281 A 14.500001 14.500001 0 0 0 0.5 13.806641 A 14.500001 14.500001 0 0 0 0.47460938 14.125 A 14.500001 14.500001 0 0 0 0.45703125 14.445312 A 14.500001 14.500001 0 0 0 0.44726562 14.765625 A 14.500001 14.500001 0 0 0 0.44335938 15.085938 A 14.500001 14.500001 0 0 0 0.44335938 15.126953 A 14.500001 14.500001 0 0 0 0.44726562 15.447266 A 14.500001 14.500001 0 0 0 0.45898438 15.767578 A 14.500001 14.500001 0 0 0 0.47851562 16.087891 A 14.500001 14.500001 0 0 0 0.50390625 16.40625 A 14.500001 14.500001 0 0 0 0.53710938 16.724609 A 14.500001 14.500001 0 0 0 0.57617188 17.042969 A 14.500001 14.500001 0 0 0 0.62304688 17.359375 A 14.500001 14.500001 0 0 0 0.67578125 17.675781 A 14.500001 14.500001 0 0 0 0.73632812 17.990234 A 14.500001 14.500001 0 0 0 0.8046875 18.302734 A 14.500001 14.500001 0 0 0 0.87890625 18.613281 A 14.500001 14.500001 0 0 0 0.9609375 18.923828 A 14.500001 14.500001 0 0 0 1.0488281 19.232422 A 14.500001 14.500001 0 0 0 1.1445312 19.537109 A 14.500001 14.500001 0 0 0 1.2460938 19.841797 A 14.500001 14.500001 0 0 0 1.3535156 20.142578 A 14.500001 14.500001 0 0 0 1.46875 20.441406 A 14.500001 14.500001 0 0 0 1.5898438 20.736328 A 14.500001 14.500001 0 0 0 1.71875 21.03125 A 14.500001 14.500001 0 0 0 1.8535156 21.322266 A 14.500001 14.500001 0 0 0 1.9941406 21.609375 A 14.500001 14.500001 0 0 0 2.140625 21.892578 A 14.500001 14.500001 0 0 0 2.2949219 22.173828 A 14.500001 14.500001 0 0 0 2.453125 22.451172 A 14.500001 14.500001 0 0 0 2.6191406 22.726562 A 14.500001 14.500001 0 0 0 2.7910156 22.996094 A 14.500001 14.500001 0 0 0 2.96875 23.261719 A 14.500001 14.500001 0 0 0 3.1523438 23.525391 A 14.500001 14.500001 0 0 0 3.3417969 23.783203 A 14.500001 14.500001 0 0 0 3.5371094 24.037109 A 14.500001 14.500001 0 0 0 3.7363281 24.287109 A 14.500001 14.500001 0 0 0 3.9433594 24.53125 A 14.500001 14.500001 0 0 0 4.1542969 24.773438 A 14.500001 14.500001 0 0 0 4.3710938 25.007812 A 14.500001 14.500001 0 0 0 4.5917969 25.240234 A 14.500001 14.500001 0 0 0 4.8183594 25.464844 A 14.500001 14.500001 0 0 0 5.0507812 25.6875 A 14.500001 14.500001 0 0 0 5.2871094 25.902344 A 14.500001 14.500001 0 0 0 5.5292969 26.113281 A 14.500001 14.500001 0 0 0 5.7734375 26.318359 A 14.500001 14.500001 0 0 0 6.0253906 26.517578 A 14.500001 14.500001 0 0 0 6.2792969 26.712891 A 14.500001 14.500001 0 0 0 6.5390625 26.900391 A 14.500001 14.500001 0 0 0 6.8007812 27.083984 A 14.500001 14.500001 0 0 0 7.0683594 27.259766 A 14.500001 14.500001 0 0 0 7.3378906 27.431641 A 14.500001 14.500001 0 0 0 7.6132812 27.595703 A 14.500001 14.500001 0 0 0 7.890625 27.755859 A 14.500001 14.500001 0 0 0 8.171875 27.908203 A 14.500001 14.500001 0 0 0 8.4570312 28.054688 A 14.500001 14.500001 0 0 0 8.7460938 28.193359 A 14.500001 14.500001 0 0 0 9.0371094 28.328125 A 14.500001 14.500001 0 0 0 9.3300781 28.455078 A 14.500001 14.500001 0 0 0 9.6269531 28.576172 A 14.500001 14.500001 0 0 0 9.9257812 28.689453 A 14.500001 14.500001 0 0 0 10.228516 28.796875 A 14.500001 14.500001 0 0 0 10.53125 28.898438 A 14.500001 14.500001 0 0 0 10.837891 28.992188 A 14.500001 14.500001 0 0 0 11.146484 29.080078 A 14.500001 14.500001 0 0 0 11.455078 29.160156 A 14.500001 14.500001 0 0 0 11.767578 29.232422 A 14.500001 14.500001 0 0 0 12.080078 29.300781 A 14.500001 14.500001 0 0 0 12.394531 29.359375 A 14.500001 14.500001 0 0 0 12.710938 29.412109 A 14.500001 14.500001 0 0 0 13.027344 29.458984 A 14.500001 14.500001 0 0 0 13.345703 29.498047 A 14.500001 14.500001 0 0 0 13.664062 29.529297 A 14.500001 14.500001 0 0 0 13.984375 29.552734 A 14.500001 14.500001 0 0 0 14.302734 29.570312 A 14.500001 14.500001 0 0 0 14.623047 29.582031 A 14.500001 14.500001 0 0 0 14.943359 29.585938 A 14.500001 14.500001 0 0 0 14.986328 29.585938 A 14.500001 14.500001 0 0 0 15.304688 29.580078 A 14.500001 14.500001 0 0 0 15.625 29.570312 A 14.500001 14.500001 0 0 0 15.945312 29.550781 A 14.500001 14.500001 0 0 0 16.263672 29.525391 A 14.500001 14.500001 0 0 0 16.582031 29.492188 A 14.500001 14.500001 0 0 0 16.900391 29.453125 A 14.500001 14.500001 0 0 0 17.216797 29.40625 A 14.500001 14.500001 0 0 0 17.533203 29.351562 A 14.500001 14.500001 0 0 0 17.847656 29.291016 A 14.500001 14.500001 0 0 0 18.160156 29.224609 A 14.500001 14.500001 0 0 0 18.472656 29.150391 A 14.500001 14.500001 0 0 0 18.78125 29.068359 A 14.500001 14.500001 0 0 0 19.089844 28.980469 A 14.500001 14.500001 0 0 0 19.394531 28.884766 A 14.500001 14.500001 0 0 0 19.699219 28.783203 A 14.500001 14.500001 0 0 0 20 28.675781 A 14.500001 14.500001 0 0 0 20.298828 28.560547 A 14.500001 14.500001 0 0 0 20.595703 28.439453 A 14.500001 14.500001 0 0 0 20.888672 28.310547 A 14.500001 14.500001 0 0 0 21.179688 28.175781 A 14.500001 14.500001 0 0 0 21.466797 28.035156 A 14.500001 14.500001 0 0 0 21.751953 27.888672 A 14.500001 14.500001 0 0 0 21.794922 27.865234 L 20.470703 10.958984 C 20.378411 9.7815285 19.357143 8.9077075 18.179688 9 L 1.2480469 10.326172 z "
         transform="matrix(0.18320495,-0.13917122,0.13917122,0.18320495,-1.8598495,2.7764973)" />
      <path
         id="path3953"
         style="opacity:0.998058;fill:#c8beb7;fill-opacity:1;stroke-width:5.52595;stroke-linecap:round;stroke-linejoin:round;paint-order:stroke fill markers"
         d="M 1.2148438 10.330078 A 14.500001 14.500001 0 0 0 1.1738281 10.443359 A 14.500001 14.500001 0 0 0 1.0742188 10.748047 A 14.500001 14.500001 0 0 0 0.97851562 11.054688 A 14.500001 14.500001 0 0 0 0.89257812 11.361328 A 14.500001 14.500001 0 0 0 0.8125 11.671875 A 14.500001 14.500001 0 0 0 0.73828125 11.984375 A 14.500001 14.500001 0 0 0 0.671875 12.296875 A 14.500001 14.500001 0 0 0 0.61132812 12.611328 A 14.500001 14.500001 0 0 0 0.55859375 12.927734 A 14.500001 14.500001 0 0 0 0.51367188 13.244141 A 14.500001 14.500001 0 0 0 0.47460938 13.5625 A 14.500001 14.500001 0 0 0 0.44140625 13.880859 A 14.500001 14.500001 0 0 0 0.41796875 14.199219 A 14.500001 14.500001 0 0 0 0.40039062 14.519531 A 14.500001 14.500001 0 0 0 0.38867188 14.839844 A 14.500001 14.500001 0 0 0 0.38671875 15.160156 A 14.500001 14.500001 0 0 0 0.38671875 15.201172 A 14.500001 14.500001 0 0 0 0.390625 15.521484 A 14.500001 14.500001 0 0 0 0.40234375 15.841797 A 14.500001 14.500001 0 0 0 0.41992188 16.162109 A 14.500001 14.500001 0 0 0 0.4453125 16.480469 A 14.500001 14.500001 0 0 0 0.47851562 16.798828 A 14.500001 14.500001 0 0 0 0.51953125 17.117188 A 14.500001 14.500001 0 0 0 0.56445312 17.433594 A 14.500001 14.500001 0 0 0 0.61914062 17.75 A 14.500001 14.500001 0 0 0 0.6796875 18.064453 A 14.500001 14.500001 0 0 0 0.74804688 18.376953 A 14.500001 14.500001 0 0 0 0.82226562 18.6875 A 14.500001 14.500001 0 0 0 0.90234375 18.998047 A 14.500001 14.500001 0 0 0 0.9921875 19.306641 A 14.500001 14.500001 0 0 0 1.0859375 19.611328 A 14.500001 14.500001 0 0 0 1.1875 19.916016 A 14.500001 14.500001 0 0 0 1.296875 20.216797 A 14.500001 14.500001 0 0 0 1.4121094 20.515625 A 14.500001 14.500001 0 0 0 1.5332031 20.8125 A 14.500001 14.500001 0 0 0 1.6601562 21.105469 A 14.500001 14.500001 0 0 0 1.7949219 21.396484 A 14.500001 14.500001 0 0 0 1.9355469 21.683594 A 14.500001 14.500001 0 0 0 2.0839844 21.966797 A 14.500001 14.500001 0 0 0 2.2363281 22.248047 A 14.500001 14.500001 0 0 0 2.3964844 22.525391 A 14.500001 14.500001 0 0 0 2.5625 22.800781 A 14.500001 14.500001 0 0 0 2.734375 23.070312 A 14.500001 14.500001 0 0 0 2.9121094 23.335938 A 14.500001 14.500001 0 0 0 3.0957031 23.599609 A 14.500001 14.500001 0 0 0 3.2832031 23.857422 A 14.500001 14.500001 0 0 0 3.4785156 24.111328 A 14.500001 14.500001 0 0 0 3.6796875 24.361328 A 14.500001 14.500001 0 0 0 3.8847656 24.607422 A 14.500001 14.500001 0 0 0 4.0976562 24.847656 A 14.500001 14.500001 0 0 0 4.3125 25.083984 A 14.500001 14.500001 0 0 0 4.5351562 25.314453 A 14.500001 14.500001 0 0 0 4.7617188 25.541016 A 14.500001 14.500001 0 0 0 4.9941406 25.761719 A 14.500001 14.500001 0 0 0 5.2304688 25.976562 A 14.500001 14.500001 0 0 0 5.4707031 26.1875 A 14.500001 14.500001 0 0 0 5.7167969 26.392578 A 14.500001 14.500001 0 0 0 5.9667969 26.591797 A 14.500001 14.500001 0 0 0 6.2226562 26.787109 A 14.500001 14.500001 0 0 0 6.4804688 26.974609 A 14.500001 14.500001 0 0 0 6.7441406 27.158203 A 14.500001 14.500001 0 0 0 7.0097656 27.333984 A 14.500001 14.500001 0 0 0 7.28125 27.505859 A 14.500001 14.500001 0 0 0 7.5566406 27.669922 A 14.500001 14.500001 0 0 0 7.8339844 27.830078 A 14.500001 14.500001 0 0 0 8.1152344 27.982422 A 14.500001 14.500001 0 0 0 8.4003906 28.128906 A 14.500001 14.500001 0 0 0 8.6875 28.267578 A 14.500001 14.500001 0 0 0 8.9785156 28.402344 A 14.500001 14.500001 0 0 0 9.2734375 28.529297 A 14.500001 14.500001 0 0 0 9.5703125 28.650391 A 14.500001 14.500001 0 0 0 9.8691406 28.763672 A 14.500001 14.500001 0 0 0 10.169922 28.871094 A 14.500001 14.500001 0 0 0 10.474609 28.972656 A 14.500001 14.500001 0 0 0 10.779297 29.066406 A 14.500001 14.500001 0 0 0 11.087891 29.154297 A 14.500001 14.500001 0 0 0 11.398438 29.234375 A 14.500001 14.500001 0 0 0 11.708984 29.308594 A 14.500001 14.500001 0 0 0 12.023438 29.375 A 14.500001 14.500001 0 0 0 12.337891 29.433594 A 14.500001 14.500001 0 0 0 12.654297 29.486328 A 14.500001 14.500001 0 0 0 12.970703 29.533203 A 14.500001 14.500001 0 0 0 13.287109 29.572266 A 14.500001 14.500001 0 0 0 13.607422 29.603516 A 14.500001 14.500001 0 0 0 13.925781 29.628906 A 14.500001 14.500001 0 0 0 14.246094 29.646484 A 14.500001 14.500001 0 0 0 14.566406 29.65625 A 14.500001 14.500001 0 0 0 14.886719 29.660156 A 14.500001 14.500001 0 0 0 14.927734 29.660156 A 14.500001 14.500001 0 0 0 15.248047 29.65625 A 14.500001 14.500001 0 0 0 15.568359 29.644531 A 14.500001 14.500001 0 0 0 15.888672 29.625 A 14.500001 14.500001 0 0 0 16.207031 29.599609 A 14.500001 14.500001 0 0 0 16.525391 29.566406 A 14.500001 14.500001 0 0 0 16.84375 29.527344 A 14.500001 14.500001 0 0 0 17.160156 29.480469 A 14.500001 14.500001 0 0 0 17.474609 29.425781 A 14.500001 14.500001 0 0 0 17.789062 29.365234 A 14.500001 14.500001 0 0 0 18.103516 29.298828 A 14.500001 14.500001 0 0 0 18.414062 29.224609 A 14.500001 14.500001 0 0 0 18.724609 29.142578 A 14.500001 14.500001 0 0 0 19.03125 29.054688 A 14.500001 14.500001 0 0 0 19.337891 28.958984 A 14.500001 14.500001 0 0 0 19.640625 28.857422 A 14.500001 14.500001 0 0 0 19.943359 28.75 A 14.500001 14.500001 0 0 0 20.242188 28.634766 A 14.500001 14.500001 0 0 0 20.537109 28.513672 A 14.500001 14.500001 0 0 0 20.595703 28.488281 L 19.220703 10.949219 C 19.133005 9.8303767 18.161811 9.0001925 17.042969 9.0878906 L 1.2148438 10.330078 z "
         transform="matrix(0.18320495,-0.13917122,0.13917122,0.18320495,-1.8598495,2.7764973)" />
      <path
         id="path3932"
         style="opacity:0.998058;fill:#f2f2f2;fill-opacity:1;stroke-width:1.27136;stroke-linecap:round;stroke-linejoin:round;paint-order:stroke fill markers"
         d="m -0.23986348,4.3697331 a 3.3360303,3.3360303 0 0 0 0.003403,0.012651 3.3360303,3.3360303 0 0 0 0.0204767,0.070784 3.3360303,3.3360303 0 0 0 0.0224518,0.070413 3.3360303,3.3360303 0 0 0 0.0238829,0.069325 3.3360303,3.3360303 0 0 0 0.0251423,0.069497 3.3360303,3.3360303 0 0 0 0.0272031,0.068496 3.3360303,3.3360303 0 0 0 0.0282767,0.06768 3.3360303,3.3360303 0 0 0 0.02989376,0.067581 3.3360303,3.3360303 0 0 0 0.03132505,0.066493 3.3360303,3.3360303 0 0 0 0.03267032,0.066036 3.3360303,3.3360303 0 0 0 0.03437355,0.065306 3.3360303,3.3360303 0 0 0 0.0358047,0.064219 3.3360303,3.3360303 0 0 0 0.03714997,0.063761 3.3360303,3.3360303 0 0 0 0.0382234,0.062946 3.3360303,3.3360303 0 0 0 0.0402845,0.061945 3.3360303,3.3360303 0 0 0 0.041086,0.060771 3.3360303,3.3360303 0 0 0 0.0424314,0.060314 3.3360303,3.3360303 0 0 0 0.0442204,0.058955 3.3360303,3.3360303 0 0 0 0.00598,0.00787 3.3360303,3.3360303 0 0 0 0.045294,0.058139 3.3360303,3.3360303 0 0 0 0.0464533,0.056694 3.3360303,3.3360303 0 0 0 0.0477986,0.056236 3.3360303,3.3360303 0 0 0 0.0489582,0.054791 3.3360303,3.3360303 0 0 0 0.0506612,0.054062 3.3360303,3.3360303 0 0 0 0.051549,0.052259 3.3360303,3.3360303 0 0 0 0.0522645,0.051715 3.3360303,3.3360303 0 0 0 0.0540536,0.050356 3.3360303,3.3360303 0 0 0 0.0548553,0.049183 3.3360303,3.3360303 0 0 0 0.0560148,0.047738 3.3360303,3.3360303 0 0 0 0.0570882,0.046922 3.3360303,3.3360303 0 0 0 0.0576181,0.045391 3.3360303,3.3360303 0 0 0 0.0594072,0.044032 3.3360303,3.3360303 0 0 0 0.059579,0.042773 3.3360303,3.3360303 0 0 0 0.061011,0.041686 3.3360303,3.3360303 0 0 0 0.061898,0.039883 3.3360303,3.3360303 0 0 0 0.0627,0.038709 3.3360303,3.3360303 0 0 0 0.063501,0.037536 3.3360303,3.3360303 0 0 0 0.064031,0.036005 3.3360303,3.3360303 0 0 0 0.065191,0.03456 3.3360303,3.3360303 0 0 0 0.065721,0.033029 3.3360303,3.3360303 0 0 0 0.06688,0.031584 3.3360303,3.3360303 0 0 0 0.067052,0.030325 3.3360303,3.3360303 0 0 0 0.06794,0.028522 3.3360303,3.3360303 0 0 0 0.068469,0.02699 3.3360303,3.3360303 0 0 0 0.068999,0.02546 3.3360303,3.3360303 0 0 0 0.069801,0.024286 3.3360303,3.3360303 0 0 0 0.070059,0.022397 3.3360303,3.3360303 0 0 0 0.070231,0.021138 3.3360303,3.3360303 0 0 0 0.071119,0.019335 3.3360303,3.3360303 0 0 0 0.071648,0.017804 3.3360303,3.3360303 0 0 0 0.071821,0.016545 3.3360303,3.3360303 0 0 0 0.072436,0.014384 3.3360303,3.3360303 0 0 0 0.072251,0.013397 3.3360303,3.3360303 0 0 0 0.072866,0.011235 3.3360303,3.3360303 0 0 0 0.073038,0.00998 3.3360303,3.3360303 0 0 0 0.073296,0.00809 3.3360303,3.3360303 0 0 0 0.073197,0.00647 3.3360303,3.3360303 0 0 0 0.073368,0.00521 3.3360303,3.3360303 0 0 0 0.073627,0.00332 3.3360303,3.3360303 0 0 0 0.073799,0.00206 3.3360303,3.3360303 0 0 0 0.073785,-1.839e-4 3.3360303,3.3360303 0 0 0 0.073599,-0.00117 3.3360303,3.3360303 0 0 0 0.073585,-0.00342 3.3360303,3.3360303 0 0 0 0.073399,-0.00441 3.3360303,3.3360303 0 0 0 0.073385,-0.00665 3.3360303,3.3360303 0 0 0 0.073558,-0.00791 3.3360303,3.3360303 0 0 0 0.072828,-0.00961 3.3360303,3.3360303 0 0 0 0.072728,-0.011232 3.3360303,3.3360303 0 0 0 0.072628,-0.012849 3.3360303,3.3360303 0 0 0 0.072171,-0.014194 3.3360303,3.3360303 0 0 0 0.071799,-0.016169 3.3360303,3.3360303 0 0 0 0.071699,-0.017786 3.3360303,3.3360303 0 0 0 0.071242,-0.019131 3.3360303,3.3360303 0 0 0 0.070512,-0.020835 3.3360303,3.3360303 0 0 0 0.070055,-0.02218 3.3360303,3.3360303 0 0 0 0.069955,-0.023797 3.3360303,3.3360303 0 0 0 0.068868,-0.025228 3.3360303,3.3360303 0 0 0 0.068768,-0.026845 3.3360303,3.3360303 0 0 0 0.068038,-0.028549 3.3360303,3.3360303 0 0 0 0.067223,-0.029622 3.3360303,3.3360303 0 0 0 0.066851,-0.031597 3.3360303,3.3360303 0 0 0 0.066036,-0.03267 3.3360303,3.3360303 0 0 0 0.065306,-0.034373 3.3360303,3.3360303 0 0 0 0.064219,-0.035805 3.3360303,3.3360303 0 0 0 0.063404,-0.036878 3.3360303,3.3360303 0 0 0 0.063032,-0.038853 3.3360303,3.3360303 0 0 0 0.061858,-0.039655 3.3360303,3.3360303 0 0 0 0.061129,-0.041358 3.3360303,3.3360303 0 0 0 0.060042,-0.042789 3.3360303,3.3360303 0 0 0 0.059227,-0.043863 3.3360303,3.3360303 0 0 0 0.00751,-0.00571 3.3360303,3.3360303 0 0 0 0.058139,-0.045294 3.3360303,3.3360303 0 0 0 0.057052,-0.046725 3.3360303,3.3360303 0 0 0 0.055965,-0.048157 3.3360303,3.3360303 0 0 0 0.054791,-0.048958 3.3360303,3.3360303 0 0 0 0.053704,-0.05039 3.3360303,3.3360303 0 0 0 0.052889,-0.051463 3.3360303,3.3360303 0 0 0 0.051443,-0.052622 3.3360303,3.3360303 0 0 0 0.05027,-0.053424 3.3360303,3.3360303 0 0 0 0.049183,-0.054855 3.3360303,3.3360303 0 0 0 0.048096,-0.056287 3.3360303,3.3360303 0 0 0 0.046564,-0.056816 3.3360303,3.3360303 0 0 0 0.045477,-0.058248 3.3360303,3.3360303 0 0 0 0.043946,-0.058778 3.3360303,3.3360303 0 0 0 0.043131,-0.059851 3.3360303,3.3360303 0 0 0 0.041056,-0.061096 3.3360303,3.3360303 0 0 0 0.040512,-0.061812 3.3360303,3.3360303 0 0 0 0.0016,-0.00235 L 2.9905248,2.1155413 C 2.8187472,1.922769 2.525282,1.9058375 2.3325097,2.0776148 Z"
         inkscape:connector-curvature="0" />
    </g>
    <g
       id="g3874"
       transform="matrix(-0.00881284,0,0,0.00881284,6.9928734,0.6655909)">
      <path
         id="path3783"
         d="m 364.592,424.831 61.415,-61.415 c 1.696,-1.697 4.061,-2.549 6.449,-2.331 2.389,0.22 4.557,1.491 5.914,3.469 33.881,49.35 71.328,131.386 72.906,134.854 1.393,3.063 0.74,6.671 -1.64,9.05 -1.547,1.547 -3.612,2.364 -5.71,2.364 -1.129,0 -2.268,-0.237 -3.341,-0.724 -3.468,-1.577 -85.504,-39.025 -134.854,-72.906 -1.978,-1.358 -3.249,-3.526 -3.469,-5.914 -0.22,-2.388 0.633,-4.75 2.33,-6.447 z"
         style="fill:#fcde76"
         inkscape:connector-curvature="0" />
      <path
         id="path3785"
         d="m 364.592,424.831 13.622,-13.622 c -1.696,1.696 -2.551,4.059 -2.331,6.449 0.22,2.389 1.491,4.557 3.469,5.914 42.685,29.304 109.811,61.272 129.413,70.396 1.425,3.061 2.298,4.973 2.51,5.442 1.393,3.063 0.74,6.671 -1.64,9.05 -1.547,1.547 -3.612,2.364 -5.71,2.364 -1.129,0 -2.268,-0.237 -3.341,-0.724 -3.468,-1.577 -85.504,-39.025 -134.854,-72.906 -1.978,-1.358 -3.249,-3.526 -3.469,-5.914 -0.22,-2.389 0.634,-4.752 2.331,-6.449 z"
         style="fill:#facf57"
         inkscape:connector-curvature="0" />
      <path
         id="path3787"
         d="m 485.005,445.462 c 15.167,29.581 26.161,53.707 26.271,53.948 1.393,3.063 0.74,6.671 -1.64,9.05 -1.547,1.547 -3.612,2.364 -5.71,2.364 -1.129,0 -2.268,-0.237 -3.341,-0.724 -0.24,-0.109 -24.367,-11.104 -53.948,-26.271"
         style="fill:#7b7980;fill-opacity:1"
         inkscape:connector-curvature="0" />
      <path
         id="path3789"
         d="m 460.244,470.219 c 22.555,11.564 41.152,21.473 49.194,25.21 1.164,2.505 1.81,3.923 1.836,3.981 1.393,3.063 0.74,6.671 -1.64,9.05 -1.547,1.547 -3.612,2.364 -5.71,2.364 -1.129,0 -2.268,-0.237 -3.341,-0.724 -0.24,-0.109 -24.367,-11.104 -53.948,-26.271 z"
         style="fill:#696578"
         inkscape:connector-curvature="0" />
      <path
         id="path3791"
         d="m 26.093,24.918 c 15.004,-15.004 49.09,-4.228 104.209,32.941 49.68,33.502 109.358,84.27 168.04,142.951 58.682,58.681 109.449,118.359 142.951,168.04 0.865,1.282 1.7,2.541 2.536,3.8 l -70.008,70.008 c -1.254,-0.833 -2.52,-1.678 -3.797,-2.54 C 320.344,406.616 260.666,355.848 201.984,297.167 143.303,238.486 92.535,178.808 59.033,129.127 21.865,74.008 11.089,39.921 26.093,24.918 Z"
         style="fill:#37abc8"
         inkscape:connector-curvature="0" />
      <g
         id="g3797">
        <path
           id="path3793"
           d="m 26.093,24.918 c 2.624,-2.624 5.847,-4.443 9.65,-5.486 -4.922,17.936 7.759,49.083 38.426,94.56 33.502,49.68 84.27,109.358 142.951,168.04 26.728,26.728 53.66,51.806 79.764,74.367 l -15.135,15.135 c 10.792,9.327 -41.985,-36.588 -79.764,-74.367 C 143.304,238.486 92.536,178.808 59.034,129.127 21.865,74.008 11.089,39.921 26.093,24.918 Z"
           style="fill:#2c89a0"
           inkscape:connector-curvature="0" />
        <path
           id="path3795"
           d="m 385.16,424.983 c 1.277,0.862 2.542,1.706 3.797,2.54 l -15.135,15.135 c -1.254,-0.833 -2.52,-1.678 -3.797,-2.54 -17.695,-11.933 -36.663,-26.065 -56.397,-41.956 l 15.135,-15.135 c 19.734,15.89 38.701,30.023 56.397,41.956 z"
           style="fill:#2c89a0"
           inkscape:connector-curvature="0" />
      </g>
      <path
         id="path3799"
         d="m 372.709,280.573 c 9.328,10.794 18.225,21.443 26.627,31.878 l -70.575,70.575 c -10.435,-8.403 -21.086,-17.299 -31.878,-26.627 z"
         style="fill:#787485"
         inkscape:connector-curvature="0" />
      <path
         id="path3801"
         d="m 296.883,356.398 c 10.794,9.328 21.443,18.225 31.878,26.627 l -15.135,15.135 c -0.002,-0.001 -0.003,-0.003 -0.005,-0.004 -10.433,-8.401 -21.082,-17.296 -31.873,-26.623 z"
         style="fill:#696578"
         inkscape:connector-curvature="0" />
      <path
         id="path3803"
         d="m 13.888,12.712 v 0 c 16.71,-16.71 43.312,-24.595 113.903,43.626 1.556,1.504 2.444,3.571 2.462,5.735 0.019,2.165 -0.833,4.246 -2.364,5.777 l -58.865,58.865 c -1.573,1.573 -3.639,2.364 -5.709,2.364 -1.964,0 -3.93,-0.712 -5.48,-2.146 C 19.341,91.331 0.426,63.613 0.007,42.195 -0.291,26.89 8.584,18.015 13.888,12.712 Z"
         style="fill:#fcde76"
         inkscape:connector-curvature="0" />
      <path
         id="path3805"
         d="m 13.888,12.712 v 0 C 15.714,10.885 17.659,9.164 19.767,7.637 15.871,12.886 12.434,19.962 12.622,29.582 13.04,51 31.955,78.718 70.45,114.32 c 1.55,1.434 3.516,2.146 5.48,2.146 2.07,0 4.136,-0.791 5.709,-2.364 l -12.613,12.613 c -1.573,1.573 -3.639,2.364 -5.709,2.364 -1.964,0 -3.93,-0.712 -5.48,-2.146 C 19.341,91.331 0.426,63.613 0.007,42.195 -0.291,26.89 8.584,18.015 13.888,12.712 Z"
         style="fill:#facf57"
         inkscape:connector-curvature="0" />
      <path
         id="path3807"
         d="m 135.64,323.148 c -2.961,0 -5.812,-1.636 -7.227,-4.464 -1.994,-3.988 -0.377,-8.836 3.61,-10.83 6.233,-3.116 13.715,-8.213 13.968,-14.796 0.265,-6.923 -7.098,-15.048 -14.511,-19.495 C 67.951,235.446 35.74,198.489 35.74,163.72 c 0,-23.902 17.258,-41.16 22.929,-46.831 l 67.874,-67.874 c 3.152,-3.152 8.263,-3.152 11.415,0 3.153,3.152 3.153,8.263 0,11.415 l -67.874,67.874 c -12.247,12.248 -18.201,23.831 -18.201,35.415 0,28.299 30.396,61.495 87.902,95.999 10.66,6.396 22.907,19.128 22.337,33.959 -0.307,7.988 -4.525,19.439 -22.88,28.616 -1.158,0.579 -2.39,0.855 -3.602,0.855 z"
         style="fill:#787485;fill-opacity:1"
         inkscape:connector-curvature="0" />
      <g
         id="g3809" />
      <g
         id="g3811" />
      <g
         id="g3813" />
      <g
         id="g3815" />
      <g
         id="g3817" />
      <g
         id="g3819" />
      <g
         id="g3821" />
      <g
         id="g3823" />
      <g
         id="g3825" />
      <g
         id="g3827" />
      <g
         id="g3829" />
      <g
         id="g3831" />
      <g
         id="g3833" />
      <g
         id="g3835" />
      <g
         id="g3837" />
    </g>
    <path
       style="opacity:0.998058;fill:#7b7980;fill-opacity:1;stroke-width:1;stroke-linecap:round;stroke-linejoin:round;paint-order:stroke fill markers"
       id="path3979"
       d="m 0.58782555,5.1786099 c -0.0279428,0.01778 0.066891,-0.049303 0.0385313,-0.034213 -0.27111285,0.1442579 -0.0701645,0.045169 -0.0563916,0.038685 0.0177453,-0.00836 0.0356216,-0.016428 0.0534325,-0.024643 0.0980537,-0.036647 0.20864115,-0.095435 0.31662388,-0.064852 0.0180941,0.00513 0.034468,0.015052 0.051702,0.022579 0.0670452,0.041658 0.12183117,0.098734 0.18540167,0.145242 0.070667,0.035264 0.1500191,0.013795 0.2231405,-0.00259 0.09444,-0.024157 0.1858759,-0.058131 0.2772834,-0.091636 0.099901,-0.034343 0.1974041,-0.075254 0.2951055,-0.115326 0.065877,-0.022601 0.1319573,-0.057194 0.2031468,-0.054625 0.044356,0.012158 0.074469,0.04893 0.1079298,0.078196 0.016724,0.016145 0.038585,0.024561 0.057937,0.036897 0.014043,0.01129 0.026953,0.022468 0.044232,0.028219 0.010007,0.0022 0.00519,0.00127 0.01444,0.00284 0,0 0.1272875,-0.090232 0.1272875,-0.090232 v 0 c -0.00882,-5.556e-4 -0.00428,-1.926e-4 -0.013635,-0.00114 -0.017103,-0.00214 -0.02868,-0.012242 -0.041735,-0.022971 -0.018513,-0.013811 -0.039967,-0.021294 -0.058398,-0.035015 -0.037381,-0.02947 -0.06904,-0.067686 -0.114368,-0.085221 -0.074655,-0.00848 -0.1435983,0.029709 -0.2126245,0.053056 -0.097179,0.040149 -0.1942911,0.08095 -0.2938049,0.1149958 -0.091183,0.033829 -0.1825953,0.06775 -0.2765022,0.093373 -0.068594,0.01629 -0.143506,0.036041 -0.2118901,0.00992 -0.066909,-0.044626 -0.1240006,-0.1015455 -0.1924928,-0.143808 -0.017977,-0.00862 -0.034938,-0.019799 -0.053931,-0.025855 -0.1089962,-0.034761 -0.22120901,0.022606 -0.32160891,0.058059 -0.10211151,0.045887 -0.21654746,0.086152 -0.29135797,0.172448 0,0 0.14254633,-0.062369 0.14254633,-0.062369 z"
       inkscape:connector-curvature="0" />
    <path
       style="opacity:0.998058;fill:#7b7980;fill-opacity:1;stroke-width:1;stroke-linecap:round;stroke-linejoin:round;paint-order:stroke fill markers"
       id="path3989"
       d="m 0.4297345,4.4667598 c 0.0405525,-0.02545 0.1383702,-0.1013804 -0.0331171,0.013679 -0.0121632,0.00816 0.0255767,-0.014849 0.0396261,-0.018992 0.0357519,-0.010541 0.0516959,-0.00321 0.0877134,0.00308 0.12710539,0.020206 0.24940538,-0.022662 0.36699502,-0.065946 0.0456523,-0.01868 0.0956585,-0.036575 0.14594448,-0.027649 0.017064,0.00303 0.033533,0.012139 0.048879,0.019312 0.022859,0.011671 0.045036,0.024379 0.068191,0.035444 0,0 0.127184,-0.08483 0.127184,-0.08483 v 0 c -0.024236,-0.00899 -0.046668,-0.020971 -0.069268,-0.033553 -0.014255,-0.00765 -0.035781,-0.020563 -0.05213,-0.024246 -0.052655,-0.011867 -0.1074936,0.00562 -0.155036,0.026397 -0.11459698,0.044658 -0.23526172,0.089979 -0.36022146,0.071307 -0.0333736,-0.00836 -0.0577012,-0.018836 -0.0926642,-0.011187 -0.0143841,0.00315 -0.0274826,0.010808 -0.0403698,0.017931 -0.074235,0.041027 -0.16122145,0.080774 -0.22307098,0.143197 0,0 0.14134439,-0.063949 0.14134439,-0.063949 z"
       inkscape:connector-curvature="0" />
    <path
       style="opacity:0.998058;fill:#7b7980;fill-opacity:1;stroke-width:1;stroke-linecap:round;stroke-linejoin:round;paint-order:stroke fill markers"
       id="path3991"
       d="m 1.8228676,4.3031026 c 0.1638551,-0.0063 0.3273692,-0.018637 0.4909675,-0.029387 0.086478,3.207e-4 0.1702192,-0.020101 0.2546846,-0.035623 0.056136,-0.00966 0.1126994,-0.016414 0.1695206,-0.020216 0,0 0.1295056,-0.081099 0.1295056,-0.081099 v 0 c -0.05892,0.00539 -0.1176121,0.01269 -0.1759637,0.022576 -0.084854,0.014695 -0.1687428,0.03467 -0.2552021,0.037643 -0.1632836,0.014771 -0.3267734,0.030611 -0.490914,0.030104 0,0 -0.1225984,0.076002 -0.1225984,0.076002 z"
       inkscape:connector-curvature="0" />
  </g>
</svg>
