<?xml version="1.0" encoding="UTF-8" standalone="no"?>
<svg
   xmlns:dc="http://purl.org/dc/elements/1.1/"
   xmlns:cc="http://creativecommons.org/ns#"
   xmlns:rdf="http://www.w3.org/1999/02/22-rdf-syntax-ns#"
   xmlns:svg="http://www.w3.org/2000/svg"
   xmlns="http://www.w3.org/2000/svg"
   xmlns:sodipodi="http://sodipodi.sourceforge.net/DTD/sodipodi-0.dtd"
   xmlns:inkscape="http://www.inkscape.org/namespaces/inkscape"
   inkscape:export-ydpi="357.79999"
   inkscape:export-xdpi="357.79999"
   inkscape:export-filename="/Users/mike.xiao/Documents/Projects/DBT_icons/dbt_icons/dialectics.png"
   sodipodi:docname="dialectics.svg"
   inkscape:version="1.0beta2 (2b71d25, 2019-12-03)"
   id="svg870"
   version="1.1"
   viewBox="0 0 7.9374997 7.937501"
   height="30"
   width="30">
  <defs
     id="defs864">
    <clipPath
       clipPathUnits="userSpaceOnUse"
       id="clipPath3356">
      <circle
         style="opacity:0.998058;fill:#aaffee;fill-opacity:1;stroke-width:5.55148;stroke-linecap:round;stroke-linejoin:round;stroke-dashoffset:7.40787;paint-order:stroke fill markers"
         id="circle3358"
         cx="112.22215"
         cy="269.70401"
         r="351.66946"
         transform="rotate(-24.851457)" />
    </clipPath>
  </defs>
  <sodipodi:namedview
     inkscape:window-maximized="0"
     inkscape:window-y="81"
     inkscape:window-x="420"
     inkscape:window-height="664"
     inkscape:window-width="1137"
     units="px"
     showgrid="false"
     inkscape:document-rotation="0"
     inkscape:current-layer="layer1"
     inkscape:document-units="mm"
     inkscape:cy="15"
     inkscape:cx="11.709062"
     inkscape:zoom="12.58"
     inkscape:pageshadow="2"
     inkscape:pageopacity="0.0"
     borderopacity="1.0"
     bordercolor="#666666"
     pagecolor="#ffffff"
     id="base" />
  <metadata
     id="metadata867">
    <rdf:RDF>
      <cc:Work
         rdf:about="">
        <dc:format>image/svg+xml</dc:format>
        <dc:type
           rdf:resource="http://purl.org/dc/dcmitype/StillImage" />
        <dc:title></dc:title>
      </cc:Work>
    </rdf:RDF>
  </metadata>
  <g
     id="layer1"
     inkscape:groupmode="layer"
     inkscape:label="Layer 1">
    <circle
       r="3.8364584"
       cy="3.9665015"
       cx="4.0098491"
       id="path838"
       style="opacity:0.998058;fill:#f4e3d7;fill-opacity:1;stroke-width:0.0605625;stroke-linecap:round;stroke-linejoin:round;stroke-dashoffset:7.40787;paint-order:stroke fill markers" />
    <path
       inkscape:connector-curvature="0"
       d="M 7.1690905,4.0451323 A 1.9112496,1.9112496 0 0 1 5.2578409,5.9563819 1.9112496,1.9112496 0 0 1 3.3465912,4.0451323 1.9112496,1.9112496 0 0 1 5.2578409,2.1338826 1.9112496,1.9112496 0 0 1 7.1690905,4.0451323 M 4.8138486,4.0732433 A 1.9112496,1.9112496 0 0 1 2.902599,5.9844929 1.9112496,1.9112496 0 0 1 0.99134932,4.0732433 1.9112496,1.9112496 0 0 1 2.902599,2.1619936 1.9112496,1.9112496 0 0 1 4.8138486,4.0732433"
       style="opacity:0.998058;fill:#828282;fill-opacity:0.5;stroke-width:0.0301712;stroke-linecap:round;stroke-linejoin:round;stroke-dashoffset:7.40787;paint-order:stroke fill markers"
       id="path838-9-1-9" />
    <circle
       r="1.9112496"
       style="opacity:0.998058;fill:#ff8080;fill-opacity:1;stroke-width:0.0301711;stroke-linecap:round;stroke-linejoin:round;stroke-dashoffset:7.40787;paint-order:stroke fill markers"
       id="path838-9"
       cx="2.9121656"
       cy="3.9427361" />
    <circle
       cy="3.9146252"
       cx="5.2674074"
       id="path838-9-1"
       style="opacity:0.998058;fill:#5298ff;fill-opacity:1;stroke-width:0.0301711;stroke-linecap:round;stroke-linejoin:round;stroke-dashoffset:7.40787;paint-order:stroke fill markers"
       r="1.9112496" />
    <path
       inkscape:connector-curvature="0"
       d="m 4.0831612,5.4190502 a 1.9112496,1.9112496 0 0 0 0.021704,-0.01757 1.9112496,1.9112496 0 0 0 0.045475,-0.039274 1.9112496,1.9112496 0 0 0 0.043925,-0.040307 1.9112496,1.9112496 0 0 0 0.042892,-0.041858 1.9112496,1.9112496 0 0 0 0.041341,-0.042892 1.9112496,1.9112496 0 0 0 0.040307,-0.044441 1.9112496,1.9112496 0 0 0 0.038758,-0.045476 1.9112496,1.9112496 0 0 0 0.037207,-0.047026 1.9112496,1.9112496 0 0 0 0.035657,-0.047542 1.9112496,1.9112496 0 0 0 0.034106,-0.049093 1.9112496,1.9112496 0 0 0 0.033073,-0.050126 1.9112496,1.9112496 0 0 0 0.031006,-0.05116 1.9112496,1.9112496 0 0 0 0.029456,-0.052193 1.9112496,1.9112496 0 0 0 0.027905,-0.05271 1.9112496,1.9112496 0 0 0 0.026355,-0.053744 1.9112496,1.9112496 0 0 0 0.024288,-0.054777 1.9112496,1.9112496 0 0 0 0.022738,-0.055294 1.9112496,1.9112496 0 0 0 0.021187,-0.05581 1.9112496,1.9112496 0 0 0 0.01912,-0.056327 1.9112496,1.9112496 0 0 0 0.01757,-0.057361 1.9112496,1.9112496 0 0 0 0.01602,-0.057878 1.9112496,1.9112496 0 0 0 0.013953,-0.057878 1.9112496,1.9112496 0 0 0 0.011886,-0.058394 1.9112496,1.9112496 0 0 0 0.010335,-0.058911 1.9112496,1.9112496 0 0 0 0.00827,-0.059428 1.9112496,1.9112496 0 0 0 0.00672,-0.059428 1.9112496,1.9112496 0 0 0 0.00465,-0.059428 1.9112496,1.9112496 0 0 0 0.00258,-0.059945 1.9112496,1.9112496 0 0 0 0.00103,-0.059945 1.9112496,1.9112496 0 0 0 0,-0.012402 1.9112496,1.9112496 0 0 0 -0.00155,-0.059428 1.9112496,1.9112496 0 0 0 -0.0031,-0.059945 A 1.9112496,1.9112496 0 0 0 4.78286,3.7416331 1.9112496,1.9112496 0 0 0 4.776142,3.6822053 1.9112496,1.9112496 0 0 0 4.767357,3.6232943 1.9112496,1.9112496 0 0 0 4.7565049,3.5643832 1.9112496,1.9112496 0 0 0 4.7441025,3.5059889 1.9112496,1.9112496 0 0 0 4.73015,3.4475943 1.9112496,1.9112496 0 0 0 4.7141303,3.3902337 1.9112496,1.9112496 0 0 0 4.6960436,3.3328728 1.9112496,1.9112496 0 0 0 4.6764065,3.2765454 1.9112496,1.9112496 0 0 0 4.6552192,3.2207347 1.9112496,1.9112496 0 0 0 4.6319647,3.165441 1.9112496,1.9112496 0 0 0 4.60716,3.1111808 1.9112496,1.9112496 0 0 0 4.5802884,3.0574373 1.9112496,1.9112496 0 0 0 4.5523831,3.0047273 1.9112496,1.9112496 0 0 0 4.5224108,2.953051 1.9112496,1.9112496 0 0 0 4.4908881,2.9024081 1.9112496,1.9112496 0 0 0 4.4578152,2.8522818 1.9112496,1.9112496 0 0 0 4.4231921,2.8037061 1.9112496,1.9112496 0 0 0 4.3870185,2.7561637 1.9112496,1.9112496 0 0 0 4.3498115,2.709655 1.9112496,1.9112496 0 0 0 4.3105372,2.6641797 1.9112496,1.9112496 0 0 0 4.2702298,2.6197379 1.9112496,1.9112496 0 0 0 4.2283719,2.5773633 1.9112496,1.9112496 0 0 0 4.1854803,2.5355054 1.9112496,1.9112496 0 0 0 4.1410388,2.4957145 1.9112496,1.9112496 0 0 0 4.0955633,2.4569572 1.9112496,1.9112496 0 0 0 4.0562893,2.4259513 1.9112496,1.9112496 0 0 0 3.3467718,3.9121656 1.9112496,1.9112496 0 0 0 4.0831612,5.4190502 Z"
       style="opacity:0.998058;fill:#a17bdb;fill-opacity:1;stroke-width:0.0301712;stroke-linecap:round;stroke-linejoin:round;stroke-dashoffset:7.40787;paint-order:stroke fill markers"
       id="path838-9-1-0" />
  </g>
</svg>
