<?xml version="1.0" encoding="UTF-8" standalone="no"?>
<svg
   xmlns:dc="http://purl.org/dc/elements/1.1/"
   xmlns:cc="http://creativecommons.org/ns#"
   xmlns:rdf="http://www.w3.org/1999/02/22-rdf-syntax-ns#"
   xmlns:svg="http://www.w3.org/2000/svg"
   xmlns="http://www.w3.org/2000/svg"
   xmlns:sodipodi="http://sodipodi.sourceforge.net/DTD/sodipodi-0.dtd"
   xmlns:inkscape="http://www.inkscape.org/namespaces/inkscape"
   inkscape:export-ydpi="358.39999"
   inkscape:export-xdpi="358.39999"
   inkscape:export-filename="/Users/mike.xiao/Documents/Projects/DBT_icons/dbt_icons/effectiveness.png"
   sodipodi:docname="effectiveness.svg"
   inkscape:version="1.0beta2 (2b71d25, 2019-12-03)"
   id="svg870"
   version="1.1"
   viewBox="0 0 7.9374997 7.937501"
   height="30"
   width="30">
  <defs
     id="defs864" />
  <sodipodi:namedview
     inkscape:window-maximized="0"
     inkscape:window-y="123"
     inkscape:window-x="173"
     inkscape:window-height="664"
     inkscape:window-width="1137"
     units="px"
     showgrid="false"
     inkscape:document-rotation="0"
     inkscape:current-layer="layer1"
     inkscape:document-units="mm"
     inkscape:cy="14.520058"
     inkscape:cx="11.249385"
     inkscape:zoom="13.83"
     inkscape:pageshadow="2"
     inkscape:pageopacity="0.0"
     borderopacity="1.0"
     bordercolor="#666666"
     pagecolor="#ffffff"
     id="base" />
  <metadata
     id="metadata867">
    <rdf:RDF>
      <cc:Work
         rdf:about="">
        <dc:format>image/svg+xml</dc:format>
        <dc:type
           rdf:resource="http://purl.org/dc/dcmitype/StillImage" />
        <dc:title />
      </cc:Work>
    </rdf:RDF>
  </metadata>
  <g
     id="layer1"
     inkscape:groupmode="layer"
     inkscape:label="Layer 1">
    <circle
       r="3.8364584"
       cy="3.938956"
       cx="4.0428591"
       id="path5405"
       style="opacity:0.998058;fill:#4dceb7;stroke-width:0.482293;stroke-linecap:round;stroke-linejoin:round;paint-order:stroke fill markers;fill-opacity:1" />
    <path
       transform="scale(0.26458333)"
       d="M 25.716797 4.8613281 A 14.500001 14.500001 0 0 0 25.583984 4.7226562 A 14.500001 14.500001 0 0 0 25.357422 4.4980469 A 14.500001 14.500001 0 0 0 25.126953 4.2753906 A 14.500001 14.500001 0 0 0 24.890625 4.0605469 A 14.500001 14.500001 0 0 0 24.648438 3.8496094 A 14.500001 14.500001 0 0 0 24.402344 3.6445312 A 14.500001 14.500001 0 0 0 24.152344 3.4453125 A 14.500001 14.500001 0 0 0 23.898438 3.25 A 14.500001 14.500001 0 0 0 23.638672 3.0625 A 14.500001 14.500001 0 0 0 23.376953 2.8789062 A 14.500001 14.500001 0 0 0 23.109375 2.703125 A 14.500001 14.500001 0 0 0 22.837891 2.53125 A 14.500001 14.500001 0 0 0 22.564453 2.3671875 A 14.500001 14.500001 0 0 0 22.285156 2.2070312 A 14.500001 14.500001 0 0 0 22.003906 2.0546875 A 14.500001 14.500001 0 0 0 21.71875 1.9082031 A 14.500001 14.500001 0 0 0 21.431641 1.7695312 A 14.500001 14.500001 0 0 0 21.175781 1.6503906 L 21.259766 15.230469 L 14.386719 15.230469 L 14.199219 29.339844 A 14.500001 14.500001 0 0 0 14.273438 29.345703 A 14.500001 14.500001 0 0 0 14.59375 29.363281 A 14.500001 14.500001 0 0 0 14.914062 29.373047 A 14.500001 14.500001 0 0 0 15.234375 29.376953 A 14.500001 14.500001 0 0 0 15.275391 29.376953 A 14.500001 14.500001 0 0 0 15.595703 29.373047 A 14.500001 14.500001 0 0 0 15.916016 29.361328 A 14.500001 14.500001 0 0 0 16.236328 29.34375 A 14.500001 14.500001 0 0 0 16.554688 29.316406 A 14.500001 14.500001 0 0 0 16.873047 29.285156 A 14.500001 14.500001 0 0 0 17.191406 29.244141 A 14.500001 14.500001 0 0 0 17.507812 29.197266 A 14.500001 14.500001 0 0 0 17.824219 29.144531 A 14.500001 14.500001 0 0 0 18.138672 29.083984 A 14.500001 14.500001 0 0 0 18.214844 29.066406 L 18.214844 19.441406 L 25.652344 19.441406 L 25.716797 4.8613281 z "
       style="fill:#2b2b2b;fill-opacity:0.334677;stroke:none;stroke-width:1.00201px;stroke-linecap:butt;stroke-linejoin:miter;stroke-opacity:1"
       id="path3927" />
    <path
       inkscape:connector-curvature="0"
       id="path5764-3"
       style="opacity:0.998058;fill:#2b2b2b;fill-opacity:0.333333;stroke:none;stroke-width:1.69574;stroke-linecap:round;stroke-linejoin:round;paint-order:stroke fill markers"
       d="M 2.307718,1.1376792 A 0.87203465,0.87203465 0 0 1 2.6974646,2.3077162 0.87203465,0.87203465 0 0 1 1.5274276,2.6974627 0.87203465,0.87203465 0 0 1 1.137681,1.5274257 0.87203465,0.87203465 0 0 1 2.307718,1.1376792 m 1.5671327,3.9489635 -2.4400739,0.047692 -0.022137,-2.5953509 0.9475509,0.00297 0.00777,1.4388673 1.5269302,-0.00161 z" />
    <path
       sodipodi:nodetypes="cccccccccccccccccccccccccccccccccccccccc"
       inkscape:connector-curvature="0"
       d="m 6.3804889,0.88687471 c -0.011149,-0.008709 -0.022347,-0.0173571 -0.03359,-0.0259424 -0.022556,-0.0168537 -0.045294,-0.0334579 -0.068213,-0.0498096 -0.023074,-0.0165155 -0.04633,-0.0327738 -0.069763,-0.048772 -0.023256,-0.0158234 -0.046684,-0.0313898 -0.07028,-0.0466965 -0.023775,-0.0154855 -0.047719,-0.0307061 -0.07183,-0.0456588 -0.023956,-0.0147936 -0.048073,-0.0293223 -0.072347,-0.0435834 -0.024477,-0.0142823 -0.049111,-0.0282921 -0.073897,-0.0420269 -0.024653,-0.0139381 -0.04946,-0.0276021 -0.074414,-0.0409892 -0.025005,-0.01325 -0.050156,-0.026222 -0.075447,-0.0389138 -0.025186,-0.0125586 -0.050509,-0.0248388 -0.075964,-0.0368384 -0.025534,-0.0122182 -0.051201,-0.0241524 -0.076998,-0.0358006 -0.025886,-0.0115306 -0.051898,-0.022773 -0.078031,-0.0337253 -0.025892,-0.0110096 -0.051904,-0.0217332 -0.078032,-0.0321687 -0.026416,-0.0103259 -0.052944,-0.0203577 -0.079582,-0.0300933 -0.026421,-0.009805 -0.052951,-0.0193182 -0.079582,-0.0285368 -0.026772,-0.009292 -0.053645,-0.0182858 -0.080615,-0.0269802 -0.019074,-0.00603 -0.038195,-0.0119107 -0.057361,-0.0176408 L 5.2181041,3.6137122 H 3.3996105 l -0.054596,4.1214657 c 0.011875,0.00231 0.02376,0.00455 0.035657,0.00674 0.027681,0.00498 0.055416,0.00965 0.083199,0.014008 0.028033,0.00429 0.056112,0.00827 0.084232,0.011933 0.027866,0.00377 0.055773,0.00723 0.083716,0.010376 0.028218,0.00308 0.05647,0.00585 0.08475,0.0083 0.028052,0.00255 0.056131,0.00481 0.084233,0.00674 0.028232,0.00186 0.056483,0.00343 0.08475,0.00467 0.028237,0.00135 0.056489,0.00239 0.084749,0.00311 0.028075,4.782e-4 0.056154,6.641e-4 0.084233,5.313e-4 0.00379,5.6e-6 0.00758,5.6e-6 0.011369,0 0.028253,-3.27e-5 0.056504,-3.719e-4 0.084749,-0.00104 0.02826,-7.173e-4 0.056512,-0.00175 0.084749,-0.00311 0.028094,-0.00125 0.056173,-0.0028 0.084233,-0.00467 0.028274,-0.00194 0.056525,-0.00418 0.084749,-0.00674 l 0.00827,-0.00104 V 7.3846107 4.7279225 H 6.380491 Z"
       style="fill:#e6e6e6;fill-opacity:1;stroke:none;stroke-width:0.265116px;stroke-linecap:butt;stroke-linejoin:miter;stroke-opacity:1"
       id="path5784" />
    <path
       sodipodi:nodetypes="cccc"
       inkscape:connector-curvature="0"
       id="path5795"
       d="M 3.8758995,7.469429 V 4.1442309 H 5.7542199 V 0.95406754"
       style="fill:none;stroke:#fd9898;stroke-width:0.2;stroke-linecap:butt;stroke-linejoin:miter;stroke-miterlimit:4;stroke-dasharray:0.4, 0.4;stroke-dashoffset:1.96;stroke-opacity:1" />
    <path
       transform="matrix(0.96968063,0.24204643,-0.21122449,1.1111767,0.18039765,-1.5275568)"
       inkscape:transform-center-y="-0.098400251"
       inkscape:transform-center-x="0.021528214"
       d="M 6.3791741,0.90300943 5.5291262,1.0952108 5.7876989,0.26294707 Z"
       inkscape:randomized="0"
       inkscape:rounded="0"
       inkscape:flatsided="true"
       sodipodi:arg2="1.348429"
       sodipodi:arg1="0.30123139"
       sodipodi:r2="0.25399709"
       sodipodi:r1="0.50316423"
       sodipodi:cy="0.75372243"
       sodipodi:cx="5.8986664"
       sodipodi:sides="3"
       id="path5799"
       style="opacity:0.998058;fill:#fd9898;fill-opacity:1;stroke:none;stroke-width:0.2;stroke-linecap:round;stroke-linejoin:round;stroke-miterlimit:4;stroke-dasharray:0.4, 0.40000000000000002;stroke-dashoffset:1.96;paint-order:stroke fill markers;stroke-opacity:1"
       sodipodi:type="star" />
    <path
       d="M 0.18020022,2.0861678 A 0.87203467,0.87203467 0 0 1 -0.69183445,2.9582025 0.87203467,0.87203467 0 0 1 -1.5638691,2.0861678 0.87203467,0.87203467 0 0 1 -0.69183445,1.2141331 0.87203467,0.87203467 0 0 1 0.18020022,2.0861678 M -2.6503693,5.2544629 -3.7847024,3.0935548 -1.4734913,1.912606 l 0.4212748,0.8487575 -1.283354,0.6506931 0.684583,1.3648679 z"
       transform="rotate(-63.423233)"
       style="opacity:0.998058;fill:#e6e6e6;fill-opacity:1;stroke:none;stroke-width:1.69574;stroke-linecap:round;stroke-linejoin:round;paint-order:stroke fill markers"
       id="path5764" />
  </g>
</svg>
