<?xml version="1.0" encoding="UTF-8" standalone="no"?>
<svg
   xmlns:dc="http://purl.org/dc/elements/1.1/"
   xmlns:cc="http://creativecommons.org/ns#"
   xmlns:rdf="http://www.w3.org/1999/02/22-rdf-syntax-ns#"
   xmlns:svg="http://www.w3.org/2000/svg"
   xmlns="http://www.w3.org/2000/svg"
   xmlns:sodipodi="http://sodipodi.sourceforge.net/DTD/sodipodi-0.dtd"
   xmlns:inkscape="http://www.inkscape.org/namespaces/inkscape"
   id="Layer_1"
   enable-background="new 0 0 512 512"
   height="300"
   viewBox="0 0 300 300"
   width="300"
   version="1.1"
   sodipodi:docname="emotionDay.svg"
   inkscape:version="1.0beta2 (2b71d25, 2019-12-03)"
   inkscape:export-filename="/Users/mike.xiao/Documents/Projects/DBT_icons/dbt_icons/emotionDay.png"
   inkscape:export-xdpi="197.75999"
   inkscape:export-ydpi="197.75999">
  <metadata
     id="metadata1039">
    <rdf:RDF>
      <cc:Work
         rdf:about="">
        <dc:format>image/svg+xml</dc:format>
        <dc:type
           rdf:resource="http://purl.org/dc/dcmitype/StillImage" />
        <dc:title />
      </cc:Work>
    </rdf:RDF>
  </metadata>
  <defs
     id="defs1037">
    <inkscape:path-effect
       effect="spiro"
       id="path-effect878"
       is_visible="true"
       lpeversion="1" />
    <inkscape:path-effect
       effect="spiro"
       id="path-effect874"
       is_visible="true"
       lpeversion="1" />
  </defs>
  <sodipodi:namedview
     pagecolor="#ffffff"
     bordercolor="#666666"
     inkscape:document-rotation="0"
     borderopacity="1"
     objecttolerance="10"
     gridtolerance="10"
     guidetolerance="10"
     inkscape:pageopacity="0"
     inkscape:pageshadow="2"
     inkscape:window-width="1318"
     inkscape:window-height="755"
     id="namedview1035"
     showgrid="false"
     showguides="false"
     inkscape:zoom="1.3410268"
     inkscape:cx="151.27511"
     inkscape:cy="138.98463"
     inkscape:window-x="121"
     inkscape:window-y="23"
     inkscape:window-maximized="0"
     inkscape:current-layer="Layer_1" />
  <path
     id="path1192"
     style="fill:#90dfff;fill-opacity:1;stroke:none;stroke-width:6.72555;stroke-linecap:round;stroke-linejoin:round;stroke-miterlimit:4;stroke-dasharray:none;stroke-opacity:1;paint-order:stroke fill markers"
     d="M 150.33203 3.3144531 A 144.89999 145 0 0 0 6.3378906 148.3125 A 144.89999 145 0 0 0 148.93359 293.29102 L 150.33203 3.3144531 z " />
  <path
     id="path938"
     style="fill:#000080;fill-opacity:0.81048387;stroke:none;stroke-width:6.72555;stroke-linecap:round;stroke-linejoin:round;stroke-miterlimit:4;stroke-dasharray:none;stroke-opacity:1;paint-order:stroke fill markers"
     d="M 150.33203 3.3144531 L 148.93359 293.29102 A 144.89999 145 0 0 0 151.23828 293.3125 A 144.89999 145 0 0 0 296.13867 148.3125 A 144.89999 145 0 0 0 151.23828 3.3125 A 144.89999 145 0 0 0 150.33203 3.3144531 z " />
  <g
     id="g1615"
     transform="matrix(0.38808222,0,0,0.38808222,27.764457,274.49966)" />
  <path
     id="path850-9-3"
     style="opacity:0.94212219;fill:#ff4242;fill-opacity:1;stroke-width:0.522702"
     d="m 175.65901,110.78092 v -2.89062 c 0,-8.624587 -7.05706,-15.681643 -15.68164,-15.681643 h -23.87109 c -8.6246,0 -15.67969,7.057056 -15.67969,15.681643 v 36.88085 z"
     inkscape:connector-curvature="0" />
  <path
     inkscape:connector-curvature="0"
     style="opacity:0.6;fill:#ffffff;stroke-width:0.426498"
     d="m 124.4961,203.15683 c -1.4437,0 -2.83536,0.20216 -4.16987,0.54464 -2.83408,-5.19944 -8.34657,-8.72658 -14.68476,-8.72658 -4.23513,0 -8.085545,1.58572 -11.0335,4.17627 -2.946248,-2.59055 -6.794967,-4.17627 -11.027107,-4.17627 -7.253453,0 -13.410379,4.62665 -15.725837,11.08554 -2.77181,-2.03909 -6.184648,-3.25972 -9.889637,-3.25972 -9.232403,0 -16.71915,7.48504 -16.71915,16.71915 0,7.71663 5.232278,14.19343 12.342001,16.12205 1.925212,7.10674 8.405424,12.34072 16.118641,12.34072 3.484916,0 6.723315,-1.07392 9.400444,-2.89763 3.037945,3.10022 7.263262,5.0314 11.945357,5.0314 6.614132,0 12.314278,-3.85341 15.024248,-9.42646 2.48307,1.4582 5.36918,2.30991 8.45404,2.30991 5.49799,0 10.36305,-2.66561 13.4091,-6.76084 7.58143,-1.59212 13.27347,-8.31074 13.27347,-16.36345 4.3e-4,-9.23369 -7.48674,-16.71873 -16.71744,-16.71873 z"
     id="path949-7" />
  <path
     id="path932"
     style="opacity:0.85530547;fill:#31ff9b;fill-opacity:1;stroke-width:0.518857"
     d="m 120.97601,144.91827 v 111.08789 c 0,5.46067 4.36067,9.88672 9.74184,9.88672 5.38063,0 9.74373,-4.42605 9.74373,-9.88672 v -76.35351 h 14.65702 l -0.0306,-5.06055 z"
     inkscape:connector-curvature="0" />
  <path
     id="path924"
     style="opacity:0.68810289;fill:#ec2fff;fill-opacity:1;stroke-width:0.522702"
     d="m 175.65901,110.78092 -55.23242,33.99023 55.23242,47.34375 z"
     inkscape:connector-curvature="0" />
  <path
     sodipodi:type="star"
     style="opacity:1;fill:#ffff80;fill-opacity:1;stroke:none;stroke-width:1.73324;stroke-linecap:round;stroke-linejoin:round;paint-order:stroke fill markers"
     id="path1028-8-1"
     sodipodi:sides="7"
     sodipodi:cx="195.09106"
     sodipodi:cy="153.53059"
     sodipodi:r1="5.7138157"
     sodipodi:r2="2.7157116"
     sodipodi:arg1="2.158799"
     sodipodi:arg2="-3.7322343"
     inkscape:flatsided="false"
     inkscape:rounded="0.242797"
     inkscape:randomized="0"
     d="m 191.92161,158.28478 c -0.70503,-0.41437 1.33006,-2.53789 0.91383,-3.24182 -0.44332,-0.74974 -3.31433,-0.16391 -3.43747,-1.02616 -0.11561,-0.80957 2.81348,-0.54247 3.10432,-1.30678 0.30977,-0.81406 -1.9383,-2.69344 -1.34094,-3.32732 0.56086,-0.59514 2.17829,1.86144 2.95719,1.61229 0.82959,-0.26537 0.89731,-3.19476 1.76534,-3.12294 0.815,0.0674 -0.0972,2.86365 0.58324,3.31727 0.72472,0.48315 3.05723,-1.29036 3.54229,-0.56692 0.45541,0.67923 -2.29949,1.70947 -2.22991,2.52428 0.0741,0.86784 2.915,1.58571 2.65182,2.416 -0.2471,0.77955 -2.77023,-0.73198 -3.36389,-0.16955 -0.63229,0.59904 0.57772,3.26771 -0.23552,3.57963 -0.76354,0.29285 -1.15492,-2.62223 -1.96479,-2.7357 -0.86258,-0.12086 -2.1946,2.48905 -2.94551,2.04772 z"
     inkscape:transform-center-x="-0.16328103"
     inkscape:transform-center-y="-0.2128617" />
  <g
     id="g870"
     transform="matrix(0.52270214,0,0,0.52270214,19.409729,31.005814)">
    <path
       id="path852"
       fill="#2275ff"
       d="m 248.829,0 v 90 c 24.853,0 45,-20.147 45,-45 0,-24.853 -20.147,-45 -45,-45 z"
       inkscape:connector-curvature="0"
       style="opacity:0.87459807" />
    <path
       id="path854"
       fill="#199aff"
       d="m 263.829,45 c 0,-24.853 -6.716,-45 -15,-45 -24.853,0 -45,20.147 -45,45 0,24.853 20.147,45 45,45 8.285,0 15,-20.147 15,-45 z"
       inkscape:connector-curvature="0"
       style="fill:#ff8ae7;fill-opacity:1;opacity:0.8488746" />
    <path
       id="path846"
       fill="#2275ff"
       d="m 301.334,120 h -30 l 30,167.511 c 0,8.28 6.71,14.5 15,14.5 8.28,0 15,-6.22 15,-14.5 V 150 c 0,-16.5 -13.5,-30 -30,-30 z"
       inkscape:connector-curvature="0"
       style="opacity:1;fill:#2275ff;fill-opacity:0.69758064" />
    <path
       id="path848"
       fill="#10beff"
       d="m 195.667,120 h 30 l -30,167.011 c 0,8.28 -6.72,15 -15,15 -8.28,0 -15,-6.72 -15,-15 V 150 c 0,-16.5 13.5,-30 30,-30 z"
       inkscape:connector-curvature="0"
       style="fill:#ffff00;fill-opacity:1;opacity:0.80385852" />
  </g>
  <path
     id="path919"
     style="opacity:0.6;fill:#22ffc4;fill-opacity:1;stroke-width:0.522702"
     d="m 155.04578,174.44498 0.0312,5.06055 h 0.80664 v 76.35351 c 0,5.46067 4.42552,9.88672 9.88672,9.88672 5.46067,0 9.88867,-4.42605 9.88867,-9.88672 V 192.1149 Z"
     inkscape:connector-curvature="0" />
  <g
     id="g1011"
     transform="matrix(0.42649806,0,0,0.42649806,-64.047827,3.4342628)">
    <g
       id="g947"
       style="opacity:0.6">
      <path
         transform="matrix(2.3446766,0,0,2.3446766,150.17144,-8.0522355)"
         d="M 27.460938 72.927734 A 144.89999 145 0 0 0 27.316406 73.164062 A 144.89999 145 0 0 0 26.794922 74.033203 A 144.89999 145 0 0 0 26.279297 74.904297 A 144.89999 145 0 0 0 25.769531 75.779297 A 144.89999 145 0 0 0 25.265625 76.658203 A 144.89999 145 0 0 0 24.769531 77.539062 A 144.89999 145 0 0 0 24.279297 78.425781 A 144.89999 145 0 0 0 23.792969 79.314453 A 144.89999 145 0 0 0 23.314453 80.207031 A 144.89999 145 0 0 0 22.84375 81.103516 A 144.89999 145 0 0 0 22.376953 82.001953 A 144.89999 145 0 0 0 21.917969 82.904297 A 144.89999 145 0 0 0 21.464844 83.808594 A 144.89999 145 0 0 0 21.017578 84.71875 A 144.89999 145 0 0 0 20.576172 85.628906 A 144.89999 145 0 0 0 20.142578 86.544922 A 144.89999 145 0 0 0 19.714844 87.462891 A 144.89999 145 0 0 0 19.292969 88.382812 A 144.89999 145 0 0 0 18.876953 89.306641 A 144.89999 145 0 0 0 18.46875 90.232422 A 144.89999 145 0 0 0 18.066406 91.162109 A 144.89999 145 0 0 0 17.671875 92.09375 A 144.89999 145 0 0 0 17.283203 93.029297 A 144.89999 145 0 0 0 16.900391 93.966797 A 144.89999 145 0 0 0 16.523438 94.908203 A 144.89999 145 0 0 0 16.154297 95.849609 A 144.89999 145 0 0 0 15.791016 96.794922 A 144.89999 145 0 0 0 15.435547 97.744141 A 144.89999 145 0 0 0 15.085938 98.693359 A 144.89999 145 0 0 0 14.742188 99.646484 A 144.89999 145 0 0 0 14.40625 100.60156 A 144.89999 145 0 0 0 14.076172 101.55859 A 144.89999 145 0 0 0 13.753906 102.51953 A 144.89999 145 0 0 0 13.4375 103.48047 A 144.89999 145 0 0 0 13.126953 104.44531 A 144.89999 145 0 0 0 12.824219 105.41211 A 144.89999 145 0 0 0 12.529297 106.38086 A 144.89999 145 0 0 0 12.240234 107.35156 A 144.89999 145 0 0 0 11.957031 108.32422 A 144.89999 145 0 0 0 11.681641 109.29688 A 144.89999 145 0 0 0 11.412109 110.27344 A 144.89999 145 0 0 0 11.150391 111.25195 A 144.89999 145 0 0 0 10.894531 112.23242 A 144.89999 145 0 0 0 10.646484 113.21484 A 144.89999 145 0 0 0 10.404297 114.19727 A 144.89999 145 0 0 0 10.169922 115.18359 A 144.89999 145 0 0 0 9.9433594 116.16992 A 144.89999 145 0 0 0 9.7226562 117.1582 A 144.89999 145 0 0 0 9.5078125 118.14844 A 144.89999 145 0 0 0 9.3007812 119.13867 A 144.89999 145 0 0 0 9.1015625 120.13086 A 144.89999 145 0 0 0 8.9082031 121.125 A 144.89999 145 0 0 0 8.7207031 122.12109 A 144.89999 145 0 0 0 8.5410156 123.11719 A 144.89999 145 0 0 0 8.3691406 124.11523 A 144.89999 145 0 0 0 8.203125 125.11523 A 144.89999 145 0 0 0 8.0449219 126.11523 A 144.89999 145 0 0 0 7.8945312 127.11719 A 144.89999 145 0 0 0 7.75 128.11914 A 144.89999 145 0 0 0 7.6132812 129.12305 A 144.89999 145 0 0 0 7.4824219 130.12695 A 144.89999 145 0 0 0 7.359375 131.13281 A 144.89999 145 0 0 0 7.2421875 132.13867 A 144.89999 145 0 0 0 7.1328125 133.14453 A 144.89999 145 0 0 0 7.03125 134.15234 A 144.89999 145 0 0 0 6.9355469 135.16016 A 144.89999 145 0 0 0 6.8476562 136.16992 A 144.89999 145 0 0 0 6.765625 137.17969 A 144.89999 145 0 0 0 6.7167969 137.83789 C 7.8303347 137.32279 9.0111216 136.92309 10.015625 136.23828 C 14.046885 140.35612 19.657511 142.91797 25.875 142.91797 C 34.660434 142.91797 42.231108 137.80294 45.832031 130.40234 C 49.127582 132.33737 52.954762 133.46875 57.054688 133.46875 C 64.355481 133.46875 70.813188 129.92741 74.859375 124.48828 C 84.925582 122.37712 92.486328 113.45275 92.486328 102.76172 C 92.485902 90.4999 82.544775 80.5625 70.28125 80.5625 C 68.367553 80.5625 66.520393 80.829836 64.75 81.283203 C 60.986155 74.382038 53.663033 69.695312 45.246094 69.695312 C 39.625702 69.695312 34.51017 71.800954 30.599609 75.240234 C 29.624731 74.382563 28.57503 73.607479 27.460938 72.927734 z "
         style="fill:#ffffff;stroke-width:0.426498"
         id="path1530" />
    </g>
    <g
       id="g951"
       style="opacity:0.6">
      <path
         id="path949"
         d="m 383.883,253.492 c -3.385,0 -6.648,0.474 -9.777,1.277 -6.645,-12.191 -19.57,-20.461 -34.431,-20.461 -9.93,0 -18.958,3.718 -25.87,9.792 -6.908,-6.074 -15.932,-9.792 -25.855,-9.792 -17.007,0 -31.443,10.848 -36.872,25.992 -6.499,-4.781 -14.501,-7.643 -23.188,-7.643 -21.647,0 -39.201,17.55 -39.201,39.201 0,18.093 12.268,33.279 28.938,37.801 4.514,16.663 19.708,28.935 37.793,28.935 8.171,0 15.764,-2.518 22.041,-6.794 7.123,7.269 17.03,11.797 28.008,11.797 15.508,0 28.873,-9.035 35.227,-22.102 5.822,3.419 12.589,5.416 19.822,5.416 12.891,0 24.298,-6.25 31.44,-15.852 17.776,-3.733 31.122,-19.486 31.122,-38.367 0.001,-21.65 -17.554,-39.2 -39.197,-39.2 z"
         style="fill:#ffffff"
         inkscape:connector-curvature="0" />
    </g>
    <g
       id="g953" />
    <g
       id="g955" />
    <g
       id="g957" />
    <g
       id="g959" />
    <g
       id="g961" />
    <g
       id="g963" />
    <g
       id="g965" />
    <g
       id="g967" />
    <g
       id="g969" />
    <g
       id="g971" />
    <g
       id="g973" />
    <g
       id="g975" />
    <g
       id="g977" />
    <g
       id="g979" />
    <g
       id="g981" />
  </g>
  <path
     sodipodi:type="star"
     style="opacity:1;fill:#ffff80;fill-opacity:1;stroke:none;stroke-width:2.37944;stroke-linecap:round;stroke-linejoin:round;paint-order:stroke fill markers"
     id="path1028"
     sodipodi:sides="7"
     sodipodi:cx="237.98709"
     sodipodi:cy="103.24519"
     sodipodi:r1="7.8440714"
     sodipodi:r2="3.7281973"
     sodipodi:arg1="2.158799"
     sodipodi:arg2="-3.7322343"
     inkscape:flatsided="false"
     inkscape:rounded="0.242797"
     inkscape:randomized="0"
     d="m 233.63598,109.77186 c -0.96787,-0.56886 1.82594,-3.48408 1.25453,-4.45046 -0.6086,-1.02926 -4.55,-0.22501 -4.71904,-1.40873 -0.15871,-1.11139 3.86242,-0.74472 4.26169,-1.79398 0.42526,-1.11756 -2.66096,-3.69763 -1.84088,-4.567832 0.76996,-0.817029 2.99042,2.555442 4.05971,2.213394 1.13888,-0.364306 1.23184,-4.385851 2.4235,-4.287253 1.11885,0.09257 -0.13343,3.931292 0.80069,4.554041 0.99491,0.66327 4.19704,-1.771443 4.86294,-0.77829 0.62521,0.93247 -3.1568,2.3468 -3.06127,3.4654 0.10174,1.19139 4.00177,2.1769 3.64048,3.31674 -0.33922,1.07019 -3.80304,-1.00487 -4.61803,-0.23276 -0.86803,0.82238 0.7931,4.486 -0.32333,4.9142 -1.04821,0.40205 -1.58551,-3.59986 -2.69732,-3.75564 -1.18416,-0.16591 -3.0128,3.41704 -4.04367,2.81117 z"
     inkscape:transform-center-x="-0.22415491"
     inkscape:transform-center-y="-0.2922223" />
  <path
     inkscape:transform-center-y="-0.26453037"
     inkscape:transform-center-x="-0.20291032"
     d="m 219.16299,211.61127 c -0.87617,-0.51496 1.65294,-3.15397 1.13567,-4.02878 -0.55094,-0.93174 -4.11889,-0.20369 -4.27192,-1.27526 -0.14367,-1.00608 3.49646,-0.67415 3.8579,-1.624 0.38496,-1.01167 -2.40883,-3.34728 -1.66646,-4.13503 0.69701,-0.73961 2.70708,2.31331 3.67506,2.00368 1.03097,-0.32979 1.11512,-3.97029 2.19387,-3.88104 1.01284,0.0838 -0.12078,3.55881 0.72482,4.12255 0.90065,0.60043 3.79937,-1.6036 4.40218,-0.70455 0.56597,0.84412 -2.85769,2.12445 -2.77121,3.13705 0.0921,1.07852 3.62261,1.97065 3.29554,3.00249 -0.30708,0.96879 -3.4427,-0.90967 -4.18047,-0.2107 -0.78579,0.74445 0.71795,4.06094 -0.2927,4.44858 -0.94889,0.36394 -1.43528,-3.25878 -2.44174,-3.3998 -1.07197,-0.15019 -2.72734,3.09328 -3.66054,2.54481 z"
     inkscape:randomized="0"
     inkscape:rounded="0.242797"
     inkscape:flatsided="false"
     sodipodi:arg2="-3.7322343"
     sodipodi:arg1="2.158799"
     sodipodi:r2="3.3749523"
     sodipodi:r1="7.1008487"
     sodipodi:cy="205.703"
     sodipodi:cx="223.10184"
     sodipodi:sides="7"
     id="path1028-3"
     style="opacity:1;fill:#ffff80;fill-opacity:1;stroke:none;stroke-width:2.15399;stroke-linecap:round;stroke-linejoin:round;paint-order:stroke fill markers"
     sodipodi:type="star" />
  <path
     inkscape:transform-center-y="-0.2246095"
     inkscape:transform-center-x="-0.17228018"
     d="m 192.42585,49.314422 c -0.74393,-0.437232 1.40345,-2.677927 0.96425,-3.420696 -0.46778,-0.791112 -3.49721,-0.17295 -3.62714,-1.082781 -0.12199,-0.854236 2.96872,-0.5724 3.27561,-1.378886 0.32686,-0.858974 -2.04526,-2.842062 -1.41493,-3.510915 0.59181,-0.627982 2.29849,1.964156 3.12036,1.701254 0.87537,-0.280012 0.94682,-3.371044 1.86275,-3.295258 0.85996,0.07115 -0.10255,3.021661 0.61542,3.500314 0.76471,0.509805 3.22592,-1.361561 3.73775,-0.598205 0.48054,0.71671 -2.42638,1.803795 -2.35295,2.663567 0.0782,0.915728 3.07584,1.673205 2.79814,2.549309 -0.26073,0.822568 -2.92308,-0.772367 -3.5495,-0.178902 -0.66719,0.63209 0.60959,3.448014 -0.24852,3.777142 -0.80567,0.309016 -1.21865,-2.76692 -2.07321,-2.886653 -0.91017,-0.127525 -2.31569,2.626398 -3.10803,2.16071 z"
     inkscape:randomized="0"
     inkscape:rounded="0.242797"
     inkscape:flatsided="false"
     sodipodi:arg2="-3.7322343"
     sodipodi:arg1="2.158799"
     sodipodi:r2="2.8655593"
     sodipodi:r1="6.0290937"
     sodipodi:cy="44.297913"
     sodipodi:cx="195.77019"
     sodipodi:sides="7"
     id="path1028-7"
     style="opacity:1;fill:#ffff80;fill-opacity:1;stroke:none;stroke-width:1.82888;stroke-linecap:round;stroke-linejoin:round;paint-order:stroke fill markers"
     sodipodi:type="star" />
  <path
     inkscape:transform-center-y="-0.34512367"
     inkscape:transform-center-x="-0.26475309"
     d="m 194.54777,263.24263 c -1.14311,-0.67184 2.15652,-4.11487 1.48166,-5.2562 -0.71878,-1.21562 -5.37378,-0.26576 -5.57342,-1.66379 -0.18745,-1.31261 4.5617,-0.87955 5.03326,-2.11878 0.50225,-1.31989 -3.14272,-4.36709 -2.17417,-5.39484 0.90937,-0.96495 3.53183,3.0181 4.79472,2.61413 1.34508,-0.43026 1.45487,-5.17991 2.86228,-5.06346 1.32141,0.10933 -0.15758,4.64305 0.94565,5.37855 1.17504,0.78336 4.95691,-2.09216 5.74338,-0.9192 0.7384,1.10129 -3.72834,2.77169 -3.61552,4.09281 0.12017,1.4071 4.7263,2.57103 4.29959,3.91724 -0.40063,1.26395 -4.49157,-1.18681 -5.45412,-0.2749 -1.02519,0.97126 0.93669,5.29818 -0.38187,5.80392 -1.23799,0.47483 -1.87257,-4.25162 -3.18566,-4.4356 -1.39856,-0.19596 -3.55827,4.03569 -4.77578,3.32012 z"
     inkscape:randomized="0"
     inkscape:rounded="0.242797"
     inkscape:flatsided="false"
     sodipodi:arg2="-3.7322343"
     sodipodi:arg1="2.158799"
     sodipodi:r2="4.4031882"
     sodipodi:r1="9.2642412"
     sodipodi:cy="255.53431"
     sodipodi:cx="199.68665"
     sodipodi:sides="7"
     id="path1028-8"
     style="opacity:1;fill:#ffff80;fill-opacity:1;stroke:none;stroke-width:2.81024;stroke-linecap:round;stroke-linejoin:round;paint-order:stroke fill markers"
     sodipodi:type="star" />
  <path
     sodipodi:type="star"
     style="opacity:1;fill:#ffff80;fill-opacity:1;stroke:none;stroke-width:2.47709;stroke-linecap:round;stroke-linejoin:round;paint-order:stroke fill markers"
     id="path1028-3-4"
     sodipodi:sides="7"
     sodipodi:cx="255.61038"
     sodipodi:cy="164.97662"
     sodipodi:r1="8.1659765"
     sodipodi:r2="3.8811953"
     sodipodi:arg1="2.158799"
     sodipodi:arg2="-3.7322343"
     inkscape:flatsided="false"
     inkscape:rounded="0.242797"
     inkscape:randomized="0"
     d="m 251.08071,171.77113 c -1.00759,-0.5922 1.90087,-3.62706 1.30602,-4.63309 -0.63358,-1.07151 -4.73673,-0.23425 -4.91271,-1.46655 -0.16522,-1.157 4.02093,-0.77528 4.43658,-1.8676 0.44271,-1.16342 -2.77015,-3.84937 -1.91642,-4.75529 0.80156,-0.85055 3.11314,2.66031 4.22631,2.30423 1.18562,-0.37926 1.28239,-4.56584 2.52296,-4.46319 1.16476,0.0964 -0.1389,4.09262 0.83354,4.74092 1.03574,0.6905 4.36928,-1.84413 5.06251,-0.81022 0.65087,0.97073 -3.28635,2.44311 -3.1869,3.60761 0.10592,1.24029 4.166,2.26624 3.78988,3.45286 -0.35314,1.11411 -3.95911,-1.04612 -4.80754,-0.24231 -0.90366,0.85612 0.82564,4.67008 -0.3366,5.11586 -1.09123,0.41855 -1.65058,-3.74759 -2.80801,-3.90976 -1.23276,-0.17272 -3.13644,3.55727 -4.20962,2.92653 z"
     inkscape:transform-center-x="-0.23335083"
     inkscape:transform-center-y="-0.30420747" />
</svg>
