<?xml version="1.0" encoding="UTF-8" standalone="no"?>
<svg
   xmlns:dc="http://purl.org/dc/elements/1.1/"
   xmlns:cc="http://creativecommons.org/ns#"
   xmlns:rdf="http://www.w3.org/1999/02/22-rdf-syntax-ns#"
   xmlns:svg="http://www.w3.org/2000/svg"
   xmlns="http://www.w3.org/2000/svg"
   xmlns:sodipodi="http://sodipodi.sourceforge.net/DTD/sodipodi-0.dtd"
   xmlns:inkscape="http://www.inkscape.org/namespaces/inkscape"
   inkscape:export-ydpi="197.75999"
   inkscape:export-xdpi="197.75999"
   inkscape:export-filename="/Users/mike.xiao/Documents/Projects/DBT_icons/dbt_icons/emotionreg.png"
   inkscape:version="1.0beta2 (2b71d25, 2019-12-03)"
   sodipodi:docname="emotionreg.svg"
   version="1.1"
   width="300"
   viewBox="0 0 300 300"
   height="300"
   enable-background="new 0 0 512 512"
   id="Layer_1">
  <metadata
     id="metadata1039">
    <rdf:RDF>
      <cc:Work
         rdf:about="">
        <dc:format>image/svg+xml</dc:format>
        <dc:type
           rdf:resource="http://purl.org/dc/dcmitype/StillImage" />
        <dc:title />
      </cc:Work>
    </rdf:RDF>
  </metadata>
  <defs
     id="defs1037">
    <filter
       inkscape:collect="always"
       style="color-interpolation-filters:sRGB"
       id="filter6022"
       x="-0.0036"
       width="1.0072"
       y="-0.0036"
       height="1.0072">
      <feGaussianBlur
         inkscape:collect="always"
         stdDeviation="0.14022276"
         id="feGaussianBlur6024" />
    </filter>
  </defs>
  <sodipodi:namedview
     inkscape:current-layer="g4645"
     inkscape:window-maximized="0"
     inkscape:window-y="23"
     inkscape:window-x="63"
     inkscape:cy="129.85469"
     inkscape:cx="125.54314"
     inkscape:zoom="1.75"
     showguides="false"
     showgrid="false"
     id="namedview1035"
     inkscape:window-height="696"
     inkscape:window-width="1196"
     inkscape:pageshadow="2"
     inkscape:pageopacity="0"
     guidetolerance="10"
     gridtolerance="10"
     objecttolerance="10"
     borderopacity="1"
     inkscape:document-rotation="0"
     bordercolor="#666666"
     pagecolor="#ffffff" />
  <g
     transform="matrix(0.38808222,0,0,0.38808222,27.764457,274.49966)"
     id="g1615" />
  <g
     id="g4636"
     transform="matrix(0.44967386,0,0,0.44967386,1.4473193,29.367943)">
    <g
       id="g4645"
       transform="matrix(0.47565955,0,0,0.47565955,210.65291,200.59321)"
       style="opacity:1">
      <path
         transform="matrix(4.675264,0,0,4.675264,-449.63148,-559.01882)"
         d="M 151.80273 4.9121094 A 145 145 0 0 0 150.27344 4.9023438 A 145 145 0 0 0 5.2734375 149.90234 A 145 145 0 0 0 150.27344 294.90234 A 145 145 0 0 0 151.80273 294.89453 L 151.80273 4.9121094 z "
         style="opacity:1;fill:#917c6f;fill-opacity:1;stroke:none;stroke-width:1.626;stroke-miterlimit:4;stroke-dasharray:none;stroke-opacity:1"
         id="path942" />
      <path
         transform="matrix(4.675264,0,0,4.675264,-449.63148,-559.01882)"
         d="M 151.80273 4.9121094 L 151.80273 294.89453 A 145 145 0 0 0 295.27344 149.90234 A 145 145 0 0 0 151.80273 4.9121094 z "
         style="opacity:1;fill:#8edef4;fill-opacity:1;stroke:none;stroke-width:1.626;stroke-miterlimit:4;stroke-dasharray:none;stroke-opacity:1"
         id="path8933" />
      <path
         transform="matrix(4.675264,0,0,4.675264,-449.63148,-559.01882)"
         d="M 148.93945 188.47266 L 10.380859 188.47266 A 145 145 0 0 0 97.84375 286.13281 L 148.93945 188.47266 z "
         style="opacity:1;fill:#004f67;fill-opacity:1;stroke:none;stroke-width:1.626;stroke-miterlimit:4;stroke-dasharray:none;stroke-opacity:1"
         id="path942-3" />
      <path
         transform="matrix(4.675264,0,0,4.675264,-449.63148,-559.01882)"
         d="M 148.93945 188.47266 L 97.84375 286.13281 A 145 145 0 0 0 150.45898 296.01758 A 145 145 0 0 0 290.53711 188.47266 L 148.93945 188.47266 z "
         style="opacity:1;fill:#00bff9;fill-opacity:1;stroke:none;stroke-width:1.626;stroke-miterlimit:4;stroke-dasharray:none;stroke-opacity:1"
         id="path8941" />
      <path
         transform="matrix(4.675264,0,0,4.675264,-449.63148,-559.01882)"
         d="M 110.46875 262.21875 C 110.22102 262.18949 110.07683 262.15397 109.81055 262.12695 C 108.20068 261.9636 106.23384 261.84766 103.68945 261.84766 C 101.14508 261.84766 99.178174 261.9636 97.568359 262.12695 C 95.958544 262.29031 94.706155 262.50026 93.589844 262.6875 C 91.852709 262.97921 90.706081 263.17188 87.900391 263.17188 C 85.094696 263.17186 83.948059 262.97921 82.210938 262.6875 C 81.094614 262.50026 79.843522 262.29031 78.234375 262.12695 C 76.625228 261.9636 74.657655 261.84766 72.113281 261.84766 C 69.570236 261.84766 67.604812 261.96352 65.996094 262.12695 C 64.387376 262.29039 63.135853 262.50189 62.019531 262.68945 C 60.761924 262.90053 59.394791 262.96762 57.900391 263.03906 A 145 145 0 0 0 64.181641 267.94531 C 64.942187 267.83703 65.80456 267.7333 66.4375 267.62695 C 68.171586 267.33591 69.313693 267.14453 72.113281 267.14453 C 74.915905 267.14453 76.062807 267.33591 77.796875 267.62695 C 78.914533 267.81452 80.167098 268.02602 81.777344 268.18945 C 83.38759 268.35289 85.356008 268.46875 87.900391 268.46875 C 90.444764 268.46875 92.411669 268.35281 94.021484 268.18945 C 95.6313 268.0261 96.883687 267.81614 98 267.62891 C 99.737131 267.33721 100.88376 267.14453 103.68945 267.14453 C 105.68291 267.14453 106.60577 267.32734 107.73047 267.48828 L 110.46875 262.21875 z "
         style="opacity:0.85209;fill:#0a7286;fill-opacity:1;stroke:none;stroke-width:1.626;stroke-miterlimit:4;stroke-dasharray:none;stroke-opacity:1"
         id="path942-9" />
      <path
         transform="matrix(4.675264,0,0,4.675264,-449.63148,-559.01882)"
         d="M 110.46875 262.21875 L 107.73047 267.48828 C 108.18873 267.55386 108.87406 267.54446 109.37695 267.62891 C 110.49327 267.81614 111.74723 268.0261 113.35742 268.18945 C 114.96762 268.35281 116.93457 268.46875 119.48047 268.46875 C 122.02485 268.46875 123.99175 268.35281 125.60156 268.18945 C 127.21138 268.0261 128.46376 267.81614 129.58008 267.62891 C 131.31721 267.33721 132.46385 267.14453 135.26953 267.14453 C 138.0779 267.14453 139.22381 267.33787 140.96094 267.62891 C 142.07726 267.81614 143.33083 268.0261 144.94141 268.18945 C 146.55199 268.35281 148.52007 268.46875 151.06445 268.46875 C 153.60883 268.46875 155.57573 268.35281 157.18555 268.18945 C 158.79536 268.0261 160.04774 267.81614 161.16406 267.62891 C 162.90119 267.33721 164.04821 267.14453 166.85352 267.14453 C 169.65883 267.14453 170.80779 267.33787 172.54492 267.62891 C 173.66124 267.81614 174.91443 268.0261 176.52539 268.18945 C 178.13635 268.35281 180.10448 268.46875 182.65039 268.46875 C 185.19782 268.46875 187.16795 268.35281 188.7793 268.18945 C 190.39064 268.0261 191.64345 267.81614 192.75977 267.62891 C 194.49995 267.33787 195.65148 267.14453 198.46289 267.14453 C 198.66537 267.14453 198.80613 267.154 198.99219 267.15625 L 198.99219 265.80078 C 198.99219 265.21251 198.65092 264.66953 198.06055 264.19922 C 197.47017 263.7289 196.63101 263.33079 195.63281 263.0332 C 194.63462 262.73562 193.47737 262.53883 192.25391 262.46875 C 191.03045 262.39867 189.74078 262.45578 188.47461 262.66797 C 188.43448 262.67453 188.39322 262.6812 188.35352 262.6875 C 186.61333 262.97854 185.46181 263.17188 182.65039 263.17188 C 179.84202 263.17186 178.69221 262.97854 176.95508 262.6875 C 175.83877 262.50026 174.58519 262.29031 172.97461 262.12695 C 171.36403 261.9636 169.39789 261.84766 166.85352 261.84766 C 164.30914 261.84766 162.34224 261.9636 160.73242 262.12695 C 159.12261 262.29031 157.87023 262.50026 156.75391 262.6875 C 155.01678 262.97921 153.87014 263.17188 151.06445 263.17188 C 148.25609 263.17186 147.11018 262.97854 145.37305 262.6875 C 144.25673 262.50026 143.00316 262.29031 141.39258 262.12695 C 139.782 261.9636 137.81391 261.84766 135.26953 261.84766 C 132.72515 261.84766 130.75825 261.9636 129.14844 262.12695 C 127.53862 262.29031 126.28624 262.50026 125.16992 262.6875 C 123.43279 262.97921 122.28616 263.17188 119.48047 263.17188 C 116.6721 263.17186 115.52619 262.97854 113.78906 262.6875 C 112.85756 262.53123 111.71872 262.36637 110.46875 262.21875 z "
         style="opacity:0.85209;fill:#baeffa;fill-opacity:1;stroke:none;stroke-width:1.626;stroke-miterlimit:4;stroke-dasharray:none;stroke-opacity:1"
         id="path8946" />
      <path
         id="path942-4"
         style="opacity:0.85209;fill:#0a7286;fill-opacity:1;stroke:none;stroke-width:1.626;stroke-miterlimit:4;stroke-dasharray:none;stroke-opacity:1"
         d="M 30.259766 231.6543 C 32.207145 231.54966 33.988622 231.39347 35.046875 231.18359 C 36.11986 230.97055 36.827535 230.83008 38.560547 230.83008 C 40.293558 230.83008 41.001229 230.97055 42.074219 231.18359 C 43.453261 231.45709 45.169291 231.79688 48.3125 231.79688 C 51.455716 231.79688 53.171969 231.45709 54.550781 231.18359 C 55.623766 230.97103 56.33174 230.83008 58.066406 230.83008 C 59.799418 230.83008 60.507089 230.97055 61.580078 231.18359 C 62.959124 231.45709 64.675148 231.79688 67.818359 231.79688 C 70.961571 231.79688 72.679547 231.45709 74.058594 231.18359 C 75.131579 230.97103 75.839552 230.83008 77.574219 230.83008 C 79.30723 230.83008 80.016859 230.97055 81.089844 231.18359 C 82.468895 231.45709 84.184914 231.79688 87.328125 231.79688 C 90.471332 231.79688 92.189313 231.45709 93.568359 231.18359 C 94.641344 230.97103 95.351271 230.83008 97.085938 230.83008 C 98.822488 230.83008 99.534502 230.97103 100.60938 231.18359 C 100.63393 231.18845 100.65686 231.19441 100.68164 231.19922 C 101.46373 231.35419 102.26187 231.39493 103.01758 231.34375 C 103.77328 231.29257 104.48695 231.14898 105.10352 230.93164 C 105.72008 230.7143 106.23885 230.42357 106.60352 230.08008 C 106.96818 229.73658 107.17969 229.33981 107.17969 228.91016 L 107.17969 227.92188 C 107.06476 227.92322 106.97858 227.92773 106.85352 227.92773 C 105.11697 227.92773 104.40495 227.78873 103.33008 227.57617 C 101.95103 227.30268 100.23292 226.96094 97.085938 226.96094 C 93.940838 226.96094 92.222796 227.30268 90.84375 227.57617 C 89.770761 227.78873 89.060903 227.92773 87.328125 227.92773 C 85.595347 227.92773 84.887442 227.78921 83.814453 227.57617 C 82.435407 227.30268 80.71743 226.96094 77.574219 226.96094 C 74.431007 226.96094 72.713031 227.30268 71.333984 227.57617 C 70.260995 227.78873 69.553026 227.92773 67.818359 227.92773 C 66.085348 227.92773 65.377677 227.78921 64.304688 227.57617 C 62.925641 227.30268 61.209618 226.96094 58.066406 226.96094 C 54.921315 226.96094 53.205218 227.30268 51.826172 227.57617 C 50.753187 227.78921 50.045516 227.92773 48.3125 227.92773 C 46.579488 227.92773 45.871813 227.78921 44.798828 227.57617 C 43.419782 227.30268 41.703754 226.96094 38.560547 226.96094 C 35.417336 226.96094 33.701018 227.30219 32.320312 227.57617 C 31.249221 227.78873 30.539717 227.92773 28.808594 227.92773 C 28.28553 227.92773 28.122296 227.84605 27.748047 227.82227 A 145 145 0 0 0 30.259766 231.6543 z "
         transform="matrix(4.675264,0,0,4.675264,-449.63148,-559.01882)" />
      <g
         style=""
         id="g4791"
         transform="matrix(1.5903594,0,0,1.5903594,-595.34936,-401.63737)">
        <g
           style=""
           id="g4734"
           fill="#a0ecff">
          <path
             id="path4726"
             d="m 155.46448,346.90664 c -1.21271,0.14211 -2.47981,-0.17997 -3.51153,-0.99526 -2.06616,-1.63272 -2.41758,-4.63168 -0.78486,-6.69784 l 73.72138,-93.29215 c 1.63272,-2.06616 4.63168,-2.41758 6.69784,-0.78486 2.06617,1.63273 2.41759,4.63169 0.78458,6.69541 l -73.72353,93.29487 c -0.81529,1.03172 -1.9736,1.63801 -3.18388,1.77983 z m 0,0"
             inkscape:connector-curvature="0"
             style="stroke-width:0.626408;fill:#5798aa;fill-opacity:1" />
          <path
             id="path4728"
             d="m 218.0502,344.64164 c -1.08551,0.0704 -2.20006,-0.27318 -3.08208,-1.04775 -1.76856,-1.55105 -1.94305,-4.24082 -0.38969,-6.00735 l 8.95224,-10.19661 c 1.55132,-1.7642 4.24112,-1.93868 6.00735,-0.38968 1.7664,1.55119 1.94087,4.24098 0.38969,6.00736 l -8.95442,10.19673 c -0.77458,0.88203 -1.8354,1.36674 -2.92309,1.4373 z m 0,0"
             inkscape:connector-curvature="0"
             inkscape:transform-center-x="10.876349"
             inkscape:transform-center-y="0.12244676"
             style="stroke-width:0.559185;fill:#5798aa;fill-opacity:1" />
          <path
             id="path4732"
             d="m 313.42587,375.77126 c -1.18104,0.15498 -2.4214,-0.14208 -3.43881,-0.92345 -2.03749,-1.56477 -2.42076,-4.4854 -0.85599,-6.5229 l 70.65344,-91.99789 c 1.56478,-2.03749 4.48541,-2.42076 6.5229,-0.85599 2.03749,1.56478 2.42077,4.48541 0.85568,6.52055 l -70.65312,92.00024 c -0.78373,1.01772 -1.90544,1.62476 -3.0841,1.77944 z m 0,0"
             inkscape:connector-curvature="0"
             style="stroke-width:0.611096;fill:#5798aa;fill-opacity:1" />
          <path
             style="stroke-width:0.626408;fill:#5798aa;fill-opacity:1"
             inkscape:connector-curvature="0"
             d="m 289.41131,347.30384 c -1.21271,0.14211 -2.47981,-0.17997 -3.51153,-0.99526 -2.06616,-1.63272 -2.41758,-4.63168 -0.78486,-6.69784 l 73.72139,-93.29215 c 1.63272,-2.06616 4.63168,-2.41758 6.69784,-0.78486 2.06617,1.63273 2.41759,4.63169 0.78458,6.69541 l -73.72353,93.29487 c -0.8153,1.03172 -1.97361,1.63801 -3.18389,1.77983 z m 0,0"
             id="path4726-9" />
          <path
             style="stroke-width:0.813662;fill:#5798aa;fill-opacity:1"
             inkscape:connector-curvature="0"
             d="m 145.52157,401.67893 c -1.57523,0.18459 -3.22111,-0.23377 -4.56124,-1.29277 -2.68381,-2.1208 -3.14028,-6.01624 -1.01948,-8.70005 l 95.75913,-121.18025 c 2.12079,-2.6838 6.01624,-3.14027 8.70004,-1.01948 2.68382,2.12081 3.14029,6.01625 1.01912,8.69689 l -95.76193,121.18378 c -1.059,1.34014 -2.56357,2.12767 -4.13564,2.31188 z m 0,0"
             id="path4726-4" />
          <path
             style="stroke-width:0.611095;fill:#5798aa;fill-opacity:1"
             inkscape:connector-curvature="0"
             d="m 225.1484,371.75203 c -1.18104,0.15498 -2.4214,-0.14208 -3.43881,-0.92345 -2.03749,-1.56477 -2.42076,-4.4854 -0.85599,-6.5229 l 70.65344,-91.99789 c 1.56478,-2.03749 4.48541,-2.42076 6.5229,-0.85599 2.03749,1.56478 2.42077,4.48541 0.85568,6.52055 l -70.65312,92.00024 c -0.78373,1.01772 -1.90544,1.62476 -3.0841,1.77944 z m 0,0"
             id="path4732-1" />
          <path
             style="stroke-width:0.611095;fill:#5798aa;fill-opacity:1"
             inkscape:connector-curvature="0"
             d="m 361.7829,351.35881 c -1.18104,0.15498 -2.4214,-0.14208 -3.43881,-0.92345 -2.03749,-1.56477 -2.42076,-4.4854 -0.85599,-6.5229 l 70.65344,-91.99789 c 1.56478,-2.03749 4.48541,-2.42076 6.5229,-0.85599 2.03749,1.56478 2.42077,4.48541 0.85568,6.52055 L 364.867,349.57937 c -0.78373,1.01772 -1.90544,1.62476 -3.0841,1.77944 z m 0,0"
             id="path4732-3" />
          <path
             style="stroke-width:0.626408;fill:#5798aa;fill-opacity:1"
             inkscape:connector-curvature="0"
             d="m 118.53907,364.36557 c -1.21271,0.14211 -2.47981,-0.17997 -3.51153,-0.99526 -2.06616,-1.63272 -2.41758,-4.63168 -0.78486,-6.69784 l 73.72139,-93.29215 c 1.63272,-2.06616 4.63168,-2.41758 6.69784,-0.78486 2.06617,1.63273 2.41759,4.63169 0.78458,6.69541 l -73.72353,93.29487 c -0.8153,1.03172 -1.97361,1.63801 -3.18389,1.77983 z m 0,0"
             id="path4726-8" />
          <path
             style="stroke-width:0.611095;fill:#5798aa;fill-opacity:1"
             inkscape:connector-curvature="0"
             d="m 229.22704,424.77437 c -1.18104,0.15498 -2.4214,-0.14208 -3.43881,-0.92345 -2.03749,-1.56477 -2.42076,-4.4854 -0.85599,-6.5229 l 70.65344,-91.99789 c 1.56478,-2.03749 4.48541,-2.42076 6.5229,-0.85599 2.03749,1.56478 2.42077,4.48541 0.85568,6.52055 l -70.65312,92.00024 c -0.78373,1.01772 -1.90544,1.62476 -3.0841,1.77944 z m 0,0"
             id="path4732-7" />
          <path
             id="path4726-8-2"
             d="m 112.63008,324.21688 c -0.9556,0.11198 -1.95405,-0.14182 -2.76703,-0.78425 -1.6281,-1.28656 -1.90501,-3.64969 -0.61845,-5.27779 l 58.09119,-73.51261 c 1.28655,-1.6281 3.64968,-1.90501 5.27778,-0.61846 1.62811,1.28657 1.90502,3.6497 0.61823,5.27587 l -58.09287,73.51476 c -0.64244,0.81298 -1.55517,1.29072 -2.50885,1.40248 z m 0,0"
             inkscape:connector-curvature="0"
             style="stroke-width:0.493599;fill:#5798aa;fill-opacity:1" />
          <path
             style="stroke-width:0.559185;fill:#5798aa;fill-opacity:1"
             inkscape:transform-center-y="0.70116285"
             inkscape:transform-center-x="10.85441"
             inkscape:connector-curvature="0"
             d="m 292.36344,401.71357 c -1.08023,0.12808 -2.21148,-0.15569 -3.13348,-0.88222 -1.84861,-1.45472 -2.16601,-4.13139 -0.70888,-5.9781 l 8.39684,-10.65863 c 1.45522,-1.84427 4.13192,-2.16167 5.97809,-0.70887 1.84646,1.45497 2.16385,4.13166 0.70888,5.9781 l -8.39901,10.65888 c -0.72653,0.922 -1.76005,1.46249 -2.84244,1.59084 z m 0,0"
             id="path4728-2" />
        </g>
        <path
           style=""
           id="path4738"
           fill="#fab03c"
           d="M 345.375,324.38281 182.98828,433.04688 c -4.60156,3.08203 -9.46094,1.45703 -12.13281,-1.89453 L 305.18359,323.79688 h -53.28125 c -8.07422,0 -12.11718,-9.76172 -6.41015,-15.47266 l 70.21093,-70.21875 h 38.21094 l -69.6875,69.68359 h 56.10938 c 8.95703,0 12.48047,11.60938 5.03906,16.59375 z m 0,0"
           inkscape:connector-curvature="0" />
        <path
           id="path5855"
           style="fill:#666666;stroke-width:1"
           d="m 191.46827,89.351035 a 426.2642,426.2642 0 0 0 -1.0048,1.332076 426.2642,426.2642 0 0 0 -1.77418,2.388549 426.2642,426.2642 0 0 0 -1.75697,2.400032 426.2642,426.2642 0 0 0 -1.73973,2.417259 426.2642,426.2642 0 0 0 -1.72826,2.422999 426.2642,426.2642 0 0 0 -1.70528,2.44022 426.2642,426.2642 0 0 0 -1.69381,2.45171 426.2642,426.2642 0 0 0 -1.67083,2.45745 426.2642,426.2642 0 0 0 -1.65935,2.47468 426.2642,426.2642 0 0 0 -1.63639,2.48615 426.2642,426.2642 0 0 0 -1.61916,2.49765 426.2642,426.2642 0 0 0 -1.60768,2.50338 426.2642,426.2642 0 0 0 -1.58471,2.52061 426.2642,426.2642 0 0 0 -1.56749,2.53209 426.2642,426.2642 0 0 0 -1.556,2.53783 426.2642,426.2642 0 0 0 -1.53303,2.54932 426.2642,426.2642 0 0 0 -1.51581,2.56655 426.2642,426.2642 0 0 0 -1.49285,2.57228 426.2642,426.2642 0 0 0 -1.48136,2.57802 426.2642,426.2642 0 0 0 -1.46413,2.59525 426.2642,426.2642 0 0 0 -1.44117,2.60674 426.2642,426.2642 0 0 0 -1.42394,2.61247 426.2642,426.2642 0 0 0 -1.40672,2.62396 426.2642,426.2642 0 0 0 -1.38949,2.6297 426.2642,426.2642 0 0 0 -1.37227,2.64119 426.2642,426.2642 0 0 0 -1.3493,2.65267 426.2642,426.2642 0 0 0 -1.33782,2.66415 426.2642,426.2642 0 0 0 -1.31485,2.66989 426.2642,426.2642 0 0 0 -1.29188,2.68138 426.2642,426.2642 0 0 0 -1.2804,2.68712 426.2642,426.2642 0 0 0 -1.25744,2.6986 426.2642,426.2642 0 0 0 -1.2402,2.70434 426.2642,426.2642 0 0 0 -1.21725,2.71583 426.2642,426.2642 0 0 0 -1.20575,2.72157 426.2642,426.2642 0 0 0 -1.17706,2.73305 426.2642,426.2642 0 0 0 -1.16556,2.73879 426.2642,426.2642 0 0 0 -1.1426,2.75028 426.2642,426.2642 0 0 0 -1.12537,2.75602 426.2642,426.2642 0 0 0 -1.10815,2.76176 426.2642,426.2642 0 0 0 -1.08518,2.77324 426.2642,426.2642 0 0 0 -1.06796,2.77899 426.2642,426.2642 0 0 0 -1.04499,2.78472 426.2642,426.2642 0 0 0 -0.96461,2.6297 c 11.11861,36.24065 44.44998,62.76258 84.33417,62.76258 h 250.27519 c 38.46093,0 69.64113,-31.1802 69.64113,-69.64114 0,-37.64843 -29.87647,-68.29673 -67.2124,-69.57798 C 464.14833,54.935539 407.12259,0.49814401 337.37648,0.49814401 c -56.25,0 -104.22037,35.40730099 -122.86101,85.14948999 -8.03451,0.09718 -15.66289,1.604726 -23.0472,3.703401 z"
           inkscape:connector-curvature="0" />
        <path
           style=""
           id="path4748"
           fill="#565656"
           d="m 535.51804,193.21094 c 0,38.46093 -31.1875,69.64843 -69.64844,69.64843 h -5.39453 c 5.04688,-9.64062 7.90625,-20.61718 7.90625,-32.25 0,-37.64843 -29.875,-68.30078 -67.21094,-69.58593 C 397.01413,92.328125 339.9907,37.890625 270.2407,37.890625 c -9.40625,0 -18.57422,0.988281 -27.41016,2.871094 23.85938,-24.816407 57.39453,-40.257813 94.54687,-40.257813 69.7461,0 126.77344,54.425782 130.92969,123.132814 37.33594,1.27344 67.21094,31.92969 67.21094,69.57422 z m 0,0"
           inkscape:connector-curvature="0" />
        <path
           style=""
           id="path4750"
           fill="#6d6d6d"
           d="m 433.58054,116.07422 c -3.4375,0 -6.55469,-2.34766 -7.39453,-5.83594 -1.21094,-5.03906 -2.86719,-10.00781 -4.92578,-14.765624 -1.67188,-3.855468 0.10156,-8.335937 3.96094,-10.007812 3.85546,-1.671875 8.33593,0.105468 10.00781,3.960937 2.40625,5.558594 4.34375,11.363279 5.75781,17.253909 0.98047,4.08984 -1.53516,8.19531 -5.62109,9.17969 -0.59766,0.14453 -1.19532,0.21484 -1.78516,0.21484 z m 0,0"
           inkscape:connector-curvature="0" />
        <path
           style=""
           id="path4752"
           fill="#6d6d6d"
           d="m 408.79929,70.835938 c -2,0 -4,-0.78125 -5.49219,-2.339844 -17.42969,-18.160156 -40.84375,-28.160156 -65.92969,-28.160156 -4.20312,0 -7.60937,-3.410157 -7.60937,-7.613282 0,-4.203125 3.40625,-7.609375 7.60937,-7.609375 29.26954,0 56.58594,11.664063 76.91016,32.839844 2.91406,3.035156 2.8125,7.851563 -0.21875,10.761719 -1.47656,1.417968 -3.375,2.121094 -5.26953,2.121094 z m 0,0"
           inkscape:connector-curvature="0" />
        <path
           id="path5817"
           style="stroke-width:0.340165;fill:#999999;fill-opacity:1"
           d="M 36.353516 60.134766 A 145 145 0 0 0 35.953125 60.642578 A 145 145 0 0 0 35.332031 61.443359 A 145 145 0 0 0 34.716797 62.248047 A 145 145 0 0 0 34.107422 63.056641 A 145 145 0 0 0 33.503906 63.869141 A 145 145 0 0 0 32.90625 64.685547 A 145 145 0 0 0 32.3125 65.507812 A 145 145 0 0 0 31.726562 66.332031 A 145 145 0 0 0 31.144531 67.162109 A 145 145 0 0 0 30.570312 67.994141 A 145 145 0 0 0 30.001953 68.832031 A 145 145 0 0 0 29.4375 69.673828 A 145 145 0 0 0 28.880859 70.519531 A 145 145 0 0 0 28.328125 71.367188 A 145 145 0 0 0 27.783203 72.220703 A 145 145 0 0 0 27.242188 73.078125 A 145 145 0 0 0 26.708984 73.9375 A 145 145 0 0 0 26.181641 74.802734 A 145 145 0 0 0 25.660156 75.669922 A 145 145 0 0 0 25.144531 76.541016 A 145 145 0 0 0 24.634766 77.416016 A 145 145 0 0 0 24.130859 78.294922 A 145 145 0 0 0 23.634766 79.177734 A 145 145 0 0 0 23.142578 80.0625 A 145 145 0 0 0 22.658203 80.951172 A 145 145 0 0 0 22.179688 81.84375 A 145 145 0 0 0 21.707031 82.740234 A 145 145 0 0 0 21.242188 83.638672 A 145 145 0 0 0 20.78125 84.541016 A 145 145 0 0 0 20.328125 85.447266 A 145 145 0 0 0 19.880859 86.355469 A 145 145 0 0 0 19.439453 87.265625 A 145 145 0 0 0 19.005859 88.181641 A 145 145 0 0 0 18.578125 89.099609 A 145 145 0 0 0 18.15625 90.019531 A 145 145 0 0 0 17.740234 90.943359 A 145 145 0 0 0 17.332031 91.869141 A 145 145 0 0 0 16.929688 92.798828 A 145 145 0 0 0 16.533203 93.730469 A 145 145 0 0 0 16.144531 94.666016 A 145 145 0 0 0 15.761719 95.603516 A 145 145 0 0 0 15.386719 96.542969 A 145 145 0 0 0 15.015625 97.486328 A 145 145 0 0 0 14.654297 98.431641 A 145 145 0 0 0 14.296875 99.378906 A 145 145 0 0 0 13.947266 100.32812 A 145 145 0 0 0 13.603516 101.28125 A 145 145 0 0 0 13.267578 102.23633 A 145 145 0 0 0 12.9375 103.19336 A 145 145 0 0 0 12.615234 104.1543 A 145 145 0 0 0 12.298828 105.11523 A 145 145 0 0 0 11.988281 106.08008 A 145 145 0 0 0 11.685547 107.04492 A 145 145 0 0 0 11.390625 108.01367 A 145 145 0 0 0 11.101562 108.98438 A 145 145 0 0 0 10.818359 109.95703 A 145 145 0 0 0 10.542969 110.93164 A 145 145 0 0 0 10.273438 111.9082 A 145 145 0 0 0 10.011719 112.88477 A 145 145 0 0 0 9.7558594 113.86523 A 145 145 0 0 0 9.5078125 114.84766 A 145 145 0 0 0 9.265625 115.83008 A 145 145 0 0 0 9.03125 116.81445 A 145 145 0 0 0 8.8027344 117.80273 A 145 145 0 0 0 8.5820312 118.78906 A 145 145 0 0 0 8.3691406 119.7793 A 145 145 0 0 0 8.1621094 120.77148 A 145 145 0 0 0 7.9609375 121.76367 A 145 145 0 0 0 7.7675781 122.75781 A 145 145 0 0 0 7.7089844 123.07617 L 58.990234 123.07617 C 70.892009 123.07617 80.541016 113.42912 80.541016 101.52734 C 80.541016 89.713267 71.033436 80.1246 59.253906 79.982422 C 55.518576 70.016794 46.909114 62.502753 36.353516 60.134766 z "
           transform="matrix(2.9397531,0,0,2.9397531,91.625754,-98.959674)" />
        <path
           id="path5836"
           style="stroke-width:0.340165;fill:#808080"
           d="M 36.126953 60.082031 A 145 145 0 0 0 35.958984 60.298828 A 145 145 0 0 0 35.34375 61.103516 A 145 145 0 0 0 34.734375 61.912109 A 145 145 0 0 0 34.130859 62.724609 A 145 145 0 0 0 33.53125 63.542969 A 145 145 0 0 0 32.939453 64.363281 A 145 145 0 0 0 32.353516 65.189453 A 145 145 0 0 0 31.771484 66.017578 A 145 145 0 0 0 31.197266 66.851562 A 145 145 0 0 0 30.626953 67.689453 A 145 145 0 0 0 30.064453 68.53125 A 145 145 0 0 0 29.505859 69.375 A 145 145 0 0 0 28.994141 70.164062 C 35.692018 73.811353 40.972132 79.737494 43.677734 86.955078 C 55.461251 87.098587 64.966797 96.686626 64.966797 108.49805 C 64.966797 114.11874 62.814991 119.23345 59.287109 123.07227 C 71.053353 122.91148 80.541016 113.3268 80.541016 101.52734 C 80.541016 89.71061 71.03609 80.126554 59.253906 79.984375 C 55.4919 69.945381 46.786685 62.390957 36.126953 60.082031 z "
           transform="matrix(2.9397531,0,0,2.9397531,91.625754,-98.959674)" />
      </g>
      <g
         id="g900"
         transform="matrix(1.6988191,0,0,1.5343363,-229.85242,-174.08766)">
        <path
           id="path4567"
           d="m 291.65519,246.77809 c -1.47849,1.41573 -3.49713,2.26736 -5.7063,2.21874 -4.41838,-0.0958 -7.91931,-3.75196 -7.82349,-8.17034 l 4.06044,-187.103067 c 0.0958,-4.418378 3.75196,-7.919305 8.17034,-7.823486 4.41838,0.09582 7.9193,3.751958 7.82349,8.170336 l -4.05975,187.103797 c -0.0486,2.20917 -0.98696,4.18899 -2.46473,5.60402 z"
           style="fill:#694641"
           inkscape:connector-curvature="0" />
        <path
           transform="matrix(2.752067,0,0,3.0470921,-129.37167,-250.87796)"
           d="M 148.92969 188.42188 C 148.92112 188.39263 148.6427 187.44894 148.32422 185.07422 C 148.00089 182.6634 147.64533 178.82895 147.52148 173.13867 C 147.49052 171.7161 147.58145 170.35779 147.76367 169.07031 C 147.94589 167.78283 148.22105 166.56597 148.55664 165.42578 C 148.97973 163.98831 149.58119 162.90602 150.14062 161.72461 C 114.64967 162.74763 83.67292 160.80322 73.6875 160.03906 C 71.961888 159.90648 70.612109 161.31084 70.976562 162.83984 C 72.297025 168.37824 75.629187 180.2329 81.568359 188.64453 L 148.92969 188.42188 z "
           style="fill:#7e5648;stroke-width:0.345325;fill-opacity:1"
           id="path4557" />
        <path
           transform="matrix(2.752067,0,0,3.0470921,-129.37167,-250.87796)"
           d="M 247.94727 147.91797 C 247.50793 147.84753 247.03614 147.87868 246.56641 148.03711 C 218.85251 157.38247 182.61454 160.78855 150.14062 161.72461 C 149.58119 162.90602 148.97973 163.98831 148.55664 165.42578 C 148.22105 166.56597 147.94589 167.78283 147.76367 169.07031 C 147.58145 170.35779 147.49052 171.7161 147.52148 173.13867 C 147.64533 178.82895 148.00089 182.6634 148.32422 185.07422 C 148.6427 187.44894 148.92112 188.39263 148.92969 188.42188 L 214.4375 188.20703 C 241.84054 178.88372 248.44712 159.05263 250.0332 150.59375 C 250.28447 149.25428 249.26527 148.12929 247.94727 147.91797 z "
           style="fill:#aa785f;stroke-width:0.345325"
           id="path8993" />
        <g
           id="g4563">
          <path
             transform="matrix(2.752067,0,0,3.0470921,-129.37167,-250.87796)"
             d="M 147.58008 172.27148 C 112.49541 173.14288 82.215532 171.20472 73.119141 170.49609 C 74.93959 176.20875 77.688367 183.14913 81.568359 188.64453 L 148.92969 188.42188 C 148.92969 188.42188 148.63778 187.58308 148.31445 185.32227 C 147.99113 183.06146 147.63556 179.37777 147.51172 173.6875 C 147.5008 173.18585 147.56654 172.75237 147.58008 172.27148 z "
             style="fill:#624338;stroke-width:0.345325;fill-opacity:1"
             id="path4559" />
          <path
             transform="matrix(2.752067,0,0,3.0470921,-129.37167,-250.87796)"
             d="M 147.58008 172.27148 C 147.56654 172.75237 147.5008 173.18585 147.51172 173.6875 C 147.63556 179.37777 147.99113 183.06146 148.31445 185.32227 C 148.63778 187.58308 148.92969 188.42188 148.92969 188.42188 L 214.4375 188.20703 C 229.03417 183.24066 237.7206 175.29907 242.89453 167.68164 C 245.16628 164.33681 241.55863 160.1834 237.4043 161.33203 C 210.33716 168.81626 177.26236 171.53427 147.58008 172.27148 z "
             style="fill:#96695a;stroke-width:0.345325"
             id="path8996" />
          <path
             id="path4561"
             d="m 134.43317,240.736 c -28.144,-1.355 -49.573002,-2.991 -61.014002,-3.96 -4.749,-0.402 -8.46,3.877 -7.457,8.537 3.634,16.875 12.804,52.993 29.148,78.624 l 119.578012,-0.436 c -38.648,-23.75 -64.625,-57.168 -80.25501,-82.765 z"
             style="fill:#6c4b42;fill-opacity:1"
             inkscape:connector-curvature="0" />
        </g>
        <path
           id="path4565"
           d="m 158.00218,273.72 c -41.22301,-1.496 -72.422012,-3.895 -86.147012,-5.078 5.01,17.407 12.576,38.55 23.254,55.295 l 119.578012,-0.436 c -23.356,-14.353 -42.082,-32.215 -56.685,-49.781 z"
           style="fill:#583d36;fill-opacity:1"
           inkscape:connector-curvature="0" />
        <path
           inkscape:connector-curvature="0"
           id="path4657"
           d="M 286.18068,58.054842 172.50921,88.212586 283.86086,109.09105 Z"
           style="fill:#bb4848;fill-opacity:1;stroke:none;stroke-width:4.67526;stroke-linecap:butt;stroke-linejoin:miter;stroke-miterlimit:4;stroke-dasharray:none;stroke-opacity:1" />
      </g>
      <path
         id="path942-1"
         style="opacity:1;fill:#004f67;fill-opacity:1;stroke:none;stroke-width:7.60198;stroke-miterlimit:4;stroke-dasharray:none;stroke-opacity:1"
         d="m -401.09829,322.14062 c 11.70563,0.1217 33.2147,58.52445 43.28356,58.55718 31.26266,0.10164 45.66094,-58.06151 46.93442,-57.98186 17.39414,1.08709 53.62547,2.82713 98.67364,4.42869 45.04817,1.60156 98.91343,3.06824 151.580823,3.61604 52.667396,0.54775 104.133497,0.1749 144.385322,-1.89933 20.125885,-1.03711 37.450175,-2.50599 50.715625,-4.49265 6.63275,-0.9933 12.25322,-2.11111 16.70131,-3.37858 4.44804,-1.26751 5.45821,4.07701 7.40859,2.51089 11.32176,1.67113 -22.58599,-7.2136 -30.5749,-8.81155 -13.42221,-2.68445 -26.38892,-7.09631 -39.219246,-11.64253 -12.830374,-4.54618 -25.52264,-9.22963 -38.388312,-12.44602 -4.161266,-1.04034 -8.279612,-1.18481 -12.382156,-0.70316 -4.102498,0.48169 -8.189146,1.59174 -12.281685,3.0773 -8.185092,2.97113 -16.399723,7.42643 -24.8373447,11.30465 -4.2188086,1.93907 -8.4927853,3.73395 -12.8478453,5.12269 -4.355055,1.38874 -8.79175,2.37344 -13.331805,2.69374 -4.540055,0.32031 -9.178951,-0.0213 -13.952741,-1.28752 -4.773791,-1.26625 -9.681761,-3.4503 -14.73804,-6.82111 -5.77001,-3.84672 -23.211761,-19.19542 -41.529492,-31.25671 -9.158873,-6.03067 -18.535103,-11.23537 -26.782323,-13.77927 -4.12361,-1.27191 -7.96981,-1.88114 -11.35943,-1.58884 -3.38963,0.2923 -6.32002,1.48037 -8.63828,3.79865 -5.5675,5.56749 -12.17033,12.09935 -19.61419,18.53667 -7.44387,6.43737 -15.73547,12.78208 -24.68211,17.97971 -4.47332,2.5988 -9.10985,4.9095 -13.88882,6.80284 -4.77897,1.89339 -9.70012,3.36759 -14.73804,4.29175 -5.03792,0.92421 -10.19098,1.30403 -15.44116,0.99532 -5.25017,-0.30866 -10.59157,-1.2994 -16.0073,-3.10466 -2.84453,-0.94819 -5.93573,-2.83961 -9.17703,-5.40577 -3.2413,-2.56616 -6.63265,-5.8121 -10.08104,-9.48747 -6.89677,-7.35077 -14.02249,-16.41293 -20.60951,-25.14782 -6.58702,-8.73494 -12.63547,-17.1449 -17.39527,-23.19371 -4.7598,-6.04881 -8.2276,-9.72936 -9.64273,-9.02181 -8.42865,4.21433 -17.45773,10.33781 -26.93756,16.99351 -9.47983,6.65571 -19.41576,13.83794 -29.64957,20.15296 -5.11691,3.15749 -10.31019,6.09669 -15.55987,8.64742 -5.24967,2.55068 -10.55242,4.71365 -15.89772,6.30978 -2.6379,0.78769 -5.30812,0.95076 -7.96256,1.44274 2.52504,11.46734 5.34759,22.86715 8.46479,34.18787 z"
         inkscape:connector-curvature="0"
         sodipodi:nodetypes="cscssscccccccscscccccscccccccsccscsccsccc" />
      <path
         inkscape:connector-curvature="0"
         style="opacity:0.41157556;fill:#ffffff;stroke-width:0.451249"
         d="m 837.92131,49.967315 c -3.10367,0 -6.09546,0.105268 -8.96439,0.283604 -6.09266,-2.707443 -17.94341,-4.544089 -31.56922,-4.544089 -9.10464,0 -17.38224,0.825713 -23.71976,2.17466 -6.33383,-1.348947 -14.6078,-2.17466 -23.70601,-2.17466 -15.59348,0 -28.82959,2.40918 -33.80736,5.772442 -5.9588,-1.061791 -13.2957,-1.697395 -21.26066,-1.697395 -19.8478,0 -35.94278,3.897597 -35.94278,8.705966 0,4.01819 11.24833,7.390777 26.53277,8.395045 4.13882,3.700608 18.06995,6.426037 34.65178,6.426037 7.49185,0 14.45376,-0.55921 20.20905,-1.508848 6.53096,1.61434 15.61454,2.619941 25.68007,2.619941 14.21903,0 26.47318,-2.006541 32.29905,-4.908529 5.33809,0.759311 11.54263,1.202812 18.17447,1.202812 11.81953,0 22.27844,-1.388032 28.82683,-3.520492 16.29849,-0.829046 28.53522,-4.327554 28.53522,-8.520746 0,-4.808151 -16.09497,-8.705748 -35.93906,-8.705748 z"
         id="path949-7" />
      <path
         id="path949-7-5"
         d="m 653.45233,-10.754824 c -5.84301,0 -11.4754,0.10527 -16.87649,0.2836 -11.47014,-2.70744 -33.78054,-4.54409 -59.43269,-4.54409 -17.14054,0 -32.72407,0.82572 -44.65518,2.17466 -11.92417,-1.34894 -27.50087,-2.17466 -44.62929,-2.17466 -29.35653,0 -54.27503,2.40918 -63.64625,5.7724504 -11.21813,-1.0618004 -25.03069,-1.6974004 -40.02564,-1.6974004 -37.36577,0 -67.66642,3.8976001 -67.66642,8.7059701 0,4.01819 21.17628,7.39077 49.95099,8.39504 7.79181,3.70061 34.01876,6.4260399 65.23597,6.4260399 14.10427,0 27.21086,-0.55921 38.04586,-1.50885 12.29528,1.61434 29.39617,2.61994 48.34569,2.61994 26.76896,0 49.83881,-2.00654 60.80668,-4.9085299 10.04956,0.75931 21.73033,1.20281 34.21553,1.20281 22.25162,0 41.94172,-1.38803 54.26982,-3.52049 30.68379,-0.82904 53.72084,-4.32755 53.72084,-8.52074 0,-4.80815 -30.30064,-8.7057501 -67.65942,-8.7057501 z"
         style="opacity:0.41157556;fill:#ffffff;stroke-width:0.619152"
         inkscape:connector-curvature="0" />
      <path
         id="path949-7-2"
         d="m 554.2653,130.83888 c -3.10367,0 -6.09546,0.10527 -8.96439,0.2836 -6.09266,-2.70744 -17.94341,-4.54409 -31.56922,-4.54409 -9.10464,0 -17.38224,0.82572 -23.71976,2.17466 -6.33383,-1.34894 -14.6078,-2.17466 -23.70601,-2.17466 -15.59348,0 -28.82959,2.40918 -33.80736,5.77245 -5.9588,-1.0618 -13.2957,-1.6974 -21.26066,-1.6974 -19.8478,0 -35.94278,3.8976 -35.94278,8.70597 0,4.01819 11.24833,7.39077 26.53277,8.39504 4.13882,3.70061 18.06995,6.42604 34.65178,6.42604 7.49185,0 14.45376,-0.55921 20.20905,-1.50885 6.53096,1.61434 15.61454,2.61994 25.68007,2.61994 14.21903,0 26.47318,-2.00654 32.29905,-4.90853 5.33809,0.75931 11.54263,1.20281 18.17447,1.20281 11.81953,0 22.27844,-1.38803 28.82683,-3.52049 16.29849,-0.82904 28.53522,-4.32755 28.53522,-8.52074 0,-4.80815 -16.09497,-8.70575 -35.93906,-8.70575 z"
         style="opacity:0.41157556;fill:#f1f1f1;stroke-width:0.451249;fill-opacity:1"
         inkscape:connector-curvature="0" />
    </g>
    <g
       id="g4575" />
    <g
       id="g4577" />
    <g
       id="g4579" />
    <g
       id="g4581" />
    <g
       id="g4583" />
    <g
       id="g4585" />
    <g
       id="g4587" />
    <g
       id="g4589" />
    <g
       id="g4591" />
    <g
       id="g4593" />
    <g
       id="g4595" />
    <g
       id="g4597" />
    <g
       id="g4599" />
    <g
       id="g4601" />
    <g
       id="g4603" />
    <circle
       style="opacity:0.47266881;fill:#ffffff;fill-opacity:1;stroke-width:3.11605;filter:url(#filter6022)"
       cx="514.32843"
       cy="129.42181"
       id="circle869-7-9-3"
       r="46.740921" />
    <circle
       id="circle869"
       r="32.197643"
       cy="128.97398"
       cx="514.45752"
       style="fill:#feffd8;fill-opacity:1;stroke-width:2.14651" />
    <path
       id="path4571-1-2"
       d="m 601.20986,383.19129 c -0.25557,0.002 -0.44764,0.013 -0.72577,0.013 -3.8618,0 -5.44452,-0.24816 -7.83486,-0.62295 -3.06677,-0.48225 -6.88764,-1.0826 -13.88601,-1.0826 -6.99418,0 -10.81505,0.60035 -13.88182,1.0826 -2.38615,0.37479 -3.96466,0.62295 -7.81807,0.62295 -3.85341,0 -5.42825,-0.24731 -7.8144,-0.62295 -3.06677,-0.48225 -6.88344,-1.0826 -13.87342,-1.0826 -6.98998,0 -10.81085,0.60035 -13.87762,1.0826 -2.38615,0.37479 -3.96046,0.62295 -7.81807,0.62295 -3.85393,0 -5.42825,-0.24731 -7.8144,-0.62295 -3.06677,-0.48225 -6.88344,-1.0826 -13.87342,-1.0826 -6.99416,0 -10.81084,0.60035 -13.87761,1.0826 -2.38614,0.37564 -3.96046,0.62295 -7.8144,0.62295 -3.85393,0 -5.42825,-0.24731 -7.81439,-0.62295 -3.06677,-0.48225 -6.88345,-1.0826 -13.87342,-1.0826 -6.98998,0 -10.80718,0.60035 -13.87764,1.08345 -2.38193,0.37479 -3.95625,0.6221 -7.80598,0.6221 -3.84554,0 -5.41566,-0.24731 -7.79762,-0.6221 -3.06676,-0.4831 -6.87923,-1.08345 -13.86975,-1.08345 -6.99049,0 -10.80716,0.60035 -13.87761,1.08345 -2.38194,0.37479 -3.95626,0.6221 -7.806,0.6221 -0.25818,0 -0.43398,-0.01 -0.67223,-0.012 v 1.73198 c 0,3.03056 7.49008,5.12816 14.44648,4.03448 0.032,-0.005 0.0635,-0.0101 0.095,-0.0149 2.38614,-0.37564 3.96046,-0.62295 7.81438,-0.62295 3.84975,0 5.41987,0.24731 7.80181,0.6221 3.06678,0.4831 6.87925,1.08345 13.86556,1.08345 6.98997,0 10.80297,-0.60035 13.86975,-1.0826 2.38614,-0.37564 3.96046,-0.62295 7.81439,-0.62295 3.85393,0 5.42825,0.24731 7.8144,0.62295 3.06676,0.48225 6.88344,1.0826 13.87341,1.0826 6.98999,0 10.80718,-0.60035 13.87343,-1.0826 2.38614,-0.37479 3.96045,-0.62295 7.81806,-0.62295 3.85393,0 5.42825,0.24731 7.8144,0.62295 3.06677,0.48225 6.88344,1.0826 13.87342,1.0826 6.98998,0 10.81085,-0.60035 13.87762,-1.0826 2.38614,-0.37479 3.96046,-0.62295 7.81807,-0.62295 3.85393,0 5.42825,0.24731 7.81439,0.62295 3.06678,0.48225 6.88345,1.0826 13.87343,1.0826 6.98997,0 10.81085,-0.60035 13.87762,-1.0826 2.38614,-0.37479 3.96466,-0.62295 7.82227,-0.62295 3.8618,0 5.44452,0.24816 7.83486,0.62295 0.0546,0.009 0.10915,0.0173 0.16425,0.0258 6.95692,1.09305 14.44752,-1.00414 14.44752,-4.03447 z"
       style="fill:#80e1ff;fill-opacity:1;stroke-width:0.334484"
       inkscape:connector-curvature="0" />
    <path
       inkscape:connector-curvature="0"
       style="fill:#80e1ff;fill-opacity:1;stroke-width:0.375637"
       d="m 553.66513,448.2322 c -0.25557,0.003 -0.44764,0.0164 -0.72577,0.0164 -3.8618,0 -5.44452,-0.31297 -7.83486,-0.78567 -3.06677,-0.60821 -6.88764,-1.36538 -13.88601,-1.36538 -6.99418,0 -10.81505,0.75717 -13.88182,1.36538 -2.38615,0.4727 -3.96466,0.78567 -7.81807,0.78567 -3.85341,0 -5.42825,-0.3119 -7.8144,-0.78567 -3.06677,-0.60821 -6.88344,-1.36538 -13.87342,-1.36538 -6.98998,0 -10.81085,0.75717 -13.87762,1.36538 -2.38615,0.4727 -3.96046,0.78567 -7.81807,0.78567 -3.85393,0 -5.42825,-0.3119 -7.8144,-0.78567 -3.06677,-0.60821 -6.88344,-1.36538 -13.87342,-1.36538 -6.99416,0 -10.81084,0.75717 -13.87761,1.36538 -2.38614,0.47377 -3.96046,0.78567 -7.8144,0.78567 -3.85393,0 -5.42825,-0.3119 -7.81439,-0.78567 -3.06677,-0.60821 -6.88345,-1.36538 -13.87342,-1.36538 -6.98998,0 -10.80718,0.75717 -13.87764,1.36646 -2.38193,0.47269 -3.95625,0.78459 -7.80598,0.78459 -3.84554,0 -5.41566,-0.3119 -7.79762,-0.78459 -3.06676,-0.60929 -6.87923,-1.36646 -13.86975,-1.36646 -6.99049,0 -10.80716,0.75717 -13.87761,1.36646 -2.38194,0.47269 -3.95626,0.78459 -7.806,0.78459 -0.25818,0 -0.43398,-0.0124 -0.67223,-0.0151 v 2.18439 c 0,3.82216 7.49008,6.46768 14.44648,5.08832 0.032,-0.006 0.0635,-0.0127 0.095,-0.0188 2.38614,-0.47377 3.96046,-0.78567 7.81438,-0.78567 3.84975,0 5.41987,0.3119 7.80181,0.78459 3.06678,0.60929 6.87925,1.36646 13.86556,1.36646 6.98997,0 10.80297,-0.75717 13.86975,-1.36538 2.38614,-0.47377 3.96046,-0.78567 7.81439,-0.78567 3.85393,0 5.42825,0.3119 7.8144,0.78567 3.06676,0.60821 6.88344,1.36538 13.87341,1.36538 6.98999,0 10.80718,-0.75717 13.87343,-1.36538 2.38614,-0.4727 3.96045,-0.78567 7.81806,-0.78567 3.85393,0 5.42825,0.3119 7.8144,0.78567 3.06677,0.60821 6.88344,1.36538 13.87342,1.36538 6.98998,0 10.81085,-0.75717 13.87762,-1.36538 2.38614,-0.4727 3.96046,-0.78567 7.81807,-0.78567 3.85393,0 5.42825,0.3119 7.81439,0.78567 3.06678,0.60821 6.88345,1.36538 13.87343,1.36538 6.98997,0 10.81085,-0.75717 13.87762,-1.36538 2.38614,-0.4727 3.96466,-0.78567 7.82227,-0.78567 3.8618,0 5.44452,0.31297 7.83486,0.78567 0.0546,0.0108 0.10915,0.0218 0.16425,0.0325 6.95692,1.37856 14.44752,-1.26643 14.44752,-5.08831 z"
       id="path4571-1-2-0" />
  </g>
</svg>
