<?xml version="1.0" encoding="UTF-8" standalone="no"?>
<svg
   xmlns:dc="http://purl.org/dc/elements/1.1/"
   xmlns:cc="http://creativecommons.org/ns#"
   xmlns:rdf="http://www.w3.org/1999/02/22-rdf-syntax-ns#"
   xmlns:svg="http://www.w3.org/2000/svg"
   xmlns="http://www.w3.org/2000/svg"
   xmlns:sodipodi="http://sodipodi.sourceforge.net/DTD/sodipodi-0.dtd"
   xmlns:inkscape="http://www.inkscape.org/namespaces/inkscape"
   inkscape:export-ydpi="358.39999"
   inkscape:export-xdpi="358.39999"
   inkscape:export-filename="/Users/mike.xiao/Documents/Projects/DBT_icons/dbt_icons/FAST.png"
   width="30"
   height="30"
   viewBox="0 0 7.9374997 7.937501"
   version="1.1"
   id="svg870"
   inkscape:version="1.0beta2 (2b71d25, 2019-12-03)"
   sodipodi:docname="FAST.svg">
  <defs
     id="defs864">
    <inkscape:path-effect
       lpeversion="1"
       is_visible="true"
       id="path-effect5527"
       effect="spiro" />
    <inkscape:path-effect
       lpeversion="1"
       is_visible="true"
       id="path-effect5507"
       effect="spiro" />
    <clipPath
       id="clipPath3356"
       clipPathUnits="userSpaceOnUse">
      <circle
         transform="rotate(-24.851457)"
         r="351.66946"
         cy="269.70401"
         cx="112.22215"
         id="circle3358"
         style="opacity:0.998058;fill:#aaffee;fill-opacity:1;stroke-width:5.55148;stroke-linecap:round;stroke-linejoin:round;stroke-dashoffset:7.40787;paint-order:stroke fill markers" />
    </clipPath>
    <clipPath
       id="clipPath5844"
       clipPathUnits="userSpaceOnUse">
      <circle
         r="3.8364587"
         cy="3.9977663"
         cx="4.0192595"
         id="circle5846"
         style="opacity:0.998058;fill:#ffe680;fill-opacity:1;stroke-width:0.0605626;stroke-linecap:round;stroke-linejoin:round;stroke-dashoffset:7.40787;paint-order:stroke fill markers" />
    </clipPath>
  </defs>
  <sodipodi:namedview
     id="base"
     pagecolor="#ffffff"
     bordercolor="#666666"
     borderopacity="1.0"
     inkscape:pageopacity="0.0"
     inkscape:pageshadow="2"
     inkscape:zoom="2"
     inkscape:cx="12.776672"
     inkscape:cy="13.8836"
     inkscape:document-units="mm"
     inkscape:current-layer="layer1"
     inkscape:document-rotation="0"
     showgrid="false"
     units="px"
     inkscape:window-width="1137"
     inkscape:window-height="664"
     inkscape:window-x="70"
     inkscape:window-y="111"
     inkscape:window-maximized="0" />
  <metadata
     id="metadata867">
    <rdf:RDF>
      <cc:Work
         rdf:about="">
        <dc:format>image/svg+xml</dc:format>
        <dc:type
           rdf:resource="http://purl.org/dc/dcmitype/StillImage" />
        <dc:title></dc:title>
      </cc:Work>
    </rdf:RDF>
  </metadata>
  <g
     inkscape:label="Layer 1"
     inkscape:groupmode="layer"
     id="layer1">
    <circle
       style="opacity:0.998058;fill:#ffe680;fill-opacity:1;stroke-width:0.0605625;stroke-linecap:round;stroke-linejoin:round;stroke-dashoffset:7.40787;paint-order:stroke fill markers"
       id="path838"
       cx="4.0098491"
       cy="3.9665015"
       r="3.8364584" />
    <g
       transform="matrix(-0.00642539,0,0,-0.00642539,4.950684,6.9874201)"
       id="g5712">
</g>
    <g
       transform="matrix(-0.00642539,0,0,-0.00642539,4.950684,6.9874201)"
       id="g5714">
</g>
    <g
       transform="matrix(-0.00642539,0,0,-0.00642539,4.950684,6.9874201)"
       id="g5716">
</g>
    <g
       transform="matrix(-0.00642539,0,0,-0.00642539,4.950684,6.9874201)"
       id="g5718">
</g>
    <g
       transform="matrix(-0.00642539,0,0,-0.00642539,4.950684,6.9874201)"
       id="g5720">
</g>
    <g
       transform="matrix(-0.00642539,0,0,-0.00642539,4.950684,6.9874201)"
       id="g5722">
</g>
    <g
       transform="matrix(-0.00642539,0,0,-0.00642539,4.950684,6.9874201)"
       id="g5724">
</g>
    <g
       transform="matrix(-0.00642539,0,0,-0.00642539,4.950684,6.9874201)"
       id="g5726">
</g>
    <g
       transform="matrix(-0.00642539,0,0,-0.00642539,4.950684,6.9874201)"
       id="g5728">
</g>
    <g
       transform="matrix(-0.00642539,0,0,-0.00642539,4.950684,6.9874201)"
       id="g5730">
</g>
    <g
       transform="matrix(-0.00642539,0,0,-0.00642539,4.950684,6.9874201)"
       id="g5732">
</g>
    <g
       transform="matrix(-0.00642539,0,0,-0.00642539,4.950684,6.9874201)"
       id="g5734">
</g>
    <g
       transform="matrix(-0.00642539,0,0,-0.00642539,4.950684,6.9874201)"
       id="g5736">
</g>
    <g
       transform="matrix(-0.00642539,0,0,-0.00642539,4.950684,6.9874201)"
       id="g5738">
</g>
    <g
       transform="matrix(-0.00642539,0,0,-0.00642539,4.950684,6.9874201)"
       id="g5740">
</g>
    <path
       transform="scale(0.26458333)"
       d="M 29.466797 16.978516 L 0.75390625 16.978516 A 14.500001 14.500001 0 0 0 15.109375 29.447266 A 14.500001 14.500001 0 0 0 29.466797 16.978516 z "
       style="opacity:0.998058;fill:#129b12;fill-opacity:1;stroke-width:0.228898;stroke-linecap:round;stroke-linejoin:round;stroke-dashoffset:7.40787;paint-order:stroke fill markers"
       id="path838-9" />
    <path
       transform="scale(0.26458333)"
       d="M 29.390625 17.464844 L 0.83203125 17.464844 A 14.500001 14.500001 0 0 0 15.109375 29.447266 A 14.500001 14.500001 0 0 0 29.390625 17.464844 z "
       style="opacity:0.998058;fill:#917c6f;fill-opacity:1;stroke-width:0.228898;stroke-linecap:round;stroke-linejoin:round;stroke-dashoffset:7.40787;paint-order:stroke fill markers"
       id="path838-7" />
    <path
       sodipodi:nodetypes="cscccccccccccccccccccccccccccccccccccccccccccccccscccccccccccccccccc"
       inkscape:connector-curvature="0"
       id="path5785"
       d="M 2.2159218,5.4905973 C 2.3760486,5.4669242 2.7875956,5.4020044 2.9533593,5.2556872 L 3.317928,4.9338877 C 3.1663339,5.2284212 3.032609,5.5183945 2.8312062,5.53898 2.3953136,5.6326697 2.0205342,5.6616013 1.6076406,5.8012888 L 2.6501053,5.7018962 2.2340895,6.0512668 3.0194504,5.648024 2.944669,6.0494282 3.2064602,5.6000522 3.374251,5.378447 3.5155999,5.669602 C 3.4465041,5.8638108 3.347505,6.0835816 3.2344819,6.1679722 2.9209435,6.3572059 2.5916787,6.4151252 2.2327168,6.4491051 L 2.9917535,6.4438149 2.8022453,6.9691078 3.2050879,6.3856417 3.4653603,6.1946016 C 3.6585869,6.4114939 3.4980939,6.4983661 3.3152876,6.7071242 L 3.6368365,6.511022 3.8231127,6.8560106 3.7497664,6.5063921 4.082238,6.5876421 C 3.8242788,6.4503361 3.6786859,6.2821149 3.6104238,6.0168942 L 3.6648076,5.8663017 3.7601241,5.6967445 4.2022742,5.7543655 3.7611534,5.507474 3.643336,5.2296968 3.9268342,4.9872673 4.1380169,5.2182801 4.2545091,5.4014592 4.3657868,5.6320885 4.2748916,5.9398087 C 4.096403,6.1045144 3.9605089,6.1642866 3.8043491,6.2396769 3.9912103,6.2031496 4.1219761,6.2227177 4.3275357,6.1207457 L 4.2762357,6.3266888 4.1755932,6.8906037 4.4553202,6.4142842 4.8210593,7.1188158 4.6684816,6.5072574 5.3107571,6.6274761 C 5.0457503,6.5226839 4.8716705,6.4672953 4.5341368,6.2221299 l 0.024612,-0.2544354 0.040407,-0.2378412 0.4649961,0.6471308 -0.24308,-0.6357479 c 0.037704,0.085581 0.130926,0.212166 0.7219627,0.1556074 C 5.2065963,5.8734874 5.025519,5.7360334 4.7743265,5.535553 L 4.6289344,5.3533497 c 0,0 -0.1196923,-0.1788764 -0.095263,-0.2496536 L 5.0827267,5.3902427 5.8012351,5.7780434 5.2725038,5.3409015 6.1833124,5.363814 C 5.8423058,5.2477662 5.2530316,5.1851497 4.9004945,4.9631972 L 4.5624243,4.6217854 4.0576345,4.4880267 v 0 L 4.0281964,4.2825538 v 0 L 3.6716866,4.272086 3.4091257,4.6217936 C 3.125943,4.8169905 2.7042614,4.9773999 2.3231805,5.0257495 L 2.9786935,4.9920884 2.8076654,5.1805728 2.5117936,5.335585 Z"
       style="fill:#9a4d01;fill-opacity:1;stroke:none;stroke-width:0.0403173px;stroke-linecap:butt;stroke-linejoin:miter;stroke-opacity:1" />
    <circle
       clip-path="url(#clipPath5844)"
       r="2.8800039"
       cy="1.4722956"
       cx="4.0300064"
       id="path838-3"
       style="opacity:0.998058;fill:#ffd010;fill-opacity:1;stroke-width:0.0454639;stroke-linecap:round;stroke-linejoin:round;stroke-dashoffset:7.40787;paint-order:stroke fill markers" />
    <g
       transform="matrix(0.00816749,0,0,0.00812551,1.8910474,0.46607893)"
       id="g5706">
      <path
         inkscape:connector-curvature="0"
         style="fill:#129b12"
         d="m 485.271,240.532 c 0,-35.798 -21.77,-66.511 -52.792,-79.623 5.478,-10.59 8.592,-22.602 8.592,-35.348 0,-42.561 -34.502,-77.063 -77.063,-77.063 -12.126,0 -23.593,2.809 -33.799,7.798 C 321.141,23.827 291.362,0 256,0 c -35.362,0 -65.14,23.827 -74.209,56.296 -10.206,-4.99 -21.673,-7.798 -33.799,-7.798 -42.561,0 -77.063,34.502 -77.063,77.063 0,12.746 3.113,24.758 8.592,35.348 -31.022,13.113 -52.792,43.825 -52.792,79.623 0,46.393 36.576,84.196 82.459,86.265 6.397,23.17 31.1,40.443 60.622,40.443 16.732,0 31.91,-5.557 43.095,-14.581 11.186,9.024 26.364,14.581 43.095,14.581 16.731,0 31.91,-5.557 43.095,-14.581 11.186,9.024 26.364,14.581 43.095,14.581 29.522,0 54.225,-17.273 60.622,-40.444 45.883,-2.069 82.459,-39.871 82.459,-86.264 z"
         id="path5630" />
      <g
         id="g5636">
	<path
   inkscape:connector-curvature="0"
   style="fill:#097c09"
   d="m 251.377,0.153 c -0.949,0.057 -1.894,0.125 -2.833,0.217 -0.288,0.028 -0.574,0.06 -0.86,0.091 -1.009,0.109 -2.013,0.235 -3.01,0.383 -0.187,0.027 -0.374,0.054 -0.56,0.083 -1.186,0.185 -2.366,0.391 -3.534,0.629 -0.002,0 -0.004,10e-4 -0.006,10e-4 20.23,4.114 39.171,18.204 51.171,35.964 8.498,12.577 23.017,19.827 38.161,18.797 0.101,-0.007 0.201,-0.014 0.302,-0.021 C 321.141,23.827 291.362,0 256,0 c -1.24,0 -2.471,0.036 -3.696,0.094 -0.31,0.015 -0.617,0.041 -0.927,0.059 z"
   id="path5632" />

	<path
   inkscape:connector-curvature="0"
   style="fill:#097c09"
   d="m 432.479,160.909 c 5.479,-10.59 8.592,-22.602 8.592,-35.348 0,-42.561 -34.502,-77.063 -77.063,-77.063 -5.282,0 -10.438,0.534 -15.42,1.548 35.166,7.147 61.633,38.239 61.633,75.515 0,12.746 -3.113,24.758 -8.592,35.348 31.022,13.113 52.792,43.825 52.792,79.623 0,46.393 -36.576,84.195 -82.458,86.264 -5.243,18.991 -22.787,34.012 -45.199,38.816 4.933,1.059 10.1,1.627 15.427,1.627 29.522,0 54.225,-17.273 60.622,-40.444 45.883,-2.069 82.458,-39.871 82.458,-86.264 0,-35.797 -21.768,-66.51 -52.792,-79.622 z"
   id="path5634" />

</g>
      <path
         inkscape:connector-curvature="0"
         style="fill:#009000"
         d="m 200.82,339.895 c -6.95,11.788 -35.752,24.969 -46.433,25.718 1.175,0.252 2.366,0.472 3.567,0.668 0.096,0.016 0.192,0.033 0.289,0.048 1.217,0.193 2.446,0.359 3.688,0.492 0.032,0.003 0.064,0.005 0.096,0.009 1.117,0.118 2.246,0.203 3.381,0.27 0.276,0.016 0.553,0.032 0.831,0.046 1.183,0.057 2.372,0.095 3.572,0.095 v 0 c 15.26,0 29.216,-4.633 40.042,-12.292 l 1.898,-1.38 -9.666,-15.859 z"
         id="path5638" />
      <path
         inkscape:connector-curvature="0"
         style="fill:#bf6101"
         d="m 294.533,359.573 33.016,-52.099 c 2.612,-4.121 1.821,-9.532 -1.86,-12.734 v 0 c -3.931,-3.419 -9.842,-3.196 -13.504,0.511 l -24.315,24.617 c -3.225,3.265 -8.75,0.55 -8.136,-3.997 l 7.15,-52.976 c 0.764,-5.66 -3.42,-10.786 -9.119,-11.171 l -6.699,-0.453 c -5.034,-0.34 -9.514,3.17 -10.389,8.139 l -12.763,72.513 c -0.71,4.033 -5.831,5.363 -8.414,2.187 l -39.972,-49.159 c -2.766,-3.402 -7.444,-4.572 -11.485,-2.873 l -6.999,2.941 c -5.541,2.329 -7.733,9.027 -4.641,14.181 l 41.076,68.467 c 5.948,9.915 8.401,21.547 6.914,33.014 -5.323,41.057 -11.936,79.778 -38.997,111.32 H 326.6 v 0 c -28.968,-33.766 -36.114,-75.757 -39.948,-120.035 -0.981,-11.371 1.772,-22.754 7.881,-32.393 z"
         id="path5640" />
      <path
         inkscape:connector-curvature="0"
         style="fill:#9a4d01"
         d="m 327.549,307.474 c 2.612,-4.121 1.822,-9.532 -1.86,-12.734 v 0 c -3.931,-3.419 -9.842,-3.196 -13.504,0.511 l -10.859,10.993 v 0 l -13.456,13.623 c -3.225,3.265 -8.75,0.55 -8.136,-3.997 l 7.15,-52.976 c 0.745,-5.517 -3.216,-10.514 -8.694,-11.12 l -20.105,124.965 c -0.338,1.614 -0.602,3.243 -0.786,4.884 v 0 0 c -0.383,3.415 -0.434,6.878 -0.135,10.341 3.836,44.279 10.982,86.27 39.95,120.036 v 0 h 29.488 v 0 c -28.968,-33.766 -36.114,-75.757 -39.948,-120.035 -0.984,-11.37 1.77,-22.752 7.878,-32.392 z"
         id="path5642" />
      <path
         inkscape:connector-curvature="0"
         style="fill:#28a528"
         d="m 241.333,60.5 c -21.621,0 -40.232,12.832 -48.669,31.29 C 183.948,85.631 173.318,82 161.833,82 c -29.547,0 -53.5,23.953 -53.5,53.5 0,9.749 2.621,18.881 7.177,26.752 -25.656,3.945 -45.304,26.115 -45.304,52.875 0,29.547 23.953,53.5 53.5,53.5 29.547,0 171.127,-125.08 171.127,-154.627 0,-29.547 -23.951,-53.5 -53.5,-53.5 z"
         id="path5644" />
      <g
         id="g5646">
</g>
      <g
         id="g5648">
</g>
      <g
         id="g5650">
</g>
      <g
         id="g5652">
</g>
      <g
         id="g5654">
</g>
      <g
         id="g5656">
</g>
      <g
         id="g5658">
</g>
      <g
         id="g5660">
</g>
      <g
         id="g5662">
</g>
      <g
         id="g5664">
</g>
      <g
         id="g5666">
</g>
      <g
         id="g5668">
</g>
      <g
         id="g5670">
</g>
      <g
         id="g5672">
</g>
      <g
         id="g5674">
</g>
    </g>
  </g>
</svg>
