<?xml version="1.0" encoding="UTF-8" standalone="no"?>
<svg
   xmlns:dc="http://purl.org/dc/elements/1.1/"
   xmlns:cc="http://creativecommons.org/ns#"
   xmlns:rdf="http://www.w3.org/1999/02/22-rdf-syntax-ns#"
   xmlns:svg="http://www.w3.org/2000/svg"
   xmlns="http://www.w3.org/2000/svg"
   xmlns:sodipodi="http://sodipodi.sourceforge.net/DTD/sodipodi-0.dtd"
   xmlns:inkscape="http://www.inkscape.org/namespaces/inkscape"
   inkscape:export-ydpi="358.39999"
   inkscape:export-xdpi="358.39999"
   inkscape:export-filename="/Users/mike.xiao/Documents/Projects/DBT_icons/dbt_icons/relationshipEffectiveness.png"
   width="30"
   height="30"
   viewBox="0 0 7.9374997 7.937501"
   version="1.1"
   id="svg870"
   inkscape:version="1.0beta2 (2b71d25, 2019-12-03)"
   sodipodi:docname="relationshipEffectiveness.svg">
  <defs
     id="defs864">
    <clipPath
       id="clipPath3356"
       clipPathUnits="userSpaceOnUse">
      <circle
         transform="rotate(-24.851457)"
         r="351.66946"
         cy="269.70401"
         cx="112.22215"
         id="circle3358"
         style="opacity:0.998058;fill:#aaffee;fill-opacity:1;stroke-width:5.55148;stroke-linecap:round;stroke-linejoin:round;stroke-dashoffset:7.40787;paint-order:stroke fill markers" />
    </clipPath>
  </defs>
  <sodipodi:namedview
     id="base"
     pagecolor="#ffffff"
     bordercolor="#666666"
     borderopacity="1.0"
     inkscape:pageopacity="0.0"
     inkscape:pageshadow="2"
     inkscape:zoom="10"
     inkscape:cx="15"
     inkscape:cy="15"
     inkscape:document-units="mm"
     inkscape:current-layer="layer1"
     inkscape:document-rotation="0"
     showgrid="false"
     units="px"
     inkscape:window-width="1137"
     inkscape:window-height="664"
     inkscape:window-x="264"
     inkscape:window-y="67"
     inkscape:window-maximized="0" />
  <metadata
     id="metadata867">
    <rdf:RDF>
      <cc:Work
         rdf:about="">
        <dc:format>image/svg+xml</dc:format>
        <dc:type
           rdf:resource="http://purl.org/dc/dcmitype/StillImage" />
        <dc:title></dc:title>
      </cc:Work>
    </rdf:RDF>
  </metadata>
  <g
     inkscape:label="Layer 1"
     inkscape:groupmode="layer"
     id="layer1">
    <circle
       style="opacity:0.998058;fill:#80e5ff;fill-opacity:1;stroke-width:0.0605625;stroke-linecap:round;stroke-linejoin:round;stroke-dashoffset:7.40787;paint-order:stroke fill markers"
       id="path838"
       cx="4.0098491"
       cy="3.9665015"
       r="3.8364584" />
    <path
       inkscape:connector-curvature="0"
       d="M 1.7364563,0.87283898 A 3.8364585,3.8364585 0 0 0 0.16962689,3.9656734 3.8364585,3.8364585 0 0 0 4.0060852,7.8021317 3.8364585,3.8364585 0 0 0 5.5801494,7.4641678 5.3918262,5.3918262 0 0 1 5.5594788,7.4590002 5.3918262,5.3918262 0 0 1 5.4628437,7.4321283 5.3918262,5.3918262 0 0 1 5.3662089,7.4037065 5.3918262,5.3918262 0 0 1 5.2706075,7.3732172 5.3918262,5.3918262 0 0 1 5.1755229,7.3411778 5.3918262,5.3918262 0 0 1 5.080955,7.3070714 5.3918262,5.3918262 0 0 1 4.9869038,7.2714148 5.3918262,5.3918262 0 0 1 4.8938863,7.2336908 5.3918262,5.3918262 0 0 1 4.8013854,7.1949336 5.3918262,5.3918262 0 0 1 4.7099181,7.1541092 5.3918262,5.3918262 0 0 1 4.6189676,7.1112178 5.3918262,5.3918262 0 0 1 4.5285338,7.0672928 5.3918262,5.3918262 0 0 1 4.4391337,7.0213008 5.3918262,5.3918262 0 0 1 4.3507669,6.9737586 5.3918262,5.3918262 0 0 1 4.2634337,6.9241492 5.3918262,5.3918262 0 0 1 4.1766173,6.8735061 5.3918262,5.3918262 0 0 1 4.0908347,6.8207964 5.3918262,5.3918262 0 0 1 4.0066019,6.7670529 5.3918262,5.3918262 0 0 1 3.9228862,6.7112422 5.3918262,5.3918262 0 0 1 3.8402039,6.6543981 5.3918262,5.3918262 0 0 1 3.758555,6.595487 5.3918262,5.3918262 0 0 1 3.6784567,6.5355425 5.3918262,5.3918262 0 0 1 3.5988748,6.4735307 5.3918262,5.3918262 0 0 1 3.5208436,6.4104853 5.3918262,5.3918262 0 0 1 3.4438456,6.3458899 5.3918262,5.3918262 0 0 1 3.3683981,6.2797441 5.3918262,5.3918262 0 0 1 3.293984,6.2125648 5.3918262,5.3918262 0 0 1 3.2206034,6.143835 5.3918262,5.3918262 0 0 1 3.1487732,6.0735551 5.3918262,5.3918262 0 0 1 3.0779765,6.0022417 5.3918262,5.3918262 0 0 1 3.0087301,5.9293778 5.3918262,5.3918262 0 0 1 2.9410339,5.8554805 5.3918262,5.3918262 0 0 1 2.8743713,5.780033 5.3918262,5.3918262 0 0 1 2.8097758,5.7035517 5.3918262,5.3918262 0 0 1 2.745697,5.6260373 5.3918262,5.3918262 0 0 1 2.6836853,5.5469721 5.3918262,5.3918262 0 0 1 2.6232239,5.4668737 5.3918262,5.3918262 0 0 1 2.563796,5.3857419 5.3918262,5.3918262 0 0 1 2.5064351,5.3035763 5.3918262,5.3918262 0 0 1 2.4501078,5.2203773 5.3918262,5.3918262 0 0 1 2.3953308,5.1356278 5.3918262,5.3918262 0 0 1 2.3426208,5.0503616 5.3918262,5.3918262 0 0 1 2.2914612,4.9640622 5.3918262,5.3918262 0 0 1 2.241335,4.8772455 5.3918262,5.3918262 0 0 1 2.193276,4.7888789 5.3918262,5.3918262 0 0 1 2.1467672,4.6999956 5.3918262,5.3918262 0 0 1 2.1018087,4.6100785 5.3918262,5.3918262 0 0 1 2.0589172,4.519128 5.3918262,5.3918262 0 0 1 2.0175761,4.4276608 5.3918262,5.3918262 0 0 1 1.9777852,4.3356768 5.3918262,5.3918262 0 0 1 1.9395447,4.2426591 5.3918262,5.3918262 0 0 1 1.9033712,4.1486079 5.3918262,5.3918262 0 0 1 1.8692647,4.054557 5.3918262,5.3918262 0 0 1 1.8361918,3.9594721 5.3918262,5.3918262 0 0 1 1.8051859,3.8638707 5.3918262,5.3918262 0 0 1 1.7762471,3.7677526 5.3918262,5.3918262 0 0 1 1.7488586,3.6711178 5.3918262,5.3918262 0 0 1 1.7230204,3.573966 5.3918262,5.3918262 0 0 1 1.6992493,3.4768144 5.3918262,5.3918262 0 0 1 1.6775452,3.3786291 5.3918262,5.3918262 0 0 1 1.6573914,3.2799272 5.3918262,5.3918262 0 0 1 1.6393046,3.1812252 5.3918262,5.3918262 0 0 1 1.6227681,3.0825232 5.3918262,5.3918262 0 0 1 1.607782,2.9827877 5.3918262,5.3918262 0 0 1 1.5953796,2.8835689 5.3918262,5.3918262 0 0 1 1.5845276,2.7833167 a 5.3918262,5.3918262 0 0 1 -0.0093,-0.099736 5.3918262,5.3918262 0 0 1 -0.00723,-0.1002522 5.3918262,5.3918262 0 0 1 -0.00517,-0.1002523 5.3918262,5.3918262 0 0 1 -0.0031,-0.1002523 5.3918262,5.3918262 0 0 1 -0.00155,-0.100769 5.3918262,5.3918262 0 0 1 -5.167e-4,-0.032556 5.3918262,5.3918262 0 0 1 0.00103,-0.100769 5.3918262,5.3918262 0 0 1 0.0031,-0.1002523 5.3918262,5.3918262 0 0 1 0.00465,-0.1002523 5.3918262,5.3918262 0 0 1 0.0062,-0.1002522 5.3918262,5.3918262 0 0 1 0.00878,-0.1002523 5.3918262,5.3918262 0 0 1 0.010335,-0.099735 5.3918262,5.3918262 0 0 1 0.011886,-0.099736 5.3918262,5.3918262 0 0 1 0.013953,-0.099219 5.3918262,5.3918262 0 0 1 0.01602,-0.099219 5.3918262,5.3918262 0 0 1 0.01757,-0.099219 5.3918262,5.3918262 0 0 1 0.019637,-0.098185 5.3918262,5.3918262 0 0 1 0.021187,-0.098185 5.3918262,5.3918262 0 0 1 0.023254,-0.0976685 5.3918262,5.3918262 0 0 1 0.021187,-0.0837158 z"
       style="opacity:0.998058;fill:#55ddff;fill-opacity:1;stroke-width:0.0605626;stroke-linecap:round;stroke-linejoin:round;stroke-dashoffset:7.40787;paint-order:stroke fill markers"
       id="path838-3" />
    <g
       clip-path="url(#clipPath3356)"
       transform="matrix(0.00989908,0.00458481,-0.00458481,0.00989908,2.7923041,1.0105364)"
       id="g3299">
      <g
         id="g3283">
        <g
           id="g3281">
          <path
             sodipodi:nodetypes="ccccccccccc"
             inkscape:connector-curvature="0"
             d="m 503.214,230.292 c -9.615,-10.594 -25.625,-12.347 -37.305,-4.084 L 310.64,336.476 88.484,390.893 -32.445823,591.43245 h 75.838 69.796003 L 187.637,447.525 356.52,414.94 503.215,272.711 c 11.713,-11.713 11.713,-30.705 -10e-4,-42.419 z"
             fill="#ffcebf"
             id="path3277" />
          <path
             inkscape:connector-curvature="0"
             d="m 88.484,390.893 211.435,-49.55 c 18.683,-5.006 29.771,-24.21 24.764,-42.893 -5.006,-18.683 -24.21,-29.771 -42.893,-24.764 l -96.494,25.856 c -21.089,5.651 -39.355,18.18 -52.176,35.194 z"
             fill="#ffdfcf"
             id="path3279" />
        </g>
      </g>
      <g
         id="g3297">
        <g
           id="g3289">
          <g
             id="g3287" />
        </g>
        <g
           id="g3295">
          <g
             id="g3293" />
        </g>
      </g>
    </g>
    <g
       transform="matrix(0.00225277,0.00945021,-0.01085164,0.00196184,6.1567782,0.42530661)"
       id="g4023">
      <g
         transform="matrix(0.92582581,0,0,0.92582581,14.664334,21.389657)"
         id="g4046">
        <polygon
           id="polygon3960"
           points="177.12,350.144 166.88,337.856 97.104,396 122.092,396 "
           style="fill:#b3b3b3"
           transform="rotate(-7.7193268,295.8022,134.59852)" />
        <path
           id="path3962"
           d="m 350.33058,237.60921 c 14.41859,-18.94035 35.19256,-32.95371 51.83436,-31.14465 26.97255,-50.41584 28.77453,-98.73576 -21.15082,-125.633508 -15.59327,-8.397603 -39.88754,0.163192 -66.47737,20.079228 -5.69227,17.38614 -11.88439,38.29131 -15.66389,54.86921 -1.14548,-8.45072 -2.84437,-20.98411 -5.07462,-37.43764 -30.48634,28.27517 -61.76912,68.9295 -85.01473,114.20212 -2.52094,18.56687 -1.78751,36.99132 2.07677,48.19782 -5.29456,-1.00191 -11.88426,-6.22814 -18.1472,-12.76615 -27.80705,31.09686 -15.04401,65.69606 -19.78345,118.87861 38.3958,-13.34225 95.50017,-8.97294 113.63069,-52.58344 -3.08028,-0.15163 -6.28617,-0.69393 -8.18561,-2.1399 7.3055,-4.97839 16.80355,-8.28413 25.38126,-11.4409 32.41641,-26.84142 63.09425,-59.18317 84.92225,-91.83501 -16.17697,-6.36074 -33.10794,10.54262 -38.34764,8.75421 z"
           style="fill:#e6e6e6"
           inkscape:connector-curvature="0" />
        <path
           id="path3964"
           d="m 172.92963,386.85425 c 4.73944,-53.18255 -8.0236,-87.78175 19.78183,-118.8905 6.26295,6.53801 12.85373,11.77217 18.14775,12.77011 -3.86321,-11.19857 -4.59771,-29.63095 -2.07678,-48.19781 23.24562,-45.27263 54.52947,-85.91903 85.01473,-114.20213 2.2308,16.4575 3.92968,28.99088 5.07517,37.4416 3.78003,-16.57393 9.97162,-37.48306 15.65703,-54.8602 26.58983,-19.916038 50.88806,-28.47737 66.47737,-20.079229 -3.9334,56.270259 -137.02844,235.774319 -208.0771,306.018159 z"
           style="fill:#f5f5f5"
           inkscape:connector-curvature="0" />
      </g>
      <g
         id="g3966">
</g>
      <g
         id="g3968">
</g>
      <g
         id="g3970">
</g>
      <g
         id="g3972">
</g>
      <g
         id="g3974">
</g>
      <g
         id="g3976">
</g>
      <g
         id="g3978">
</g>
      <g
         id="g3980">
</g>
      <g
         id="g3982">
</g>
      <g
         id="g3984">
</g>
      <g
         id="g3986">
</g>
      <g
         id="g3988">
</g>
      <g
         id="g3990">
</g>
      <g
         id="g3992">
</g>
      <g
         id="g3994">
</g>
    </g>
  </g>
</svg>
