<?xml version="1.0" encoding="UTF-8" standalone="no"?>
<svg
   xmlns:dc="http://purl.org/dc/elements/1.1/"
   xmlns:cc="http://creativecommons.org/ns#"
   xmlns:rdf="http://www.w3.org/1999/02/22-rdf-syntax-ns#"
   xmlns:svg="http://www.w3.org/2000/svg"
   xmlns="http://www.w3.org/2000/svg"
   xmlns:sodipodi="http://sodipodi.sourceforge.net/DTD/sodipodi-0.dtd"
   xmlns:inkscape="http://www.inkscape.org/namespaces/inkscape"
   inkscape:export-ydpi="197.75999"
   inkscape:export-xdpi="197.75999"
   inkscape:export-filename="/Users/mike.xiao/Documents/Projects/DBT_icons/dbt_icons/goalFinish.png"
   inkscape:version="1.0beta2 (2b71d25, 2019-12-03)"
   sodipodi:docname="goalFinish.svg"
   version="1.1"
   width="300"
   viewBox="0 0 300 300"
   height="300"
   enable-background="new 0 0 512 512"
   id="Layer_1">
  <metadata
     id="metadata1039">
    <rdf:RDF>
      <cc:Work
         rdf:about="">
        <dc:format>image/svg+xml</dc:format>
        <dc:type
           rdf:resource="http://purl.org/dc/dcmitype/StillImage" />
        <dc:title></dc:title>
      </cc:Work>
    </rdf:RDF>
  </metadata>
  <defs
     id="defs1037">
    <inkscape:path-effect
       lpeversion="1"
       is_visible="true"
       id="path-effect956"
       effect="spiro" />
    <inkscape:path-effect
       lpeversion="1"
       is_visible="true"
       id="path-effect2890"
       effect="spiro" />
    <inkscape:path-effect
       lpeversion="1"
       is_visible="true"
       id="path-effect2882"
       effect="spiro" />
    <inkscape:path-effect
       lpeversion="1"
       is_visible="true"
       id="path-effect2878"
       effect="spiro" />
    <inkscape:path-effect
       lpeversion="1"
       is_visible="true"
       id="path-effect2105"
       effect="spiro" />
    <inkscape:path-effect
       effect="spiro"
       id="path-effect2105-3"
       is_visible="true"
       lpeversion="1" />
  </defs>
  <sodipodi:namedview
     inkscape:current-layer="Layer_1"
     inkscape:window-maximized="0"
     inkscape:window-y="23"
     inkscape:window-x="0"
     inkscape:cy="104.87671"
     inkscape:cx="202.51456"
     inkscape:zoom="0.85839035"
     showguides="false"
     showgrid="false"
     id="namedview1035"
     inkscape:window-height="755"
     inkscape:window-width="1318"
     inkscape:pageshadow="2"
     inkscape:pageopacity="0"
     guidetolerance="10"
     gridtolerance="10"
     objecttolerance="10"
     borderopacity="1"
     inkscape:document-rotation="0"
     bordercolor="#666666"
     pagecolor="#ffffff" />
  <g
     transform="matrix(0.38808222,0,0,0.38808222,27.764457,274.49966)"
     id="g1615" />
  <path
     d="M 288.82617 194.37891 L 13.851562 194.37891 A 145 145 0 0 0 151.33789 293.3125 A 145 145 0 0 0 288.82617 194.37891 z "
     style="fill:#8dd35f;fill-opacity:1;stroke:none;stroke-width:6.72787;stroke-linecap:round;stroke-linejoin:round;stroke-miterlimit:4;stroke-dasharray:none;stroke-opacity:1;paint-order:stroke fill markers"
     id="path1192" />
  <path
     d="M 151.33789 3.3125 A 145 145 0 0 0 6.3378906 148.3125 A 145 145 0 0 0 13.851562 194.37891 L 288.82617 194.37891 A 145 145 0 0 0 296.33789 148.3125 A 145 145 0 0 0 151.33789 3.3125 z "
     style="fill:#fcde76;fill-opacity:1;stroke:none;stroke-width:6.72787;stroke-linecap:round;stroke-linejoin:round;stroke-miterlimit:4;stroke-dasharray:none;stroke-opacity:1;paint-order:stroke fill markers"
     id="path959" />
  <g
     id="g2939" />
  <path
     sodipodi:type="star"
     style="opacity:1;fill:#ffcc00;fill-opacity:1;stroke-width:1.68015;stroke-linecap:round;stroke-linejoin:round;paint-order:stroke fill markers"
     id="path3548"
     sodipodi:sides="5"
     sodipodi:cx="148.1418"
     sodipodi:cy="56.640743"
     sodipodi:r1="47.102608"
     sodipodi:r2="25.465511"
     sodipodi:arg1="0.92357302"
     sodipodi:arg2="1.5518916"
     inkscape:flatsided="false"
     inkscape:rounded="0.24279713"
     inkscape:randomized="0"
     d="m 176.54343,94.217374 c -5.89521,4.455787 -20.53187,-12.255362 -27.92024,-12.11567 -7.38837,0.139692 -21.38288,17.392172 -27.4423,13.162411 -6.05943,-4.229762 5.31084,-23.314083 2.89485,-30.297673 -2.41598,-6.983589 -23.14861,-14.961849 -20.99833,-22.031773 2.15028,-7.069924 23.81415,-2.153534 29.70936,-6.609322 5.89521,-4.455788 7.07625,-26.639103 14.46462,-26.7787947 7.38837,-0.1396918 9.40711,21.9831257 15.46653,26.2128867 6.05943,4.229761 27.52198,-1.502022 29.93796,5.481568 2.41599,6.983589 -18.00023,15.739853 -20.15051,22.809777 -2.15028,7.069924 9.93327,25.710802 4.03806,30.16659 z"
     inkscape:transform-center-x="0.14526253"
     inkscape:transform-center-y="-4.7251098" />
  <path
     inkscape:transform-center-y="-3.5050394"
     inkscape:transform-center-x="0.10776005"
     d="m 252.13735,115.50158 c -4.37301,3.30527 -15.23035,-9.0909 -20.71097,-8.98728 -5.48062,0.10362 -15.86161,12.90134 -20.35644,9.76375 -4.49482,-3.1376 3.93954,-17.294165 2.14738,-22.474525 -1.79215,-5.180359 -17.17142,-11.098556 -15.57636,-16.342957 1.59505,-5.244402 17.66511,-1.597472 22.03812,-4.902732 4.373,-3.305261 5.24909,-19.760631 10.72971,-19.864253 5.48062,-0.103622 6.97811,16.306871 11.47293,19.444468 4.49482,3.137596 20.41554,-1.114186 22.20769,4.066174 1.79216,5.18036 -13.3524,11.675672 -14.94746,16.920074 -1.59505,5.244401 7.3684,19.072021 2.9954,22.377281 z"
     inkscape:randomized="0"
     inkscape:rounded="0.24279713"
     inkscape:flatsided="false"
     sodipodi:arg2="1.5518916"
     sodipodi:arg1="0.92357302"
     sodipodi:r2="18.890072"
     sodipodi:r1="34.940262"
     sodipodi:cy="87.627602"
     sodipodi:cx="231.06929"
     sodipodi:sides="5"
     id="path3548-2"
     style="opacity:1;fill:#ffcc00;fill-opacity:1;stroke-width:1.24632;stroke-linecap:round;stroke-linejoin:round;paint-order:stroke fill markers"
     sodipodi:type="star" />
  <path
     sodipodi:type="star"
     style="opacity:1;fill:#ffcc00;fill-opacity:1;stroke-width:1.24632;stroke-linecap:round;stroke-linejoin:round;paint-order:stroke fill markers"
     id="path3548-2-5"
     sodipodi:sides="5"
     sodipodi:cx="67.521149"
     sodipodi:cy="89.627602"
     sodipodi:r1="34.940262"
     sodipodi:r2="18.890072"
     sodipodi:arg1="0.92357302"
     sodipodi:arg2="1.5518916"
     inkscape:flatsided="false"
     inkscape:rounded="0.24279713"
     inkscape:randomized="0"
     d="m 88.589204,117.50158 c -4.373009,3.30527 -15.230343,-9.0909 -20.710965,-8.98728 -5.480621,0.10362 -15.861614,12.90134 -20.356437,9.76375 -4.494823,-3.1376 3.939534,-17.29417 2.147378,-22.474525 -1.792156,-5.180359 -17.171417,-11.098556 -15.576362,-16.342957 1.595054,-5.244402 17.665109,-1.597472 22.038117,-4.902732 4.373008,-3.305261 5.249094,-19.760631 10.729715,-19.864253 5.480622,-0.103622 6.978105,16.306871 11.472928,19.444468 4.494823,3.137596 20.415536,-1.114186 22.207692,4.066174 1.79215,5.18036 -13.352404,11.675672 -14.947459,16.920074 -1.595054,5.244401 7.368401,19.072021 2.995393,22.377281 z"
     inkscape:transform-center-x="-170.26085"
     inkscape:transform-center-y="0.212094" />
  <g
     transform="translate(-259.60485,0.48687877)"
     id="g2974">
    <path
       inkscape:connector-curvature="0"
       transform="translate(259.59009,-0.87993605)"
       d="m 147.05859,182.38086 h -2.14648 l -80.160157,82.45117 a 145,145 0 0 0 0.658203,0.48633 145,145 0 0 0 0.816406,0.59961 145,145 0 0 0 0.820313,0.5918 145,145 0 0 0 0.826172,0.58593 145,145 0 0 0 0.828125,0.58203 145,145 0 0 0 0.833984,0.57422 145,145 0 0 0 0.837891,0.57032 145,145 0 0 0 0.841797,0.5625 145,145 0 0 0 0.84375,0.55859 145,145 0 0 0 0.849609,0.55078 145,145 0 0 0 0.853516,0.54688 145,145 0 0 0 0.455078,0.28515 z"
       style="fill:#cac0bb;fill-opacity:1;stroke:none;stroke-width:1px;stroke-linecap:butt;stroke-linejoin:miter;stroke-opacity:1"
       id="path2145" />
    <path
       inkscape:connector-curvature="0"
       transform="translate(259.59009,-0.87993605)"
       d="m 153.75781,182.38086 h -6.69922 l -72.841793,88.94531 a 145,145 0 0 0 0.402344,0.25391 145,145 0 0 0 0.859375,0.5332 145,145 0 0 0 0.865234,0.52734 145,145 0 0 0 0.867188,0.52149 145,145 0 0 0 0.871093,0.51562 145,145 0 0 0 0.875,0.50977 145,145 0 0 0 0.878907,0.50391 145,145 0 0 0 0.882812,0.49804 145,145 0 0 0 0.884766,0.49024 145,145 0 0 0 0.888672,0.48437 145,145 0 0 0 0.892578,0.47852 145,145 0 0 0 0.896484,0.47265 145,145 0 0 0 0.898438,0.4668 145,145 0 0 0 0.902343,0.45899 145,145 0 0 0 0.904297,0.45312 145,145 0 0 0 0.908203,0.44727 145,145 0 0 0 0.91211,0.4414 145,145 0 0 0 0.914062,0.4336 145,145 0 0 0 0.917969,0.42968 145,145 0 0 0 0.921875,0.41993 145,145 0 0 0 0.921875,0.41601 145,145 0 0 0 0.927734,0.4082 145,145 0 0 0 0.929688,0.40235 145,145 0 0 0 0.93164,0.39648 145,145 0 0 0 0.933594,0.38867 145,145 0 0 0 0.9375,0.38282 145,145 0 0 0 0.941406,0.37695 145,145 0 0 0 0.941407,0.36914 145,145 0 0 0 0.945312,0.36328 145,145 0 0 0 0.949217,0.35547 145,145 0 0 0 0.94922,0.34961 145,145 0 0 0 0.95313,0.34375 145,145 0 0 0 0.95507,0.33594 145,145 0 0 0 0.95704,0.33008 145,145 0 0 0 0.95898,0.32226 145,145 0 0 0 0.96289,0.31641 145,145 0 0 0 0.96484,0.31054 145,145 0 0 0 0.96485,0.30274 145,145 0 0 0 0.96875,0.29687 145,145 0 0 0 0.9707,0.28907 145,145 0 0 0 0.97266,0.28125 145,145 0 0 0 0.97265,0.27734 145,145 0 0 0 0.97657,0.26758 145,145 0 0 0 0.97851,0.26367 145,145 0 0 0 0.98047,0.25391 145,145 0 0 0 0.98047,0.24804 145,145 0 0 0 0.98437,0.24219 145,145 0 0 0 0.98438,0.23438 145,145 0 0 0 0.98633,0.22851 145,145 0 0 0 0.98828,0.2207 145,145 0 0 0 0.99023,0.21485 145,145 0 0 0 0.99024,0.20703 145,145 0 0 0 0.99414,0.19922 145,145 0 0 0 0.99414,0.19336 145,145 0 0 0 0.99414,0.1875 145,145 0 0 0 0.99609,0.17773 145,145 0 0 0 0.99805,0.17383 145,145 0 0 0 1,0.16406 145,145 0 0 0 1,0.16016 145,145 0 0 0 1,0.15039 145,145 0 0 0 1.00195,0.14453 145,145 0 0 0 1.00391,0.13672 145,145 0 0 0 1.00391,0.13086 145,145 0 0 0 1.00585,0.12305 145,145 0 0 0 1.00586,0.11718 145,145 0 0 0 1.00586,0.10938 145,145 0 0 0 1.00782,0.10156 145,145 0 0 0 1.00781,0.0957 145,145 0 0 0 1.00976,0.0879 145,145 0 0 0 1.00782,0.082 145,145 0 0 0 1.00976,0.0742 145,145 0 0 0 1.01172,0.0664 145,145 0 0 0 1.00977,0.0605 145,145 0 0 0 1.01171,0.0527 145,145 0 0 0 1.01172,0.0469 145,145 0 0 0 1.01172,0.0391 145,145 0 0 0 1.01172,0.0312 145,145 0 0 0 1.01172,0.0254 145,145 0 0 0 1.01367,0.0176 145,145 0 0 0 1.01172,0.0117 145,145 0 0 0 1.01367,0.004 145,145 0 0 0 0.94727,-0.004 145,145 0 0 0 1.01367,-0.0117 145,145 0 0 0 1.01172,-0.0176 145,145 0 0 0 1.01172,-0.0234 145,145 0 0 0 1.01367,-0.0312 145,145 0 0 0 1.01172,-0.0391 145,145 0 0 0 1.01172,-0.0449 145,145 0 0 0 1.00976,-0.0527 145,145 0 0 0 1.01172,-0.0605 145,145 0 0 0 1.00977,-0.0664 145,145 0 0 0 1.00976,-0.0723 145,145 0 0 0 1.00977,-0.082 145,145 0 0 0 1.00976,-0.0879 145,145 0 0 0 1.00782,-0.0937 145,145 0 0 0 1.00781,-0.10351 145,145 0 0 0 1.00586,-0.10742 145,145 0 0 0 1.00586,-0.11719 145,145 0 0 0 1.00586,-0.12305 145,145 0 0 0 1.0039,-0.1289 145,145 0 0 0 1.00196,-0.13672 145,145 0 0 0 1.0039,-0.14454 145,145 0 0 0 1,-0.15039 145,145 0 0 0 1,-0.1582 145,145 0 0 0 1,-0.16601 145,145 0 0 0 0.99805,-0.17188 145,145 0 0 0 0.99609,-0.17969 145,145 0 0 0 0.9961,-0.18554 145,145 0 0 0 0.99414,-0.19141 145,145 0 0 0 0.99218,-0.20117 145,145 0 0 0 0.99024,-0.20703 145,145 0 0 0 0.99023,-0.21289 145,145 0 0 0 0.98829,-0.22071 145,145 0 0 0 0.98632,-0.22656 145,145 0 0 0 0.98633,-0.23437 145,145 0 0 0 0.98242,-0.24219 145,145 0 0 0 0.98243,-0.24805 145,145 0 0 0 0.98046,-0.25391 145,145 0 0 0 0.97657,-0.26171 145,145 0 0 0 0.97656,-0.26953 145,145 0 0 0 0.97461,-0.2754 145,145 0 0 0 0.97265,-0.28125 145,145 0 0 0 0.97071,-0.28906 145,145 0 0 0 0.96875,-0.29492 145,145 0 0 0 0.96679,-0.30273 145,145 0 0 0 0.9629,-0.31055 145,145 0 0 0 0.96289,-0.31445 145,145 0 0 0 0.95898,-0.32422 145,145 0 0 0 0.95703,-0.32813 145,145 0 0 0 0.95508,-0.33594 145,145 0 0 0 0.95312,-0.34375 145,145 0 0 0 0.95118,-0.34765 145,145 0 0 0 0.94726,-0.35742 145,145 0 0 0 0.94531,-0.36133 145,145 0 0 0 0.94336,-0.36914 145,145 0 0 0 0.94141,-0.37696 145,145 0 0 0 0.9375,-0.38086 145,145 0 0 0 0.93359,-0.39062 145,145 0 0 0 0.9336,-0.39453 145,145 0 0 0 0.92773,-0.40235 145,145 0 0 0 0.92774,-0.4082 145,145 0 0 0 0.92382,-0.41406 145,145 0 0 0 0.91993,-0.42188 145,145 0 0 0 0.91797,-0.42773 145,145 0 0 0 0.91601,-0.43359 145,145 0 0 0 0.91016,-0.43946 145,145 0 0 0 0.91015,-0.44726 145,145 0 0 0 0.9043,-0.45313 145,145 0 0 0 0.90234,-0.45898 145,145 0 0 0 0.90039,-0.4668 145,145 0 0 0 0.89454,-0.4707 145,145 0 0 0 0.89257,-0.47852 145,145 0 0 0 0.89063,-0.48437 145,145 0 0 0 0.88476,-0.49219 145,145 0 0 0 0.88282,-0.49609 145,145 0 0 0 0.8789,-0.50196 145,145 0 0 0 0.875,-0.50976 145,145 0 0 0 0.8711,-0.51563 145,145 0 0 0 0.86914,-0.52148 145,145 0 0 0 0.16015,-0.0977 z"
       style="fill:#e3dedb;fill-opacity:1;stroke:none;stroke-width:1px;stroke-linecap:butt;stroke-linejoin:miter;stroke-opacity:1"
       id="path2981" />
    <path
       inkscape:connector-curvature="0"
       transform="translate(259.59009,-0.87993605)"
       d="m 153.75781,182.38086 72.95703,90.19531 a 145,145 0 0 0 0.70313,-0.42969 145,145 0 0 0 0.86133,-0.5332 145,145 0 0 0 0.85742,-0.53906 145,145 0 0 0 0.85351,-0.54492 145,145 0 0 0 0.84766,-0.55078 145,145 0 0 0 0.8457,-0.5586 145,145 0 0 0 0.8418,-0.5625 145,145 0 0 0 0.83789,-0.56836 145,145 0 0 0 0.83399,-0.57617 145,145 0 0 0 0.83007,-0.58008 145,145 0 0 0 0.82422,-0.58593 145,145 0 0 0 0.15625,-0.11133 l -81.71875,-84.05469 z"
       style="fill:#cac0bb;fill-opacity:1;stroke:none;stroke-width:1px;stroke-linecap:butt;stroke-linejoin:miter;stroke-opacity:1"
       id="path2986" />
    <path
       id="path2840"
       style="fill:#694641;stroke-width:0.691274"
       d="m 333.82632,271.36337 a 145,145 0 0 0 0.55274,0.33789 145,145 0 0 0 0.86719,0.52344 145,145 0 0 0 0.87304,0.51562 145,145 0 0 0 0.875,0.50781 145,145 0 0 0 0.87696,0.50391 145,145 0 0 0 0.88281,0.49805 145,145 0 0 0 0.88672,0.49023 145,145 0 0 0 0.88867,0.48438 145,145 0 0 0 0.89258,0.47851 145,145 0 0 0 0.89453,0.47266 145,145 0 0 0 0.89844,0.46679 145,145 0 0 0 0.90234,0.45899 145,145 0 0 0 0.72656,0.36328 l 0.79297,-116.68359 c 0.0207,-3.05496 -2.43724,-5.54571 -5.49219,-5.56641 -3.05497,-0.0207 -5.5457,2.43723 -5.5664,5.49219 z"
       inkscape:connector-curvature="0" />
    <path
       inkscape:connector-curvature="0"
       d="m 486.86096,270.954 a 145,145 0 0 1 -0.55273,0.33789 145,145 0 0 1 -0.86719,0.52344 145,145 0 0 1 -0.87304,0.51562 145,145 0 0 1 -0.875,0.50781 145,145 0 0 1 -0.87696,0.50391 145,145 0 0 1 -0.88281,0.49805 145,145 0 0 1 -0.88672,0.49023 145,145 0 0 1 -0.88867,0.48438 145,145 0 0 1 -0.89258,0.47851 145,145 0 0 1 -0.89453,0.47266 145,145 0 0 1 -0.89844,0.46679 145,145 0 0 1 -0.90234,0.45899 145,145 0 0 1 -0.72656,0.36328 l -0.79297,-116.68359 c -0.0207,-3.05496 2.43723,-5.54571 5.49218,-5.56641 3.05497,-0.0207 5.54571,2.43723 5.56641,5.49219 z"
       style="fill:#694641;stroke-width:0.691274"
       id="path2840-9" />
    <g
       id="g1459"
       transform="matrix(0.35007989,0,0,0.35717481,321.44506,90.409649)">
      <path
         id="path1439"
         fill="#60b7ff"
         d="m 425.89002,97.844 c -7.633,-8.296 -20.063,-10.044 -29.688,-4.175 l -58.638,41.805 -25.722,15.31 c -6.136,3.652 -13.666,4.087 -20.181,1.167 -10.717,-4.804 -17.614,-15.454 -17.614,-27.199 v -1.156 h -45.453 v 0.229 c 0,11.745 -6.897,22.394 -17.614,27.199 l -2.069,0.928 c -6.515,2.921 -14.045,2.486 -20.181,-1.166 l -25.722,-15.31 -58.638,-41.805 c -9.625002,-5.868 -22.055002,-4.12 -29.688002,4.175 -9.926,10.787 -7.736,27.916 4.585,35.859 l 101.922002,72.116 c 4.989,3.406 7.973,9.057 7.973,15.098 v 259.972 c 0,17.182 13.929,31.111 31.111,31.111 0.512,0 1.022,-0.012 1.528,-0.037 16.078,-0.778 28.484,-14.53 28.484,-30.626 V 390.51 c 3.688,13.539 16.282,23.405 31.103,22.898 16.863,-0.577 30.02,-14.887 30.02,-31.76 v -160.73 c 0,-6.041 2.984,-11.692 7.973,-15.098 l 101.922,-72.116 c 12.323,-7.944 14.514,-25.073 4.587,-35.86 z"
         inkscape:connector-curvature="0" />
      <path
         id="path1441"
         fill="#26a6fe"
         d="m 421.30802,133.698 -101.924,72.122 c -4.994,3.401 -7.975,9.052 -7.975,15.1 v 160.722 c 0,16.876 -13.152,31.191 -30.018,31.761 -4.273,0.151 -8.363,-0.57 -12.098,-1.98 11.904,-4.542 20.234,-16.349 20.234,-29.781 v -173.96 c 0,-6.038 2.981,-11.688 7.975,-15.1 l 101.915,-72.112 c 10.343,-6.673 13.55,-19.815 8.438,-30.244 6.651,-0.183 13.281,2.443 18.038,7.62 9.924,10.785 7.728,27.909 -4.585,35.852 z"
         inkscape:connector-curvature="0" />
      <circle
         id="circle1443"
         r="68.818001"
         fill="#fed2a4"
         cy="68.818001"
         cx="251.27802"
         style="fill:#60b7ff;fill-opacity:1" />
      <path
         id="path1449"
         fill="#ffbd86"
         d="m 320.09302,68.815 c 0,38.015 -30.81,68.825 -68.816,68.825 -20.292,0 -38.536,-8.785 -51.129,-22.762 10.626,6.737 23.238,10.635 36.757,10.635 38.006,0 68.816,-30.81 68.816,-68.825 0,-17.705 -6.692,-33.865 -17.687,-46.054 19.267,12.19 32.059,33.695 32.059,58.181 z"
         inkscape:connector-curvature="0"
         style="fill:#0e92ff;fill-opacity:1" />
      <g
         id="g1453">
        <path
           id="path1451"
           fill="#26a6fe"
           d="m 250.28602,394.116 c -4.271,0 -7.733,-3.462 -7.733,-7.733 v -42.33 c 0,-4.271 3.462,-7.733 7.733,-7.733 4.271,0 7.733,3.462 7.733,7.733 v 42.33 c 10e-4,4.271 -3.462,7.733 -7.733,7.733 z"
           inkscape:connector-curvature="0" />
      </g>
      <path
         id="path1455"
         fill="#ee6161"
         d="m 484.705,238.021 14.521,-34.574 c 2.017,-4.803 -3.214,-9.428 -7.724,-6.82 -17.608,10.182 -51.785,26.623 -105.786,39.395 -85.269,20.168 -174.169,20.168 -259.439,0 C 72.276,223.25 38.1,206.809 20.492,196.627 c -4.51,-2.608 -9.741,2.017 -7.724,6.82 l 14.521,34.574 c 0.882,2.1 0.362,4.528 -1.303,6.082 L 2.362,266.151 c -2.918,2.723 -2.016,7.575 1.699,9.036 107.267,42.172 257.161,41.351 257.161,41.351 0,0 139.939,0.821 246.723,-41.348 3.709,-1.465 4.609,-6.312 1.693,-9.033 l -23.629,-22.054 c -1.666,-1.554 -2.186,-3.982 -1.304,-6.082 z"
         inkscape:connector-curvature="0"
         style="fill:#f6a7c5;fill-opacity:1" />
      <path
         id="path1457"
         fill="#e94444"
         d="m 507.948,275.188 c -8.382,3.31 -16.96,6.351 -25.662,9.145 1.722,-2.124 1.691,-5.402 -0.516,-7.465 l -23.775,-22.187 c -1.67,-1.557 -2.196,-4 -1.309,-6.114 l 14.609,-34.786 c 0.979,-2.33 0.258,-4.629 -1.268,-6.083 8.846,-4.093 15.97,-7.887 21.476,-11.073 4.505,-2.608 9.743,2.021 7.722,6.825 l -14.517,34.57 c -0.887,2.103 -0.361,4.526 1.299,6.083 l 23.631,22.053 c 2.919,2.722 2.012,7.568 -1.69,9.032 z"
         inkscape:connector-curvature="0"
         style="fill:#f082a6;fill-opacity:1" />
    </g>
  </g>
</svg>
