<?xml version="1.0" encoding="UTF-8" standalone="no"?>
<svg
   xmlns:dc="http://purl.org/dc/elements/1.1/"
   xmlns:cc="http://creativecommons.org/ns#"
   xmlns:rdf="http://www.w3.org/1999/02/22-rdf-syntax-ns#"
   xmlns:svg="http://www.w3.org/2000/svg"
   xmlns="http://www.w3.org/2000/svg"
   xmlns:sodipodi="http://sodipodi.sourceforge.net/DTD/sodipodi-0.dtd"
   xmlns:inkscape="http://www.inkscape.org/namespaces/inkscape"
   id="Layer_1"
   enable-background="new 0 0 512 512"
   height="300"
   viewBox="0 0 300 300"
   width="300"
   version="1.1"
   sodipodi:docname="goal.svg"
   inkscape:version="1.0beta2 (2b71d25, 2019-12-03)"
   inkscape:export-filename="/Users/mike.xiao/Documents/Projects/DBT_icons/dbt_icons/goal.png"
   inkscape:export-xdpi="197.75999"
   inkscape:export-ydpi="197.75999">
  <metadata
     id="metadata1039">
    <rdf:RDF>
      <cc:Work
         rdf:about="">
        <dc:format>image/svg+xml</dc:format>
        <dc:type
           rdf:resource="http://purl.org/dc/dcmitype/StillImage" />
        <dc:title />
      </cc:Work>
    </rdf:RDF>
  </metadata>
  <defs
     id="defs1037">
    <marker
       inkscape:stockid="Arrow1Lend"
       orient="auto"
       refY="0.0"
       refX="0.0"
       id="Arrow1Lend"
       style="overflow:visible;"
       inkscape:isstock="true">
      <path
         id="path3589"
         d="M 0.0,0.0 L 5.0,-5.0 L -12.5,0.0 L 5.0,5.0 L 0.0,0.0 z "
         style="fill-rule:evenodd;stroke:#000000;stroke-width:1.0pt;"
         transform="scale(0.8) rotate(180) translate(12.5,0)" />
    </marker>
    <marker
       inkscape:stockid="Arrow1Lstart"
       orient="auto"
       refY="0.0"
       refX="0.0"
       id="Arrow1Lstart"
       style="overflow:visible"
       inkscape:isstock="true">
      <path
         id="path3586"
         d="M 0.0,0.0 L 5.0,-5.0 L -12.5,0.0 L 5.0,5.0 L 0.0,0.0 z "
         style="fill-rule:evenodd;stroke:#000000;stroke-width:1.0pt"
         transform="scale(0.8) translate(12.5,0)" />
    </marker>
  </defs>
  <sodipodi:namedview
     pagecolor="#ffffff"
     bordercolor="#666666"
     inkscape:document-rotation="0"
     borderopacity="1"
     objecttolerance="10"
     gridtolerance="10"
     guidetolerance="10"
     inkscape:pageopacity="0"
     inkscape:pageshadow="2"
     inkscape:window-width="1318"
     inkscape:window-height="755"
     id="namedview1035"
     showgrid="false"
     showguides="false"
     inkscape:zoom="1.6290957"
     inkscape:cx="81.755755"
     inkscape:cy="126.42179"
     inkscape:window-x="58"
     inkscape:window-y="23"
     inkscape:window-maximized="0"
     inkscape:current-layer="Layer_1" />
  <g
     id="g1615"
     transform="matrix(0.38808222,0,0,0.38808222,27.764457,274.49966)" />
  <circle
     r="145"
     cy="148.31177"
     cx="151.33855"
     id="path1192"
     style="fill:#e3dedb;fill-opacity:1;stroke:none;stroke-width:6.72787;stroke-linecap:round;stroke-linejoin:round;stroke-miterlimit:4;stroke-dasharray:none;stroke-opacity:1;paint-order:stroke fill markers" />
  <g
     id="g3523"
     transform="matrix(0.44814152,0,0,0.44814152,39.300895,32.807212)">
    <path
       id="path3456"
       d="m 408.418,39.065 -362.955,70.38 c -4.357,0.845 -7.205,5.062 -6.361,9.421 l 74.971,386.625 c 0.845,4.357 5.062,7.205 9.421,6.361 L 384.532,461.234 473.047,330.135 417.839,45.425 c -0.846,-4.356 -5.063,-7.205 -9.421,-6.36 z"
       style="fill:#f6a7c5"
       inkscape:connector-curvature="0" />
    <g
       id="g3462">
      <path
         id="path3458"
         d="M 384.532,461.233 473.047,330.134 371.13,349.897 c -4.357,0.845 -7.205,5.062 -6.361,9.421 z"
         style="fill:#f082a6"
         inkscape:connector-curvature="0" />
      <polygon
         id="polygon3460"
         points="104.515,97.996 145.397,176.82 233.807,160.746 240.167,71.691 "
         style="fill:#f082a6" />
    </g>
    <path
       id="path3464"
       d="m 245.637,0.951 c -2.613,-1.398 -5.784,-1.246 -8.25,0.399 L 217.733,14.453 198.078,1.35 c -2.7,-1.8 -6.217,-1.8 -8.916,0 L 169.508,14.453 149.854,1.35 c -5.246,-3.497 -12.495,0.4 -12.495,6.687 v 160.746 c 0,4.439 3.599,8.037 8.037,8.037 h 96.447 c 4.439,0 8.037,-3.599 8.037,-8.037 V 8.037 c 0.001,-2.963 -1.63,-5.687 -4.243,-7.086 z"
       style="fill:#fcde76"
       inkscape:connector-curvature="0" />
    <g
       id="g3466" />
    <g
       id="g3468" />
    <g
       id="g3470" />
    <g
       id="g3472" />
    <g
       id="g3474" />
    <g
       id="g3476" />
    <g
       id="g3478" />
    <g
       id="g3480" />
    <g
       id="g3482" />
    <g
       id="g3484" />
    <g
       id="g3486" />
    <g
       id="g3488" />
    <g
       id="g3490" />
    <g
       id="g3492" />
    <g
       id="g3494" />
  </g>
  <g
     id="g3546"
     transform="rotate(-4.5430606,62.473672,206.82688)"
     style="fill:#4d4d4d">
    <path
       inkscape:connector-curvature="0"
       d="m 97.38347,149.9824 c 2.2339,-1.6266 4.50699,-3.24253 6.82951,-4.74579 0.87638,-0.56723 3.50609,-2.26097 2.67309,-1.63178 -0.9885,0.74665 -2.09433,1.32373 -3.14149,1.98559 3.38899,-1.76029 7.4388,-2.78603 10.68824,-0.13538 0.48347,0.39439 0.85923,0.90493 1.28884,1.35739 1.57479,2.10905 2.37986,4.58436 2.67544,7.17136 -0.57159,2.3912 -8.41329,6.32262 6.37047,-2.95573 0.21267,-0.13348 0.16533,-0.4758 0.27904,-0.69966 0.13932,-0.27427 0.31834,-0.52649 0.47751,-0.78974 0.77694,-0.44532 1.59114,-1.84075 2.33083,-1.33596 0.70212,0.47914 -2.87416,1.66419 -2.0334,1.53894 1.655,-0.24656 3.08047,-1.30844 4.63538,-1.92658 3.74059,-1.48702 7.54259,-2.77308 11.36941,-4.0143 3.56936,-0.82566 5.93135,-0.57113 6.20946,3.40506 0.0274,0.23665 -0.0727,0.52886 0.0821,0.70997 0.57688,0.67507 1.33174,0.49812 1.99188,0.12574 2.62713,-1.48198 5.18937,-3.07667 7.75957,-4.65533 2.04237,-1.25445 4.01506,-2.619 6.02862,-3.91918 1.14267,-0.70402 2.24479,-1.47856 3.42801,-2.11206 0.75255,-0.40292 -2.97667,1.54321 -2.13224,1.4183 1.26189,-0.18666 2.30112,-1.10271 3.4689,-1.61602 1.16311,-0.51126 4.12135,-1.74609 5.51595,-2.05958 0.67892,-0.15261 1.38455,-0.14112 2.07682,-0.21168 0.6185,0.17316 1.28788,0.21892 1.8555,0.51947 1.28089,0.67822 1.914,1.72028 2.60554,2.92218 0.44839,0.77931 0.62927,2.04988 1.83934,2.15934 0.66134,0.0598 1.29666,-0.28721 1.94498,-0.43081 0.96403,-0.52637 1.92807,-1.05273 2.8921,-1.57909 2.99695,-1.75357 5.95013,-3.58419 8.99086,-5.2607 0.99435,-0.54823 -2.56248,0.77289 -2.84556,1.87249 -0.24243,0.94172 1.74785,-0.86507 2.66753,-1.18093 2.20802,-0.75833 2.46427,-0.58402 4.66067,-0.56929 0.59467,0.14314 1.20225,0.24057 1.78403,0.42941 0.82763,0.26865 1.64369,0.71018 2.36484,1.19689 0.29093,0.19636 1.02804,0.88342 1.42175,0.93415 0.52123,0.0672 1.0487,-0.0706 1.57305,-0.10596 5.10308,-1.81932 10.18106,-3.70956 15.24978,-5.62239 0,0 5.41193,-4.24358 5.41193,-4.24358 v 0 c -4.92212,1.92164 -9.8793,3.74848 -14.86817,5.49022 -0.40647,0.13939 -0.7911,0.38351 -1.2194,0.41817 -0.39869,0.0323 -5.57005,-3.55161 -5.94763,-2.66332 -0.77889,-0.0395 -1.55919,-0.17989 -2.33666,-0.11849 -4.64549,0.3669 -11.18532,4.92349 -14.34953,6.64336 -0.95877,0.52113 1.81445,-1.27857 2.85869,-1.5954 0.97392,-0.29549 -1.76162,1.01986 -2.64242,1.52978 -0.50628,0.27381 -0.9577,0.69323 -1.51882,0.82143 -1.1523,0.26326 -1.37766,-1.10581 -1.75836,-1.73462 -0.37367,-0.61718 -0.71519,-1.26369 -1.185,-1.81125 -0.49191,-0.57332 -1.03173,-1.13157 -1.67699,-1.5244 -0.61572,-0.37484 -1.35593,-0.48981 -2.03389,-0.73472 -0.74821,0.0425 -1.50984,-0.0199 -2.24462,0.12743 -1.34064,0.2688 -4.64065,1.64884 -5.72672,2.12133 -5.75322,2.50293 -11.17941,5.68932 -16.47395,9.04212 -1.15528,0.7374 -2.31147,1.47337 -3.46584,2.21219 -0.96698,0.61889 -3.97155,2.26828 -2.89819,1.86092 1.65167,-0.62683 3.0872,-1.71968 4.65769,-2.52867 0.29364,-0.15126 -0.56777,0.34243 -0.82228,0.55297 -0.14677,0.12141 -0.19932,0.51627 -0.3713,0.43438 -0.20335,-0.0968 -0.0765,-0.44391 -0.1148,-0.66586 -0.63357,-4.3241 -3.05485,-5.21661 -7.23083,-4.25586 -9.88537,3.31546 -20.00713,6.71119 -28.47272,12.99297 -0.51313,1.05892 -0.93962,1.88017 -0.69324,1.81018 5.2336,-1.48687 6.79953,-0.60136 6.77904,-3.81176 -0.48949,-2.68427 -1.40349,-5.25505 -3.06888,-7.45352 -0.46173,-0.49997 -0.86886,-1.05652 -1.38517,-1.49989 -3.47089,-2.98058 -7.49848,-2.23853 -11.28456,-0.35155 -6.35707,3.53369 -12.93569,6.98239 -18.624643,11.57658 0,0 6.830953,-2.82948 6.830953,-2.82948 z"
       id="path3531"
       style="opacity:0.871383;fill:#4d4d4d;fill-opacity:1;stroke-width:1.03937;stroke-linecap:round;stroke-linejoin:round;paint-order:stroke fill markers" />
    <path
       inkscape:connector-curvature="0"
       d="m 107.57118,174.31144 c -0.34666,-0.41492 2.42761,-1.71949 1.8031,-1.31522 -1.43993,0.93212 -3.46553,1.23244 -4.39752,2.67245 -0.6476,1.0006 2.24496,-0.80886 3.3947,-1.12299 2.10223,-0.57437 6.81673,-1.50443 8.93997,-1.93958 1.32113,-0.15015 2.63423,-0.41496 3.96338,-0.45045 3.15603,-0.0842 7.3412,0.53869 9.60778,2.97596 0.2453,2.78805 6.37031,-0.72036 6.86273,-3.62792 0,0 -6.66043,3.28714 -6.66043,3.28714 v 0 c -0.42606,4.54725 9.10775,-0.71836 6.05238,-3.4811 -2.57229,-2.53893 -6.90618,-3.29424 -10.3945,-3.22166 -1.36608,0.0284 -2.71559,0.30575 -4.07339,0.45863 -2.94215,0.59318 -5.9019,1.10445 -8.82727,1.77553 -1.09841,0.25198 -2.24675,0.39294 -3.26596,0.8738 -2.7386,1.29207 -5.32221,2.89168 -7.94025,4.41329 -1.27555,0.74136 -1.18639,0.74781 -1.86633,1.63319 0,0 6.80161,-2.93107 6.80161,-2.93107 z"
       id="path3539"
       style="opacity:0.871383;fill:#4d4d4d;fill-opacity:1;stroke-width:1.03937;stroke-linecap:round;stroke-linejoin:round;paint-order:stroke fill markers" />
    <path
       inkscape:connector-curvature="0"
       d="m 155.66826,164.79772 c 3.09429,-1.03272 6.08377,-2.8667 9.38525,-3.22773 0.3857,-0.0422 1.97758,0.11001 2.16338,0.87148 0.0789,0.32326 -0.19365,0.63668 -0.29048,0.95502 0.93743,-0.0273 -2.61048,2.92384 -1.14202,2.62478 2.59107,-0.52769 7.21556,-2.99286 9.27372,-3.92778 1.85255,-0.84153 3.72919,-1.62901 5.59378,-2.44352 4.16749,-1.49946 8.39278,-2.86016 12.8657,-2.83866 0.88045,0.004 1.75442,0.15103 2.63164,0.22654 0,0 5.72828,-4.09022 5.72828,-4.09022 v 0 c -2.54181,-0.20116 -3.78345,-0.42463 -6.45071,-0.0223 -3.36495,0.50763 -6.47764,1.67394 -9.70146,2.71111 -1.32332,0.57091 -9.251,3.95345 -10.68508,4.71457 -0.99543,0.52832 -1.9252,1.18371 -2.80242,1.89117 -0.0855,0.0689 -0.0241,0.40118 0.0547,0.32479 0.51924,-0.50302 0.94257,-1.84793 1.16181,-2.4087 -0.006,-0.51913 0.17562,-1.07612 -0.0191,-1.55738 -1.35785,-3.35574 -9.93746,1.11565 -12.07195,1.67575 0,0 -5.69506,4.52103 -5.69506,4.52103 z"
       id="path3541"
       style="opacity:0.871383;fill:#4d4d4d;fill-opacity:1;stroke-width:1.03937;stroke-linecap:round;stroke-linejoin:round;paint-order:stroke fill markers" />
  </g>
  <path
     sodipodi:type="star"
     style="opacity:0.871383;fill:#ffcc00;fill-opacity:1;stroke-width:0.836643;stroke-linecap:round;stroke-linejoin:round;paint-order:stroke fill markers"
     id="path3548"
     sodipodi:sides="5"
     sodipodi:cx="126.32548"
     sodipodi:cy="82.471717"
     sodipodi:r1="23.455044"
     sodipodi:r2="12.680715"
     sodipodi:arg1="0.92357302"
     sodipodi:arg2="1.5518916"
     inkscape:flatsided="false"
     inkscape:rounded="0.24279713"
     inkscape:randomized="0"
     d="m 140.46825,101.18324 c -2.93556,2.21879 -10.22398,-6.102634 -13.90306,-6.033073 -3.67909,0.06956 -10.64774,8.660543 -13.66507,6.554303 -3.01733,-2.106235 2.64457,-11.609394 1.44151,-15.086917 -1.20305,-3.477523 -11.527,-7.450349 -10.45625,-10.970862 1.07074,-3.520514 11.85841,-1.072367 14.79396,-3.291155 2.93556,-2.218788 3.52367,-13.26511 7.20275,-13.334671 3.67909,-0.06956 4.68433,10.946637 7.70166,13.052874 3.01733,2.106236 13.70474,-0.747941 14.9078,2.729582 1.20306,3.477523 -8.96333,7.83776 -10.03408,11.358274 -1.07074,3.520514 4.94634,12.802858 2.01078,15.021645 z"
     inkscape:transform-center-x="0.072334904"
     inkscape:transform-center-y="-2.3528982" />
</svg>
