<?xml version="1.0" encoding="UTF-8" standalone="no"?>
<svg
   xmlns:dc="http://purl.org/dc/elements/1.1/"
   xmlns:cc="http://creativecommons.org/ns#"
   xmlns:rdf="http://www.w3.org/1999/02/22-rdf-syntax-ns#"
   xmlns:svg="http://www.w3.org/2000/svg"
   xmlns="http://www.w3.org/2000/svg"
   xmlns:sodipodi="http://sodipodi.sourceforge.net/DTD/sodipodi-0.dtd"
   xmlns:inkscape="http://www.inkscape.org/namespaces/inkscape"
   inkscape:export-ydpi="204.57932"
   inkscape:export-xdpi="204.57932"
   inkscape:export-filename="/Users/mike.xiao/Documents/Projects/DBT_icons/dbt_icons/guiltShame.png"
   inkscape:version="1.0beta2 (2b71d25, 2019-12-03)"
   sodipodi:docname="guiltShame.svg"
   version="1.1"
   width="300"
   viewBox="0 0 300 300"
   height="300"
   enable-background="new 0 0 512 512"
   id="Layer_1">
  <metadata
     id="metadata1039">
    <rdf:RDF>
      <cc:Work
         rdf:about="">
        <dc:format>image/svg+xml</dc:format>
        <dc:type
           rdf:resource="http://purl.org/dc/dcmitype/StillImage" />
        <dc:title />
      </cc:Work>
    </rdf:RDF>
  </metadata>
  <defs
     id="defs1037" />
  <sodipodi:namedview
     inkscape:current-layer="Layer_1"
     inkscape:window-maximized="0"
     inkscape:window-y="67"
     inkscape:window-x="180"
     inkscape:cy="117.77289"
     inkscape:cx="205.07962"
     inkscape:zoom="1.1575153"
     showguides="false"
     showgrid="false"
     id="namedview1035"
     inkscape:window-height="581"
     inkscape:window-width="1196"
     inkscape:pageshadow="2"
     inkscape:pageopacity="0"
     guidetolerance="10"
     gridtolerance="10"
     objecttolerance="10"
     borderopacity="1"
     inkscape:document-rotation="0"
     bordercolor="#666666"
     pagecolor="#ffffff" />
  <circle
     style="opacity:1;fill:#5425a0;fill-opacity:1;stroke-width:2.9133"
     id="path1658"
     cx="152.77527"
     cy="150.18353"
     r="145" />
  <path
     inkscape:connector-curvature="0"
     d="M 270.62868,234.98569 H 35.198993 a 145,145 0 0 0 117.714847,60.33594 145,145 0 0 0 117.71484,-60.33594 z"
     style="opacity:1;fill:#3a3a3a;fill-opacity:1;stroke-width:2.9133"
     id="path1658-0" />
  <g
     transform="matrix(0.38808222,0,0,0.38808222,27.764457,274.49966)"
     id="g1615" />
  <g
     transform="matrix(0.51365676,0,0,0.51365676,11.559334,-2.9443894)"
     id="g1893">
    <g
       id="g1815"
       transform="matrix(0.38808222,0,0,0.38808222,8.2776668,271.25186)">
      <circle
         style="stroke-width:0.893906"
         cx="257.20715"
         cy="304.73688"
         fill="#736e6e"
         r="209.03197"
         id="circle1002" />
      <path
         style="stroke-width:0.893906"
         inkscape:connector-curvature="0"
         d="M 383.38652,471.40125 C 348.32841,497.99675 304.6137,513.77151 257.20716,513.77151 141.76452,513.77062 48.1752,420.1813 48.1752,304.73955 c 0,-114.59522 92.20823,-207.641935 206.47182,-209.014081 -50.34481,38.161751 -82.86155,98.617541 -82.86155,166.661691 0,115.45159 93.58932,209.03196 209.03196,209.03196 0.85637,0 1.71273,-0.009 2.56909,-0.0179 z"
         fill="#595454"
         id="path1004" />
      <path
         style="stroke-width:0.893906"
         inkscape:connector-curvature="0"
         d="m 455.47113,518.78186 h -27.9167 c -27.78171,0 -50.38413,-22.60242 -50.38413,-50.38414 0,-27.78172 22.60242,-50.38414 50.38413,-50.38414 h 27.9167 c 27.78172,0 50.38414,22.60242 50.38414,50.38414 0,27.78261 -22.60242,50.38414 -50.38414,50.38414 z m -26.52846,-70.59268 c -11.14344,0 -20.20854,9.066 -20.20854,20.20854 0,11.14344 9.066,20.20944 20.20854,20.20944 H 454.082 c 11.14344,0 20.20854,-9.066 20.20854,-20.20855 0,-11.14343 -9.066,-20.20943 -20.20854,-20.20943 z"
         fill="#f6f1f1"
         id="path1006" />
      <path
         style="stroke-width:0.893906"
         inkscape:connector-curvature="0"
         d="m 454.082,488.60716 h 15.301 c 11.14343,0 20.20854,-9.066 20.20854,-20.20855 0,-11.14343 -9.066,-20.20943 -20.20854,-20.20943 h -15.301 c 11.14344,0 20.20854,9.066 20.20854,20.20943 9e-4,11.14255 -9.0651,20.20855 -20.20854,20.20855 z"
         fill="#eadfda"
         id="path1008" />
      <path
         style="stroke-width:0.893906"
         inkscape:connector-curvature="0"
         d="m 392.47129,468.39772 c 0,-27.78172 22.60242,-50.38414 50.38414,-50.38414 h -15.301 c -27.78171,0 -50.38413,22.60242 -50.38413,50.38414 0,27.78172 22.60242,50.38414 50.38413,50.38414 h 15.301 c -27.78261,0 -50.38414,-22.60153 -50.38414,-50.38414 z"
         fill="#eadfda"
         id="path1010" />
      <path
         style="stroke-width:0.893906"
         inkscape:connector-curvature="0"
         d="m 326.78616,518.78186 h -27.9167 c -27.78172,0 -50.38414,-22.60242 -50.38414,-50.38414 0,-27.78172 22.60242,-50.38414 50.38414,-50.38414 h 27.9167 c 27.78171,0 50.38414,22.60242 50.38414,50.38414 0,27.78261 -22.60243,50.38414 -50.38414,50.38414 z M 300.2577,448.18918 c -11.14344,0 -20.20855,9.066 -20.20855,20.20854 0,11.14344 9.066,20.20944 20.20855,20.20944 h 25.13932 c 11.14344,0 20.20855,-9.066 20.20855,-20.20855 0,-11.14343 -9.066,-20.20943 -20.20855,-20.20943 z"
         fill="#f6f1f1"
         id="path1012" />
      <path
         style="stroke-width:0.893906"
         inkscape:connector-curvature="0"
         d="m 325.39702,488.60716 h 15.301 c 11.14344,0 20.20854,-9.066 20.20854,-20.20855 0,-11.14343 -9.066,-20.20943 -20.20854,-20.20943 h -15.301 c 11.14344,0 20.20855,9.066 20.20855,20.20943 0,11.14255 -9.06511,20.20855 -20.20855,20.20855 z"
         fill="#eadfda"
         id="path1014" />
      <path
         style="stroke-width:0.893906"
         inkscape:connector-curvature="0"
         d="m 263.78542,468.39772 c 0,-27.78172 22.60242,-50.38414 50.38414,-50.38414 h -15.30099 c -27.78172,0 -50.38414,22.60242 -50.38414,50.38414 0,27.78172 22.60242,50.38414 50.38414,50.38414 h 15.30099 c -27.78172,0 -50.38414,-22.60153 -50.38414,-50.38414 z"
         fill="#eadfda"
         id="path1016" />
      <path
         style="stroke-width:0.893906"
         inkscape:connector-curvature="0"
         d="m 334.94573,488.60716 h 84.44913 c 11.16131,0 20.20854,-9.04812 20.20854,-20.20855 0,-11.16131 -9.04812,-20.20854 -20.20854,-20.20854 h -84.44913 c -11.16131,0 -20.20854,9.04812 -20.20854,20.20854 -8.9e-4,11.16043 9.04723,20.20855 20.20854,20.20855 z"
         fill="#f6f1f1"
         id="path1018" />
      <path
         style="stroke-width:0.893906"
         inkscape:connector-curvature="0"
         d="m 437.27477,477.81413 c -3.37986,6.41825 -10.11097,10.79303 -17.87455,10.79303 h -84.45449 c -5.58065,0 -10.63659,-2.25622 -14.28283,-5.92124 -3.66502,-3.64714 -5.92124,-8.70218 -5.92124,-14.28284 0,-11.16131 9.04276,-20.21301 20.20407,-20.21301 h 5.52524 c -1.49193,2.80866 -2.32952,6.01331 -2.32952,9.41105 0,5.58066 2.26516,10.63659 5.9123,14.29177 3.66501,3.65608 8.71201,5.92124 14.29177,5.92124 z"
         fill="#eadfda"
         id="path1020" />
      <g
         transform="matrix(0.89390639,0,0,0.89390639,48.1752,78.403351)"
         fill="#9b9595"
         id="g1032">
        <circle
           cx="379.53201"
           cy="165.483"
           r="39.604"
           id="circle1022" />
        <circle
           cx="324.69501"
           cy="103.961"
           r="25.172001"
           id="circle1024" />
      </g>
    </g>
    <g
       id="g1787"
       transform="matrix(0.76887274,0,0,0.76887274,166.25149,61.501791)">
      <g
         id="g1657"
         fill="#c7c8ca"
         transform="translate(48.577195,23.232572)">
        <path
           id="path1617"
           d="m 86.394531,108.97266 c 2.476563,-5.29297 5.261719,-10.320316 8.378907,-15.000004 h -21.4375 c -5.683594,4.445313 -10.859376,9.480474 -15.441407,15.000004 z m 0,0"
           inkscape:connector-curvature="0" />
        <path
           id="path1619"
           d="m 81.214844,121.78906 h -32.375 c -2.84375,4.77735 -5.308594,9.78906 -7.332032,15 h 35.445313 c 1.171875,-5.14844 2.59375,-10.16015 4.261719,-15 z m 0,0"
           inkscape:connector-curvature="0" />
        <path
           id="path1621"
           d="m 231.32812,95.320312 c 1.51172,4.277344 2.875,8.851568 4.10157,13.652348 h 27.47265 c -1.47656,-2.72657 -3.04687,-5.35938 -4.72265,-7.875 -1.69532,-2.539066 -3.46485,-4.91016 -5.29688,-7.125004 h -22.05078 c 0.16406,0.449219 0.33203,0.890625 0.49609,1.347656 z m 0,0"
           inkscape:connector-curvature="0" />
        <path
           id="path1623"
           d="m 128.39453,108.97266 c 1.22656,-4.80078 2.58984,-9.375004 4.10156,-13.648441 0.16016,-0.460938 0.32813,-0.898438 0.4961,-1.351563 h -22.05078 c -1.83203,2.21875 -3.60157,4.585938 -5.29688,7.125004 -1.67578,2.51562 -3.24609,5.14843 -4.72265,7.875 z m 0,0"
           inkscape:connector-curvature="0" />
        <path
           id="path1625"
           d="m 95.039062,121.78906 c -1.855468,4.79688 -3.4375,9.8125 -4.730468,15 h 32.960936 c 0.63281,-5.15234 1.40235,-10.16797 2.30469,-15 z m 0,0"
           inkscape:connector-curvature="0" />
        <path
           id="path1627"
           d="m 175.41016,93.972656 h -28.44532 c -1.83984,4.371094 -3.57031,9.390624 -5.13672,15.000004 h 33.58204 z m 0,0"
           inkscape:connector-curvature="0" />
        <path
           id="path1629"
           d="M 268.78516,121.78906 H 238.25 c 0.90234,4.83203 1.67187,9.84766 2.30469,15 h 32.96093 c -1.29296,-5.1875 -2.875,-10.20312 -4.73046,-15 z m 0,0"
           inkscape:connector-curvature="0" />
        <path
           id="path1631"
           d="m 277.42969,108.97266 h 28.5 c -4.58203,-5.51953 -9.75782,-10.554691 -15.44141,-15.000004 h -21.4375 c 3.11328,4.679688 5.90234,9.707034 8.37891,15.000004 z m 0,0"
           inkscape:connector-curvature="0" />
        <path
           id="path1633"
           d="m 314.98437,121.78906 h -32.375 c 1.66797,4.83985 3.08985,9.85156 4.25782,15 h 35.44922 c -2.02344,-5.21094 -4.48828,-10.22265 -7.33204,-15 z m 0,0"
           inkscape:connector-curvature="0" />
        <path
           id="path1635"
           d="m 225.01172,121.78906 h -36.60156 v 15 h 39.05078 c -0.67188,-5.18359 -1.49219,-10.1914 -2.44922,-15 z m 0,0"
           inkscape:connector-curvature="0" />
        <path
           id="path1637"
           d="m 219.07031,99.65625 c -0.70312,-1.988281 -1.43359,-3.882812 -2.1914,-5.683594 h -28.46875 v 15.000004 h 33.57031 c -0.90235,-3.23828 -1.86328,-6.36328 -2.91016,-9.31641 z m 0,0"
           inkscape:connector-curvature="0" />
        <path
           id="path1639"
           d="m 175.41016,121.78906 h -36.63282 c -0.9375,4.69532 -1.75781,9.70703 -2.4375,15 h 39.07032 z m 0,0"
           inkscape:connector-curvature="0" />
        <path
           id="path1641"
           d="m 34.800781,403.02734 h 38.222657 v 15 H 34.800781 Z m 0,0"
           inkscape:connector-curvature="0" />
        <path
           id="path1643"
           d="m 34.800781,430.84375 h 38.222657 v 15 H 34.800781 Z m 0,0"
           inkscape:connector-curvature="0" />
        <path
           id="path1645"
           d="m 86.023438,403.02734 h 35.121092 v 15 H 86.023438 Z m 0,0"
           inkscape:connector-curvature="0" />
        <path
           id="path1647"
           d="m 86.023438,430.84375 h 35.121092 v 15 H 86.023438 Z m 0,0"
           inkscape:connector-curvature="0" />
        <path
           id="path1649"
           d="m 242.67969,403.02734 h 35.12109 v 15 h -35.12109 z m 0,0"
           inkscape:connector-curvature="0" />
        <path
           id="path1651"
           d="m 242.67969,430.84375 h 35.12109 v 15 h -35.12109 z m 0,0"
           inkscape:connector-curvature="0" />
        <path
           id="path1653"
           d="m 290.80078,403.02734 h 38.22266 v 15 h -38.22266 z m 0,0"
           inkscape:connector-curvature="0" />
        <path
           id="path1655"
           d="m 290.80078,430.84375 h 38.22266 v 15 h -38.22266 z m 0,0"
           inkscape:connector-curvature="0" />
      </g>
      <path
         id="path1659"
         fill="#ffcb00"
         d="m 247.2647,53.982572 c 2.06641,-3.125 3.27734,-6.855469 3.27734,-10.871094 0,-10.980468 -8.98047,-19.878906 -20.05468,-19.878906 -11.07422,0 -20.05079,8.898438 -20.05079,19.878906 0,4.015625 1.21094,7.746094 3.27735,10.871094 z m 0,0"
         inkscape:connector-curvature="0" />
      <path
         id="path1661"
         fill="#f39600"
         d="m 229.63579,53.982572 c -2.0664,-3.121094 -3.27343,-6.855469 -3.27343,-10.871094 0,-8.171875 4.98046,-15.1875 12.08984,-18.242187 -2.44141,-1.046875 -5.13281,-1.636719 -7.96484,-1.636719 -11.07422,0 -20.05079,8.898438 -20.05079,19.878906 0,4.015625 1.21094,7.746094 3.27735,10.871094 z m 0,0"
         inkscape:connector-curvature="0" />
      <path
         id="path1663"
         fill="#e0aa68"
         d="m 182.98736,83.177884 h 95.0039 c 0.30078,0 0.59375,0.01172 0.89063,0.01563 V 59.080228 c 0,-3.355468 -2.7461,-6.097656 -6.10157,-6.097656 h -84.58203 c -3.35547,0 -6.10156,2.742188 -6.10156,6.097656 V 83.19351 c 0.29688,-0.0039 0.59375,-0.01563 0.89063,-0.01563 z m 0,0"
         inkscape:connector-curvature="0" />
      <path
         id="path1665"
         fill="#b57a4e"
         d="m 182.98736,83.177884 h 36.51953 V 59.080228 c 0,-3.355468 2.74609,-6.097656 6.10156,-6.097656 h -37.41016 c -3.35547,0 -6.10156,2.742188 -6.10156,6.097656 V 83.19351 c 0.29688,-0.0039 0.59375,-0.01563 0.89063,-0.01563 z m 0,0"
         inkscape:connector-curvature="0" />
      <path
         id="path1679"
         fill="#9b5729"
         d="m 159.72954,318.20913 c -3.27734,0 -6.51953,-0.24609 -9.71093,-0.69922 v 23.21485 h 15 v -22.73438 c -1.75782,0.13282 -3.51953,0.21875 -5.28907,0.21875 z m 0,0"
         inkscape:connector-curvature="0" />
      <path
         id="path1681"
         fill="#9b5729"
         d="m 184.74126,313.54898 c -0.66797,0.25781 -1.34375,0.47656 -2.01953,0.71093 v 26.46485 h 9.84375 v -30.75391 c -2.51172,1.33984 -5.12109,2.53906 -7.82422,3.57813 z m 0,0"
         inkscape:connector-curvature="0" />
      <path
         id="path1683"
         fill="#c7c8ca"
         d="m 134.60063,339.72476 h 35.1211 v 15 h -35.1211 z m 0,0"
         inkscape:connector-curvature="0" />
      <path
         id="path1685"
         fill="#c7c8ca"
         d="m 83.377976,339.72476 h 38.222654 v 15 H 83.377976 Z m 0,0"
         inkscape:connector-curvature="0" />
      <path
         id="path1687"
         fill="#c7c8ca"
         d="m 182.72173,339.72476 h 41.26563 v 15 h -41.26563 z m 0,0"
         inkscape:connector-curvature="0" />
      <path
         id="path1689"
         fill="#f39600"
         d="m 288.58111,225.11929 -29.15235,-13.94922 c 1.59375,4.20312 2.47656,8.75391 2.47656,13.50781 0,7.21485 -2.03906,14.02344 -5.59765,19.84375 0.59375,0.0234 1.25781,-0.11328 1.95312,-0.44922 l 30.32422,-14.5039 c 2.55469,-1.22657 2.55469,-3.22657 -0.004,-4.44922 z m 0,0"
         inkscape:connector-curvature="0" />
      <path
         id="path1691"
         fill="#00a9ff"
         d="m 184.43267,224.67788 c 0,3.60938 0.5,7.10156 1.41015,10.41797 l -3.12109,1.19922 v 79.03125 c 0.79297,-0.27344 1.58984,-0.54297 2.37891,-0.84766 17.92968,-6.89453 31.44531,-20.32422 38.88672,-36.52343 v -92.46094 c -0.10547,0 -0.21094,-0.008 -0.32032,-0.008 -21.66797,0 -39.23437,17.54687 -39.23437,39.1914 z m 0,0"
         inkscape:connector-curvature="0" />
      <path
         id="path1693"
         fill="#00a9ff"
         d="m 134.60063,254.79898 v 59.78906 c 11.01172,4.16797 23.07423,5.61328 35.1211,3.88281 v -77.17578 z m 0,0"
         inkscape:connector-curvature="0" />
      <path
         id="path1695"
         fill="#00a9ff"
         d="m 121.60063,259.79898 -26.324216,10.12109 c -1.574219,0.60547 -2.355469,2.36719 -1.753907,3.94141 5.65625,14.67578 15.710943,26.38671 28.078123,34.23437 z m 0,0"
         inkscape:connector-curvature="0" />
      <path
         id="path1697"
         fill="#00a9ff"
         d="m 236.98736,187.80679 v 73.72656 c 15.11328,-5.44531 25.91796,-19.88672 25.91796,-36.85547 0,-16.97265 -10.80468,-31.42187 -25.91796,-36.87109 z m 0,0"
         inkscape:connector-curvature="0" />
      <path
         id="path1699"
         fill="#5884cc"
         d="m 134.60063,286.39663 v 28.19141 c 11.01172,4.16797 23.07423,5.61328 35.1211,3.88281 v -12.38672 c -13.26562,-3.03906 -25.52735,-9.83984 -35.1211,-19.6875 z m 0,0"
         inkscape:connector-curvature="0" />
      <path
         id="path1701"
         fill="#5884cc"
         d="m 200.49517,306.25991 c -5.92578,1.29297 -11.89453,1.77735 -17.77344,1.54297 v 7.52344 c 0.79297,-0.27344 1.58984,-0.54297 2.37891,-0.84766 5.57812,-2.14062 10.72265,-4.92187 15.39453,-8.21875 z m 0,0"
         inkscape:connector-curvature="0" />
      <path
         id="path1703"
         fill="#5884cc"
         d="m 121.60063,267.79507 c -0.82422,-1.71484 -1.59765,-3.46484 -2.29297,-5.26563 -0.23046,-0.60156 -0.25781,-1.22656 -0.11718,-1.80468 l -23.914066,9.19531 c -1.574219,0.60547 -2.355469,2.36719 -1.753907,3.94141 5.65625,14.67578 15.710943,26.38671 28.078123,34.23437 z m 0,0"
         inkscape:connector-curvature="0" />
      <path
         id="path1705"
         fill="#5884cc"
         d="m 146.72563,275.67007 c -0.51562,0.19922 -0.77343,0.77734 -0.57422,1.29297 3.78517,9.82031 13.56642,15.59765 23.57032,14.78906 v -24.92187 z m 0,0"
         inkscape:connector-curvature="0" />
      <path
         id="path1707"
         fill="#5884cc"
         d="m 189.5147,260.29116 c -0.19922,-0.51562 -0.77734,-0.77343 -1.29297,-0.57422 l -5.5,2.11329 v 24.60546 c 7.41406,-6.19531 10.45313,-16.64453 6.79297,-26.14453 z m 0,0"
         inkscape:connector-curvature="0" />
      <path
         id="path1711"
         fill="#a7a9ac"
         d="M 84.377976,497.77163 V 195.66616 c 0,-44.71093 29.992184,-82.55468 70.933604,-94.53124 -4.5586,4.42187 -8.82813,9.57421 -12.73438,15.42578 -14.17188,21.23828 -21.97657,49.33203 -21.97657,79.10546 v 302.10547 h 15 V 195.66616 c 0,-26.84375 6.91016,-51.98046 19.45313,-70.78125 9.65235,-14.46093 21.67578,-23.66015 34.55469,-26.640619 -3.29297,5.042969 -6.50391,11.574219 -9.47656,19.976559 -7.35938,20.80078 -11.41016,48.3086 -11.41016,77.44531 v 302.10547 h 15 V 195.66616 c 0,-60.12109 17.75781,-98.484369 29.98438,-98.484369 h 9.28125 V 497.77163 h 15 V 217.0403 97.177884 h 9.28515 c 6.21094,0 13.83985,10.226566 19.4336,26.046876 6.80468,19.23437 10.55078,44.96093 10.55078,72.4414 v 302.10547 h 15 V 195.66616 c 0,-29.13672 -4.05078,-56.64453 -11.41016,-77.44531 -2.97266,-8.40234 -6.18359,-14.93359 -9.47656,-19.976559 12.8789,2.980469 24.90234,12.183589 34.55469,26.640619 12.54687,18.80078 19.45312,43.9375 19.45312,70.78125 v 302.10547 h 15 V 195.66616 c 0,-29.77343 -7.80469,-57.86718 -21.97656,-79.10546 -3.90625,-5.85157 -8.17578,-11.00391 -12.73438,-15.42578 40.94141,11.97656 70.9336,49.82031 70.9336,94.53124 v 302.10547 h 15 V 195.66616 c 0,-62.57422 -50.96485,-113.484369 -113.60938,-113.484369 h -95.0039 c -62.64454,0 -113.609384,50.910149 -113.609384,113.484369 v 302.10547 z"
         inkscape:connector-curvature="0"
         sodipodi:nodetypes="csccsccscccsccsscccccscsccscccsccsccsccsssscc" />
      <path
         id="path1713"
         fill="#e0aa68"
         d="m 411.90142,530.08413 c 0,2.83203 -2.32031,5.14844 -5.15625,5.14844 H 54.233445 c -2.835938,0 -5.15625,-2.31641 -5.15625,-5.14844 v -28.16015 c 0,-2.83594 2.320312,-5.15235 5.15625,-5.15235 H 406.74517 c 2.83594,0 5.15625,2.31641 5.15625,5.15235 z m 0,0"
         inkscape:connector-curvature="0" />
      <path
         id="path1715"
         fill="#b57a4e"
         d="m 96.62407,530.08413 v -28.16015 c 0,-2.83594 2.320313,-5.15235 5.15625,-5.15235 H 54.233445 c -2.835938,0 -5.15625,2.31641 -5.15625,5.15235 v 28.15625 c 0,2.83203 2.320312,5.15234 5.15625,5.15234 h 47.546875 c -2.835937,0 -5.15625,-2.31641 -5.15625,-5.14844 z m 0,0"
         inkscape:connector-curvature="0" />
      <path
         id="path1717"
         fill="#f8d5ab"
         d="M 49.077195,508.64663 H 411.90142 v 15 H 49.077195 Z m 0,0"
         inkscape:connector-curvature="0" />
      <path
         id="path1719"
         fill="#e0aa68"
         d="m 299.76079,393.45132 c 0,3.17969 -2.60547,5.78125 -5.78515,5.78125 H 167.00298 c -3.17969,0 -5.78515,-2.60156 -5.78515,-5.78125 v -13.32813 c 0,-3.17968 2.60156,-5.78125 5.78515,-5.78125 h 126.97266 c 3.18359,0 5.78515,2.60157 5.78515,5.78125 z m 0,0"
         inkscape:connector-curvature="0" />
      <path
         id="path1721"
         fill="#b57a4e"
         d="m 196.94829,393.45132 v -13.32813 c 0,-3.17968 2.60157,-5.78125 5.78516,-5.78125 h -35.73047 c -3.17969,0 -5.78515,2.60157 -5.78515,5.78125 v 13.32813 c 0,3.17969 2.60156,5.78125 5.78515,5.78125 h 35.73047 c -3.18359,0 -5.78516,-2.60156 -5.78516,-5.78125 z m 0,0"
         inkscape:connector-curvature="0" />
      <path
         id="path1723"
         fill="#eac092"
         d="M 49.077195,508.64663 H 96.62407 v 15 H 49.077195 Z m 0,0"
         inkscape:connector-curvature="0" />
    </g>
  </g>
</svg>
