<?xml version="1.0" encoding="UTF-8" standalone="no"?>
<svg
   xmlns:osb="http://www.openswatchbook.org/uri/2009/osb"
   xmlns:dc="http://purl.org/dc/elements/1.1/"
   xmlns:cc="http://creativecommons.org/ns#"
   xmlns:rdf="http://www.w3.org/1999/02/22-rdf-syntax-ns#"
   xmlns:svg="http://www.w3.org/2000/svg"
   xmlns="http://www.w3.org/2000/svg"
   xmlns:sodipodi="http://sodipodi.sourceforge.net/DTD/sodipodi-0.dtd"
   xmlns:inkscape="http://www.inkscape.org/namespaces/inkscape"
   inkscape:export-ydpi="197.75999"
   inkscape:export-xdpi="197.75999"
   inkscape:export-filename="/Users/mike.xiao/Documents/Projects/DBT_icons/dbt_icons/sun.png"
   height="300"
   width="300"
   version="1.1"
   id="Capa_1"
   x="0px"
   y="0px"
   viewBox="0 0 150 150"
   xml:space="preserve"
   sodipodi:docname="sun.svg"
   inkscape:version="1.0beta2 (2b71d25, 2019-12-03)"><metadata
   id="metadata906"><rdf:RDF><cc:Work
       rdf:about=""><dc:format>image/svg+xml</dc:format><dc:type
         rdf:resource="http://purl.org/dc/dcmitype/StillImage" /><dc:title /></cc:Work></rdf:RDF></metadata><defs
   id="defs904"><linearGradient
     id="linearGradient3298"
     osb:paint="solid"><stop
       style="stop-color:#04d3ff;stop-opacity:1;"
       offset="0"
       id="stop3296" /></linearGradient></defs><sodipodi:namedview
   scale-x="0.5"
   pagecolor="#ffffff"
   bordercolor="#666666"
   inkscape:document-rotation="0"
   borderopacity="1"
   objecttolerance="10"
   gridtolerance="10"
   guidetolerance="10"
   inkscape:pageopacity="0"
   inkscape:pageshadow="2"
   inkscape:window-width="1229"
   inkscape:window-height="653"
   id="namedview902"
   showgrid="false"
   inkscape:zoom="0.81353565"
   inkscape:cx="-39.649015"
   inkscape:cy="193.13525"
   inkscape:window-x="130"
   inkscape:window-y="23"
   inkscape:window-maximized="0"
   inkscape:current-layer="g964" />


<g
   id="g927"
   transform="matrix(0.68485882,0,0,0.68485882,10.613142,6.5874672)"><g
     id="g964"
     transform="translate(-1.9593695,3.7406145)"><path
       d="M 199.81812,92.932434 A 103.02622,102.70924 0 0 1 96.791893,195.64168 103.02622,102.70924 0 0 1 -6.2343292,92.932434 103.02622,102.70924 0 0 1 96.791893,-9.7768097 103.02622,102.70924 0 0 1 199.81812,92.932434"
       style="opacity:1;fill:#90dfff;fill-opacity:1;stroke-width:1.15352"
       id="path942" /><g
       id="g1228"
       transform="matrix(2.4527285,0,0,2.4527285,-86.112242,-202.33624)"><path
         id="path833"
         d="m 74.336899,82.986306 c -0.994461,0 -1.80156,0.807099 -1.80156,1.80156 v 10.809362 c 0,0.994461 0.807099,1.80156 1.80156,1.80156 0.994462,0 1.801561,-0.807099 1.801561,-1.80156 V 84.787866 c 0,-0.994461 -0.807099,-1.80156 -1.801561,-1.80156 z"
         style="fill:#feffd8;fill-opacity:1;stroke-width:1.80156"
         inkscape:connector-curvature="0" /><path
         id="path837"
         d="M 108.74744,118.39879 H 98.338846 c -0.95759,0 -1.73476,0.77717 -1.73476,1.73476 0,0.95759 0.77717,1.73477 1.73476,1.73477 h 10.408594 c 0.95759,0 1.73476,-0.77718 1.73476,-1.73477 0,-0.95759 -0.77717,-1.73476 -1.73476,-1.73476 z"
         style="fill:#feffd8;fill-opacity:1;stroke-width:1.73477"
         inkscape:connector-curvature="0" /><path
         id="path839"
         d="m 52.604086,120.17808 c 0,-0.98217 -0.797124,-1.77929 -1.779294,-1.77929 H 40.149024 c -0.982171,0 -1.779295,0.79712 -1.779295,1.77929 0,0.98217 0.797124,1.7793 1.779295,1.7793 h 10.675768 c 0.98217,0 1.779294,-0.79713 1.779294,-1.7793 z"
         style="fill:#feffd8;fill-opacity:1;stroke-width:1.77929"
         inkscape:connector-curvature="0" /><path
         id="path841"
         d="m 91.582029,104.13479 c 0.438723,0 0.877447,-0.16795 1.211631,-0.50213 l 9.83016,-9.830157 c 0.67008,-0.670082 0.67008,-1.753181 0,-2.423263 -0.67008,-0.670082 -1.75318,-0.670082 -2.42327,0 l -9.830153,9.83015 c -0.670081,0.67008 -0.670081,1.75318 0,2.42327 0.334184,0.33589 0.772908,0.50213 1.211632,0.50213 z"
         style="fill:#feffd8;fill-opacity:1;stroke-width:1.71376"
         inkscape:connector-curvature="0" /><path
         id="path845"
         d="m 92.675698,135.14484 c -0.643066,-0.64307 -1.682497,-0.64307 -2.325563,0 -0.643066,0.64307 -0.643066,1.6825 0,2.32556 l 9.433821,9.43383 c 0.320724,0.32071 0.741754,0.48189 1.162794,0.48189 0.42103,0 0.84207,-0.16118 1.16278,-0.48189 0.64306,-0.64307 0.64306,-1.6825 0,-2.32557 z"
         style="fill:#feffd8;fill-opacity:1;stroke-width:1.64467"
         inkscape:connector-curvature="0" /><path
         id="path847"
         d="m 49.424212,91.893512 c -0.643065,-0.643065 -1.682497,-0.643065 -2.325562,0 -0.643066,0.643066 -0.643066,1.682497 0,2.325563 l 9.433824,9.433825 c 0.32071,0.32071 0.741746,0.48189 1.162781,0.48189 0.421036,0 0.842071,-0.16118 1.162782,-0.48189 0.643065,-0.64307 0.643065,-1.6825 0,-2.32556 z"
         style="fill:#feffd8;fill-opacity:1;stroke-width:1.64467"
         inkscape:connector-curvature="0" /><path
         id="path849"
         d="m 94.926796,110.25525 c 0.30741,0.72299 1.00953,1.15754 1.7477,1.15754 0.24669,0 0.49907,-0.0493 0.74007,-0.15181 l 5.241194,-2.224 c 0.96399,-0.40988 1.41562,-1.52378 1.00573,-2.48776 -0.40988,-0.96399 -1.52567,-1.41562 -2.48776,-1.00573 l -5.241204,2.22399 c -0.96588,0.40989 -1.41561,1.52378 -1.00573,2.48777 z"
         style="fill:#fff1b1;fill-opacity:1;stroke-width:1.89761"
         inkscape:connector-curvature="0" /><path
         id="path851"
         d="m 54.287351,128.4965 c -0.393727,-0.92599 -1.463715,-1.35982 -2.389701,-0.96609 l -5.034595,2.13633 c -0.925987,0.39373 -1.359815,1.46371 -0.966088,2.3897 0.295295,0.69449 0.969733,1.11191 1.678806,1.11191 0.236965,0 0.479398,-0.0474 0.710895,-0.14582 l 5.034595,-2.13633 c 0.927809,-0.39373 1.359813,-1.46372 0.966088,-2.3897 z"
         style="fill:#fff1b1;fill-opacity:1;stroke-width:1.8228"
         inkscape:connector-curvature="0" /><path
         id="path853"
         d="m 102.63844,129.23611 -5.158704,-2.08686 c -0.9479,-0.38398 -2.03121,0.0761 -2.41519,1.02581 -0.38398,0.94975 0.0761,2.0312 1.02581,2.41518 l 5.160564,2.085 c 0.22816,0.0909 0.46374,0.13542 0.69376,0.13542 0.73457,0 1.43019,-0.43778 1.72142,-1.16122 0.38213,-0.9479 -0.076,-2.02935 -1.02766,-2.41333 z"
         style="fill:#fff1b1;fill-opacity:1;stroke-width:1.85498"
         inkscape:connector-curvature="0" /><path
         id="path855"
         d="m 46.989751,111.10934 4.877652,1.97141 c 0.215732,0.0859 0.43848,0.12803 0.655966,0.12803 0.694553,0 1.352273,-0.41392 1.627638,-1.09795 0.363062,-0.89801 -0.07191,-1.92054 -0.969918,-2.2836 l -4.879406,-1.97141 c -0.899761,-0.36306 -1.920543,0.0702 -2.283604,0.96992 -0.361308,0.89625 0.07191,1.91879 0.971672,2.2836 z"
         style="fill:#fff1b1;fill-opacity:1;stroke-width:1.75392"
         inkscape:connector-curvature="0" /><path
         id="path857"
         d="m 85.732391,140.56723 c -0.353343,-0.83101 -1.313586,-1.21871 -2.144596,-0.867 -0.831011,0.35334 -1.220343,1.31359 -0.867,2.1446 l 1.917214,4.51821 c 0.265007,0.62326 0.870271,0.99787 1.506616,0.99787 0.21266,0 0.430228,-0.0425 0.637981,-0.13087 0.83101,-0.35334 1.220342,-1.31359 0.866999,-2.1446 z"
         style="fill:#fff1b1;fill-opacity:1;stroke-width:1.63585"
         inkscape:connector-curvature="0" /><path
         id="path859"
         d="m 65.835119,99.049663 c 0.217589,0 0.440198,-0.04352 0.652765,-0.1339 0.850269,-0.361532 1.248623,-1.344027 0.887092,-2.194295 l -1.961643,-4.622917 c -0.359858,-0.851942 -1.342353,-1.250296 -2.194295,-0.887091 -0.850269,0.361532 -1.248623,1.344027 -0.887092,2.194295 l 1.961643,4.622917 c 0.269475,0.637701 0.890439,1.020991 1.54153,1.020991 z"
         style="fill:#fff1b1;fill-opacity:1;stroke-width:1.67376"
         inkscape:connector-curvature="0" /><path
         id="path861"
         d="m 65.966676,139.84261 c -0.834557,-0.33481 -1.788337,0.0653 -2.126406,0.90315 l -1.8357,4.54352 c -0.33807,0.83619 0.06696,1.78834 0.903151,2.1264 0.200882,0.08 0.408296,0.11923 0.610811,0.11923 0.646741,0 1.259186,-0.38543 1.515596,-1.02238 l 1.8357,-4.54352 c 0.338069,-0.83619 -0.06696,-1.78834 -0.903152,-2.1264 z"
         style="fill:#fff1b1;fill-opacity:1;stroke-width:1.63319"
         inkscape:connector-curvature="0" /><path
         id="path863"
         d="m 83.845394,99.073788 c 0.644003,0 1.253855,-0.3838 1.50918,-1.018047 l 1.82793,-4.524289 c 0.336639,-0.832651 -0.06668,-1.780768 -0.899328,-2.117406 -0.831026,-0.336639 -1.780769,0.06668 -2.117406,0.899328 l -1.82793,4.52429 c -0.336639,0.832651 0.06668,1.780768 0.899328,2.117406 0.200032,0.07969 0.406568,0.118718 0.608226,0.118718 z"
         style="fill:#fff1b1;fill-opacity:1;stroke-width:1.62627"
         inkscape:connector-curvature="0" /><path
         inkscape:connector-curvature="0"
         style="fill:#feffd8;fill-opacity:1;stroke-width:1.71375"
         d="m 48.060861,147.86208 c 0.438723,0 0.877447,-0.16795 1.211631,-0.50214 l 9.830153,-9.83015 c 0.670081,-0.67008 0.670081,-1.75318 0,-2.42326 -0.670082,-0.67008 -1.753181,-0.67008 -2.423263,0 l -9.830153,9.83015 c -0.670081,0.67008 -0.670081,1.75318 0,2.42326 0.334184,0.3359 0.772908,0.50214 1.211632,0.50214 z"
         id="path841-8" /><path
         inkscape:connector-curvature="0"
         style="fill:#feffd8;fill-opacity:1;stroke-width:1.80155"
         d="m 74.707126,141.86426 c -0.994461,0 -1.80156,0.8071 -1.80156,1.80156 v 10.80936 c 0,0.99446 0.807099,1.80156 1.80156,1.80156 0.994462,0 1.801561,-0.8071 1.801561,-1.80156 v -10.80936 c 0,-0.99446 -0.807099,-1.80156 -1.801561,-1.80156 z"
         id="path833-2" /></g><circle
       r="45.998283"
       id="circle869-7-9-3"
       cy="92.579353"
       cx="96.885094"
       style="opacity:0.675241;fill:#ffffff;fill-opacity:1;stroke-width:3.06654" /><circle
       style="fill:#feffd8;fill-opacity:1;stroke-width:2.45273"
       cx="96.871323"
       cy="92.85421"
       r="36.790928"
       id="circle869" /></g><g
     id="g865">
	
	
	
	
	
	
	
	
	
	
	
	
	
	
	
	
</g></g>
<g
   id="g871">
</g>
<g
   id="g873">
</g>
<g
   id="g875">
</g>
<g
   id="g877">
</g>
<g
   id="g879">
</g>
<g
   id="g881">
</g>
<g
   id="g883">
</g>
<g
   id="g885">
</g>
<g
   id="g887">
</g>
<g
   id="g889">
</g>
<g
   id="g891">
</g>
<g
   id="g893">
</g>
<g
   id="g895">
</g>
<g
   id="g897">
</g>
<g
   id="g899">
</g>
</svg>
