<?xml version="1.0" encoding="UTF-8" standalone="no"?>
<svg
   xmlns:dc="http://purl.org/dc/elements/1.1/"
   xmlns:cc="http://creativecommons.org/ns#"
   xmlns:rdf="http://www.w3.org/1999/02/22-rdf-syntax-ns#"
   xmlns:svg="http://www.w3.org/2000/svg"
   xmlns="http://www.w3.org/2000/svg"
   xmlns:sodipodi="http://sodipodi.sourceforge.net/DTD/sodipodi-0.dtd"
   xmlns:inkscape="http://www.inkscape.org/namespaces/inkscape"
   inkscape:export-ydpi="197.75999"
   inkscape:export-xdpi="197.75999"
   inkscape:export-filename="/Users/mike.xiao/Documents/Projects/DBT_icons/dbt_icons/homework2.png"
   inkscape:version="1.0beta2 (2b71d25, 2019-12-03)"
   sodipodi:docname="homework2.svg"
   id="svg898"
   version="1.1"
   width="300"
   viewBox="0 0 37.5 37.5"
   height="300">
  <metadata
     id="metadata904">
    <rdf:RDF>
      <cc:Work
         rdf:about="">
        <dc:format>image/svg+xml</dc:format>
        <dc:type
           rdf:resource="http://purl.org/dc/dcmitype/StillImage" />
        <dc:title />
      </cc:Work>
    </rdf:RDF>
  </metadata>
  <defs
     id="defs902" />
  <sodipodi:namedview
     inkscape:current-layer="g952"
     inkscape:window-maximized="0"
     inkscape:window-y="23"
     inkscape:window-x="36"
     inkscape:cy="129.35353"
     inkscape:cx="81.169136"
     inkscape:zoom="1.4462011"
     showgrid="false"
     id="namedview900"
     inkscape:window-height="657"
     inkscape:window-width="1324"
     inkscape:pageshadow="2"
     inkscape:pageopacity="0"
     guidetolerance="10"
     gridtolerance="10"
     objecttolerance="10"
     borderopacity="1"
     inkscape:document-rotation="0"
     bordercolor="#666666"
     pagecolor="#ffffff" />
  <g
     transform="matrix(0.75167814,0,0,0.75167814,7.6596622,17.693457)"
     id="flat">
    <g
       transform="matrix(1.3303566,0,0,1.3303566,-6.8571168,-28.160683)"
       id="g952">
      <circle
         r="18.125"
         cy="22.367756"
         cx="16.388126"
         id="path943"
         style="opacity:1;fill:#92dff2;fill-opacity:0.80241895;stroke-width:0.241773" />
      <path
         id="path1216-8"
         style="fill:#696a68;fill-opacity:0.350806;stroke-width:0.0505095"
         d="m 17.09805,32.113638 h 9.69782 v 1.616303 h -9.69782 z m 0,0 m -9.6978191,0 H 17.09805 v 1.616303 H 7.4002309 Z m 0,0 M 26.79587,17.970984 h 2.020379 v 1.616303 H 26.79587 Z m 0,0 m 0,-3.232607 h 2.020379 V 16.35468 H 26.79587 Z m 0,0 M 7.4002309,12.717998 H 17.09805 v 19.39564 H 7.4002309 Z m 0,0 m 0,0 H 26.79587 v 19.39564 H 7.4002309 Z m 0,0"
         inkscape:connector-curvature="0" />
      <g
         id="g1256"
         transform="matrix(0.05050948,0,0,0.05050948,4.712981,11.97578)">
        <path
           id="path1158"
           fill="#f4f4e6"
           d="M 40,0 H 424 V 384 H 40 Z m 0,0"
           inkscape:connector-curvature="0" />
        <path
           id="path1160"
           fill="#fef9e1"
           d="M 40,0 H 232 V 384 H 40 Z m 0,0"
           inkscape:connector-curvature="0" />
        <path
           id="path1162"
           fill="#f9bb4b"
           d="M 0,16 H 40 V 48 H 0 Z m 0,0"
           inkscape:connector-curvature="0" />
        <path
           id="path1164"
           fill="#5ab89d"
           d="m 0,80 h 40 v 32 H 0 Z m 0,0"
           inkscape:connector-curvature="0" />
        <path
           id="path1166"
           fill="#5ab89d"
           d="m 424,40 h 40 v 32 h -40 z m 0,0"
           inkscape:connector-curvature="0" />
        <path
           id="path1168"
           fill="#f3bb59"
           d="m 424,104 h 40 v 32 h -40 z m 0,0"
           inkscape:connector-curvature="0" />
        <path
           id="path1170"
           fill="#f9bb4b"
           d="m 0,184 h 40 v 32 H 0 Z m 0,0"
           inkscape:connector-curvature="0" />
        <path
           id="path1172"
           fill="#5ab89d"
           d="m 272,311.99609 16,-96.0039 96.00391,16 -16,96.0039 z m 0,0"
           inkscape:connector-curvature="0" />
        <path
           id="path1174"
           fill="#aabece"
           d="m 392,80 -24,-24 8,-8 c 6.78125,-6.25 17.21875,-6.25 24,0 6.25,6.78125 6.25,17.21875 0,24 z m 0,0"
           inkscape:connector-curvature="0" />
        <path
           id="path1176"
           fill="#d75745"
           d="M 280.00391,144.00391 368,56.003906 l 24.00391,24.003906 -88,87.996098 z m 0,0"
           inkscape:connector-curvature="0" />
        <path
           id="path1178"
           fill="#aabece"
           d="m 256,192 24,-48 24,24 z m 0,0"
           inkscape:connector-curvature="0" />
        <g
           id="g1204"
           fill="#ffd782">
          <path
             id="path1180"
             d="m 256,24 h 16 v 16 h -16 z m 0,0"
             inkscape:connector-curvature="0" />
          <path
             id="path1182"
             d="m 288,24 h 64 v 16 h -64 z m 0,0"
             inkscape:connector-curvature="0" />
          <path
             id="path1184"
             d="m 256,56 h 32 v 16 h -32 z m 0,0"
             inkscape:connector-curvature="0" />
          <path
             id="path1186"
             d="M 64,24 H 208 V 40 H 64 Z m 0,0"
             inkscape:connector-curvature="0" />
          <path
             id="path1188"
             d="m 224,24 h 16 v 16 h -16 z m 0,0"
             inkscape:connector-curvature="0" />
          <path
             id="path1190"
             d="m 64,56 h 64 V 72 H 64 Z m 0,0"
             inkscape:connector-curvature="0" />
          <path
             id="path1192"
             d="m 144,56 h 16 v 16 h -16 z m 0,0"
             inkscape:connector-curvature="0" />
          <path
             id="path1194"
             d="m 64,88 h 128 v 16 H 64 Z m 0,0"
             inkscape:connector-curvature="0" />
          <path
             id="path1196"
             d="m 64,120 h 64 v 16 H 64 Z m 0,0"
             inkscape:connector-curvature="0" />
          <path
             id="path1198"
             d="m 144,120 h 16 v 16 h -16 z m 0,0"
             inkscape:connector-curvature="0" />
          <path
             id="path1200"
             d="m 176,120 h 32 v 16 h -32 z m 0,0"
             inkscape:connector-curvature="0" />
          <path
             id="path1202"
             d="m 224,120 h 16 v 16 h -16 z m 0,0"
             inkscape:connector-curvature="0" />
        </g>
        <path
           id="path1206"
           fill="#4481c3"
           d="m 72,168 h 128 v 32 H 72 Z m 0,0"
           inkscape:connector-curvature="0" />
        <path
           id="path1208"
           fill="#4481c3"
           d="m 72,232 h 128 v 32 H 72 Z m 0,0"
           inkscape:connector-curvature="0" />
        <path
           id="path1210"
           fill="#ffd782"
           d="M 96,360 H 64 v -48 h 16 v 32 h 16 z m 0,0"
           inkscape:connector-curvature="0" />
        <path
           id="path1212"
           fill="#ffd782"
           d="m 112,344 h 16 v 16 h -16 z m 0,0"
           inkscape:connector-curvature="0" />
        <path
           id="path1214"
           fill="#f4f4e6"
           d="m 40,384 h 192 v 32 H 40 Z m 0,0"
           inkscape:connector-curvature="0" />
        <path
           id="path1216"
           fill="#cfdfe8"
           d="m 232,384 h 192 v 32 H 232 Z m 0,0"
           inkscape:connector-curvature="0" />
      </g>
    </g>
  </g>
</svg>
