<?xml version="1.0" encoding="UTF-8" standalone="no"?>
<svg
   xmlns:dc="http://purl.org/dc/elements/1.1/"
   xmlns:cc="http://creativecommons.org/ns#"
   xmlns:rdf="http://www.w3.org/1999/02/22-rdf-syntax-ns#"
   xmlns:svg="http://www.w3.org/2000/svg"
   xmlns="http://www.w3.org/2000/svg"
   xmlns:sodipodi="http://sodipodi.sourceforge.net/DTD/sodipodi-0.dtd"
   xmlns:inkscape="http://www.inkscape.org/namespaces/inkscape"
   id="Layer_1"
   enable-background="new 0 0 512 512"
   height="300"
   viewBox="0 0 300 300"
   width="300"
   version="1.1"
   sodipodi:docname="interperson.svg"
   inkscape:version="1.0beta2 (2b71d25, 2019-12-03)"
   inkscape:export-filename="/Users/mike.xiao/Documents/Projects/DBT_icons/dbt_icons/interperson.png"
   inkscape:export-xdpi="197.75999"
   inkscape:export-ydpi="197.75999">
  <metadata
     id="metadata1039">
    <rdf:RDF>
      <cc:Work
         rdf:about="">
        <dc:format>image/svg+xml</dc:format>
        <dc:type
           rdf:resource="http://purl.org/dc/dcmitype/StillImage" />
        <dc:title></dc:title>
      </cc:Work>
    </rdf:RDF>
  </metadata>
  <defs
     id="defs1037">
    <inkscape:path-effect
       lpeversion="1"
       is_visible="true"
       id="path-effect1003"
       effect="spiro" />
    <inkscape:path-effect
       lpeversion="1"
       is_visible="true"
       id="path-effect981"
       effect="spiro" />
    <inkscape:path-effect
       lpeversion="1"
       is_visible="true"
       id="path-effect959"
       effect="spiro" />
    <inkscape:path-effect
       only_selected="false"
       apply_with_weight="true"
       apply_no_weight="true"
       helper_size="0"
       steps="2"
       weight="33.333333"
       lpeversion="1"
       is_visible="true"
       id="path-effect955"
       effect="bspline" />
    <inkscape:path-effect
       only_selected="false"
       apply_with_weight="true"
       apply_no_weight="true"
       helper_size="0"
       steps="2"
       weight="33.333333"
       lpeversion="1"
       is_visible="true"
       id="path-effect915"
       effect="bspline" />
    <inkscape:path-effect
       id="path-effect834"
       effect="bspline" />
    <inkscape:path-effect
       only_selected="false"
       apply_with_weight="true"
       apply_no_weight="true"
       helper_size="0"
       steps="2"
       weight="33.333333"
       lpeversion="1"
       is_visible="true"
       id="path-effect2422"
       effect="bspline" />
    <inkscape:path-effect
       only_selected="false"
       apply_with_weight="true"
       apply_no_weight="true"
       helper_size="0"
       steps="2"
       weight="33.333333"
       lpeversion="1"
       is_visible="true"
       id="path-effect2418"
       effect="bspline" />
    <inkscape:path-effect
       only_selected="false"
       apply_with_weight="true"
       apply_no_weight="true"
       helper_size="0"
       steps="2"
       weight="33.333333"
       lpeversion="1"
       is_visible="true"
       id="path-effect2414"
       effect="bspline" />
    <inkscape:path-effect
       only_selected="false"
       apply_with_weight="true"
       apply_no_weight="true"
       helper_size="0"
       steps="2"
       weight="33.333333"
       lpeversion="1"
       is_visible="true"
       id="path-effect2410"
       effect="bspline" />
    <inkscape:path-effect
       only_selected="false"
       apply_with_weight="true"
       apply_no_weight="true"
       helper_size="0"
       steps="2"
       weight="33.333333"
       lpeversion="1"
       is_visible="true"
       id="path-effect2406"
       effect="bspline" />
    <inkscape:path-effect
       effect="bspline"
       id="path-effect915-5"
       is_visible="true"
       lpeversion="1"
       weight="33.333333"
       steps="2"
       helper_size="0"
       apply_no_weight="true"
       apply_with_weight="true"
       only_selected="false" />
    <inkscape:path-effect
       only_selected="false"
       apply_with_weight="true"
       apply_no_weight="true"
       helper_size="0"
       steps="2"
       weight="33.333333"
       lpeversion="1"
       is_visible="true"
       id="path-effect915-5-3"
       effect="bspline" />
    <inkscape:path-effect
       effect="spiro"
       id="path-effect959-7"
       is_visible="true"
       lpeversion="1" />
    <inkscape:path-effect
       lpeversion="1"
       is_visible="true"
       id="path-effect959-7-5"
       effect="spiro" />
  </defs>
  <sodipodi:namedview
     pagecolor="#ffffff"
     bordercolor="#666666"
     inkscape:document-rotation="0"
     borderopacity="1"
     objecttolerance="10"
     gridtolerance="10"
     guidetolerance="10"
     inkscape:pageopacity="0"
     inkscape:pageshadow="2"
     inkscape:window-width="1314"
     inkscape:window-height="751"
     id="namedview1035"
     showgrid="false"
     showguides="false"
     inkscape:zoom="1.63"
     inkscape:cx="151.86747"
     inkscape:cy="110.64738"
     inkscape:window-x="85"
     inkscape:window-y="29"
     inkscape:window-maximized="0"
     inkscape:current-layer="Layer_1" />
  <circle
     r="145"
     cy="148.59415"
     cx="150.32199"
     id="path1192"
     style="fill:#7cf4a3;fill-opacity:1;stroke:none;stroke-width:6.72787;stroke-linecap:round;stroke-linejoin:round;stroke-miterlimit:4;stroke-dasharray:none;stroke-opacity:1;paint-order:stroke fill markers" />
  <g
     id="g1615"
     transform="matrix(0.38808222,0,0,0.38808222,27.764457,274.49966)" />
  <path
     d="M 151.06641 50.203125 A 100 100 0 0 0 51.066406 150.20312 A 100 100 0 0 0 151.06641 250.20312 A 100 100 0 0 0 251.06641 150.20312 A 100 100 0 0 0 151.06641 50.203125 z M 149.0918 90.818359 A 60 60 0 0 1 209.0918 150.81836 A 60 60 0 0 1 149.0918 210.81836 A 60 60 0 0 1 89.091797 150.81836 A 60 60 0 0 1 149.0918 90.818359 z "
     style="fill:#ffe84e;fill-opacity:1;stroke:none;stroke-width:4.63992;stroke-linecap:round;stroke-linejoin:round;stroke-miterlimit:4;stroke-dasharray:none;stroke-opacity:1;paint-order:stroke fill markers"
     id="path1192-9-0" />
  <g
     transform="matrix(0.27876606,0,0,0.27876606,17.535117,28.379907)"
     id="g2517">
    <g
       transform="translate(0,-1)"
       id="g2459">
      <path
         inkscape:connector-curvature="0"
         style="fill:#dbb38d"
         d="m 297.542,467.779 c -17.363,11.776 -32.669,27.298 -55.17,27.298 -22.501,0 -37.807,-15.522 -55.17,-27.298 -8.461,-5.74 -17.058,-11.345 -25.429,-17.246 v 62.509 h 161.684 v -62.841 c -8.516,6.036 -17.292,11.731 -25.915,17.578"
         id="path2453" />
      <path
         inkscape:connector-curvature="0"
         style="fill:#fdd7ad"
         d="m 134.239,179.963 c 33.307,-26.094 72.443,-44.185 72.443,-44.185 52.215,128 188.632,135.752 188.632,135.752 0,56.401 -4.392,118.443 -46.933,158.828 -15.261,14.489 -33.235,25.645 -50.589,37.421 -17.372,11.776 -32.678,27.298 -55.179,27.298 -22.492,0 -37.807,-15.522 -55.17,-27.298 C 170.089,456.003 152.115,444.847 136.854,430.358 94.313,389.973 89.912,327.931 89.912,271.53 c -0.001,-35.687 16.23,-69.56 44.327,-91.567"
         id="path2455" />
      <path
         inkscape:connector-curvature="0"
         style="fill:#804537;stroke:#bd6140;stroke-opacity:1"
         d="M 463.591,292.999 431.245,171.709 C 371.179,-6.252 269.561,1.042 269.561,1.042 c 0,0 -172.778,3.772 -213.181,202.626 -1.302,6.404 -2.479,12.764 -3.925,19.151 -5.704,25.133 -22.824,122.862 28.474,218.364 0,0 -7.24,-35.741 35.642,-35.912 -23.759,-38.598 -26.66,-88.019 -26.66,-133.74 0,-35.687 16.231,-69.56 44.328,-91.567 33.307,-26.094 72.444,-44.185 72.444,-44.185 52.215,128 188.632,135.752 188.632,135.752 0,53.059 -3.907,111.086 -39.774,151.408 l 3.845,0.278 c 61.197,-8.138 88.145,-44.068 99.795,-68.985 8.91,-19.061 9.835,-40.897 4.41,-61.233"
         id="path2457" />
    </g>
    <g
       id="g2461" />
    <g
       id="g2463" />
    <g
       id="g2465" />
    <g
       id="g2467" />
    <g
       id="g2469" />
    <g
       id="g2471" />
    <g
       id="g2473" />
    <g
       id="g2475" />
    <g
       id="g2477" />
    <g
       id="g2479" />
    <g
       id="g2481" />
    <g
       id="g2483" />
    <g
       id="g2485" />
    <g
       id="g2487" />
    <g
       id="g2489" />
  </g>
  <ellipse
     style="fill:#505050;fill-opacity:1;stroke:none;stroke-width:1.175;stroke-linecap:round;stroke-linejoin:round;stroke-opacity:1;paint-order:stroke fill markers"
     id="path2309-0"
     cx="104.64287"
     cy="103.68571"
     rx="3.3571429"
     ry="9.0642853" />
  <path
     inkscape:transform-center-y="-4.08281"
     inkscape:transform-center-x="-0.3176017"
     sodipodi:nodetypes="ccccccc"
     inkscape:connector-curvature="0"
     id="path1592"
     d="m 93.234997,241.48782 25.945583,-17.29012 -1.66855,-33.3138 13.40474,8.86178 5.09713,32.17092 -31.65987,15.00442 z"
     style="fill:#7cf4a3;fill-opacity:1;stroke:none;stroke-width:1px;stroke-linecap:butt;stroke-linejoin:miter;stroke-opacity:1" />
  <path
     style="fill:#7cf4a3;fill-opacity:1;stroke:none;stroke-width:1px;stroke-linecap:butt;stroke-linejoin:miter;stroke-opacity:1"
     d="M 177.85812,106.64505 174.582,77.10911 197.43659,54.044623 180.6648,49.811373 c 5.27027,-3.130628 -17.33163,12.51919 -26.28316,17.921641 l 14.13325,38.107366 z"
     id="path1592-6"
     inkscape:connector-curvature="0"
     sodipodi:nodetypes="ccccccc" />
  <path
     sodipodi:nodetypes="cccc"
     inkscape:connector-curvature="0"
     id="path1624-0-2"
     d="m 123.75201,227.62627 -6.34607,-45.6561 -36.266027,65.03304 z"
     style="fill:#ffe84e;fill-opacity:1;stroke:none;stroke-width:1px;stroke-linecap:butt;stroke-linejoin:miter;stroke-opacity:1" />
  <path
     style="fill:#ffe84e;fill-opacity:1;stroke:none;stroke-width:1px;stroke-linecap:butt;stroke-linejoin:miter;stroke-opacity:1"
     d="M 167.05935,71.122041 206.11623,46.641184 179.60057,116.22164 Z"
     id="path1624-0-2-5"
     inkscape:connector-curvature="0"
     sodipodi:nodetypes="cccc" />
  <g
     transform="matrix(0.30156339,0,0,0.30156339,137.36407,109.42392)"
     id="g2583">
    <g
       transform="translate(-1,-1)"
       id="g2525">
      <path
         inkscape:connector-curvature="0"
         style="fill:#dbb38d"
         d="m 301.389,468.546 c -17.064,11.573 -32.106,26.827 -54.219,26.827 -22.113,0 -37.155,-15.254 -54.219,-26.827 -8.316,-5.641 -16.764,-11.149 -24.991,-16.949 v 61.431 H 326.857 V 451.27 c -8.369,5.933 -16.993,11.529 -25.468,17.276"
         id="path2519" />
      <path
         inkscape:connector-curvature="0"
         style="fill:#fdd7ad"
         d="m 397.721,195.236 c 0,-7.318 -1.483,-14.283 -4.158,-20.63 -10.108,-23.905 -38.391,-33.66 -62.791,-24.832 -13.294,4.811 -38.179,10.152 -83.121,10.152 -44.942,0 -69.826,-5.341 -83.121,-10.152 -24.399,-8.828 -52.692,0.927 -62.791,24.832 -2.684,6.338 -4.158,13.312 -4.158,20.63 l -0.238,80.446 c 0,55.428 4.317,116.401 46.124,156.089 14.998,14.239 32.662,25.203 49.726,36.776 17.064,11.564 32.106,26.827 54.219,26.827 22.113,0 37.155,-15.263 54.219,-26.827 17.055,-11.573 34.719,-22.537 49.717,-36.776 41.807,-39.689 46.371,-101.667 46.371,-157.087 v -79.448 z"
         id="path2521" />
      <path
         inkscape:connector-curvature="0"
         style="fill:#555555;fill-opacity:1"
         d="m 450.446,142.27 c -3.151,-38.232 -30.844,-38.559 -50.591,-33.721 -9.86,2.419 -20.039,-3.831 -21.919,-13.815 C 359.486,-3.332 212.101,1.029 212.101,1.029 c 0,0 -120.276,-2.578 -150.069,52.966 0,0 42.169,14.345 35.549,141.241 0,-7.318 1.483,-14.292 4.167,-20.63 10.099,-23.905 38.382,-33.66 62.782,-24.832 13.294,4.811 38.188,10.152 83.121,10.152 44.941,0 69.826,-5.341 83.121,-10.152 24.408,-8.828 52.692,0.927 62.791,24.832 2.675,6.338 4.158,13.312 4.158,20.63 v 79.448 c 0,8.678 -0.141,17.523 -0.486,26.412 l 0.247,0.071 C 466.168,232.48 450.446,142.27 450.446,142.27"
         id="path2523" />
    </g>
    <g
       id="g2527" />
    <g
       id="g2529" />
    <g
       id="g2531" />
    <g
       id="g2533" />
    <g
       id="g2535" />
    <g
       id="g2537" />
    <g
       id="g2539" />
    <g
       id="g2541" />
    <g
       id="g2543" />
    <g
       id="g2545" />
    <g
       id="g2547" />
    <g
       id="g2549" />
    <g
       id="g2551" />
    <g
       id="g2553" />
    <g
       id="g2555" />
  </g>
  <path
     sodipodi:nodetypes="csccc"
     inkscape:connector-curvature="0"
     d="m 85.829996,104.1456 c 1.080301,5.7038 3.121046,13.57606 3.578453,17.25498 0.597634,4.80675 4.016482,5.50913 4.016482,5.50913 l -8,0.14499 0.405065,-22.9091"
     style="fill:#deaa87;fill-opacity:1;stroke:none;stroke-width:0.724395px;stroke-linecap:butt;stroke-linejoin:miter;stroke-opacity:1"
     id="path2345" />
  <path
     id="path2345-5"
     style="fill:#deaa87;fill-opacity:1;stroke:none;stroke-width:0.856143px;stroke-linecap:butt;stroke-linejoin:miter;stroke-opacity:1"
     d="m 207.02352,182.85714 c -1.0803,7.9672 -3.12105,18.96338 -3.57845,24.10218 -0.59764,6.71419 -4.01649,7.69529 -4.01649,7.69529 l 8,0.20253 -0.40506,-32.00001"
     inkscape:connector-curvature="0"
     sodipodi:nodetypes="csccc" />
  <ellipse
     ry="9.0642853"
     rx="3.3571429"
     cy="103.92142"
     cx="66.214279"
     id="path2309"
     style="fill:#505050;fill-opacity:1;stroke:none;stroke-width:1.175;stroke-linecap:round;stroke-linejoin:round;stroke-opacity:1;paint-order:stroke fill markers" />
  <ellipse
     ry="8.7032967"
     rx="3.2234433"
     cy="189.56044"
     cx="188.93773"
     id="path2309-0-0"
     style="fill:#505050;fill-opacity:1;stroke:none;stroke-width:1.12821;stroke-linecap:round;stroke-linejoin:round;stroke-opacity:1;paint-order:stroke fill markers" />
  <ellipse
     style="fill:#505050;fill-opacity:1;stroke:none;stroke-width:1.12821;stroke-linecap:round;stroke-linejoin:round;stroke-opacity:1;paint-order:stroke fill markers"
     id="path2309-0-0-5"
     cx="225.91942"
     cy="188.98903"
     rx="3.2234433"
     ry="8.7032967" />
  <ellipse
     inkscape:transform-center-y="-7.6678407"
     inkscape:transform-center-x="5.5099767"
     transform="matrix(-0.05381215,0.99855108,-0.99992914,0.01190469,0,0)"
     style="fill:#e9afaf;fill-opacity:1;stroke:none;stroke-width:1.61388;stroke-linecap:round;stroke-linejoin:round;stroke-opacity:1;paint-order:stroke fill markers"
     id="path2309-04"
     cx="144.37048"
     cy="-94.092369"
     rx="6.4527822"
     ry="8.8965378" />
  <ellipse
     ry="15.330804"
     rx="6.7836299"
     cy="-234.15422"
     cx="232.52707"
     id="path2309-04-9"
     style="fill:#e9afaf;fill-opacity:1;stroke:none;stroke-width:2.17221;stroke-linecap:round;stroke-linejoin:round;stroke-opacity:1;paint-order:stroke fill markers"
     transform="matrix(-0.08821217,0.99610171,-0.99997376,0.00724473,0,0)"
     inkscape:transform-center-x="9.4953843"
     inkscape:transform-center-y="-8.0412366" />
  <path
     transform="matrix(0.98639839,0,0,1.9619398,-44.980268,-171.56827)"
     style="fill:none;stroke:#5d5d5d;stroke-width:1px;stroke-linecap:butt;stroke-linejoin:miter;stroke-opacity:1"
     d="m 243.08511,176.59574 c -2.52821,-2.13724 -5.69729,-3.50631 -8.98641,-3.8822 -3.28912,-0.3759 -6.68538,0.24285 -9.63061,1.75455 -1.13994,0.5851 -2.21296,1.30044 -3.19149,2.12765"
     id="path957-9"
     inkscape:connector-curvature="0"
     inkscape:path-effect="#path-effect959-7"
     inkscape:original-d="m 243.08511,176.59574 c -6.02737,-0.35361 -12.41035,-1.41744 -18.61702,-2.12765 -6.20668,-0.71022 -2.12666,1.41943 -3.19149,2.12765" />
  <path
     inkscape:original-d="m 243.08511,176.59574 c -6.02737,-0.35361 -12.41035,-1.41744 -18.61702,-2.12765 -6.20668,-0.71022 -2.12666,1.41943 -3.19149,2.12765"
     inkscape:path-effect="#path-effect959-7-5"
     inkscape:connector-curvature="0"
     id="path957-9-0"
     d="m 243.08511,176.59574 c -2.52821,-2.13724 -5.69729,-3.50631 -8.98641,-3.8822 -3.28912,-0.3759 -6.68538,0.24285 -9.63061,1.75455 -1.13994,0.5851 -2.21296,1.30044 -3.19149,2.12765"
     style="fill:none;stroke:#5d5d5d;stroke-width:1px;stroke-linecap:butt;stroke-linejoin:miter;stroke-opacity:1"
     transform="matrix(-0.98639839,0,0,1.9619398,458.27814,-171.56828)" />
  <path
     transform="matrix(-0.49249513,-0.80151812,-1.0466962,0.68844086,188.58028,90.151509)"
     inkscape:original-d="m 76.06383,95.744681 c -2.12666,-6.381979 -4.254319,-12.764958 -6.382979,-19.148936 -2.12866,-6.383979 -1.06283,0.001 -1.595745,0"
     inkscape:path-effect="#path-effect1003"
     inkscape:connector-curvature="0"
     id="path1001"
     d="m 76.06383,95.744681 c 1.615965,-1.407453 2.803455,-3.300464 3.367304,-5.367911 0.563849,-2.067448 0.501848,-4.301229 -0.175815,-6.334217 -0.677663,-2.032987 -1.96833,-3.857213 -3.659878,-5.172862 -1.691548,-1.315648 -3.777347,-2.117562 -5.91459,-2.273946 -0.530969,-0.03885 -1.064776,-0.03885 -1.595745,0"
     style="fill:none;stroke:#a87868;stroke-width:1.00152;stroke-linecap:butt;stroke-linejoin:miter;stroke-miterlimit:4;stroke-dasharray:none;stroke-opacity:1" />
</svg>
