<?xml version="1.0" encoding="UTF-8" standalone="no"?>
<svg
   xmlns:dc="http://purl.org/dc/elements/1.1/"
   xmlns:cc="http://creativecommons.org/ns#"
   xmlns:rdf="http://www.w3.org/1999/02/22-rdf-syntax-ns#"
   xmlns:svg="http://www.w3.org/2000/svg"
   xmlns="http://www.w3.org/2000/svg"
   xmlns:sodipodi="http://sodipodi.sourceforge.net/DTD/sodipodi-0.dtd"
   xmlns:inkscape="http://www.inkscape.org/namespaces/inkscape"
   id="Layer_1"
   enable-background="new 0 0 512 512"
   height="300"
   viewBox="0 0 300 300"
   width="300"
   version="1.1"
   sodipodi:docname="mindfullness.svg"
   inkscape:version="1.0beta2 (2b71d25, 2019-12-03)"
   inkscape:export-filename="/Users/mike.xiao/Documents/Projects/DBT_icons/dbt_icons/mindfullness.png"
   inkscape:export-xdpi="197.75999"
   inkscape:export-ydpi="197.75999">
  <metadata
     id="metadata1039">
    <rdf:RDF>
      <cc:Work
         rdf:about="">
        <dc:format>image/svg+xml</dc:format>
        <dc:type
           rdf:resource="http://purl.org/dc/dcmitype/StillImage" />
        <dc:title></dc:title>
      </cc:Work>
    </rdf:RDF>
  </metadata>
  <defs
     id="defs1037" />
  <sodipodi:namedview
     pagecolor="#ffffff"
     bordercolor="#666666"
     inkscape:document-rotation="0"
     borderopacity="1"
     objecttolerance="10"
     gridtolerance="10"
     guidetolerance="10"
     inkscape:pageopacity="0"
     inkscape:pageshadow="2"
     inkscape:window-width="1196"
     inkscape:window-height="757"
     id="namedview1035"
     showgrid="false"
     showguides="false"
     inkscape:zoom="1.1476306"
     inkscape:cx="207.91449"
     inkscape:cy="112.72679"
     inkscape:window-x="34"
     inkscape:window-y="26"
     inkscape:window-maximized="0"
     inkscape:current-layer="g1190" />
  <g
     id="g1615"
     transform="matrix(0.38808222,0,0,0.38808222,27.764457,274.49966)" />
  <g
     transform="matrix(8.8275862,0,0,8.8275862,-93.944458,-66.6275)"
     style="fill:none"
     fill-rule="nonzero"
     id="026---Idea">
    <g
       transform="matrix(0.59359584,0,0,0.59359584,7.3542778,20.132975)"
       id="g955">
      <g
         transform="rotate(-7.3027717,21.078659,10.514905)"
         id="g1168">
        <circle
           r="27.671658"
           transform="rotate(7.302771)"
           cy="4.5857015"
           cx="35.37389"
           id="path1192"
           style="fill:#3eb5f2;fill-opacity:1;stroke:none;stroke-width:1.28394;stroke-linecap:round;stroke-linejoin:round;stroke-miterlimit:4;stroke-dasharray:none;stroke-opacity:1;paint-order:stroke fill markers" />
        <g
           transform="matrix(1.2364094,0,0,1.2364094,-8.4925384,-4.2613102)"
           id="g1190">
          <circle
             r="14.540156"
             transform="rotate(7.302772)"
             cy="6.8159385"
             cx="35.924587"
             id="path1234"
             style="fill:none;fill-opacity:1;stroke:#67d2f8;stroke-width:1.01782;stroke-linecap:round;stroke-linejoin:round;stroke-miterlimit:4;stroke-dasharray:none;stroke-opacity:1;paint-order:stroke fill markers" />
          <circle
             transform="rotate(7.3027717)"
             style="fill:none;fill-opacity:1;stroke:#67d2f8;stroke-width:0.995622;stroke-linecap:round;stroke-linejoin:round;stroke-miterlimit:4;stroke-dasharray:none;stroke-opacity:1;paint-order:stroke fill markers"
             id="path1234-7"
             cx="35.692692"
             cy="6.8530316"
             r="10.306645" />
          <g
             transform="matrix(0.85234266,0.16626805,-0.16626805,0.85234266,12.739187,-12.656624)"
             id="g866">
            <path
               inkscape:connector-curvature="0"
               fill="#fb7b76"
               d="m 41.589134,23.405323 c -6.48e-4,0.497192 -0.104159,0.988873 -0.304026,1.444125 -0.143709,0.335619 -0.337035,0.647736 -0.573505,0.925898 -0.02073,0.02764 -0.04837,0.05528 -0.0691,0.08292 -0.286008,1.531491 -1.24838,2.851897 -2.618772,3.593038 0.276298,0.370093 0.50388,0.774166 0.677149,1.202286 0.08983,0.207291 0.165833,0.421491 0.234929,0.635691 0.0465,0.142773 0.06982,0.29207 0.0691,0.442221 -0.0019,0.573926 -0.343745,1.092161 -0.87062,1.31975 -0.598493,0.244829 -1.286723,0.06785 -1.692874,-0.43531 -0.455619,-0.528701 -1.048731,-0.92092 -1.713603,-1.133189 -0.916279,-0.223167 -1.754624,-0.691303 -2.4253,-1.354299 -0.314758,-0.382534 -0.503067,-0.853308 -0.538956,-1.347389 h -0.04146 c -0.742967,6.91e-4 -1.479281,-0.139988 -2.169642,-0.414582 -0.121307,0.143222 -0.255452,0.275055 -0.400762,0.393852 -0.653012,0.568539 -1.490379,0.880403 -2.356204,0.877531 -1.537594,0.0024 -2.910192,-0.963414 -3.427206,-2.411481 -0.0077,-0.0126 -0.01239,-0.02678 -0.01382,-0.04146 -0.43409,0.156696 -0.887281,0.254306 -1.347389,0.290206 -0.117465,0.0069 -0.23493,0.01382 -0.359304,0.01382 -1.867502,-0.0013 -3.574433,-1.056239 -4.410775,-2.725999 -0.836342,-1.669759 -0.658933,-3.668516 0.458433,-5.164865 -0.08311,-0.225645 -0.125232,-0.464326 -0.124374,-0.704789 -0.0041,-1.02114 0.713084,-1.903233 1.713602,-2.107455 0.0037,-0.0037 0.0086,-0.0061 0.01382,-0.0069 -0.0069,-0.08292 -0.01382,-0.165833 -0.01382,-0.255659 -8.98e-4,-0.383228 0.07914,-0.762327 0.23493,-1.11246 0.440872,-1.019634 1.445719,-1.679574 2.556585,-1.679054 0.418946,-0.002 0.832717,0.09258 1.209195,0.276388 0.735602,-1.238488 2.069649,-1.997424 3.510122,-1.996901 0.988326,-0.0036 1.943124,0.358152 2.680959,1.015725 0.423565,-0.683234 1.194016,-1.071793 1.995213,-1.00624 0.801198,0.06555 1.498243,0.574179 1.805116,1.317176 0.197325,-0.02204 0.395683,-0.03357 0.594233,-0.03455 2.677226,0.0044 4.905146,2.058204 5.126989,4.726227 h 0.02073 c 0.569294,-2e-6 1.11517,0.22662 1.517073,0.62982 0.401903,0.403199 0.626767,0.949803 0.62493,1.519093 -0.0013,0.372276 -0.09639,0.738221 -0.276387,1.064092 0.45854,0.627824 0.705381,1.385287 0.704788,2.162733 z"
               id="path845"
               style="stroke-width:0.690969" />
            <g
               id="g879"
               fill="#ff5364"
               transform="matrix(0.69096885,0,0,0.69096885,9.1135967,5.7925318)">
              <path
                 inkscape:connector-curvature="0"
                 d="m 45.73,28.92 c -0.03,0.04 -0.07,0.08 -0.1,0.12 -0.1762,0.963058 -0.543416,1.881096 -1.08,2.7 -0.523665,0.148612 -1.065663,0.222673 -1.61,0.22 -0.991025,-0.0028 -1.96743,-0.239213 -2.85,-0.69 -0.417785,-0.223568 -0.81008,-0.491804 -1.17,-0.8 -0.39886,0.154463 -0.822297,0.235763 -1.25,0.24 -1.320895,0.0068 -2.530828,-0.737762 -3.12,-1.92 -0.16077,-0.319753 -0.138741,-0.700986 0.05779,-1.000093 0.196529,-0.299107 0.537701,-0.470646 0.895,-0.45 0.357298,0.02065 0.676442,0.23034 0.837211,0.550093 0.1975,0.379155 0.547399,0.656023 0.961806,0.761057 0.414406,0.105034 0.85394,0.02825 1.208194,-0.211057 0.399963,-0.272984 0.639446,-0.725758 0.64,-1.21 0.0015,-0.231821 -0.04982,-0.460937 -0.15,-0.67 -0.20135,-0.483527 0.0045,-1.040496 0.471938,-1.276834 0.467424,-0.236338 1.038015,-0.07196 1.308062,0.376834 0.243159,0.487652 0.369816,1.025086 0.37,1.57 -0.0081,0.698734 -0.227745,1.378611 -0.63,1.95 0.16,0.11 0.32,0.22 0.48,0.31 0.600035,0.30886 1.26514,0.469993 1.94,0.47 1.025799,0.0057 2.018212,-0.364249 2.789999,-1.04 z"
                 id="path861" />
              <path
                 inkscape:connector-curvature="0"
                 d="m 33.5,24.994 c 1.295447,-0.892562 2.186311,-2.260302 2.479,-3.806 0.07445,-0.353861 -0.04793,-0.720351 -0.320069,-0.958473 -0.272139,-0.238121 -0.651631,-0.310773 -0.992478,-0.190006 -0.340847,0.120768 -0.589942,0.41614 -0.651453,0.772479 -0.196087,1.031393 -0.791168,1.943779 -1.656,2.539 -1.663749,1.120541 -3.895093,0.866208 -5.264,-0.6 -0.372516,-0.408691 -1.005809,-0.438016 -1.4145,-0.0655 -0.408691,0.372516 -0.438016,1.005809 -0.0655,1.4145 0.848305,0.936608 1.969421,1.583043 3.205,1.848 -0.560234,0.787422 -1.46762,1.254163 -2.434,1.252 -0.552285,0 -1,0.447715 -1,1 0,0.552285 0.447715,1 1,1 2.070157,0.0083 3.92763,-1.270323 4.659,-3.207 0.882342,-0.146643 1.720965,-0.487899 2.455,-0.999 z"
                 id="path863" />
              <path
                 inkscape:connector-curvature="0"
                 d="m 42.82,35.98 c -0.735058,0.375108 -1.524812,0.631609 -2.34,0.76 -0.05291,0.0083 -0.106472,0.01166 -0.16,0.01 -0.526659,0.0049 -0.966816,-0.399602 -1.006403,-0.924794 C 39.274009,35.300014 39.648563,34.83414 40.17,34.76 c 0.57979,-0.08775 1.142883,-0.263086 1.67,-0.52 0.399871,0.535614 0.729237,1.120406 0.98,1.74 z"
                 id="path865" />
              <path
                 inkscape:connector-curvature="0"
                 d="m 20.54,29 c -0.05048,0.280585 -0.07724,0.564923 -0.08,0.85 -0.002,0.375185 0.04847,0.748808 0.15,1.11 -0.628234,0.226778 -1.284112,0.368044 -1.95,0.42 -0.127992,-0.489894 -0.195164,-0.993686 -0.2,-1.5 -1.761454,-0.192118 -3.096687,-1.678103 -3.1,-3.45 -0.0033,-0.55693 0.443113,-1.012321 1,-1.02 0.263971,-0.0016 0.517736,0.101876 0.705331,0.287595 C 17.252926,25.883314 17.358943,26.136026 17.36,26.4 v 0.03 c 0.01495,0.790215 0.640498,1.433258 1.43,1.47 0.138258,-0.45105 0.329598,-0.884083 0.57,-1.29 0.134283,-0.229308 0.355439,-0.394707 0.613348,-0.458714 0.25791,-0.06401 0.530737,-0.0212 0.756652,0.118714 0.47022,0.290661 0.621373,0.904164 0.34,1.38 -0.253925,0.415707 -0.433287,0.872573 -0.53,1.35 z"
                 id="path867" />
              <path
                 inkscape:connector-curvature="0"
                 d="m 35.41,34.85 c -0.600867,0.192216 -1.221424,0.316328 -1.85,0.37 -0.45553,-0.55362 -0.728059,-1.234944 -0.78,-1.95 0.09678,0.0018 0.193581,-0.0015 0.29,-0.01 0.593863,-0.03768 1.181232,-0.145084 1.75,-0.32 0.344893,-0.1183 0.726838,-0.0395 0.996755,0.20563 0.269917,0.245135 0.385018,0.61775 0.300378,0.972408 C 36.032492,34.472696 35.761527,34.753175 35.41,34.85 Z"
                 id="path869" />
              <path
                 inkscape:connector-curvature="0"
                 d="m 26.8,17 c 0,-0.552285 -0.447715,-1 -1,-1 -2.539368,0.0028 -4.597244,2.060632 -4.6,4.6 0,0.552285 0.447715,1 1,1 0.552285,0 1,-0.447715 1,-1 0,-0.689563 0.273928,-1.350883 0.761522,-1.838478 C 24.449117,18.273928 25.110437,18 25.8,18 c 0.552285,0 1,-0.447715 1,-1 z"
                 id="path871" />
              <path
                 inkscape:connector-curvature="0"
                 d="m 13.748,22.623 c -0.181633,2.01e-4 -0.359813,-0.04962 -0.515,-0.144 -0.824606,-0.497581 -1.448505,-1.268696 -1.763,-2.179 -0.152124,-0.432776 -0.229561,-0.888266 -0.229,-1.347 -10e-6,-2.266317 1.833693,-4.105386 4.1,-4.112 1.298595,-0.005 2.521172,0.611711 3.289,1.659 0.213109,0.286884 0.256979,0.665669 0.115084,0.993668 -0.141894,0.328 -0.447996,0.555385 -0.803,0.5965 -0.355003,0.04112 -0.704975,-0.110284 -0.918084,-0.397168 -0.391942,-0.534799 -1.015958,-0.849967 -1.679,-0.848 -0.946513,0.0053 -1.774018,0.63943 -2.025309,1.551991 -0.251292,0.912561 0.134945,1.880904 0.945309,2.370009 0.385323,0.231694 0.568637,0.692063 0.448048,1.125207 -0.12059,0.433144 -0.515432,0.732551 -0.965048,0.731793 z"
                 id="path873" />
              <path
                 inkscape:connector-curvature="0"
                 d="m 35.207,13.111 c -0.552285,0 -1,-0.447715 -1,-1 0,-1.161731 -0.941769,-2.1035 -2.1035,-2.1035 -1.161731,0 -2.1035,0.941769 -2.1035,2.1035 0,0.552285 -0.447715,1 -1,1 -0.552285,0 -1,-0.447715 -1,-1 0,-2.2663005 1.8372,-4.1035 4.1035,-4.1035 2.266301,0 4.1035,1.8371995 4.1035,4.1035 0,0.265217 -0.105357,0.51957 -0.292893,0.707107 C 35.72657,13.005643 35.472217,13.111 35.207,13.111 Z"
                 id="path875" />
              <path
                 inkscape:connector-curvature="0"
                 d="M 44.587,24.641 C 44.122695,24.6365 43.722601,24.312905 43.621017,23.859827 43.519432,23.406749 43.743084,22.943349 44.161,22.741 c 0.398517,-0.187255 0.729317,-0.493254 0.947,-0.876 0.508733,-0.866971 0.331744,-1.972873 -0.42215,-2.637773 -0.753895,-0.6649 -1.873245,-0.702309 -2.66985,-0.08923 -0.441828,0.331371 -1.068629,0.241828 -1.4,-0.2 -0.331371,-0.441828 -0.241828,-1.068629 0.2,-1.4 0.699796,-0.529812 1.552282,-0.818885 2.43,-0.824 1.932007,-0.01311 3.612445,1.320895 4.037956,3.205507 0.425511,1.884612 -0.518739,3.811225 -2.268956,4.629493 -0.133981,0.06232 -0.280245,0.09376 -0.428,0.092 z"
                 id="path877" />
            </g>
          </g>
          <circle
             transform="rotate(7.3027717)"
             style="fill:none;fill-opacity:1;stroke:#67d2f8;stroke-width:1.08045;stroke-linecap:round;stroke-linejoin:round;stroke-miterlimit:4;stroke-dasharray:none;stroke-opacity:1;paint-order:stroke fill markers"
             id="path1234-8"
             cx="35.897259"
             cy="6.3851252"
             r="18.641226" />
        </g>
      </g>
    </g>
  </g>
</svg>
