<?xml version="1.0" encoding="UTF-8" standalone="no"?>
<svg
   xmlns:dc="http://purl.org/dc/elements/1.1/"
   xmlns:cc="http://creativecommons.org/ns#"
   xmlns:rdf="http://www.w3.org/1999/02/22-rdf-syntax-ns#"
   xmlns:svg="http://www.w3.org/2000/svg"
   xmlns="http://www.w3.org/2000/svg"
   xmlns:sodipodi="http://sodipodi.sourceforge.net/DTD/sodipodi-0.dtd"
   xmlns:inkscape="http://www.inkscape.org/namespaces/inkscape"
   width="30"
   height="30"
   viewBox="0 0 7.9374997 7.937501"
   version="1.1"
   id="svg870"
   inkscape:version="1.0beta2 (2b71d25, 2019-12-03)"
   sodipodi:docname="moment.svg"
   inkscape:export-filename="/Users/mike.xiao/Documents/Projects/DBT_icons/dbt_icons/moment.png"
   inkscape:export-xdpi="358.39999"
   inkscape:export-ydpi="358.39999">
  <defs
     id="defs864" />
  <sodipodi:namedview
     id="base"
     pagecolor="#ffffff"
     bordercolor="#666666"
     borderopacity="1.0"
     inkscape:pageopacity="0.0"
     inkscape:pageshadow="2"
     inkscape:zoom="8.8742843"
     inkscape:cx="-2.6994941"
     inkscape:cy="7.5513433"
     inkscape:document-units="mm"
     inkscape:current-layer="layer1"
     inkscape:document-rotation="0"
     showgrid="false"
     units="px"
     inkscape:window-width="1137"
     inkscape:window-height="664"
     inkscape:window-x="159"
     inkscape:window-y="54"
     inkscape:window-maximized="0" />
  <metadata
     id="metadata867">
    <rdf:RDF>
      <cc:Work
         rdf:about="">
        <dc:format>image/svg+xml</dc:format>
        <dc:type
           rdf:resource="http://purl.org/dc/dcmitype/StillImage" />
        <dc:title />
      </cc:Work>
    </rdf:RDF>
  </metadata>
  <g
     inkscape:label="Layer 1"
     inkscape:groupmode="layer"
     id="layer1">
    <circle
       style="opacity:0.998058;fill:#0066ff;stroke-width:0.482293;stroke-linecap:round;stroke-linejoin:round;paint-order:stroke fill markers;fill-opacity:1"
       id="path5405"
       cx="4.0428591"
       cy="3.938956"
       r="3.8364584" />
    <g
       id="g5522"
       transform="matrix(0.0149622,0,0,0.0149622,0.1761649,3.5121586)">
      <path
         id="path5618"
         style="fill:#ededed;stroke-width:0.05655"
         d="M 3.7617188 24.037109 A 14.500001 14.500001 0 0 0 3.9550781 24.277344 A 14.500001 14.500001 0 0 0 4.1621094 24.523438 A 14.500001 14.500001 0 0 0 4.3730469 24.763672 A 14.500001 14.500001 0 0 0 4.5898438 25 A 14.500001 14.500001 0 0 0 4.8105469 25.230469 A 14.500001 14.500001 0 0 0 5.0371094 25.457031 A 14.500001 14.500001 0 0 0 5.2695312 25.677734 A 14.500001 14.500001 0 0 0 5.5058594 25.894531 A 14.500001 14.500001 0 0 0 5.7460938 26.103516 A 14.500001 14.500001 0 0 0 5.9921875 26.310547 A 14.500001 14.500001 0 0 0 6.2421875 26.509766 A 14.500001 14.500001 0 0 0 6.4980469 26.703125 A 14.500001 14.500001 0 0 0 6.7558594 26.892578 A 14.500001 14.500001 0 0 0 7.0195312 27.074219 A 14.500001 14.500001 0 0 0 7.2871094 27.251953 A 14.500001 14.500001 0 0 0 7.5566406 27.421875 A 14.500001 14.500001 0 0 0 7.8320312 27.587891 A 14.500001 14.500001 0 0 0 8.109375 27.746094 A 14.500001 14.500001 0 0 0 8.390625 27.898438 A 14.500001 14.500001 0 0 0 8.6757812 28.044922 A 14.500001 14.500001 0 0 0 8.9648438 28.185547 A 14.500001 14.500001 0 0 0 9.2558594 28.318359 A 14.500001 14.500001 0 0 0 9.5488281 28.445312 A 14.500001 14.500001 0 0 0 9.8457031 28.566406 A 14.500001 14.500001 0 0 0 10.144531 28.681641 A 14.500001 14.500001 0 0 0 10.445312 28.789062 A 14.500001 14.500001 0 0 0 10.75 28.888672 A 14.500001 14.500001 0 0 0 11.056641 28.982422 A 14.500001 14.500001 0 0 0 11.363281 29.070312 A 14.500001 14.500001 0 0 0 11.673828 29.150391 A 14.500001 14.500001 0 0 0 11.986328 29.224609 A 14.500001 14.500001 0 0 0 12.298828 29.291016 A 14.500001 14.500001 0 0 0 12.613281 29.351562 A 14.500001 14.500001 0 0 0 12.929688 29.404297 A 14.500001 14.500001 0 0 0 13.246094 29.449219 A 14.500001 14.500001 0 0 0 13.564453 29.488281 A 14.500001 14.500001 0 0 0 13.882812 29.519531 A 14.500001 14.500001 0 0 0 14.201172 29.544922 A 14.500001 14.500001 0 0 0 14.521484 29.5625 A 14.500001 14.500001 0 0 0 14.841797 29.572266 A 14.500001 14.500001 0 0 0 15.162109 29.576172 A 14.500001 14.500001 0 0 0 15.203125 29.576172 A 14.500001 14.500001 0 0 0 15.523438 29.572266 A 14.500001 14.500001 0 0 0 15.84375 29.560547 A 14.500001 14.500001 0 0 0 16.164062 29.542969 A 14.500001 14.500001 0 0 0 16.482422 29.515625 A 14.500001 14.500001 0 0 0 16.800781 29.484375 A 14.500001 14.500001 0 0 0 17.119141 29.443359 A 14.500001 14.500001 0 0 0 17.435547 29.396484 A 14.500001 14.500001 0 0 0 17.751953 29.34375 A 14.500001 14.500001 0 0 0 18.066406 29.283203 A 14.500001 14.500001 0 0 0 18.378906 29.214844 A 14.500001 14.500001 0 0 0 18.689453 29.140625 A 14.500001 14.500001 0 0 0 19 29.058594 A 14.500001 14.500001 0 0 0 19.308594 28.970703 A 14.500001 14.500001 0 0 0 19.613281 28.876953 A 14.500001 14.500001 0 0 0 19.917969 28.775391 A 14.500001 14.500001 0 0 0 20.21875 28.666016 A 14.500001 14.500001 0 0 0 20.517578 28.550781 A 14.500001 14.500001 0 0 0 20.814453 28.429688 A 14.500001 14.500001 0 0 0 21.107422 28.300781 A 14.500001 14.500001 0 0 0 21.398438 28.167969 A 14.500001 14.500001 0 0 0 21.685547 28.025391 A 14.500001 14.500001 0 0 0 21.96875 27.878906 A 14.500001 14.500001 0 0 0 22.25 27.726562 A 14.500001 14.500001 0 0 0 22.527344 27.566406 A 14.500001 14.500001 0 0 0 22.802734 27.400391 A 14.500001 14.500001 0 0 0 23.072266 27.228516 A 14.500001 14.500001 0 0 0 23.339844 27.050781 A 14.500001 14.500001 0 0 0 23.601562 26.867188 A 14.500001 14.500001 0 0 0 23.859375 26.677734 A 14.500001 14.500001 0 0 0 24.113281 26.484375 A 14.500001 14.500001 0 0 0 24.363281 26.283203 A 14.500001 14.500001 0 0 0 24.609375 26.076172 A 14.500001 14.500001 0 0 0 24.849609 25.865234 A 14.500001 14.500001 0 0 0 25.085938 25.648438 A 14.500001 14.500001 0 0 0 25.316406 25.427734 A 14.500001 14.500001 0 0 0 25.542969 25.201172 A 14.500001 14.500001 0 0 0 25.763672 24.96875 A 14.500001 14.500001 0 0 0 25.978516 24.732422 A 14.500001 14.500001 0 0 0 26.189453 24.492188 A 14.500001 14.500001 0 0 0 26.394531 24.246094 A 14.500001 14.500001 0 0 0 26.59375 23.996094 A 14.500001 14.500001 0 0 0 26.607422 23.978516 C 25.978805 22.070505 24.947246 20.34722 23.529297 18.990234 C 23.07356 18.553103 22.584374 18.15087 22.064453 17.789062 C 21.366965 17.303411 20.615946 16.890543 19.822266 16.558594 C 18.382615 15.955148 16.801587 15.621094 15.142578 15.621094 C 9.7606579 15.621094 5.3484416 19.185775 3.7617188 24.037109 z "
         transform="matrix(17.683451,0,0,17.683451,-11.773997,-234.73544)" />
      <path
         id="path5637"
         style="fill:#c2c2c2;stroke-width:0.05655"
         d="M 22.714844 27.417969 A 14.500001 14.500001 0 0 0 22.886719 27.314453 A 14.500001 14.500001 0 0 0 23.158203 27.142578 A 14.500001 14.500001 0 0 0 23.423828 26.966797 A 14.500001 14.500001 0 0 0 23.685547 26.783203 A 14.500001 14.500001 0 0 0 23.945312 26.59375 A 14.500001 14.500001 0 0 0 24.199219 26.398438 A 14.500001 14.500001 0 0 0 24.449219 26.197266 A 14.500001 14.500001 0 0 0 24.693359 25.992188 A 14.500001 14.500001 0 0 0 24.933594 25.78125 A 14.500001 14.500001 0 0 0 25.169922 25.564453 A 14.500001 14.500001 0 0 0 25.400391 25.341797 A 14.500001 14.500001 0 0 0 25.626953 25.115234 A 14.500001 14.500001 0 0 0 25.847656 24.884766 A 14.500001 14.500001 0 0 0 26.064453 24.648438 A 14.500001 14.500001 0 0 0 26.275391 24.40625 A 14.500001 14.500001 0 0 0 26.480469 24.160156 A 14.500001 14.500001 0 0 0 26.611328 23.994141 C 25.983495 22.079924 24.951064 20.350806 23.529297 18.990234 C 23.07356 18.553103 22.584374 18.150813 22.064453 17.789062 C 21.366965 17.303467 20.615946 16.890486 19.822266 16.558594 C 18.382615 15.955092 16.801643 15.621094 15.142578 15.621094 C 14.370048 15.621094 13.615192 15.696002 12.882812 15.833984 C 13.72292 15.992325 14.531588 16.236145 15.300781 16.558594 C 16.094461 16.890543 16.84548 17.303467 17.542969 17.789062 C 18.06289 18.15087 18.552019 18.553159 19.007812 18.990234 C 21.236924 21.123453 22.623153 24.109737 22.714844 27.417969 z "
         transform="matrix(17.683451,0,0,17.683451,-11.773997,-234.73544)" />
      <g
         id="g5425">
        <path
           id="path5417"
           d="m 255.99,123.379 c -5.771,0 -10.449,-4.678 -10.449,-10.449 V 77.416 c 0,-5.771 4.678,-10.449 10.449,-10.449 5.771,0 10.449,4.678 10.449,10.449 v 35.514 c 0,5.771 -4.68,10.449 -10.449,10.449 z"
           style="fill:#323b5b"
           inkscape:connector-curvature="0" />
      </g>
      <path
         id="path5597"
         style="fill:#e33958;stroke-width:0.05655"
         d="M 3.3574219 23.03125 A 14.500001 14.500001 0 0 0 3.4570312 23.175781 A 14.500001 14.500001 0 0 0 3.6445312 23.433594 A 14.500001 14.500001 0 0 0 3.8398438 23.6875 A 14.500001 14.500001 0 0 0 4.0410156 23.9375 A 14.500001 14.500001 0 0 0 4.2460938 24.183594 A 14.500001 14.500001 0 0 0 4.3105469 24.257812 C 5.8113747 19.627521 10.017779 16.212891 15.142578 16.212891 C 20.334206 16.212891 24.568192 19.72377 26.011719 24.449219 A 14.500001 14.500001 0 0 0 26.064453 24.392578 A 14.500001 14.500001 0 0 0 26.275391 24.150391 A 14.500001 14.500001 0 0 0 26.480469 23.904297 A 14.500001 14.500001 0 0 0 26.679688 23.654297 A 14.500001 14.500001 0 0 0 26.873047 23.400391 A 14.500001 14.500001 0 0 0 26.994141 23.236328 C 25.165248 18.452686 20.561389 15.03125 15.142578 15.03125 C 9.7987487 15.03125 5.2370837 18.352776 3.3574219 23.03125 z "
         transform="matrix(17.683451,0,0,17.683451,-11.773997,-234.73544)" />
      <g
         id="g5445">
        <path
           id="path5427"
           d="m 379.897,194.914 c -4.356,0 -8.376,-2.823 -9.838,-6.93 -1.463,-4.109 -0.176,-8.828 3.209,-11.594 3.436,-2.807 8.371,-3.116 12.142,-0.792 3.726,2.295 5.645,6.882 4.68,11.148 -1.066,4.709 -5.354,8.168 -10.193,8.168 z"
           style="fill:#474f70"
           inkscape:connector-curvature="0" />
        <path
           id="path5431"
           d="m 327.526,142.544 c -4.379,0 -8.345,-2.817 -9.828,-6.928 -1.459,-4.04 -0.209,-8.711 3.07,-11.486 3.43,-2.903 8.454,-3.262 12.273,-0.903 3.655,2.258 5.572,6.705 4.726,10.915 -0.97,4.827 -5.317,8.402 -10.241,8.402 z"
           style="fill:#474f70"
           inkscape:connector-curvature="0" />
        <path
           id="path5435"
           d="m 184.449,142.544 c -4.304,0 -8.254,-2.741 -9.77,-6.767 -1.545,-4.105 -0.3,-8.917 3.094,-11.716 3.234,-2.668 7.902,-3.15 11.599,-1.172 3.907,2.089 6.108,6.539 5.389,10.914 -0.82,4.982 -5.271,8.741 -10.312,8.741 z"
           style="fill:#474f70"
           inkscape:connector-curvature="0" />
        <path
           id="path5439"
           d="m 132.089,194.914 c -4.361,0 -8.355,-2.81 -9.828,-6.912 -1.477,-4.113 -0.185,-8.84 3.197,-11.612 3.296,-2.7 8,-3.093 11.717,-1.038 3.802,2.102 5.939,6.532 5.216,10.819 -0.838,4.975 -5.248,8.743 -10.302,8.743 z"
           style="fill:#474f70"
           inkscape:connector-curvature="0" />
        <path
           id="path5443"
           d="m 302.528,266.452 h -46.54 c -5.771,0 -10.449,-4.678 -10.449,-10.449 v -74.602 c 0,-5.771 4.678,-10.449 10.449,-10.449 5.771,0 10.449,4.678 10.449,10.449 v 64.153 h 36.091 c 5.771,0 10.449,4.678 10.449,10.449 0,5.771 -4.678,10.449 -10.449,10.449 z"
           style="fill:#474f70"
           inkscape:connector-curvature="0" />
      </g>
      <path
         id="path5447"
         d="m 279.25,256 c 0,12.675 -10.131,22.981 -22.736,23.263 -0.176,0.004 -0.353,0.005 -0.531,0.005 -2.952,0 -5.777,-0.55 -8.376,-1.554 -1.325,-0.512 -2.593,-1.141 -3.788,-1.876 -6.663,-4.092 -11.107,-11.444 -11.107,-19.838 0,-12.851 10.42,-23.269 23.272,-23.269 3.183,0 6.215,0.638 8.977,1.796 1.522,0.636 2.962,1.432 4.3,2.363 0.998,0.694 1.936,1.464 2.811,2.303 4.423,4.233 7.178,10.199 7.178,16.807 z"
         style="fill:#ff4f6f"
         inkscape:connector-curvature="0" />
      <g
         id="g5449" />
      <g
         id="g5451" />
      <g
         id="g5453" />
      <g
         id="g5455" />
      <g
         id="g5457" />
      <g
         id="g5459" />
      <g
         id="g5461" />
      <g
         id="g5463" />
      <g
         id="g5465" />
      <g
         id="g5467" />
      <g
         id="g5469" />
      <g
         id="g5471" />
      <g
         id="g5473" />
      <g
         id="g5475" />
      <g
         id="g5477" />
    </g>
    <path
       id="path5721"
       style="fill:#ffffdc;fill-opacity:0.52016127;stroke:none;stroke-width:1.37441999999999998px;stroke-linecap:butt;stroke-linejoin:miter;stroke-opacity:1"
       d="M 19.699219 1.0878906 A 14.500001 14.500001 0 0 0 19.400391 0.99609375 A 14.500001 14.500001 0 0 0 19.091797 0.90820312 A 14.500001 14.500001 0 0 0 18.78125 0.828125 A 14.500001 14.500001 0 0 0 18.470703 0.75390625 A 14.500001 14.500001 0 0 0 18.15625 0.6875 A 14.500001 14.500001 0 0 0 17.841797 0.62695312 A 14.500001 14.500001 0 0 0 17.527344 0.57421875 A 14.500001 14.500001 0 0 0 17.208984 0.52929688 A 14.500001 14.500001 0 0 0 16.892578 0.49023438 A 14.500001 14.500001 0 0 0 16.574219 0.45898438 A 14.500001 14.500001 0 0 0 16.253906 0.43359375 A 14.500001 14.500001 0 0 0 15.933594 0.41601562 A 14.500001 14.500001 0 0 0 15.615234 0.40625 A 14.500001 14.500001 0 0 0 15.294922 0.40234375 A 14.500001 14.500001 0 0 0 15.251953 0.40234375 A 14.500001 14.500001 0 0 0 14.931641 0.40625 A 14.500001 14.500001 0 0 0 14.611328 0.41796875 A 14.500001 14.500001 0 0 0 14.292969 0.4375 A 14.500001 14.500001 0 0 0 13.972656 0.46289062 A 14.500001 14.500001 0 0 0 13.654297 0.49414062 A 14.500001 14.500001 0 0 0 13.335938 0.53515625 A 14.500001 14.500001 0 0 0 13.019531 0.58203125 A 14.500001 14.500001 0 0 0 12.705078 0.63476562 A 14.500001 14.500001 0 0 0 12.390625 0.6953125 A 14.500001 14.500001 0 0 0 12.076172 0.76367188 A 14.500001 14.500001 0 0 0 11.765625 0.83789062 A 14.500001 14.500001 0 0 0 11.455078 0.91992188 A 14.500001 14.500001 0 0 0 11.148438 1.0078125 A 14.500001 14.500001 0 0 0 10.841797 1.1015625 A 14.500001 14.500001 0 0 0 10.666016 1.1601562 L 7.2265625 26.949219 A 14.500001 14.500001 0 0 0 7.4179688 27.076172 A 14.500001 14.500001 0 0 0 7.6894531 27.248047 A 14.500001 14.500001 0 0 0 7.9648438 27.412109 A 14.500001 14.500001 0 0 0 8.2421875 27.572266 A 14.500001 14.500001 0 0 0 8.5234375 27.724609 A 14.500001 14.500001 0 0 0 8.8085938 27.871094 A 14.500001 14.500001 0 0 0 9.0957031 28.009766 A 14.500001 14.500001 0 0 0 9.3867188 28.144531 A 14.500001 14.500001 0 0 0 9.6816406 28.271484 A 14.500001 14.500001 0 0 0 9.9785156 28.392578 A 14.500001 14.500001 0 0 0 10.277344 28.505859 A 14.500001 14.500001 0 0 0 10.578125 28.613281 A 14.500001 14.500001 0 0 0 10.882812 28.714844 A 14.500001 14.500001 0 0 0 11.1875 28.808594 A 14.500001 14.500001 0 0 0 11.496094 28.896484 A 14.500001 14.500001 0 0 0 11.806641 28.976562 A 14.500001 14.500001 0 0 0 12.117188 29.050781 A 14.500001 14.500001 0 0 0 12.431641 29.117188 A 14.500001 14.500001 0 0 0 12.746094 29.175781 A 14.500001 14.500001 0 0 0 13.0625 29.228516 A 14.500001 14.500001 0 0 0 13.378906 29.275391 A 14.500001 14.500001 0 0 0 13.697266 29.314453 A 14.500001 14.500001 0 0 0 14.015625 29.345703 A 14.500001 14.500001 0 0 0 14.333984 29.371094 A 14.500001 14.500001 0 0 0 14.654297 29.388672 A 14.500001 14.500001 0 0 0 14.974609 29.398438 A 14.500001 14.500001 0 0 0 15.294922 29.402344 A 14.500001 14.500001 0 0 0 15.335938 29.402344 A 14.500001 14.500001 0 0 0 15.65625 29.396484 A 14.500001 14.500001 0 0 0 15.976562 29.386719 A 14.500001 14.500001 0 0 0 16.296875 29.367188 A 14.500001 14.500001 0 0 0 16.615234 29.341797 A 14.500001 14.500001 0 0 0 16.933594 29.308594 A 14.500001 14.500001 0 0 0 17.251953 29.269531 A 14.500001 14.500001 0 0 0 17.568359 29.222656 A 14.500001 14.500001 0 0 0 17.884766 29.167969 A 14.500001 14.500001 0 0 0 18.199219 29.107422 A 14.500001 14.500001 0 0 0 18.511719 29.041016 A 14.500001 14.500001 0 0 0 18.822266 28.966797 A 14.500001 14.500001 0 0 0 19.132812 28.884766 A 14.500001 14.500001 0 0 0 19.439453 28.796875 A 14.500001 14.500001 0 0 0 19.746094 28.701172 A 14.500001 14.500001 0 0 0 20.048828 28.599609 A 14.500001 14.500001 0 0 0 20.351562 28.492188 A 14.500001 14.500001 0 0 0 20.650391 28.376953 A 14.500001 14.500001 0 0 0 20.945312 28.255859 A 14.500001 14.500001 0 0 0 21.240234 28.126953 A 14.500001 14.500001 0 0 0 21.529297 27.992188 A 14.500001 14.500001 0 0 0 21.818359 27.851562 A 14.500001 14.500001 0 0 0 22.101562 27.705078 A 14.500001 14.500001 0 0 0 22.382812 27.550781 A 14.500001 14.500001 0 0 0 22.660156 27.390625 A 14.500001 14.500001 0 0 0 22.871094 27.263672 L 19.699219 1.0878906 z "
       transform="scale(0.26458333)" />
    <path
       id="path5660"
       style="fill:#ffffff;fill-opacity:0.52016127;stroke:none;stroke-width:0.26380300000000001px;stroke-linecap:butt;stroke-linejoin:miter;stroke-opacity:1"
       d="m 4.7141044,0.16519399 a 3.8251516,3.8251516 0 0 0 -0.072134,-0.0118506 3.8251516,3.8251516 0 0 0 -0.083985,-0.0123658 3.8251516,3.8251516 0 0 0 -0.083469,-0.0103048 3.8251516,3.8251516 0 0 0 -0.084499,-0.008244 3.8251516,3.8251516 0 0 0 -0.083984,-0.006698 3.8251516,3.8251516 0 0 0 -0.084499,-0.004637 3.8251516,3.8251516 0 0 0 -0.0845,-0.002576 3.8251516,3.8251516 0 0 0 -0.084499,-0.00103 3.8251516,3.8251516 0 0 0 -0.01082,0 3.8251516,3.8251516 0 0 0 -0.084499,0.00103 3.8251516,3.8251516 0 0 0 -0.0845,0.003091 3.8251516,3.8251516 0 0 0 -0.083984,0.005152 3.8251516,3.8251516 0 0 0 -0.0845,0.006698 3.8251516,3.8251516 0 0 0 -0.083984,0.008759 3.8251516,3.8251516 0 0 0 -0.083984,0.0103048 3.8251516,3.8251516 0 0 0 -0.083469,0.0123658 3.8251516,3.8251516 0 0 0 -0.082954,0.0139115 3.8251516,3.8251516 0 0 0 -0.00927,0.001546 L 2.7190901,7.5176872 a 3.8251516,3.8251516 0 0 0 0.010305,0.00361 3.8251516,3.8251516 0 0 0 0.079347,0.028338 3.8251516,3.8251516 0 0 0 0.080378,0.026792 3.8251516,3.8251516 0 0 0 0.080377,0.024732 3.8251516,3.8251516 0 0 0 0.081408,0.023186 3.8251516,3.8251516 0 0 0 0.081923,0.021125 3.8251516,3.8251516 0 0 0 0.081923,0.019579 3.8251516,3.8251516 0 0 0 0.082954,0.017518 3.8251516,3.8251516 0 0 0 0.082954,0.015457 3.8251516,3.8251516 0 0 0 0.082954,0.014427 3.8251516,3.8251516 0 0 0 0.083984,0.01185 3.8251516,3.8251516 0 0 0 0.083469,0.010305 3.8251516,3.8251516 0 0 0 0.084499,0.00824 3.8251516,3.8251516 0 0 0 0.083984,0.0067 3.8251516,3.8251516 0 0 0 0.0845,0.00464 3.8251516,3.8251516 0 0 0 0.084499,0.00258 3.8251516,3.8251516 0 0 0 0.083985,0.00103 3.8251516,3.8251516 0 0 0 0.011335,0 3.8251516,3.8251516 0 0 0 0.0845,-0.00103 3.8251516,3.8251516 0 0 0 0.0845,-0.00309 3.8251516,3.8251516 0 0 0 0.083984,-0.00515 3.8251516,3.8251516 0 0 0 0.084499,-0.0067 3.8251516,3.8251516 0 0 0 0.083984,-0.00876 3.8251516,3.8251516 0 0 0 0.083984,-0.010305 3.8251516,3.8251516 0 0 0 0.083469,-0.012366 3.8251516,3.8251516 0 0 0 0.082954,-0.013911 3.8251516,3.8251516 0 0 0 0.082954,-0.015973 3.8251516,3.8251516 0 0 0 0.082954,-0.018033 3.8251516,3.8251516 0 0 0 0.081923,-0.019579 3.8251516,3.8251516 0 0 0 0.081923,-0.02164 3.8251516,3.8251516 0 0 0 0.080893,-0.023186 3.8251516,3.8251516 0 0 0 0.080893,-0.025247 3.8251516,3.8251516 0 0 0 0.072134,-0.024216 z"
       inkscape:connector-curvature="0" />
  </g>
</svg>
