<?xml version="1.0" encoding="UTF-8" standalone="no"?>
<svg
   xmlns:dc="http://purl.org/dc/elements/1.1/"
   xmlns:cc="http://creativecommons.org/ns#"
   xmlns:rdf="http://www.w3.org/1999/02/22-rdf-syntax-ns#"
   xmlns:svg="http://www.w3.org/2000/svg"
   xmlns="http://www.w3.org/2000/svg"
   xmlns:sodipodi="http://sodipodi.sourceforge.net/DTD/sodipodi-0.dtd"
   xmlns:inkscape="http://www.inkscape.org/namespaces/inkscape"
   inkscape:export-ydpi="358.39999"
   inkscape:export-xdpi="358.39999"
   inkscape:export-filename="/Users/mike.xiao/Documents/Projects/DBT_icons/dbt_icons/observe.png"
   width="30"
   height="30"
   viewBox="0 0 7.9374997 7.937501"
   version="1.1"
   id="svg870"
   inkscape:version="1.0beta2 (2b71d25, 2019-12-03)"
   sodipodi:docname="observe.svg">
  <defs
     id="defs864" />
  <sodipodi:namedview
     inkscape:guide-bbox="true"
     showguides="true"
     id="base"
     pagecolor="#ffffff"
     bordercolor="#666666"
     borderopacity="1.0"
     inkscape:pageopacity="0.0"
     inkscape:pageshadow="2"
     inkscape:zoom="16.6"
     inkscape:cx="15"
     inkscape:cy="22.228916"
     inkscape:document-units="mm"
     inkscape:current-layer="layer1"
     inkscape:document-rotation="0"
     showgrid="false"
     units="px"
     inkscape:window-width="1137"
     inkscape:window-height="664"
     inkscape:window-x="94"
     inkscape:window-y="23"
     inkscape:window-maximized="0" />
  <metadata
     id="metadata867">
    <rdf:RDF>
      <cc:Work
         rdf:about="">
        <dc:format>image/svg+xml</dc:format>
        <dc:type
           rdf:resource="http://purl.org/dc/dcmitype/StillImage" />
        <dc:title />
      </cc:Work>
    </rdf:RDF>
  </metadata>
  <g
     inkscape:label="Layer 1"
     inkscape:groupmode="layer"
     id="layer1">
    <path
       transform="scale(0.26458333)"
       d="M 28.720703 10.041016 A 41.437984 41.437984 0 0 0 28.207031 9.8769531 A 41.437984 41.437984 0 0 0 27.6875 9.7207031 A 41.437984 41.437984 0 0 0 27.167969 9.5703125 A 41.437984 41.437984 0 0 0 26.646484 9.4277344 A 41.437984 41.437984 0 0 0 26.123047 9.2910156 A 41.437984 41.437984 0 0 0 25.597656 9.1621094 A 41.437984 41.437984 0 0 0 25.070312 9.0390625 A 41.437984 41.437984 0 0 0 24.541016 8.9238281 A 41.437984 41.437984 0 0 0 24.009766 8.8144531 A 41.437984 41.437984 0 0 0 23.478516 8.7128906 A 41.437984 41.437984 0 0 0 22.945312 8.6171875 A 41.437984 41.437984 0 0 0 22.412109 8.5292969 A 41.437984 41.437984 0 0 0 21.876953 8.4492188 A 41.437984 41.437984 0 0 0 21.339844 8.375 A 41.437984 41.437984 0 0 0 20.802734 8.3066406 A 41.437984 41.437984 0 0 0 20.265625 8.2480469 A 41.437984 41.437984 0 0 0 19.726562 8.1953125 A 41.437984 41.437984 0 0 0 19.1875 8.1484375 A 41.437984 41.437984 0 0 0 18.646484 8.109375 A 41.437984 41.437984 0 0 0 18.107422 8.078125 A 41.437984 41.437984 0 0 0 17.566406 8.0527344 A 41.437984 41.437984 0 0 0 17.025391 8.0351562 A 41.437984 41.437984 0 0 0 16.484375 8.0253906 A 41.437984 41.437984 0 0 0 15.943359 8.0214844 A 41.437984 41.437984 0 0 0 15.808594 8.0214844 A 41.437984 41.437984 0 0 0 15.267578 8.0273438 A 41.437984 41.437984 0 0 0 14.726562 8.0390625 A 41.437984 41.437984 0 0 0 14.185547 8.0585938 A 41.437984 41.437984 0 0 0 13.644531 8.0859375 A 41.437984 41.437984 0 0 0 13.103516 8.1191406 A 41.437984 41.437984 0 0 0 12.564453 8.1601562 A 41.437984 41.437984 0 0 0 12.025391 8.2070312 A 41.437984 41.437984 0 0 0 11.486328 8.2617188 A 41.437984 41.437984 0 0 0 10.949219 8.3242188 A 41.437984 41.437984 0 0 0 10.412109 8.3925781 A 41.437984 41.437984 0 0 0 9.8769531 8.46875 A 41.437984 41.437984 0 0 0 9.3417969 8.5507812 A 41.437984 41.437984 0 0 0 8.8066406 8.640625 A 41.437984 41.437984 0 0 0 8.2753906 8.7363281 A 41.437984 41.437984 0 0 0 7.7441406 8.8398438 A 41.437984 41.437984 0 0 0 7.2128906 8.9511719 A 41.437984 41.437984 0 0 0 6.6855469 9.0683594 A 41.437984 41.437984 0 0 0 6.1582031 9.1933594 A 41.437984 41.437984 0 0 0 5.6328125 9.3242188 A 41.437984 41.437984 0 0 0 5.109375 9.4628906 A 41.437984 41.437984 0 0 0 4.5878906 9.6074219 A 41.437984 41.437984 0 0 0 4.0683594 9.7597656 A 41.437984 41.437984 0 0 0 3.5507812 9.9179688 A 41.437984 41.437984 0 0 0 3.0351562 10.082031 A 41.437984 41.437984 0 0 0 2.5234375 10.253906 A 41.437984 41.437984 0 0 0 2.0117188 10.433594 A 41.437984 41.437984 0 0 0 1.5039062 10.619141 A 41.437984 41.437984 0 0 0 1.2558594 10.712891 A 14.5 14.5 0 0 0 0.6015625 15.015625 A 14.5 14.5 0 0 0 15.101562 29.515625 A 14.5 14.5 0 0 0 29.601562 15.015625 A 14.5 14.5 0 0 0 28.720703 10.041016 z "
       style="opacity:0.998058;fill:#2ca05a;stroke-width:7.87109;stroke-linecap:round;stroke-linejoin:round;paint-order:stroke fill markers"
       id="path3136" />
    <path
       transform="scale(0.26458333)"
       d="M 15.060547 0.515625 A 14.5 14.5 0 0 0 1.2558594 10.712891 A 41.437984 41.437984 0 0 1 1.5039062 10.619141 A 41.437984 41.437984 0 0 1 2.0117188 10.433594 A 41.437984 41.437984 0 0 1 2.5234375 10.253906 A 41.437984 41.437984 0 0 1 3.0351562 10.082031 A 41.437984 41.437984 0 0 1 3.5507812 9.9179688 A 41.437984 41.437984 0 0 1 4.0683594 9.7597656 A 41.437984 41.437984 0 0 1 4.5878906 9.6074219 A 41.437984 41.437984 0 0 1 5.109375 9.4628906 A 41.437984 41.437984 0 0 1 5.6328125 9.3242188 A 41.437984 41.437984 0 0 1 6.1582031 9.1933594 A 41.437984 41.437984 0 0 1 6.6855469 9.0683594 A 41.437984 41.437984 0 0 1 7.2128906 8.9511719 A 41.437984 41.437984 0 0 1 7.7441406 8.8398438 A 41.437984 41.437984 0 0 1 8.2753906 8.7363281 A 41.437984 41.437984 0 0 1 8.8066406 8.640625 A 41.437984 41.437984 0 0 1 9.3417969 8.5507812 A 41.437984 41.437984 0 0 1 9.8769531 8.46875 A 41.437984 41.437984 0 0 1 10.412109 8.3925781 A 41.437984 41.437984 0 0 1 10.949219 8.3242188 A 41.437984 41.437984 0 0 1 11.486328 8.2617188 A 41.437984 41.437984 0 0 1 12.025391 8.2070312 A 41.437984 41.437984 0 0 1 12.564453 8.1601562 A 41.437984 41.437984 0 0 1 13.103516 8.1191406 A 41.437984 41.437984 0 0 1 13.644531 8.0859375 A 41.437984 41.437984 0 0 1 14.185547 8.0585938 A 41.437984 41.437984 0 0 1 14.726562 8.0390625 A 41.437984 41.437984 0 0 1 15.267578 8.0273438 A 41.437984 41.437984 0 0 1 15.808594 8.0214844 A 41.437984 41.437984 0 0 1 15.943359 8.0214844 A 41.437984 41.437984 0 0 1 16.484375 8.0253906 A 41.437984 41.437984 0 0 1 17.025391 8.0351562 A 41.437984 41.437984 0 0 1 17.566406 8.0527344 A 41.437984 41.437984 0 0 1 18.107422 8.078125 A 41.437984 41.437984 0 0 1 18.646484 8.109375 A 41.437984 41.437984 0 0 1 19.1875 8.1484375 A 41.437984 41.437984 0 0 1 19.726562 8.1953125 A 41.437984 41.437984 0 0 1 20.265625 8.2480469 A 41.437984 41.437984 0 0 1 20.802734 8.3066406 A 41.437984 41.437984 0 0 1 21.339844 8.375 A 41.437984 41.437984 0 0 1 21.876953 8.4492188 A 41.437984 41.437984 0 0 1 22.412109 8.5292969 A 41.437984 41.437984 0 0 1 22.945312 8.6171875 A 41.437984 41.437984 0 0 1 23.478516 8.7128906 A 41.437984 41.437984 0 0 1 24.009766 8.8144531 A 41.437984 41.437984 0 0 1 24.541016 8.9238281 A 41.437984 41.437984 0 0 1 25.070312 9.0390625 A 41.437984 41.437984 0 0 1 25.597656 9.1621094 A 41.437984 41.437984 0 0 1 26.123047 9.2910156 A 41.437984 41.437984 0 0 1 26.646484 9.4277344 A 41.437984 41.437984 0 0 1 27.167969 9.5703125 A 41.437984 41.437984 0 0 1 27.6875 9.7207031 A 41.437984 41.437984 0 0 1 28.207031 9.8769531 A 41.437984 41.437984 0 0 1 28.720703 10.041016 A 14.5 14.5 0 0 0 15.101562 0.515625 A 14.5 14.5 0 0 0 15.060547 0.515625 z "
       style="opacity:0.998058;fill:#55ddff;stroke-width:7.87109;stroke-linecap:round;stroke-linejoin:round;paint-order:stroke fill markers"
       id="path3212" />
    <path
       style="fill:#131313;fill-opacity:0.241935;stroke-width:0.0191796"
       id="path3142-2"
       fill="#fff"
       d="m 0.96888719,4.3356592 c 0,0 3.08596431,3.2348309 6.03160311,0 v 0.031242 c -2.9455637,-3.2348311 -6.03160311,-1e-7 -6.03160311,-1e-7"
       inkscape:connector-curvature="0" />
    <g
       transform="matrix(0.01917958,0,0,0.01917958,-0.07086224,1.1685816)"
       id="g3170">
      <path
         inkscape:connector-curvature="0"
         d="m 55.015625,143.92578 c 0,0 160.898435,168.66016 314.480465,0 v 1.62891 c -153.57812,-168.660159 -314.480465,0 -314.480465,0"
         fill="#fff"
         id="path3142" />
      <path
         style="fill:#a05a2c"
         inkscape:connector-curvature="0"
         d="m 143.86328,87.277344 c -6.44531,11.703125 -10.13281,25.140626 -10.13281,39.445316 0,45.24609 36.67969,81.92187 81.91797,81.92187 45.24218,0 81.92187,-36.67578 81.92187,-81.92187 0,-15.12891 -4.17187,-29.25391 -11.32812,-41.414066 C 233.21094,61.25 182.97656,70.222656 143.86328,87.277344 Z m 0,0"
         fill="#55a6ff"
         id="path3146" />
      <path
         style="fill:#2a2c37;fill-opacity:1"
         inkscape:connector-curvature="0"
         d="m 266.85156,126.72266 c 0,28.27734 -22.92187,51.19921 -51.19922,51.19921 -28.27734,0 -51.20312,-22.92187 -51.20312,-51.19921 0,-28.277348 22.92578,-51.199222 51.20312,-51.199222 28.27735,0 51.19922,22.921874 51.19922,51.199222 z m 0,0"
         fill="#54596e"
         id="path3150" />
      <path
         inkscape:connector-curvature="0"
         d="m 191.75781,113.07031 c 0,9.42578 -7.64062,17.06641 -17.0664,17.06641 -9.42579,0 -17.06641,-7.64063 -17.06641,-17.06641 0,-9.42578 7.64062,-17.066404 17.06641,-17.066404 9.42578,0 17.0664,7.640624 17.0664,17.066404 z m 0,0"
         fill="#fff"
         id="path3152" />
    </g>
  </g>
</svg>
