<?xml version="1.0" encoding="UTF-8" standalone="no"?>
<svg
   xmlns:dc="http://purl.org/dc/elements/1.1/"
   xmlns:cc="http://creativecommons.org/ns#"
   xmlns:rdf="http://www.w3.org/1999/02/22-rdf-syntax-ns#"
   xmlns:svg="http://www.w3.org/2000/svg"
   xmlns="http://www.w3.org/2000/svg"
   xmlns:sodipodi="http://sodipodi.sourceforge.net/DTD/sodipodi-0.dtd"
   xmlns:inkscape="http://www.inkscape.org/namespaces/inkscape"
   width="30"
   height="30"
   viewBox="0 0 7.9374997 7.937501"
   version="1.1"
   id="svg870"
   inkscape:version="1.0beta2 (2b71d25, 2019-12-03)"
   sodipodi:docname="participate.svg"
   inkscape:export-filename="/Users/mike.xiao/Documents/Projects/DBT_icons/dbt_icons/participate.png"
   inkscape:export-xdpi="358.39999"
   inkscape:export-ydpi="358.39999">
  <defs
     id="defs864" />
  <sodipodi:namedview
     id="base"
     pagecolor="#ffffff"
     bordercolor="#666666"
     borderopacity="1.0"
     inkscape:pageopacity="0.0"
     inkscape:pageshadow="2"
     inkscape:zoom="7.04"
     inkscape:cx="-4.577298"
     inkscape:cy="13.704621"
     inkscape:document-units="mm"
     inkscape:current-layer="layer1"
     inkscape:document-rotation="0"
     showgrid="false"
     units="px"
     inkscape:window-width="1137"
     inkscape:window-height="664"
     inkscape:window-x="169"
     inkscape:window-y="65"
     inkscape:window-maximized="0" />
  <metadata
     id="metadata867">
    <rdf:RDF>
      <cc:Work
         rdf:about="">
        <dc:format>image/svg+xml</dc:format>
        <dc:type
           rdf:resource="http://purl.org/dc/dcmitype/StillImage" />
        <dc:title />
      </cc:Work>
    </rdf:RDF>
  </metadata>
  <g
     inkscape:label="Layer 1"
     inkscape:groupmode="layer"
     id="layer1">
    <path
       id="path3781"
       style="opacity:0.998058;fill:#666666;fill-opacity:1;stroke-width:2.20725;stroke-linecap:round;stroke-linejoin:round;paint-order:stroke fill markers"
       d="M 14.707031 0.49023438 A 14.5 14.5 0 0 0 0.4609375 14.986328 A 14.5 14.5 0 0 0 14.960938 29.486328 A 14.5 14.5 0 0 0 29.390625 16.402344 A 10.993824 10.993824 0 0 1 29.335938 16.474609 A 10.993824 10.993824 0 0 1 29.162109 16.693359 A 10.993824 10.993824 0 0 1 28.984375 16.90625 A 10.993824 10.993824 0 0 1 28.798828 17.115234 A 10.993824 10.993824 0 0 1 28.609375 17.320312 A 10.993824 10.993824 0 0 1 28.416016 17.519531 A 10.993824 10.993824 0 0 1 28.214844 17.712891 A 10.993824 10.993824 0 0 1 28.009766 17.902344 A 10.993824 10.993824 0 0 1 27.800781 18.087891 A 10.993824 10.993824 0 0 1 27.587891 18.265625 A 10.993824 10.993824 0 0 1 27.369141 18.439453 A 10.993824 10.993824 0 0 1 27.146484 18.607422 A 10.993824 10.993824 0 0 1 26.919922 18.769531 A 10.993824 10.993824 0 0 1 26.6875 18.925781 A 10.993824 10.993824 0 0 1 26.453125 19.076172 A 10.993824 10.993824 0 0 1 26.214844 19.21875 A 10.993824 10.993824 0 0 1 25.972656 19.357422 A 10.993824 10.993824 0 0 1 25.726562 19.490234 A 10.993824 10.993824 0 0 1 25.478516 19.615234 A 10.993824 10.993824 0 0 1 25.226562 19.734375 A 10.993824 10.993824 0 0 1 24.970703 19.847656 A 10.993824 10.993824 0 0 1 24.712891 19.953125 A 10.993824 10.993824 0 0 1 24.453125 20.052734 A 10.993824 10.993824 0 0 1 24.189453 20.146484 A 10.993824 10.993824 0 0 1 23.925781 20.232422 A 10.993824 10.993824 0 0 1 23.658203 20.3125 A 10.993824 10.993824 0 0 1 23.388672 20.386719 A 10.993824 10.993824 0 0 1 23.117188 20.451172 A 10.993824 10.993824 0 0 1 22.845703 20.511719 A 10.993824 10.993824 0 0 1 22.572266 20.564453 A 10.993824 10.993824 0 0 1 22.296875 20.609375 A 10.993824 10.993824 0 0 1 22.019531 20.646484 A 10.993824 10.993824 0 0 1 21.744141 20.677734 A 10.993824 10.993824 0 0 1 21.464844 20.703125 A 10.993824 10.993824 0 0 1 21.1875 20.720703 A 10.993824 10.993824 0 0 1 20.908203 20.730469 A 10.993824 10.993824 0 0 1 20.648438 20.732422 A 10.993824 10.993824 0 0 1 20.369141 20.730469 A 10.993824 10.993824 0 0 1 20.089844 20.71875 A 10.993824 10.993824 0 0 1 19.8125 20.701172 A 10.993824 10.993824 0 0 1 19.533203 20.675781 A 10.993824 10.993824 0 0 1 19.257812 20.644531 A 10.993824 10.993824 0 0 1 18.980469 20.605469 A 10.993824 10.993824 0 0 1 18.705078 20.560547 A 10.993824 10.993824 0 0 1 18.431641 20.507812 A 10.993824 10.993824 0 0 1 18.160156 20.447266 A 10.993824 10.993824 0 0 1 17.888672 20.380859 A 10.993824 10.993824 0 0 1 17.621094 20.308594 A 10.993824 10.993824 0 0 1 17.353516 20.228516 A 10.993824 10.993824 0 0 1 17.087891 20.140625 A 10.993824 10.993824 0 0 1 16.826172 20.046875 A 10.993824 10.993824 0 0 1 16.564453 19.947266 A 10.993824 10.993824 0 0 1 16.308594 19.839844 A 10.993824 10.993824 0 0 1 16.052734 19.726562 A 10.993824 10.993824 0 0 1 15.800781 19.607422 A 10.993824 10.993824 0 0 1 15.552734 19.480469 A 10.993824 10.993824 0 0 1 15.306641 19.349609 A 10.993824 10.993824 0 0 1 15.064453 19.210938 A 10.993824 10.993824 0 0 1 14.826172 19.066406 A 10.993824 10.993824 0 0 1 14.591797 18.916016 A 10.993824 10.993824 0 0 1 14.361328 18.759766 A 10.993824 10.993824 0 0 1 14.134766 18.595703 A 10.993824 10.993824 0 0 1 13.912109 18.427734 A 10.993824 10.993824 0 0 1 13.693359 18.255859 A 10.993824 10.993824 0 0 1 13.480469 18.076172 A 10.993824 10.993824 0 0 1 13.271484 17.890625 A 10.993824 10.993824 0 0 1 13.066406 17.701172 A 10.993824 10.993824 0 0 1 12.867188 17.507812 A 10.993824 10.993824 0 0 1 12.673828 17.306641 A 10.993824 10.993824 0 0 1 12.484375 17.103516 A 10.993824 10.993824 0 0 1 12.298828 16.892578 A 10.993824 10.993824 0 0 1 12.121094 16.679688 A 10.993824 10.993824 0 0 1 11.947266 16.460938 A 10.993824 10.993824 0 0 1 11.779297 16.238281 A 10.993824 10.993824 0 0 1 11.617188 16.011719 A 10.993824 10.993824 0 0 1 11.460938 15.779297 A 10.993824 10.993824 0 0 1 11.3125 15.544922 A 10.993824 10.993824 0 0 1 11.167969 15.306641 A 10.993824 10.993824 0 0 1 11.029297 15.064453 A 10.993824 10.993824 0 0 1 10.896484 14.818359 A 10.993824 10.993824 0 0 1 10.771484 14.570312 A 10.993824 10.993824 0 0 1 10.652344 14.318359 A 10.993824 10.993824 0 0 1 10.539062 14.0625 A 10.993824 10.993824 0 0 1 10.433594 13.804688 A 10.993824 10.993824 0 0 1 10.333984 13.544922 A 10.993824 10.993824 0 0 1 10.240234 13.28125 A 10.993824 10.993824 0 0 1 10.154297 13.017578 A 10.993824 10.993824 0 0 1 10.074219 12.75 A 10.993824 10.993824 0 0 1 10 12.480469 A 10.993824 10.993824 0 0 1 9.9355469 12.208984 A 10.993824 10.993824 0 0 1 9.875 11.9375 A 10.993824 10.993824 0 0 1 9.8242188 11.664062 A 10.993824 10.993824 0 0 1 9.7773438 11.388672 A 10.993824 10.993824 0 0 1 9.7402344 11.113281 A 10.993824 10.993824 0 0 1 9.7089844 10.835938 A 10.993824 10.993824 0 0 1 9.6835938 10.556641 A 10.993824 10.993824 0 0 1 9.6660156 10.279297 A 10.993824 10.993824 0 0 1 9.65625 10 A 10.993824 10.993824 0 0 1 9.6542969 9.7402344 A 10.993824 10.993824 0 0 1 9.65625 9.4609375 A 10.993824 10.993824 0 0 1 9.6679688 9.1816406 A 10.993824 10.993824 0 0 1 9.6855469 8.9042969 A 10.993824 10.993824 0 0 1 9.7109375 8.6269531 A 10.993824 10.993824 0 0 1 9.7421875 8.3496094 A 10.993824 10.993824 0 0 1 9.78125 8.0722656 A 10.993824 10.993824 0 0 1 9.8261719 7.7988281 A 10.993824 10.993824 0 0 1 9.8789062 7.5234375 A 10.993824 10.993824 0 0 1 9.9394531 7.2519531 A 10.993824 10.993824 0 0 1 10.005859 6.9804688 A 10.993824 10.993824 0 0 1 10.078125 6.7128906 A 10.993824 10.993824 0 0 1 10.158203 6.4453125 A 10.993824 10.993824 0 0 1 10.246094 6.1796875 A 10.993824 10.993824 0 0 1 10.339844 5.9179688 A 10.993824 10.993824 0 0 1 10.439453 5.6582031 A 10.993824 10.993824 0 0 1 10.546875 5.4003906 A 10.993824 10.993824 0 0 1 10.660156 5.1445312 A 10.993824 10.993824 0 0 1 10.779297 4.8925781 A 10.993824 10.993824 0 0 1 10.90625 4.6445312 A 10.993824 10.993824 0 0 1 11.037109 4.3984375 A 10.993824 10.993824 0 0 1 11.175781 4.15625 A 10.993824 10.993824 0 0 1 11.320312 3.9179688 A 10.993824 10.993824 0 0 1 11.470703 3.6835938 A 10.993824 10.993824 0 0 1 11.628906 3.453125 A 10.993824 10.993824 0 0 1 11.791016 3.2265625 A 10.993824 10.993824 0 0 1 11.958984 3.0039062 A 10.993824 10.993824 0 0 1 12.132812 2.7851562 A 10.993824 10.993824 0 0 1 12.310547 2.5722656 A 10.993824 10.993824 0 0 1 12.496094 2.3632812 A 10.993824 10.993824 0 0 1 12.685547 2.1582031 A 10.993824 10.993824 0 0 1 12.878906 1.9589844 A 10.993824 10.993824 0 0 1 13.080078 1.765625 A 10.993824 10.993824 0 0 1 13.285156 1.5761719 A 10.993824 10.993824 0 0 1 13.494141 1.390625 A 10.993824 10.993824 0 0 1 13.707031 1.2128906 A 10.993824 10.993824 0 0 1 13.925781 1.0390625 A 10.993824 10.993824 0 0 1 14.148438 0.87109375 A 10.993824 10.993824 0 0 1 14.375 0.70898438 A 10.993824 10.993824 0 0 1 14.607422 0.5546875 A 10.993824 10.993824 0 0 1 14.707031 0.49023438 z "
       transform="scale(0.26458333)" />
    <path
       id="path4804"
       style="fill:#4d4d4d;fill-opacity:0.282258;stroke:none;stroke-width:1.10773px;stroke-linecap:butt;stroke-linejoin:miter;stroke-opacity:1"
       d="M 17.490234 20.269531 L 12.138672 12.195312 L 10.089844 12.802734 A 10.993824 10.993824 0 0 0 10.154297 13.017578 A 10.993824 10.993824 0 0 0 10.240234 13.28125 A 10.993824 10.993824 0 0 0 10.333984 13.544922 A 10.993824 10.993824 0 0 0 10.433594 13.804688 A 10.993824 10.993824 0 0 0 10.539062 14.0625 A 10.993824 10.993824 0 0 0 10.652344 14.318359 A 10.993824 10.993824 0 0 0 10.771484 14.570312 A 10.993824 10.993824 0 0 0 10.896484 14.818359 A 10.993824 10.993824 0 0 0 11.029297 15.064453 A 10.993824 10.993824 0 0 0 11.167969 15.306641 A 10.993824 10.993824 0 0 0 11.3125 15.544922 A 10.993824 10.993824 0 0 0 11.460938 15.779297 A 10.993824 10.993824 0 0 1 11.460938 15.78125 A 10.993824 10.993824 0 0 0 11.617188 16.011719 A 10.993824 10.993824 0 0 0 11.779297 16.238281 A 10.993824 10.993824 0 0 0 11.947266 16.460938 A 10.993824 10.993824 0 0 0 12.121094 16.679688 A 10.993824 10.993824 0 0 0 12.298828 16.892578 A 10.993824 10.993824 0 0 1 12.300781 16.894531 A 10.993824 10.993824 0 0 0 12.484375 17.103516 A 10.993824 10.993824 0 0 0 12.673828 17.306641 A 10.993824 10.993824 0 0 0 12.867188 17.507812 A 10.993824 10.993824 0 0 0 13.066406 17.701172 A 10.993824 10.993824 0 0 0 13.271484 17.890625 A 10.993824 10.993824 0 0 0 13.480469 18.076172 A 10.993824 10.993824 0 0 0 13.693359 18.255859 A 10.993824 10.993824 0 0 0 13.912109 18.427734 A 10.993824 10.993824 0 0 0 14.134766 18.595703 A 10.993824 10.993824 0 0 0 14.361328 18.759766 A 10.993824 10.993824 0 0 0 14.591797 18.916016 A 10.993824 10.993824 0 0 0 14.826172 19.066406 A 10.993824 10.993824 0 0 0 15.064453 19.210938 A 10.993824 10.993824 0 0 0 15.306641 19.349609 A 10.993824 10.993824 0 0 0 15.552734 19.480469 A 10.993824 10.993824 0 0 0 15.800781 19.607422 A 10.993824 10.993824 0 0 0 16.052734 19.726562 A 10.993824 10.993824 0 0 0 16.308594 19.839844 A 10.993824 10.993824 0 0 0 16.564453 19.947266 A 10.993824 10.993824 0 0 1 16.566406 19.947266 A 10.993824 10.993824 0 0 0 16.826172 20.046875 A 10.993824 10.993824 0 0 0 17.087891 20.140625 A 10.993824 10.993824 0 0 0 17.353516 20.228516 A 10.993824 10.993824 0 0 0 17.490234 20.269531 z "
       transform="scale(0.26458333)" />
    <path
       id="path4826"
       style="fill:#4d4d4d;fill-opacity:0.58870965;stroke:none;stroke-width:1.10773000000000010px;stroke-linecap:butt;stroke-linejoin:miter;stroke-opacity:1"
       d="M 0.4765625 15.652344 A 14.5 14.5 0 0 0 0.4921875 15.945312 A 14.5 14.5 0 0 0 0.51757812 16.265625 A 14.5 14.5 0 0 0 0.54882812 16.583984 A 14.5 14.5 0 0 0 0.58789062 16.902344 A 14.5 14.5 0 0 0 0.63476562 17.21875 A 14.5 14.5 0 0 0 0.6875 17.535156 A 14.5 14.5 0 0 0 0.74609375 17.849609 A 14.5 14.5 0 0 0 0.8125 18.162109 A 14.5 14.5 0 0 0 0.88671875 18.474609 A 14.5 14.5 0 0 0 0.96679688 18.783203 A 14.5 14.5 0 0 0 1.0546875 19.091797 A 14.5 14.5 0 0 0 1.1484375 19.398438 A 14.5 14.5 0 0 0 1.25 19.701172 A 14.5 14.5 0 0 0 1.3574219 20.003906 A 14.5 14.5 0 0 0 1.4707031 20.302734 A 14.5 14.5 0 0 0 1.5917969 20.599609 A 14.5 14.5 0 0 0 1.71875 20.892578 A 14.5 14.5 0 0 0 1.8515625 21.183594 A 14.5 14.5 0 0 0 1.9921875 21.472656 A 14.5 14.5 0 0 0 2.1386719 21.757812 A 14.5 14.5 0 0 0 2.2910156 22.039062 A 14.5 14.5 0 0 0 2.4492188 22.316406 A 14.5 14.5 0 0 0 2.6152344 22.591797 A 14.5 14.5 0 0 0 2.7851562 22.861328 A 14.5 14.5 0 0 0 2.9628906 23.128906 A 14.5 14.5 0 0 0 3.1464844 23.390625 A 14.5 14.5 0 0 0 3.3339844 23.650391 A 14.5 14.5 0 0 0 3.5273438 23.904297 A 14.5 14.5 0 0 0 3.7285156 24.15625 A 14.5 14.5 0 0 0 3.9335938 24.400391 A 14.5 14.5 0 0 0 4.1445312 24.642578 A 14.5 14.5 0 0 0 4.359375 24.878906 A 14.5 14.5 0 0 0 4.5800781 25.111328 A 14.5 14.5 0 0 0 4.8066406 25.337891 A 14.5 14.5 0 0 0 5.0371094 25.558594 A 14.5 14.5 0 0 0 5.2734375 25.775391 A 14.5 14.5 0 0 0 5.5136719 25.986328 A 14.5 14.5 0 0 0 5.7597656 26.193359 A 14.5 14.5 0 0 0 6.0097656 26.392578 A 14.5 14.5 0 0 0 6.2636719 26.587891 A 14.5 14.5 0 0 0 6.5214844 26.777344 A 14.5 14.5 0 0 0 6.7832031 26.960938 A 14.5 14.5 0 0 0 7.0507812 27.138672 A 14.5 14.5 0 0 0 7.3203125 27.310547 A 14.5 14.5 0 0 0 7.59375 27.476562 A 14.5 14.5 0 0 0 7.8730469 27.634766 A 14.5 14.5 0 0 0 8.1523438 27.789062 A 14.5 14.5 0 0 0 8.4375 27.935547 A 14.5 14.5 0 0 0 8.7246094 28.076172 A 14.5 14.5 0 0 0 9.015625 28.210938 A 14.5 14.5 0 0 0 9.3085938 28.339844 A 14.5 14.5 0 0 0 9.6054688 28.460938 A 14.5 14.5 0 0 0 9.9042969 28.576172 A 14.5 14.5 0 0 0 10.205078 28.683594 A 14.5 14.5 0 0 0 10.509766 28.785156 A 14.5 14.5 0 0 0 10.814453 28.880859 A 14.5 14.5 0 0 0 11.123047 28.96875 A 14.5 14.5 0 0 0 11.431641 29.050781 A 14.5 14.5 0 0 0 11.744141 29.125 A 14.5 14.5 0 0 0 12.056641 29.193359 A 14.5 14.5 0 0 0 12.371094 29.253906 A 14.5 14.5 0 0 0 12.6875 29.306641 A 14.5 14.5 0 0 0 13.003906 29.353516 A 14.5 14.5 0 0 0 13.322266 29.392578 A 14.5 14.5 0 0 0 13.640625 29.425781 A 14.5 14.5 0 0 0 13.958984 29.451172 A 14.5 14.5 0 0 0 14.279297 29.470703 A 14.5 14.5 0 0 0 14.599609 29.482422 A 14.5 14.5 0 0 0 14.917969 29.486328 A 14.5 14.5 0 0 0 14.960938 29.486328 A 14.5 14.5 0 0 0 15.28125 29.482422 A 14.5 14.5 0 0 0 15.601562 29.472656 A 14.5 14.5 0 0 0 15.783203 29.462891 L 18.298828 26.0625 L 17.722656 20.621094 L 17.490234 20.269531 A 10.993824 10.993824 0 0 1 17.353516 20.228516 A 10.993824 10.993824 0 0 1 17.087891 20.140625 A 10.993824 10.993824 0 0 1 16.826172 20.046875 A 10.993824 10.993824 0 0 1 16.566406 19.947266 A 10.993824 10.993824 0 0 1 16.564453 19.947266 A 10.993824 10.993824 0 0 1 16.308594 19.839844 A 10.993824 10.993824 0 0 1 16.052734 19.726562 A 10.993824 10.993824 0 0 1 15.800781 19.607422 A 10.993824 10.993824 0 0 1 15.552734 19.480469 A 10.993824 10.993824 0 0 1 15.306641 19.349609 A 10.993824 10.993824 0 0 1 15.064453 19.210938 A 10.993824 10.993824 0 0 1 14.826172 19.066406 A 10.993824 10.993824 0 0 1 14.591797 18.916016 A 10.993824 10.993824 0 0 1 14.361328 18.759766 A 10.993824 10.993824 0 0 1 14.134766 18.595703 A 10.993824 10.993824 0 0 1 13.912109 18.427734 A 10.993824 10.993824 0 0 1 13.693359 18.255859 A 10.993824 10.993824 0 0 1 13.480469 18.076172 A 10.993824 10.993824 0 0 1 13.271484 17.890625 A 10.993824 10.993824 0 0 1 13.066406 17.701172 A 10.993824 10.993824 0 0 1 12.867188 17.507812 A 10.993824 10.993824 0 0 1 12.673828 17.306641 A 10.993824 10.993824 0 0 1 12.484375 17.103516 A 10.993824 10.993824 0 0 1 12.300781 16.894531 A 10.993824 10.993824 0 0 1 12.298828 16.892578 A 10.993824 10.993824 0 0 1 12.121094 16.679688 A 10.993824 10.993824 0 0 1 11.947266 16.460938 A 10.993824 10.993824 0 0 1 11.779297 16.238281 A 10.993824 10.993824 0 0 1 11.617188 16.011719 A 10.993824 10.993824 0 0 1 11.460938 15.78125 A 10.993824 10.993824 0 0 1 11.460938 15.779297 A 10.993824 10.993824 0 0 1 11.3125 15.544922 A 10.993824 10.993824 0 0 1 11.167969 15.306641 A 10.993824 10.993824 0 0 1 11.029297 15.064453 A 10.993824 10.993824 0 0 1 10.896484 14.818359 A 10.993824 10.993824 0 0 1 10.771484 14.570312 A 10.993824 10.993824 0 0 1 10.652344 14.318359 A 10.993824 10.993824 0 0 1 10.539062 14.0625 A 10.993824 10.993824 0 0 1 10.433594 13.804688 A 10.993824 10.993824 0 0 1 10.333984 13.544922 A 10.993824 10.993824 0 0 1 10.240234 13.28125 A 10.993824 10.993824 0 0 1 10.154297 13.017578 A 10.993824 10.993824 0 0 1 10.089844 12.802734 L 0.4765625 15.652344 z "
       transform="scale(0.26458333)" />
    <path
       id="path4762"
       style="opacity:0.998058;fill:#37c871;fill-opacity:1;stroke-width:2.20725;stroke-linecap:round;stroke-linejoin:round;paint-order:stroke fill markers"
       d="M 28.621094 10.128906 L 9.6601562 10.128906 A 10.993824 10.993824 0 0 0 9.6660156 10.279297 A 10.993824 10.993824 0 0 0 9.6835938 10.556641 A 10.993824 10.993824 0 0 0 9.7089844 10.835938 A 10.993824 10.993824 0 0 0 9.7402344 11.113281 A 10.993824 10.993824 0 0 0 9.7773438 11.388672 A 10.993824 10.993824 0 0 0 9.8242188 11.664062 A 10.993824 10.993824 0 0 0 9.875 11.9375 A 10.993824 10.993824 0 0 0 9.9355469 12.208984 A 10.993824 10.993824 0 0 0 10 12.480469 A 10.993824 10.993824 0 0 0 10.074219 12.75 A 10.993824 10.993824 0 0 0 10.154297 13.017578 A 10.993824 10.993824 0 0 0 10.240234 13.28125 A 10.993824 10.993824 0 0 0 10.333984 13.544922 A 10.993824 10.993824 0 0 0 10.433594 13.804688 A 10.993824 10.993824 0 0 0 10.539062 14.0625 A 10.993824 10.993824 0 0 0 10.652344 14.318359 A 10.993824 10.993824 0 0 0 10.771484 14.570312 A 10.993824 10.993824 0 0 0 10.896484 14.818359 A 10.993824 10.993824 0 0 0 11.029297 15.064453 A 10.993824 10.993824 0 0 0 11.167969 15.306641 A 10.993824 10.993824 0 0 0 11.3125 15.544922 A 10.993824 10.993824 0 0 0 11.460938 15.779297 A 10.993824 10.993824 0 0 0 11.617188 16.011719 A 10.993824 10.993824 0 0 0 11.779297 16.238281 A 10.993824 10.993824 0 0 0 11.947266 16.460938 A 10.993824 10.993824 0 0 0 12.121094 16.679688 A 10.993824 10.993824 0 0 0 12.298828 16.892578 A 10.993824 10.993824 0 0 0 12.484375 17.103516 A 10.993824 10.993824 0 0 0 12.673828 17.306641 A 10.993824 10.993824 0 0 0 12.867188 17.507812 A 10.993824 10.993824 0 0 0 13.066406 17.701172 A 10.993824 10.993824 0 0 0 13.271484 17.890625 A 10.993824 10.993824 0 0 0 13.480469 18.076172 A 10.993824 10.993824 0 0 0 13.693359 18.255859 A 10.993824 10.993824 0 0 0 13.912109 18.427734 A 10.993824 10.993824 0 0 0 14.134766 18.595703 A 10.993824 10.993824 0 0 0 14.361328 18.759766 A 10.993824 10.993824 0 0 0 14.591797 18.916016 A 10.993824 10.993824 0 0 0 14.826172 19.066406 A 10.993824 10.993824 0 0 0 15.064453 19.210938 A 10.993824 10.993824 0 0 0 15.306641 19.349609 A 10.993824 10.993824 0 0 0 15.552734 19.480469 A 10.993824 10.993824 0 0 0 15.800781 19.607422 A 10.993824 10.993824 0 0 0 16.052734 19.726562 A 10.993824 10.993824 0 0 0 16.308594 19.839844 A 10.993824 10.993824 0 0 0 16.564453 19.947266 A 10.993824 10.993824 0 0 0 16.826172 20.046875 A 10.993824 10.993824 0 0 0 17.087891 20.140625 A 10.993824 10.993824 0 0 0 17.353516 20.228516 A 10.993824 10.993824 0 0 0 17.621094 20.308594 A 10.993824 10.993824 0 0 0 17.888672 20.380859 A 10.993824 10.993824 0 0 0 18.160156 20.447266 A 10.993824 10.993824 0 0 0 18.431641 20.507812 A 10.993824 10.993824 0 0 0 18.705078 20.560547 A 10.993824 10.993824 0 0 0 18.980469 20.605469 A 10.993824 10.993824 0 0 0 19.257812 20.644531 A 10.993824 10.993824 0 0 0 19.533203 20.675781 A 10.993824 10.993824 0 0 0 19.8125 20.701172 A 10.993824 10.993824 0 0 0 20.089844 20.71875 A 10.993824 10.993824 0 0 0 20.369141 20.730469 A 10.993824 10.993824 0 0 0 20.648438 20.732422 A 10.993824 10.993824 0 0 0 20.908203 20.730469 A 10.993824 10.993824 0 0 0 21.1875 20.720703 A 10.993824 10.993824 0 0 0 21.464844 20.703125 A 10.993824 10.993824 0 0 0 21.744141 20.677734 A 10.993824 10.993824 0 0 0 22.019531 20.646484 A 10.993824 10.993824 0 0 0 22.296875 20.609375 A 10.993824 10.993824 0 0 0 22.572266 20.564453 A 10.993824 10.993824 0 0 0 22.845703 20.511719 A 10.993824 10.993824 0 0 0 23.117188 20.451172 A 10.993824 10.993824 0 0 0 23.388672 20.386719 A 10.993824 10.993824 0 0 0 23.658203 20.3125 A 10.993824 10.993824 0 0 0 23.925781 20.232422 A 10.993824 10.993824 0 0 0 24.189453 20.146484 A 10.993824 10.993824 0 0 0 24.453125 20.052734 A 10.993824 10.993824 0 0 0 24.712891 19.953125 A 10.993824 10.993824 0 0 0 24.970703 19.847656 A 10.993824 10.993824 0 0 0 25.226562 19.734375 A 10.993824 10.993824 0 0 0 25.478516 19.615234 A 10.993824 10.993824 0 0 0 25.726562 19.490234 A 10.993824 10.993824 0 0 0 25.972656 19.357422 A 10.993824 10.993824 0 0 0 26.214844 19.21875 A 10.993824 10.993824 0 0 0 26.453125 19.076172 A 10.993824 10.993824 0 0 0 26.6875 18.925781 A 10.993824 10.993824 0 0 0 26.919922 18.769531 A 10.993824 10.993824 0 0 0 27.146484 18.607422 A 10.993824 10.993824 0 0 0 27.369141 18.439453 A 10.993824 10.993824 0 0 0 27.587891 18.265625 A 10.993824 10.993824 0 0 0 27.800781 18.087891 A 10.993824 10.993824 0 0 0 28.009766 17.902344 A 10.993824 10.993824 0 0 0 28.214844 17.712891 A 10.993824 10.993824 0 0 0 28.416016 17.519531 A 10.993824 10.993824 0 0 0 28.609375 17.320312 A 10.993824 10.993824 0 0 0 28.798828 17.115234 A 10.993824 10.993824 0 0 0 28.984375 16.90625 A 10.993824 10.993824 0 0 0 29.162109 16.693359 A 10.993824 10.993824 0 0 0 29.335938 16.474609 A 10.993824 10.993824 0 0 0 29.390625 16.402344 A 14.5 14.5 0 0 0 29.460938 14.986328 A 14.5 14.5 0 0 0 28.621094 10.128906 z "
       transform="scale(0.26458333)" />
    <path
       id="path4775"
       style="opacity:0.998058;fill:#d7eff4;fill-opacity:1;stroke-width:2.20725;stroke-linecap:round;stroke-linejoin:round;paint-order:stroke fill markers"
       d="M 14.960938 0.48632812 A 14.5 14.5 0 0 0 14.707031 0.49023438 A 10.993824 10.993824 0 0 0 14.607422 0.5546875 A 10.993824 10.993824 0 0 0 14.375 0.70898438 A 10.993824 10.993824 0 0 0 14.148438 0.87109375 A 10.993824 10.993824 0 0 0 13.925781 1.0390625 A 10.993824 10.993824 0 0 0 13.707031 1.2128906 A 10.993824 10.993824 0 0 0 13.494141 1.390625 A 10.993824 10.993824 0 0 0 13.285156 1.5761719 A 10.993824 10.993824 0 0 0 13.080078 1.765625 A 10.993824 10.993824 0 0 0 12.878906 1.9589844 A 10.993824 10.993824 0 0 0 12.685547 2.1582031 A 10.993824 10.993824 0 0 0 12.496094 2.3632812 A 10.993824 10.993824 0 0 0 12.310547 2.5722656 A 10.993824 10.993824 0 0 0 12.132812 2.7851562 A 10.993824 10.993824 0 0 0 11.958984 3.0039062 A 10.993824 10.993824 0 0 0 11.791016 3.2265625 A 10.993824 10.993824 0 0 0 11.628906 3.453125 A 10.993824 10.993824 0 0 0 11.470703 3.6835938 A 10.993824 10.993824 0 0 0 11.320312 3.9179688 A 10.993824 10.993824 0 0 0 11.175781 4.15625 A 10.993824 10.993824 0 0 0 11.037109 4.3984375 A 10.993824 10.993824 0 0 0 10.90625 4.6445312 A 10.993824 10.993824 0 0 0 10.779297 4.8925781 A 10.993824 10.993824 0 0 0 10.660156 5.1445312 A 10.993824 10.993824 0 0 0 10.546875 5.4003906 A 10.993824 10.993824 0 0 0 10.439453 5.6582031 A 10.993824 10.993824 0 0 0 10.339844 5.9179688 A 10.993824 10.993824 0 0 0 10.246094 6.1796875 A 10.993824 10.993824 0 0 0 10.158203 6.4453125 A 10.993824 10.993824 0 0 0 10.078125 6.7128906 A 10.993824 10.993824 0 0 0 10.005859 6.9804688 A 10.993824 10.993824 0 0 0 9.9394531 7.2519531 A 10.993824 10.993824 0 0 0 9.8789062 7.5234375 A 10.993824 10.993824 0 0 0 9.8261719 7.7988281 A 10.993824 10.993824 0 0 0 9.78125 8.0722656 A 10.993824 10.993824 0 0 0 9.7421875 8.3496094 A 10.993824 10.993824 0 0 0 9.7109375 8.6269531 A 10.993824 10.993824 0 0 0 9.6855469 8.9042969 A 10.993824 10.993824 0 0 0 9.6679688 9.1816406 A 10.993824 10.993824 0 0 0 9.65625 9.4609375 A 10.993824 10.993824 0 0 0 9.6542969 9.7402344 A 10.993824 10.993824 0 0 0 9.65625 10 A 10.993824 10.993824 0 0 0 9.6601562 10.128906 L 28.621094 10.128906 A 14.5 14.5 0 0 0 14.960938 0.48632812 z "
       transform="scale(0.26458333)" />
    <g
       id="g4709"
       transform="matrix(0.01097852,0,0,0.01097852,0.81065884,1.1824297)">
      <g
         id="g4693">
        <path
           id="path4689"
           fill="#ffb69e"
           d="m 182.761,186.197 17.902,-10.496 1.694,-25.524 -21.837,-12.417 -30.9,18.164 c -7.017,4.115 -11.102,11.846 -10.545,19.961 l 6.688,97.511 c 0.809,11.794 11.02,20.731 22.855,19.922 11.813,-0.81 20.732,-11.043 19.922,-22.855 z"
           inkscape:connector-curvature="0"
           style="fill:#c56f36;fill-opacity:1" />
        <path
           id="path4691"
           fill="#4699f2"
           d="m 258.162,117.136 c -5.989,-10.214 -19.124,-13.638 -29.338,-7.651 l -48.304,28.275 20.142,37.941 49.848,-29.227 c 10.215,-5.989 13.64,-19.124 7.652,-29.338 z"
           inkscape:connector-curvature="0" />
      </g>
      <g
         id="XMLID_3744_">
        <path
           id="path4695"
           fill="#5f6e9b"
           d="m 75.356,402.504 c -2.416,-14.001 6.976,-27.31 20.978,-29.725 l 92.723,-15.996 3.877,-63.265 52.849,-12.863 -6.757,99.78 c -0.802,11.84 -9.599,21.596 -21.294,23.614 l -112.65,19.434 c -13.941,2.408 -27.301,-6.921 -29.726,-20.979 z"
           inkscape:connector-curvature="0"
           style="fill:#414b82;fill-opacity:1" />
      </g>
      <g
         id="XMLID_3743_">
        <path
           id="path4698"
           fill="#414b82"
           d="m 316.772,487.899 -12.516,-118.401 -37.995,-80.6 c -6.058,-12.852 -0.551,-28.181 12.301,-34.24 12.852,-6.056 28.182,-0.551 34.24,12.301 l 39.85,84.537 c 1.228,2.606 2.011,5.4 2.314,8.265 L 367.94,482.49 c 1.493,14.13 -8.75,26.795 -22.879,28.289 -14.159,1.493 -26.798,-8.774 -28.289,-22.88 z"
           inkscape:connector-curvature="0"
           style="fill:#5f6e9b;fill-opacity:1" />
      </g>
      <path
         id="path4701"
         style="stroke-width:0.0414936;fill:#4699f2;fill-opacity:1"
         d="M 14.126953 8.8789062 L 13.363281 8.7714844 C 12.721416 8.6810698 12.129477 9.127708 12.039062 9.7695312 L 11.070312 16.648438 L 13.318359 17.017578 L 14.126953 8.8789062 z "
         transform="matrix(24.100091,0,0,24.100091,-73.840448,-107.70393)" />
      <path
         id="path4836"
         style="stroke-width:0.0414936;fill:#4699f2;fill-opacity:1"
         d="M 14.126953 8.8789062 L 13.318359 17.017578 L 14.412109 17.197266 C 15.30194 17.343365 16.136198 16.727218 16.259766 15.833984 L 17.001953 10.470703 C 17.092368 9.8288383 16.645771 9.2349458 16.003906 9.1445312 L 14.126953 8.8789062 z "
         transform="matrix(24.100091,0,0,24.100091,-73.840448,-107.70393)" />
      <ellipse
         id="ellipse4703"
         transform="matrix(0.915,-0.403,0.403,0.915,6.832,127.043)"
         ry="47.273998"
         rx="47.272999"
         fill="#ffb69e"
         cy="47.278999"
         cx="305.44501"
         style="fill:#d38d5f" />
      <path
         id="path4705"
         fill="#ffb69e"
         d="m 427.293,82.625 c -9.503,-7.063 -22.932,-5.083 -29.995,4.421 l -42.272,56.885 -30.016,-10.264 -12.266,17.794 v 23.326 l 43.218,14.778 c 8.853,3.028 18.604,-0.043 24.144,-7.498 l 51.607,-69.447 c 7.063,-9.504 5.083,-22.933 -4.42,-29.995 z"
         inkscape:connector-curvature="0"
         style="fill:#d38d5f" />
      <path
         id="path4707"
         fill="#4699f2"
         d="m 325.01,133.666 -47.866,-16.368 c -11.205,-3.832 -23.391,2.146 -27.222,13.349 -3.831,11.203 2.146,23.391 13.349,27.222 l 49.473,16.917 z"
         inkscape:connector-curvature="0" />
    </g>
  </g>
</svg>
