<?xml version="1.0" encoding="UTF-8" standalone="no"?>
<svg
   xmlns:dc="http://purl.org/dc/elements/1.1/"
   xmlns:cc="http://creativecommons.org/ns#"
   xmlns:rdf="http://www.w3.org/1999/02/22-rdf-syntax-ns#"
   xmlns:svg="http://www.w3.org/2000/svg"
   xmlns="http://www.w3.org/2000/svg"
   xmlns:sodipodi="http://sodipodi.sourceforge.net/DTD/sodipodi-0.dtd"
   xmlns:inkscape="http://www.inkscape.org/namespaces/inkscape"
   height="300"
   viewBox="0 0 37.5 37.5"
   width="300"
   version="1.1"
   id="svg898"
   sodipodi:docname="sleepTime.svg"
   inkscape:version="1.0beta2 (2b71d25, 2019-12-03)"
   inkscape:export-filename="/Users/mike.xiao/Documents/Projects/DBT_icons/dbt_icons/sleepTime.png"
   inkscape:export-xdpi="197.75999"
   inkscape:export-ydpi="197.75999">
  <metadata
     id="metadata904">
    <rdf:RDF>
      <cc:Work
         rdf:about="">
        <dc:format>image/svg+xml</dc:format>
        <dc:type
           rdf:resource="http://purl.org/dc/dcmitype/StillImage" />
        <dc:title />
      </cc:Work>
    </rdf:RDF>
  </metadata>
  <defs
     id="defs902">
    <clipPath
       id="clipPath1046"
       clipPathUnits="userSpaceOnUse">
      <circle
         r="297.05664"
         cy="151.48233"
         cx="223.03902"
         id="circle1048"
         style="opacity:1;fill:#554133;fill-opacity:1;stroke-width:3.96249" />
    </clipPath>
  </defs>
  <sodipodi:namedview
     pagecolor="#ffffff"
     bordercolor="#666666"
     inkscape:document-rotation="0"
     borderopacity="1"
     objecttolerance="10"
     gridtolerance="10"
     guidetolerance="10"
     inkscape:pageopacity="0"
     inkscape:pageshadow="2"
     inkscape:window-width="1318"
     inkscape:window-height="691"
     id="namedview900"
     showgrid="false"
     inkscape:zoom="1.2316035"
     inkscape:cx="119.6717"
     inkscape:cy="114.73102"
     inkscape:window-x="-4"
     inkscape:window-y="29"
     inkscape:window-maximized="0"
     inkscape:current-layer="g952" />
  <g
     id="flat"
     transform="matrix(0.75167814,0,0,0.75167814,7.6596622,17.693457)">
    <g
       id="g952"
       transform="matrix(1.3303566,0,0,1.3303566,-6.8571168,-28.160683)">
      <circle
         style="opacity:1;fill:#493e37;fill-opacity:1;stroke-width:0.241773"
         id="path943"
         cx="16.388126"
         cy="22.367756"
         r="18.125" />
      <path
         style="fill:#745845;fill-opacity:1;stroke-width:0.0488502"
         id="path949-9"
         fill="#c99977"
         d="m 14.798818,8.2390496 h 0.380468 V 20.281508 h -0.380468 z"
         inkscape:connector-curvature="0" />
      <g
         transform="matrix(0.04755849,0,0,0.04727387,2.8711541,1.9285771)"
         id="g982">
        <path
           style="fill:#594335;fill-opacity:1"
           inkscape:connector-curvature="0"
           d="m 408,368 v 32 a 8,8 0 0 1 -8,8 H 112 a 8,8 0 0 1 -8,-8 v -32 z"
           fill="#a27b60"
           id="path903" />
        <path
           sodipodi:nodetypes="ccccc"
           inkscape:connector-curvature="0"
           d="m 136,136 h 240 l 0.98487,233.06439 h -240 z"
           fill="#3775a4"
           id="path905" />
        <path
           inkscape:connector-curvature="0"
           d="m 304,247.25 a 40.007,40.007 0 0 1 -34.49,24.41 c -0.79,0.06 -1.59,0.08 -2.39,0.08 A 40,40 0 0 1 262.59,192 q -0.15,0.465 -0.27,0.93 A 41.8,41.8 0 0 0 296,246 Z"
           fill="#fbca75"
           id="path907" />
        <path
           inkscape:connector-curvature="0"
           d="M 304,247.25 A 40.007,40.007 0 0 1 269.51,271.66 40,40 0 0 1 262.32,192.93 41.8,41.8 0 0 0 296,246 Z"
           fill="#fbb540"
           id="path909" />
        <path
           sodipodi:nodetypes="cccccc"
           inkscape:connector-curvature="0"
           d="m 311.09987,368.49462 c -2.1687,-11.1318 5.13274,-16.72123 12.83132,-18.43353 1.56276,-5.11469 4.14579,-12.31674 8.51424,-15.40202 C 339.57044,316.39808 359.01839,306.48948 376,316.28 l 0.0699,51.81439 z"
           fill="#f3f3f0"
           id="path911" />
        <path
           sodipodi:nodetypes="ccccccc"
           inkscape:connector-curvature="0"
           d="m 317.32981,368.49462 c -5.775,-12.02 -6.01593,7.38956 -6.75987,2.91561 1.52902,-8.96608 9.99242,-17.10691 18.69354,-19.75624 -1.14838,-2.93272 2.15017,-10.6719 9.15,-15.87496 7.12501,-18.26099 26.83485,-21.85932 43.81646,-12.0688 l 0.98487,44.78439 z"
           fill="#e4e4e2"
           id="path913" />
        <path
           inkscape:connector-curvature="0"
           d="m 256,276 a 27.693,27.693 0 0 1 -0.29,4 A 28,28 0 0 1 228,304 H 156 A 27.986,27.986 0 0 1 128.29,279.99 27.554,27.554 0 0 1 128,276 a 28,28 0 0 1 17.1,-25.8 15.917,15.917 0 0 1 18.89,-9.68 32.007,32.007 0 0 1 59,7.48 H 228 a 28,28 0 0 1 28,28 z"
           fill="#f3f3f0"
           id="path915" />
        <path
           inkscape:connector-curvature="0"
           d="M 255.71,280 A 28,28 0 0 1 228,304 h -72 a 27.986,27.986 0 0 1 -27.71,-24.01 27.994,27.994 0 0 1 16.81,-21.79 15.917,15.917 0 0 1 18.89,-9.68 32.007,32.007 0 0 1 59,7.48 H 228 a 27.989,27.989 0 0 1 27.71,24 z"
           fill="#e4e4e2"
           id="path917" />
        <path
           inkscape:connector-curvature="0"
           d="m 331.889,167.211 3.787,11.656 a 2.083,2.083 0 0 0 1.981,1.439 h 12.256 a 2.083,2.083 0 0 1 1.224,3.769 l -9.915,7.2 a 2.084,2.084 0 0 0 -0.757,2.329 l 3.788,11.656 a 2.083,2.083 0 0 1 -3.206,2.329 l -9.915,-7.2 a 2.085,2.085 0 0 0 -2.449,0 l -9.915,7.2 a 2.083,2.083 0 0 1 -3.206,-2.329 l 3.787,-11.656 a 2.082,2.082 0 0 0 -0.756,-2.329 l -9.915,-7.2 a 2.083,2.083 0 0 1 1.224,-3.769 h 12.256 a 2.083,2.083 0 0 0 1.981,-1.439 l 3.787,-11.656 a 2.084,2.084 0 0 1 3.963,0 z"
           fill="#ea9d2d"
           id="path919" />
        <path
           style="fill:#f0b766;fill-opacity:1"
           inkscape:connector-curvature="0"
           d="m 212.54203,323.20967 3.787,11.656 a 2.083,2.083 0 0 0 1.981,1.44 h 12.256 a 2.083,2.083 0 0 1 1.224,3.768 l -9.915,7.2 a 2.085,2.085 0 0 0 -0.757,2.329 l 3.788,11.656 a 2.083,2.083 0 0 1 -3.206,2.329 l -9.915,-7.2 a 2.085,2.085 0 0 0 -2.449,0 l -9.915,7.2 a 2.083,2.083 0 0 1 -3.206,-2.329 l 3.787,-11.656 a 2.083,2.083 0 0 0 -0.756,-2.329 l -9.915,-7.2 a 2.083,2.083 0 0 1 1.224,-3.768 h 12.256 a 2.083,2.083 0 0 0 1.981,-1.44 l 3.787,-11.656 a 2.084,2.084 0 0 1 3.963,0 z"
           fill="#ea9d2d"
           id="path921" />
        <path
           style="fill:#745845;fill-opacity:1"
           inkscape:connector-curvature="0"
           d="M 408,144 H 104 v -32 a 8,8 0 0 1 8,-8 h 288 a 8,8 0 0 1 8,8 z"
           fill="#a27b60"
           id="path923" />
        <g
           fill="#fbb540"
           id="g931">
          <path
             inkscape:connector-curvature="0"
             d="m 176,184 h 16 v 16 h -16 z"
             id="path925" />
          <path
             inkscape:connector-curvature="0"
             d="m 320,280 h 16 v 16 h -16 z"
             id="path927" />
          <path
             inkscape:connector-curvature="0"
             d="m 200,160 h 16 v 16 h -16 z"
             id="path929" />
        </g>
        <path
           sodipodi:nodetypes="ccccc"
           style="fill:#745845;fill-opacity:1"
           inkscape:connector-curvature="0"
           d="m 104,368 h 304 v 23.84 H 104 Z"
           fill="#8d6b54"
           id="path945" />
        <path
           style="fill:#745845;fill-opacity:1"
           inkscape:connector-curvature="0"
           d="m 128,136 h 8 v 240 h -8 z"
           fill="#c99977"
           id="path947" />
        <path
           style="fill:#745845;fill-opacity:1"
           inkscape:connector-curvature="0"
           d="m 376,136 h 8 v 240 h -8 z"
           fill="#c99977"
           id="path949" />
      </g>
      <g
         clip-path="url(#clipPath1046)"
         transform="matrix(0.0610153,0,0,0.0610153,2.8468208,12.946501)"
         id="g899">
        <g
           fill-rule="evenodd"
           id="g868">
          <path
             inkscape:connector-curvature="0"
             d="m 64.039062,202.79687 c -124.195312,216.37891 331.941408,206.6836 259.257808,14.21875 -5.92968,-1.66406 -10.51562,-15.71093 -16.79296,-16.55468 -55.86328,-7.625 -109.30078,-2.07422 -182.83203,-5.51953 -11.39063,-0.23438 -38.285161,-0.84766 -59.632818,7.85546 z m 0,0"
             fill="#e6e6e6"
             id="path840" />
          <path
             style="fill:#72471e;fill-opacity:1"
             sodipodi:nodetypes="csssscssscsc"
             inkscape:connector-curvature="0"
             d="M 0,305.875 V 427.96875 C 0,441.19531 10.804688,452 24.03125,452 H 487.96484 C 501.16406,452 512,441.19531 512,427.96484 V 305.875 H 74.347656 c -5.664062,0 -10.308594,-4.64063 -10.308594,-10.30859 V 101.78906 c 0,-17.609372 -10.854765,-16.078864 -28.46414,-16.078864 C 17.938204,85.714102 0,84.179688 0,101.78906 Z"
             fill="#b5722f"
             id="path842" />
          <path
             inkscape:connector-curvature="0"
             d="m 110.03125,194.88281 c 1.375,52.38672 38.54687,96.36328 89.30078,110.99219 h 95.40234 l 25.90235,-42.98438 -17.95703,-45.875 c -1.34375,12.9375 -5.66797,21.69922 -15.2461,31.33594 -0.23437,0.23438 -0.49609,0.4961 -0.75781,0.72656 -8.20703,8.03125 -18.57422,14.3125 -29.60937,18.63282 -20.44141,7.9414 -43.21875,9.08203 -59.07813,1.86718 l -37.14453,-16.90625 c -25.64063,-11.65234 -36.70703,-34.05078 -37.17188,-57.73046 -3.39062,-0.0586 -8.11718,-0.17579 -13.64062,-0.0586 z m 0,0"
             fill="#c2c7cc"
             id="path844" />
          <path
             style="fill:#54320f;fill-opacity:1"
             inkscape:connector-curvature="0"
             d="m 255.98437,333.41406 c -3.44531,38.13672 36.38672,78.14063 75.66407,81.03125 H 450.5 c 47.39453,0 61.5,-9.86719 61.5,-54.86719 V 305.87891 H 262.73047 c -2.86328,8.32031 -5.72266,16.32031 -6.7461,27.53515 z m 0,0"
             fill="#91561a"
             id="path846" />
          <path
             style="fill:#ffc66b;fill-opacity:1"
             inkscape:connector-curvature="0"
             d="m 236.18537,110.49254 -5.69532,12.46875 28.21094,12.84765 c 3.03516,1.3711 6.01563,3.15625 8.90625,5.25781 4.84766,-10.30859 -0.64062,-26.60156 -11.125,-31.36328 l -8.23437,-3.73828 c -4.5586,-2.07422 -9.98828,-0.0586 -12.0625,4.52735 z m 0,0"
             fill="#eda93b"
             id="path848" />
          <path
             style="fill:#efb860;fill-opacity:1"
             inkscape:connector-curvature="0"
             d="m 222.98828,116.03906 c -6.10547,95.98438 -51.07422,69.67188 -62.14453,136.63281 l 37.14453,16.90625 c 15.85938,7.21485 38.63672,6.07422 59.07813,-1.86718 11.38671,-4.44141 22.04687,-10.98047 30.37109,-19.35938 9.57812,-9.63672 13.89844,-18.39844 15.24219,-31.33594 0.11718,-0.90234 0.17578,-1.83984 0.26172,-2.83203 0.23437,-3.41797 0.23437,-6.89062 0,-10.39453 -0.55469,-8.26562 -2.39454,-16.61719 -5.19922,-24.55859 -5.98438,-16.87891 -16.46875,-32.00391 -28.70313,-41.02735 -2.89062,-2.10156 -5.87109,-3.88671 -8.90625,-5.25781 l -28.21094,-12.84765 z m 0,0"
             fill="#ffdda6"
             id="path850" />
          <path
             style="fill:#4e4e4e;fill-opacity:1"
             inkscape:connector-curvature="0"
             d="m 222.98828,116.03906 c -54.31641,-24.703122 -98.70312,27.73828 -99.3164,76.30078 -0.0312,0.87891 -0.0312,1.75391 0,2.60157 0.46484,23.67968 11.53515,46.07812 37.17187,57.73046 11.07031,-66.95703 56.03906,-40.64843 62.14453,-136.63281 z m 0,0"
             fill="#808080"
             id="path852" />
          <path
             style="fill:#636363;fill-opacity:1"
             inkscape:connector-curvature="0"
             d="m 222.98828,116.03906 c -38.14062,-17.347654 -71.37109,3.32813 -88.01562,34.01953 18.25,-20.20703 45.49609,-30.45703 75.80859,-16.64843 l 8.9375,4.0625 0.93359,0.4375 c 1.05078,-6.51172 1.83985,-13.75391 2.33594,-21.8711 z m 0,0"
             fill="#666"
             id="path854" />
          <path
             style="fill:#ffd592;fill-opacity:1"
             inkscape:connector-curvature="0"
             d="m 222.98828,116.03906 c -0.49609,7.91407 -1.25781,15.00781 -2.25,21.375 l 27.15625,12.35156 c 3.06641,1.40235 6.04688,3.1836 8.91016,5.28516 12.26172,8.99219 22.71875,24.12109 28.70312,41.02734 2.83594,7.94141 4.64453,16.26563 5.19922,24.5586 0.23438,3.47265 0.23438,6.97656 0,10.39453 -0.0586,0.96484 -0.14453,1.92969 -0.23437,2.83203 -0.61328,5.75391 -1.8125,10.69141 -3.79688,15.21484 0.26563,-0.23437 0.52735,-0.49609 0.76172,-0.73046 9.57813,-9.63282 13.89844,-18.39454 15.24219,-31.33204 0.11719,-0.90625 0.17578,-1.83984 0.26172,-2.83203 0.23437,-3.41797 0.23437,-6.89062 0,-10.39843 -0.55469,-8.26172 -2.39453,-16.61329 -5.19922,-24.55469 -5.98438,-16.87891 -16.46875,-32.00781 -28.70313,-41.03125 -2.89062,-2.10156 -5.87109,-3.88281 -8.90625,-5.25391 l -28.21093,-12.84765 z m 0,0"
             fill="#fcc368"
             id="path856" />
          <path
             style="fill:#c87137;fill-opacity:1"
             inkscape:connector-curvature="0"
             d="m 294.73828,305.875 c -2.92187,31.33594 16.29297,59.36719 47.19141,66.57812 H 459.81641 C 500.02734,372.45312 512,364.33594 512,327.36719 V 165.21484 c 0,-9.63672 -7.88672,-17.52343 -17.51953,-17.52343 H 370.75 c -63.66016,0 -64.24609,22.6914 -67.80859,56.09765 0.23437,3.50391 0.23437,6.97656 0,10.39453 -0.0859,0.99219 -0.14454,1.92578 -0.26172,2.83203 11.125,57.35157 -5.375,61.44141 -7.94141,88.85938 z m 0,0"
             fill="#f78411"
             id="path858" />
          <path
             style="fill:#efb860;fill-opacity:1"
             inkscape:connector-curvature="0"
             d="m 371.07031,294.48828 -3.62109,11.38672 -4.90625,15.47656 c -1.98438,6.3086 -6.3086,9.55078 -9.08203,7.82813 -16.29297,-10.22266 -29.84375,11.58984 -10.94922,22.28125 4.64062,2.59765 0.67187,9.51953 0.0586,12.11718 -0.32422,1.45704 -0.52734,2.85938 -0.64453,4.26172 -0.14453,1.57813 -0.14453,3.125 0,4.61328 2.07422,23.74219 36.21094,33.23047 52.24219,0 1.25781,-2.59765 2.39453,-5.46093 3.41797,-8.58593 l 18.6875,-57.99219 c 4.5,-13.92969 3.44922,-24.20703 -0.84375,-37.96094 l -9.90235,-31.74219 h -37.64062 l -0.11719,26.19141 4.41016,16.00391 c 1.16797,7.65234 1.19922,8.82031 -1.10938,16.12109 z m 0,0"
             fill="#ffdda6"
             id="path860" />
          <path
             style="fill:#efb860;fill-opacity:1"
             inkscape:connector-curvature="0"
             d="m 396.62109,267.91406 c 4.26563,13.75391 5.34766,24.03125 0.84766,37.96094 l -13.48828,41.875 -5.22656,16.12109 c -0.9961,3.125 -2.13282,5.98438 -3.39063,8.58203 -5.10937,10.57422 -12.02734,16.82032 -19.18359,19.65235 11.85547,4.9375 28.23828,0.49609 37.99218,-19.65235 1.25391,-2.59765 2.39454,-5.46093 3.41797,-8.58203 l 4.875,-15.1289 13.8125,-42.86328 c 0,-0.0312 0,-0.0586 0.0312,-0.0899 0,0 0,-0.0273 0,-0.0586 0.37891,-1.13672 0.69922,-2.25 0.99219,-3.32813 3.26953,-12.20703 2.04297,-21.87109 -1.87109,-34.42968 0,-0.0274 0,-0.0274 0,-0.0586 l -9.89844,-31.73828 -0.35156,0.4375 c 0,0.0273 0,0.0273 -0.0274,0.0273 -0.0312,0.0586 -0.0586,0.0898 -0.0898,0.14454 -1.98438,2.51171 -4.4375,4.73437 -7.03516,6.77734 -2.39453,1.83984 -4.90625,3.5625 -7.39062,5.25391 z m 0,0"
             fill="#fcc368"
             id="path862" />
          <path
             style="fill:#4a83c9;fill-opacity:1"
             inkscape:connector-curvature="0"
             d="m 302.94141,203.78906 30.19531,42.05078 c 7.67969,10.71485 21.375,19.32813 34.63281,16.52735 1.87109,-0.38282 3.73828,-0.9961 5.57813,-1.8711 4.55859,-2.1875 9.90234,-6.51172 14.13671,-9.48828 6.10157,-4.32422 13.10938,-8.46875 17.69532,-14.39844 l 0.34765,-0.4375 c 9.08203,-12.05859 9.84375,-29.17187 0.67188,-42.13671 l -23.39063,-33.17188 c -3.79297,-5.22656 -7.85547,-9.57812 -12.05859,-13.17187 -33.96094,-28.73047 -78.08594,-6.10157 -73.00391,31.53906 2.80078,7.9414 4.64063,16.29297 5.19532,24.55859 z m 0,0"
             fill="#64b0d9"
             id="path864" />
          <path
             style="fill:#64b0d9;fill-opacity:1"
             inkscape:connector-curvature="0"
             d="m 364.76172,175.66797 23.39062,33.17187 c 4.11719,5.83985 6.22266,12.5 6.48438,19.1836 0.11719,2.71875 -0.11719,5.46093 -0.61328,8.14843 -1.01953,5.31641 -3.24219,10.39454 -6.53906,14.83594 0.0273,-0.0312 0.0547,-0.0586 0.11718,-0.0898 3.38672,-2.39453 7.03516,-4.73047 10.42188,-7.35938 2.66015,-2.07422 5.11328,-4.32031 7.125,-6.92187 0.0312,0 0.0312,0 0.0312,-0.0273 l 0.34765,-0.4375 c 1.89844,-2.51171 3.41797,-5.28515 4.58594,-8.14843 4.37891,-10.92188 3.32813,-23.74219 -3.91406,-33.98828 l -23.39063,-33.17579 c -3.79297,-5.22656 -7.85547,-9.57812 -12.05859,-13.16796 -24.73438,-20.9375 -54.89844,-14.60157 -67.45703,4.96484 14.42578,-5.89844 33.08594,-3.94141 49.41015,9.86719 4.20313,3.5664 8.26563,7.91797 12.0586,13.14453 z m 0,0"
             fill="#4a83c9"
             id="path866" />
        </g>
        <path
           style="fill:#afc6e9;fill-opacity:1"
           inkscape:connector-curvature="0"
           d="m 419.04234,19.189256 h 37.08594 c 3.15234,0 5.99609,1.89843 7.19922,4.8164 1.20312,2.91797 0.52734,6.26953 -1.70703,8.4961 l -21.89453,21.78515 h 17.60156 c 4.30078,0 7.78516,3.488281 7.78516,7.792971 0,4.30078 -3.48438,7.78906 -7.78516,7.78906 h -36.47656 c -3.15235,0 -5.9961,-1.90234 -7.19532,-4.82031 -1.20312,-2.91406 -0.53125,-6.26953 1.70704,-8.496091 l 21.89453,-21.78516 h -18.21485 c -4.30078,0 -7.78515,-3.48828 -7.78515,-7.78906 0,-4.30469 3.48437,-7.78906 7.78515,-7.78906 z m 0,0"
           fill="#666"
           id="path870" />
        <path
           style="fill:#afc6e9;fill-opacity:1"
           inkscape:connector-curvature="0"
           d="m 342.56187,55.661906 h 37.08594 c 3.15235,0 5.9961,1.902351 7.19922,4.820321 1.20313,2.91796 0.52734,6.26953 -1.71094,8.49218 l -21.8789,21.75781 h 17.58984 c 4.30078,0 7.78516,3.48438 7.78516,7.78907 0,4.300783 -3.48438,7.789063 -7.78516,7.789063 h -36.47656 c -3.15235,0 -5.9961,-1.90234 -7.19531,-4.82031 -1.20313,-2.917973 -0.52735,-6.273443 1.70703,-8.496103 l 21.88281,-21.7539 h -18.20313 c -4.30078,0 -7.78906,-3.48828 -7.78906,-7.78906 0,-4.30079 3.48828,-7.789071 7.78906,-7.789071 z m 0,0"
           fill="#666"
           id="path872" />
      </g>
      <path
         inkscape:connector-curvature="0"
         d="m 20.750123,15.164788 v 0.380468 H 8.9724328 v -0.380468 z"
         fill="#c99977"
         id="path949-9-9"
         style="fill:#745845;fill-opacity:1;stroke-width:0.0483102" />
      <rect
         ry="0"
         y="8.7793741"
         x="9.3391085"
         height="6.3701048"
         width="11.358459"
         id="rect1029"
         style="fill:#ffffff;fill-opacity:0.10483871;stroke-width:0.337761;stroke-linecap:round;paint-order:stroke fill markers;stop-color:#000000" />
      <path
         style="fill:#745845;fill-opacity:1;stroke-width:0.0138811"
         id="path949-9-9-6"
         fill="#c99977"
         d="m 15.795865,14.800719 v 0.386224 h -0.95788 v -0.386224 z"
         inkscape:connector-curvature="0" />
      <path
         sodipodi:nodetypes="ccssssc"
         id="path923-2"
         fill="#a27b60"
         d="M 22.308151,8.4046817 7.7841038,8.3715484 7.817237,7.0424299 C 7.8199535,6.9334591 7.9875783,6.8450596 8.197705,6.8450596 H 21.89455 c 0.210127,0 0.380468,0.088366 0.380468,0.1973703 z"
         inkscape:connector-curvature="0"
         style="fill:#554133;fill-opacity:1;stroke-width:0.0342539" />
    </g>
  </g>
</svg>
