<?xml version="1.0" encoding="UTF-8" standalone="no"?>
<svg
   xmlns:dc="http://purl.org/dc/elements/1.1/"
   xmlns:cc="http://creativecommons.org/ns#"
   xmlns:rdf="http://www.w3.org/1999/02/22-rdf-syntax-ns#"
   xmlns:svg="http://www.w3.org/2000/svg"
   xmlns="http://www.w3.org/2000/svg"
   xmlns:sodipodi="http://sodipodi.sourceforge.net/DTD/sodipodi-0.dtd"
   xmlns:inkscape="http://www.inkscape.org/namespaces/inkscape"
   inkscape:export-ydpi="197.75999"
   inkscape:export-xdpi="197.75999"
   inkscape:export-filename="/Users/mike.xiao/Documents/Projects/DBT_icons/dbt_icons/socialize.png"
   inkscape:version="1.0beta2 (2b71d25, 2019-12-03)"
   sodipodi:docname="socialize.svg"
   id="svg898"
   version="1.1"
   width="300"
   viewBox="0 0 37.5 37.5"
   height="300">
  <metadata
     id="metadata904">
    <rdf:RDF>
      <cc:Work
         rdf:about="">
        <dc:format>image/svg+xml</dc:format>
        <dc:type
           rdf:resource="http://purl.org/dc/dcmitype/StillImage" />
        <dc:title />
      </cc:Work>
    </rdf:RDF>
  </metadata>
  <defs
     id="defs902" />
  <sodipodi:namedview
     inkscape:current-layer="g952"
     inkscape:window-maximized="0"
     inkscape:window-y="23"
     inkscape:window-x="36"
     inkscape:cy="147.83703"
     inkscape:cx="-23.71679"
     inkscape:zoom="1.07"
     showgrid="false"
     id="namedview900"
     inkscape:window-height="657"
     inkscape:window-width="1324"
     inkscape:pageshadow="2"
     inkscape:pageopacity="0"
     guidetolerance="10"
     gridtolerance="10"
     objecttolerance="10"
     borderopacity="1"
     inkscape:document-rotation="0"
     bordercolor="#666666"
     pagecolor="#ffffff" />
  <g
     transform="matrix(0.75167814,0,0,0.75167814,7.6596622,17.693457)"
     id="flat">
    <g
       transform="matrix(1.3303566,0,0,1.3303566,-6.8571168,-28.160683)"
       id="g952">
      <circle
         r="18.125"
         cy="22.367756"
         cx="16.388126"
         id="path943"
         style="opacity:1;fill:#5fd38d;fill-opacity:0.80241895;stroke-width:0.241773" />
      <g
         id="g2030"
         transform="matrix(0.05007254,0,0,0.05007254,4.4933999,9.8490478)">
        <path
           id="path1944"
           fill="#cc7643"
           d="m 509.14062,313.3125 c -4.45312,-5.05859 -7.95312,-11.23438 -10.53515,-17.08203 -7.53125,-17.03906 -1.65625,-40.78125 -19.82031,-52.03906 -13.26954,-8.22266 -32.3086,-5.6211 -44.80469,2.86328 -3.80078,2.58203 -21.4961,18.94922 -18.03125,24.48047 0.0195,0.0312 45.53515,72.65234 45.53515,72.65234 25.58594,5.05859 40.58594,-6.99219 47.98438,-16.11719 3.50391,-4.32422 3.34766,-10.58203 -0.32813,-14.75781 z m 0,0"
           inkscape:connector-curvature="0" />
        <path
           id="path1946"
           fill="#fbc4ac"
           d="m 129.96484,19.535156 c 71.78907,0 129.97657,49.035156 129.97657,122.238284 0,73.20703 -58.19141,132.54297 -129.97657,132.54297 C 58.1875,274.31641 0,214.98047 0,141.77344 0,68.570312 58.1875,19.535156 129.96484,19.535156 Z m 0,0"
           inkscape:connector-curvature="0" />
        <path
           id="path1948"
           fill="#e3b098"
           d="m 24.722656,141.77344 c 0,-68.949221 51.628906,-116.453128 117.605464,-121.738284 -4.07031,-0.328125 -8.1914,-0.5 -12.36328,-0.5 C 58.1875,19.535156 0,68.570312 0,141.77344 c 0,73.20703 58.1875,132.54297 129.96484,132.54297 4.17188,0 8.29297,-0.20703 12.36328,-0.60157 C 76.351562,267.36719 24.722656,210.72656 24.722656,141.77344 Z m 0,0"
           inkscape:connector-curvature="0" />
        <path
           id="path1950"
           fill="#3a484a"
           d="m 60.6875,169.27344 c -4.265625,0 -7.726562,-3.46094 -7.726562,-7.72657 v -13.47265 c 0,-4.26563 3.460937,-7.72656 7.726562,-7.72656 4.265625,0 7.726562,3.46093 7.726562,7.72656 v 13.47265 c 0,4.26563 -3.460937,7.72657 -7.726562,7.72657 z m 0,0"
           inkscape:connector-curvature="0" />
        <path
           id="path1952"
           fill="#f98084"
           d="M 69.863281,189.07422 H 51.515625 c -4.269531,0 -7.726563,-3.46094 -7.726563,-7.72656 0,-4.26954 3.457032,-7.72657 7.726563,-7.72657 h 18.347656 c 4.265625,0 7.726563,3.45703 7.726563,7.72657 0,4.26562 -3.460938,7.72656 -7.726563,7.72656 z m 0,0"
           inkscape:connector-curvature="0" />
        <path
           id="path1954"
           fill="#3a484a"
           d="m 199.25391,169.27344 c -4.26954,0 -7.72657,-3.46094 -7.72657,-7.72657 v -13.47265 c 0,-4.26563 3.45703,-7.72656 7.72657,-7.72656 4.26562,0 7.72656,3.46093 7.72656,7.72656 v 13.47265 c 0,4.26563 -3.46094,7.72657 -7.72656,7.72657 z m 0,0"
           inkscape:connector-curvature="0" />
        <path
           id="path1956"
           fill="#f98084"
           d="m 208.42578,189.07422 h -18.34766 c -4.26562,0 -7.72656,-3.46094 -7.72656,-7.72656 0,-4.26954 3.46094,-7.72657 7.72656,-7.72657 h 18.34766 c 4.26953,0 7.72656,3.45703 7.72656,7.72657 0,4.26562 -3.45703,7.72656 -7.72656,7.72656 z m 0,0"
           inkscape:connector-curvature="0" />
        <path
           id="path1958"
           fill="#3a484a"
           d="m 129.96875,188.3125 c -7.05859,0 -13.69531,-2.96094 -18.20703,-8.125 -2.80859,-3.21484 -2.48047,-8.09375 0.73047,-10.90234 3.21094,-2.8086 8.09375,-2.48047 10.90234,0.73046 1.57813,1.8086 3.97656,2.84375 6.57422,2.84375 2.60156,0 4.99609,-1.03515 6.57422,-2.84375 2.80859,-3.21093 7.6914,-3.53906 10.90234,-0.73046 3.21485,2.80859 3.54297,7.6914 0.73438,10.90234 -4.51563,5.16406 -11.15235,8.125 -18.21094,8.125 z m 0,0"
           inkscape:connector-curvature="0" />
        <path
           id="path1960"
           fill="#3a484a"
           d="M 6.21875,101.16016 C 15.144531,-7.5 58.960938,9.234375 129.96484,9.234375 c 53.67969,0 79.45703,-5.375 90.44141,-8.800781 4.39062,-1.371094 9.11719,0.605468 11.20703,4.707031 8.76563,17.203125 28.32813,63.75 28.32813,136.636715 0,0 -31.08594,-55.980465 -129.97657,-55.980465 -45.999996,0 -42.15234,15.363285 -123.74609,15.363285 z m 0,0"
           inkscape:connector-curvature="0" />
        <path
           id="path1962"
           fill="#323e40"
           d="M 98.53125,8.542969 C 46.050781,7.070312 13.742188,9.582031 6.21875,101.16016 c 9.304688,0 17.488281,-0.20313 24.773438,-0.55469 C 37.320312,24.90625 60.710938,10.425781 98.53125,8.542969 Z m 0,0"
           inkscape:connector-curvature="0" />
        <path
           id="path1964"
           fill="#fbc4ac"
           d="m 465.10547,375.33594 c 0,73.20703 -58.1875,132.54297 -129.96875,132.54297 -71.78516,0 -129.97266,-59.33594 -129.97266,-132.54297 43.11328,-106.16406 129.97266,-41.81641 129.97266,-41.81641 0,0 86.86328,-64.34766 129.96875,41.81641 z m 0,0"
           inkscape:connector-curvature="0" />
        <path
           id="path1966"
           fill="#e3b098"
           d="m 335.13672,507.87891 c 4.08984,0 8.23437,-0.1211 12.29687,-0.59375 0.0195,0 0.043,-0.004 0.0625,-0.004 -65.98437,-6.35156 -117.60937,-62.99219 -117.60937,-131.94531 0,-16.86719 3.09766,-32.9961 8.73437,-47.83594 -12.34375,9.34766 -23.96093,24.45703 -33.45703,47.83594 0,4.52343 0.22266,9.05468 0.67188,13.55468 6.65625,66.83985 62.0039,118.98829 129.30078,118.98829 z m 0,0"
           inkscape:connector-curvature="0" />
        <path
           id="path1968"
           fill="#e0824a"
           d="M 465.10547,375.33594 C 422,269.17187 335.13672,333.51953 335.13672,333.51953 c 0,0 -86.85938,-64.34766 -129.97266,41.81641 0,-73.20313 58.1875,-132.53906 129.97266,-132.53906 71.78125,0 129.96875,59.33593 129.96875,132.53906 z m 0,0"
           inkscape:connector-curvature="0" />
        <path
           id="path1970"
           fill="#cc7643"
           d="m 238.62109,327.5 c 17.39453,-45.81641 59.03516,-79.30469 108.875,-84.10547 -0.0195,0 -0.043,0 -0.0625,-0.004 -4.08203,-0.375 -8.19531,-0.59375 -12.29687,-0.59375 -67.29688,0 -122.64453,52.15235 -129.30078,118.98829 -0.22266,2.23047 -0.39063,4.47265 -0.50391,6.73437 -0.11328,2.25781 -0.16797,4.53125 -0.16797,6.82031 9.4961,-23.38281 21.11328,-38.49218 33.45703,-47.83984 z m 0,0"
           inkscape:connector-curvature="0" />
        <path
           id="path1972"
           fill="#3a484a"
           d="m 404.41797,402.83594 c -4.26953,0 -7.72656,-3.46094 -7.72656,-7.72657 v -13.47265 c 0,-4.26563 3.45703,-7.72656 7.72656,-7.72656 4.26562,0 7.72265,3.46093 7.72265,7.72656 v 13.47265 c 0,4.26563 -3.45703,7.72657 -7.72265,7.72657 z m 0,0"
           inkscape:connector-curvature="0" />
        <path
           id="path1974"
           fill="#f98084"
           d="m 413.58984,422.63672 h -18.34765 c -4.26953,0 -7.72656,-3.46094 -7.72656,-7.72656 0,-4.26953 3.45703,-7.72657 7.72656,-7.72657 h 18.34765 c 4.26954,0 7.72657,3.45703 7.72657,7.72657 0,4.26562 -3.45703,7.72656 -7.72657,7.72656 z m 0,0"
           inkscape:connector-curvature="0" />
        <path
           id="path1976"
           fill="#3a484a"
           d="m 265.85156,402.83594 c -4.26953,0 -7.72656,-3.46094 -7.72656,-7.72657 v -13.47265 c 0,-4.26563 3.45703,-7.72656 7.72656,-7.72656 4.26953,0 7.72656,3.46093 7.72656,7.72656 v 13.47265 c 0,4.26563 -3.45703,7.72657 -7.72656,7.72657 z m 0,0"
           inkscape:connector-curvature="0" />
        <path
           id="path1978"
           fill="#f98084"
           d="m 275.02734,422.63672 h -18.34765 c -4.26953,0 -7.72656,-3.46094 -7.72656,-7.72656 0,-4.26953 3.45703,-7.72657 7.72656,-7.72657 h 18.34765 c 4.26563,0 7.72657,3.45703 7.72657,7.72657 0,4.26562 -3.46094,7.72656 -7.72657,7.72656 z m 0,0"
           inkscape:connector-curvature="0" />
        <g
           id="g1994"
           fill="#3a484a">
          <path
             id="path1980"
             d="m 335.13281,421.875 c -7.05859,0 -13.69531,-2.96094 -18.20703,-8.125 -2.80859,-3.21484 -2.48047,-8.09375 0.73047,-10.90234 3.21094,-2.8086 8.09375,-2.48047 10.90234,0.73437 1.57813,1.80469 3.97266,2.83985 6.57422,2.83985 2.60157,0 4.9961,-1.03516 6.57813,-2.83985 2.80469,-3.21484 7.6875,-3.54297 10.89844,-0.73437 3.21484,2.80859 3.54296,7.6875 0.73437,10.90234 -4.51172,5.16406 -11.15234,8.125 -18.21094,8.125 z m 0,0"
             inkscape:connector-curvature="0" />
          <path
             id="path1982"
             d="m 308.88281,113.78516 c -2.83594,0 -5.5625,-1.56641 -6.91797,-4.27344 -1.90625,-3.81641 -0.35937,-8.45703 3.45703,-10.367189 l 16.76563,-8.382812 c 3.82031,-1.90625 8.45703,-0.359375 10.36719,3.457031 1.91015,3.816406 0.36328,8.45703 -3.45703,10.36719 l -16.76563,8.38281 c -1.10937,0.55078 -2.28906,0.81641 -3.44922,0.81641 z m 0,0"
             inkscape:connector-curvature="0"
             style="fill:#37abc8;fill-opacity:1" />
          <path
             id="path1984"
             d="m 325.63672,184.37109 c -1.16016,0 -2.33985,-0.26172 -3.44922,-0.8164 l -16.76953,-8.38282 c -3.8125,-1.91015 -5.35938,-6.55078 -3.45313,-10.36718 1.90625,-3.81641 6.54688,-5.36328 10.36719,-3.45313 l 16.76563,8.38281 c 3.8164,1.91016 5.36328,6.55079 3.45703,10.36719 -1.35547,2.70703 -4.08203,4.26953 -6.91797,4.26953 z m 0,0"
             inkscape:connector-curvature="0"
             style="fill:#37abc8;fill-opacity:1" />
          <path
             id="path1986"
             d="m 331.86328,144.88672 h -18.92969 c -4.26953,0 -7.72656,-3.46094 -7.72656,-7.72656 0,-4.26954 3.45703,-7.72657 7.72656,-7.72657 h 18.92969 c 4.26953,0 7.72656,3.45703 7.72656,7.72657 0,4.26562 -3.45703,7.72656 -7.72656,7.72656 z m 0,0"
             inkscape:connector-curvature="0"
             style="fill:#37abc8;fill-opacity:1" />
          <path
             id="path1988"
             d="m 150.44922,360.30469 c -1.16016,0 -2.33985,-0.26172 -3.44922,-0.81641 l -16.76953,-8.38281 c -3.81641,-1.91016 -5.36328,-6.55078 -3.45313,-10.36719 1.91016,-3.81641 6.55078,-5.36328 10.36719,-3.45703 l 16.76563,8.38672 c 3.8164,1.90625 5.36328,6.54687 3.45703,10.36328 -1.35547,2.70703 -4.08203,4.27344 -6.91797,4.27344 z m 0,0"
             inkscape:connector-curvature="0"
             style="fill:#37abc8;fill-opacity:1" />
          <path
             id="path1990"
             d="m 133.69531,430.89453 c -2.83594,0 -5.5664,-1.56641 -6.91797,-4.27344 -1.91015,-3.8164 -0.36328,-8.45703 3.45313,-10.36718 L 147,407.87109 c 3.81641,-1.91015 8.45703,-0.36328 10.36719,3.45313 1.90625,3.8164 0.35937,8.45703 -3.45703,10.36719 l -16.76563,8.38671 c -1.10937,0.55079 -2.28906,0.81641 -3.44922,0.81641 z m 0,0"
             inkscape:connector-curvature="0"
             style="fill:#37abc8;fill-opacity:1" />
          <path
             id="path1992"
             d="m 146.39844,391.40625 h -18.92969 c -4.26953,0 -7.72656,-3.46094 -7.72656,-7.72656 0,-4.26953 3.45703,-7.72657 7.72656,-7.72657 h 18.92969 c 4.26953,0 7.72656,3.45704 7.72656,7.72657 0,4.26562 -3.45703,7.72656 -7.72656,7.72656 z m 0,0"
             inkscape:connector-curvature="0"
             style="fill:#37abc8;fill-opacity:1" />
        </g>
      </g>
    </g>
  </g>
</svg>
