<?xml version="1.0" encoding="UTF-8" standalone="no"?>
<svg
   xmlns:dc="http://purl.org/dc/elements/1.1/"
   xmlns:cc="http://creativecommons.org/ns#"
   xmlns:rdf="http://www.w3.org/1999/02/22-rdf-syntax-ns#"
   xmlns:svg="http://www.w3.org/2000/svg"
   xmlns="http://www.w3.org/2000/svg"
   xmlns:sodipodi="http://sodipodi.sourceforge.net/DTD/sodipodi-0.dtd"
   xmlns:inkscape="http://www.inkscape.org/namespaces/inkscape"
   inkscape:export-ydpi="197.75999"
   inkscape:export-xdpi="197.75999"
   inkscape:export-filename="/Users/mike.xiao/Documents/Projects/DBT_icons/dbt_icons/targetBehaviorsDay.png"
   inkscape:version="1.0beta2 (2b71d25, 2019-12-03)"
   sodipodi:docname="targetBehaviorsDay.svg"
   version="1.1"
   width="300"
   viewBox="0 0 300 300"
   height="300"
   enable-background="new 0 0 512 512"
   id="Layer_1">
  <metadata
     id="metadata1039">
    <rdf:RDF>
      <cc:Work
         rdf:about="">
        <dc:format>image/svg+xml</dc:format>
        <dc:type
           rdf:resource="http://purl.org/dc/dcmitype/StillImage" />
        <dc:title></dc:title>
      </cc:Work>
    </rdf:RDF>
  </metadata>
  <defs
     id="defs1037" />
  <sodipodi:namedview
     inkscape:current-layer="Layer_1"
     inkscape:window-maximized="0"
     inkscape:window-y="23"
     inkscape:window-x="78"
     inkscape:cy="549.89558"
     inkscape:cx="174.56952"
     inkscape:zoom="1.2646927"
     showguides="false"
     showgrid="false"
     id="namedview1035"
     inkscape:window-height="755"
     inkscape:window-width="1318"
     inkscape:pageshadow="2"
     inkscape:pageopacity="0"
     guidetolerance="10"
     gridtolerance="10"
     objecttolerance="10"
     borderopacity="1"
     inkscape:document-rotation="0"
     bordercolor="#666666"
     pagecolor="#ffffff" />
  <g
     transform="matrix(0.38808222,0,0,0.38808222,27.764457,274.49966)"
     id="g1615" />
  <path
     inkscape:connector-curvature="0"
     d="M 149.1235,5.0317245 A 144.89999,145 0 0 0 5.1293673,150.02977 144.89999,145 0 0 0 147.72506,295.00829 Z"
     style="fill:#90dfff;fill-opacity:1;stroke:none;stroke-width:6.72555;stroke-linecap:round;stroke-linejoin:round;stroke-miterlimit:4;stroke-dasharray:none;stroke-opacity:1;paint-order:stroke fill markers"
     id="path1192" />
  <path
     inkscape:connector-curvature="0"
     d="M 149.1235,5.0317245 147.72506,295.00829 a 144.89999,145 0 0 0 2.30469,0.0215 144.89999,145 0 0 0 144.90039,-145 144.89999,145 0 0 0 -144.90039,-144.9999986 144.89999,145 0 0 0 -0.90625,0.00195 z"
     style="fill:#000080;fill-opacity:0.810484;stroke:none;stroke-width:6.72555;stroke-linecap:round;stroke-linejoin:round;stroke-miterlimit:4;stroke-dasharray:none;stroke-opacity:1;paint-order:stroke fill markers"
     id="path938" />
  <path
     id="path949-7"
     d="m 123.28757,204.8741 c -1.4437,0 -2.83536,0.20216 -4.16987,0.54464 -2.83408,-5.19944 -8.34657,-8.72658 -14.68476,-8.72658 -4.23513,0 -8.085536,1.58572 -11.033496,4.17627 -2.94625,-2.59055 -6.79496,-4.17627 -11.027105,-4.17627 -7.253453,0 -13.410379,4.62665 -15.725837,11.08554 -2.77181,-2.03909 -6.184648,-3.25972 -9.889637,-3.25972 -9.232403,0 -16.71915,7.48504 -16.71915,16.71915 0,7.71663 5.232278,14.19343 12.342001,16.12205 1.925212,7.10674 8.405424,12.34072 16.118641,12.34072 3.484916,0 6.723315,-1.07392 9.400444,-2.89763 3.037945,3.10022 7.263263,5.0314 11.945353,5.0314 6.61414,0 12.314276,-3.85341 15.024246,-9.42646 2.48307,1.4582 5.36918,2.30991 8.45404,2.30991 5.49799,0 10.36305,-2.66561 13.4091,-6.76084 7.58143,-1.59212 13.27347,-8.31074 13.27347,-16.36345 4.3e-4,-9.23369 -7.48674,-16.71873 -16.71744,-16.71873 z"
     style="opacity:0.6;fill:#ffffff;stroke-width:0.426498"
     inkscape:connector-curvature="0" />
  <path
     inkscape:transform-center-y="-0.2128617"
     inkscape:transform-center-x="-0.16328103"
     d="m 190.71308,160.00205 c -0.70502,-0.41437 1.33006,-2.53789 0.91383,-3.24182 -0.44331,-0.74974 -3.31433,-0.16391 -3.43746,-1.02616 -0.11561,-0.80957 2.81348,-0.54247 3.10431,-1.30678 0.30977,-0.81406 -1.9383,-2.69344 -1.34094,-3.32732 0.56087,-0.59514 2.1783,1.86144 2.9572,1.61229 0.82959,-0.26537 0.8973,-3.19476 1.76534,-3.12294 0.81499,0.0674 -0.0972,2.86365 0.58324,3.31727 0.72471,0.48315 3.05722,-1.29036 3.54228,-0.56692 0.45542,0.67923 -2.29949,1.70947 -2.2299,2.52428 0.0741,0.86784 2.91499,1.58571 2.65181,2.416 -0.24709,0.77955 -2.77022,-0.73198 -3.36388,-0.16955 -0.6323,0.59904 0.57771,3.26771 -0.23553,3.57963 -0.76354,0.29285 -1.15492,-2.62223 -1.96479,-2.7357 -0.86257,-0.12086 -2.1946,2.48905 -2.94551,2.04772 z"
     inkscape:randomized="0"
     inkscape:rounded="0.242797"
     inkscape:flatsided="false"
     sodipodi:arg2="-3.7322343"
     sodipodi:arg1="2.158799"
     sodipodi:r2="2.7157116"
     sodipodi:r1="5.7138157"
     sodipodi:cy="155.24787"
     sodipodi:cx="193.88254"
     sodipodi:sides="7"
     id="path1028-8-1"
     style="opacity:1;fill:#ffff80;fill-opacity:1;stroke:none;stroke-width:1.73324;stroke-linecap:round;stroke-linejoin:round;paint-order:stroke fill markers"
     sodipodi:type="star" />
  <g
     transform="matrix(0.42649806,0,0,0.42649806,-65.256351,5.1515342)"
     id="g1011">
    <g
       style="opacity:0.6"
       id="g947">
      <path
         inkscape:connector-curvature="0"
         id="path1530"
         style="fill:#ffffff;stroke-width:0.426498"
         d="m 27.460938,72.927734 a 144.89999,145 0 0 0 -0.144532,0.236328 144.89999,145 0 0 0 -0.521484,0.869141 144.89999,145 0 0 0 -0.515625,0.871094 144.89999,145 0 0 0 -0.509766,0.875 144.89999,145 0 0 0 -0.503906,0.878906 144.89999,145 0 0 0 -0.496094,0.880859 144.89999,145 0 0 0 -0.490234,0.886719 144.89999,145 0 0 0 -0.486328,0.888672 144.89999,145 0 0 0 -0.478516,0.892578 144.89999,145 0 0 0 -0.470703,0.896485 144.89999,145 0 0 0 -0.466797,0.898437 144.89999,145 0 0 0 -0.458984,0.902344 144.89999,145 0 0 0 -0.453125,0.904297 144.89999,145 0 0 0 -0.447266,0.910156 144.89999,145 0 0 0 -0.441406,0.910156 144.89999,145 0 0 0 -0.433594,0.916016 144.89999,145 0 0 0 -0.427734,0.917969 144.89999,145 0 0 0 -0.421875,0.919921 144.89999,145 0 0 0 -0.416016,0.923829 144.89999,145 0 0 0 -0.408203,0.925781 144.89999,145 0 0 0 -0.402344,0.929687 144.89999,145 0 0 0 -0.394531,0.931641 144.89999,145 0 0 0 -0.388672,0.935547 144.89999,145 0 0 0 -0.382812,0.9375 144.89999,145 0 0 0 -0.376953,0.941406 144.89999,145 0 0 0 -0.369141,0.941406 144.89999,145 0 0 0 -0.363281,0.945313 144.89999,145 0 0 0 -0.355469,0.949219 144.89999,145 0 0 0 -0.349609,0.949218 144.89999,145 0 0 0 -0.34375,0.953125 144.89999,145 0 0 0 -0.335938,0.955076 144.89999,145 0 0 0 -0.330078,0.95703 144.89999,145 0 0 0 -0.322266,0.96094 144.89999,145 0 0 0 -0.316406,0.96094 144.89999,145 0 0 0 -0.310547,0.96484 144.89999,145 0 0 0 -0.302734,0.9668 144.89999,145 0 0 0 -0.294922,0.96875 144.89999,145 0 0 0 -0.289063,0.9707 144.89999,145 0 0 0 -0.283203,0.97266 144.89999,145 0 0 0 -0.27539,0.97266 144.89999,145 0 0 0 -0.269532,0.97656 144.89999,145 0 0 0 -0.261718,0.97851 144.89999,145 0 0 0 -0.25586,0.98047 144.89999,145 0 0 0 -0.248047,0.98242 144.89999,145 0 0 0 -0.242187,0.98243 144.89999,145 0 0 0 -0.234375,0.98632 144.89999,145 0 0 0 -0.2265626,0.98633 144.89999,145 0 0 0 -0.2207032,0.98828 144.89999,145 0 0 0 -0.2148437,0.99024 144.89999,145 0 0 0 -0.2070313,0.99023 144.89999,145 0 0 0 -0.1992187,0.99219 144.89999,145 0 0 0 -0.1933594,0.99414 144.89999,145 0 0 0 -0.1875,0.99609 144.89999,145 0 0 0 -0.1796875,0.9961 144.89999,145 0 0 0 -0.171875,0.99804 144.89999,145 0 0 0 -0.1660156,1 144.89999,145 0 0 0 -0.1582031,1 144.89999,145 0 0 0 -0.1503907,1.00196 144.89999,145 0 0 0 -0.1445312,1.00195 144.89999,145 0 0 0 -0.1367188,1.00391 144.89999,145 0 0 0 -0.1308593,1.0039 144.89999,145 0 0 0 -0.1230469,1.00586 144.89999,145 0 0 0 -0.1171875,1.00586 144.89999,145 0 0 0 -0.109375,1.00586 144.89999,145 0 0 0 -0.1015625,1.00781 144.89999,145 0 0 0 -0.095703,1.00782 144.89999,145 0 0 0 -0.087891,1.00976 144.89999,145 0 0 0 -0.082031,1.00977 144.89999,145 0 0 0 -0.048828,0.6582 c 1.1135378,-0.5151 2.2943247,-0.9148 3.298828,-1.59961 4.03126,4.11784 9.641886,6.67969 15.859375,6.67969 8.785434,0 16.356108,-5.11503 19.957031,-12.51563 3.295551,1.93503 7.122731,3.06641 11.222657,3.06641 7.300793,0 13.7585,-3.54134 17.804687,-8.98047 10.066207,-2.11116 17.626953,-11.03553 17.626953,-21.72656 C 92.485902,90.4999 82.544775,80.5625 70.28125,80.5625 c -1.913697,0 -3.760857,0.267336 -5.53125,0.720703 -3.763845,-6.901165 -11.086967,-11.587891 -19.503906,-11.587891 -5.620392,0 -10.735924,2.105642 -14.646485,5.544922 -0.974878,-0.857671 -2.024579,-1.632755 -3.138671,-2.3125 z"
         transform="matrix(2.3446766,0,0,2.3446766,150.17144,-8.0522355)" />
    </g>
    <g
       style="opacity:0.6"
       id="g951">
      <path
         inkscape:connector-curvature="0"
         style="fill:#ffffff"
         d="m 383.883,253.492 c -3.385,0 -6.648,0.474 -9.777,1.277 -6.645,-12.191 -19.57,-20.461 -34.431,-20.461 -9.93,0 -18.958,3.718 -25.87,9.792 -6.908,-6.074 -15.932,-9.792 -25.855,-9.792 -17.007,0 -31.443,10.848 -36.872,25.992 -6.499,-4.781 -14.501,-7.643 -23.188,-7.643 -21.647,0 -39.201,17.55 -39.201,39.201 0,18.093 12.268,33.279 28.938,37.801 4.514,16.663 19.708,28.935 37.793,28.935 8.171,0 15.764,-2.518 22.041,-6.794 7.123,7.269 17.03,11.797 28.008,11.797 15.508,0 28.873,-9.035 35.227,-22.102 5.822,3.419 12.589,5.416 19.822,5.416 12.891,0 24.298,-6.25 31.44,-15.852 17.776,-3.733 31.122,-19.486 31.122,-38.367 0.001,-21.65 -17.554,-39.2 -39.197,-39.2 z"
         id="path949" />
    </g>
    <g
       id="g953" />
    <g
       id="g955" />
    <g
       id="g957" />
    <g
       id="g959" />
    <g
       id="g961" />
    <g
       id="g963" />
    <g
       id="g965" />
    <g
       id="g967" />
    <g
       id="g969" />
    <g
       id="g971" />
    <g
       id="g973" />
    <g
       id="g975" />
    <g
       id="g977" />
    <g
       id="g979" />
    <g
       id="g981" />
  </g>
  <path
     inkscape:transform-center-y="-0.2922223"
     inkscape:transform-center-x="-0.22415491"
     d="m 232.42746,111.48913 c -0.96788,-0.56885 1.82593,-3.48408 1.25453,-4.45045 -0.6086,-1.02926 -4.55,-0.22501 -4.71905,-1.40874 -0.15871,-1.11139 3.86242,-0.74471 4.26169,-1.79398 0.42526,-1.11755 -2.66095,-3.69762 -1.84088,-4.567825 0.76997,-0.817028 2.99042,2.555435 4.05971,2.213395 1.13889,-0.36431 1.23184,-4.385852 2.42351,-4.287253 1.11884,0.09257 -0.13343,3.931293 0.80068,4.554033 0.99491,0.66328 4.19704,-1.771436 4.86294,-0.77828 0.62521,0.93246 -3.1568,2.3468 -3.06127,3.46539 0.10175,1.1914 4.00178,2.17691 3.64048,3.31675 -0.33922,1.07019 -3.80303,-1.00488 -4.61803,-0.23276 -0.86803,0.82237 0.7931,4.48599 -0.32333,4.9142 -1.04821,0.40204 -1.58551,-3.59986 -2.69731,-3.75564 -1.18417,-0.16592 -3.01281,3.41704 -4.04367,2.81116 z"
     inkscape:randomized="0"
     inkscape:rounded="0.242797"
     inkscape:flatsided="false"
     sodipodi:arg2="-3.7322343"
     sodipodi:arg1="2.158799"
     sodipodi:r2="3.7281973"
     sodipodi:r1="7.8440714"
     sodipodi:cy="104.96247"
     sodipodi:cx="236.77856"
     sodipodi:sides="7"
     id="path1028"
     style="opacity:1;fill:#ffff80;fill-opacity:1;stroke:none;stroke-width:2.37944;stroke-linecap:round;stroke-linejoin:round;paint-order:stroke fill markers"
     sodipodi:type="star" />
  <path
     sodipodi:type="star"
     style="opacity:1;fill:#ffff80;fill-opacity:1;stroke:none;stroke-width:2.15399;stroke-linecap:round;stroke-linejoin:round;paint-order:stroke fill markers"
     id="path1028-3"
     sodipodi:sides="7"
     sodipodi:cx="209.26992"
     sodipodi:cy="204.67604"
     sodipodi:r1="7.1008487"
     sodipodi:r2="3.3749523"
     sodipodi:arg1="2.158799"
     sodipodi:arg2="-3.7322343"
     inkscape:flatsided="false"
     inkscape:rounded="0.242797"
     inkscape:randomized="0"
     d="m 205.33107,210.5843 c -0.87617,-0.51495 1.65293,-3.15396 1.13566,-4.02877 -0.55093,-0.93174 -4.11889,-0.20369 -4.27191,-1.27526 -0.14368,-1.00609 3.49645,-0.67415 3.85789,-1.624 0.38497,-1.01167 -2.40883,-3.34728 -1.66645,-4.13503 0.69701,-0.73961 2.70707,2.31331 3.67505,2.00368 1.03098,-0.32979 1.11513,-3.9703 2.19388,-3.88104 1.01283,0.0838 -0.12079,3.5588 0.72482,4.12254 0.90064,0.60043 3.79937,-1.60359 4.40218,-0.70454 0.56597,0.84411 -2.8577,2.12444 -2.77122,3.13705 0.0921,1.07851 3.62261,1.97064 3.29555,3.00249 -0.30708,0.96879 -3.4427,-0.90967 -4.18047,-0.21071 -0.78579,0.74445 0.71795,4.06095 -0.2927,4.44858 -0.94889,0.36395 -1.43528,-3.25877 -2.44175,-3.39979 -1.07196,-0.1502 -2.72734,3.09327 -3.66053,2.5448 z"
     inkscape:transform-center-x="-0.20291032"
     inkscape:transform-center-y="-0.26453037" />
  <path
     sodipodi:type="star"
     style="opacity:1;fill:#ffff80;fill-opacity:1;stroke:none;stroke-width:1.82888;stroke-linecap:round;stroke-linejoin:round;paint-order:stroke fill markers"
     id="path1028-7"
     sodipodi:sides="7"
     sodipodi:cx="194.56166"
     sodipodi:cy="46.015184"
     sodipodi:r1="6.0290937"
     sodipodi:r2="2.8655593"
     sodipodi:arg1="2.158799"
     sodipodi:arg2="-3.7322343"
     inkscape:flatsided="false"
     inkscape:rounded="0.242797"
     inkscape:randomized="0"
     d="m 191.21732,51.031691 c -0.74393,-0.437231 1.40345,-2.677926 0.96425,-3.420695 -0.46777,-0.791112 -3.49721,-0.17295 -3.62714,-1.082781 -0.12198,-0.854236 2.96873,-0.5724 3.27561,-1.378886 0.32686,-0.858974 -2.04525,-2.842062 -1.41493,-3.510915 0.59181,-0.627982 2.29849,1.964156 3.12037,1.701254 0.87536,-0.280012 0.94681,-3.371044 1.86275,-3.295259 0.85996,0.07115 -0.10256,3.021662 0.61542,3.500315 0.7647,0.509805 3.22592,-1.361561 3.73774,-0.598205 0.48055,0.71671 -2.42637,1.803794 -2.35295,2.663566 0.0782,0.915729 3.07584,1.673206 2.79814,2.549309 -0.26073,0.822569 -2.92308,-0.772366 -3.5495,-0.178901 -0.66718,0.63209 0.60959,3.448014 -0.24852,3.777142 -0.80567,0.309016 -1.21865,-2.76692 -2.0732,-2.886653 -0.91017,-0.127525 -2.3157,2.626398 -3.10804,2.160709 z"
     inkscape:transform-center-x="-0.17228018"
     inkscape:transform-center-y="-0.2246095" />
  <path
     sodipodi:type="star"
     style="opacity:1;fill:#ffff80;fill-opacity:1;stroke:none;stroke-width:2.81024;stroke-linecap:round;stroke-linejoin:round;paint-order:stroke fill markers"
     id="path1028-8"
     sodipodi:sides="7"
     sodipodi:cx="198.47812"
     sodipodi:cy="257.25159"
     sodipodi:r1="9.2642412"
     sodipodi:r2="4.4031882"
     sodipodi:arg1="2.158799"
     sodipodi:arg2="-3.7322343"
     inkscape:flatsided="false"
     inkscape:rounded="0.242797"
     inkscape:randomized="0"
     d="m 193.33924,264.9599 c -1.14311,-0.67184 2.15652,-4.11487 1.48166,-5.2562 -0.71878,-1.21562 -5.37377,-0.26576 -5.57342,-1.66379 -0.18745,-1.31261 4.56171,-0.87955 5.03327,-2.11878 0.50225,-1.31989 -3.14272,-4.36709 -2.17417,-5.39484 0.90936,-0.96495 3.53183,3.0181 4.79472,2.61413 1.34508,-0.43026 1.45486,-5.17991 2.86227,-5.06346 1.32141,0.10933 -0.15758,4.64305 0.94566,5.37855 1.17503,0.78336 4.95691,-2.09216 5.74337,-0.9192 0.7384,1.10129 -3.72834,2.77169 -3.61551,4.09281 0.12016,1.4071 4.72629,2.57103 4.29959,3.91724 -0.40064,1.26395 -4.49158,-1.18681 -5.45412,-0.2749 -1.0252,0.97126 0.93668,5.29818 -0.38188,5.80392 -1.23798,0.47483 -1.87256,-4.25162 -3.18566,-4.4356 -1.39856,-0.19596 -3.55827,4.03569 -4.77578,3.32012 z"
     inkscape:transform-center-x="-0.26475309"
     inkscape:transform-center-y="-0.34512367" />
  <path
     inkscape:transform-center-y="-0.30420747"
     inkscape:transform-center-x="-0.23335083"
     d="m 243.83489,181.17219 c -1.00759,-0.5922 1.90087,-3.62706 1.30602,-4.63309 -0.63358,-1.0715 -4.73673,-0.23425 -4.91271,-1.46655 -0.16522,-1.157 4.02093,-0.77527 4.43658,-1.8676 0.44271,-1.16342 -2.77015,-3.84937 -1.91642,-4.75528 0.80156,-0.85056 3.11314,2.6603 4.22631,2.30422 1.18562,-0.37925 1.2824,-4.56583 2.52296,-4.46319 1.16476,0.0964 -0.1389,4.09262 0.83354,4.74093 1.03574,0.69049 4.36928,-1.84414 5.06251,-0.81023 0.65087,0.97073 -3.28635,2.44311 -3.1869,3.60761 0.10592,1.24029 4.166,2.26624 3.78988,3.45286 -0.35314,1.11411 -3.95911,-1.04612 -4.80754,-0.24231 -0.90366,0.85612 0.82564,4.67009 -0.3366,5.11587 -1.09123,0.41854 -1.65058,-3.7476 -2.80801,-3.90977 -1.23276,-0.17272 -3.13644,3.55727 -4.20962,2.92653 z"
     inkscape:randomized="0"
     inkscape:rounded="0.242797"
     inkscape:flatsided="false"
     sodipodi:arg2="-3.7322343"
     sodipodi:arg1="2.158799"
     sodipodi:r2="3.8811953"
     sodipodi:r1="8.1659765"
     sodipodi:cy="174.37769"
     sodipodi:cx="248.36457"
     sodipodi:sides="7"
     id="path1028-3-4"
     style="opacity:1;fill:#ffff80;fill-opacity:1;stroke:none;stroke-width:2.47709;stroke-linecap:round;stroke-linejoin:round;paint-order:stroke fill markers"
     sodipodi:type="star" />
  <g
     id="g1539"
     transform="matrix(0.76833386,-0.43616405,0.49960615,0.88009156,-131.36421,124.24604)" />
  <g
     style="fill:#aa0000"
     transform="matrix(1.5421583,0,0,1.5421583,58.357311,57.160307)"
     id="g1741">
    <g
       style="fill:#aa0000"
       id="g1677">
      <g
         style="fill:#aa0000"
         id="g1675">
        <g
           style="fill:#aa0000"
           id="g1673">
          <path
             style="fill:#ff9955;fill-opacity:1"
             inkscape:connector-curvature="0"
             d="m 13.449965,112.88103 c -2.671,0 -5.1739998,-1.659 -6.1229998,-4.319 -1.206,-3.381 0.558,-7.1 3.9389998,-8.305 8.797,-3.144995 18.032,-8.079995 19.576,-10.443995 2.219,-7.225 9.508,-23.93 9.82,-24.645 1.437,-3.29 5.27,-4.792 8.559,-3.354 3.29,1.438 4.791,5.269 3.354,8.559 -2.062,4.719 -7.76,18.121 -9.35,23.401 -2.609,8.663995 -18.407,15.451995 -27.592,18.726995 -0.721,0.258 -1.458,0.38 -2.183,0.38 z"
             id="path1659" />
          <circle
             style="fill:#ff6b08;fill-opacity:1;stroke-width:0.914156"
             cx="74.888901"
             cy="13.557965"
             r="12.94993"
             id="circle1663" />
          <path
             transform="matrix(0.64844186,0,0,0.64844186,-37.841323,-37.065136)"
             d="M 149.0918 98.880859 L 149.0918 115.87695 C 151.78787 115.99642 154.39453 115.99674 156.96094 116.17383 C 161.68148 116.49151 165.6855 112.97003 166.00781 108.29883 C 166.33167 103.62455 162.80555 99.573853 158.13281 99.25 C 156.45341 99.133687 152.18704 99.03187 149.0918 98.880859 z "
             style="fill:#ff6b08;fill-opacity:1;stroke-width:1.54216"
             id="path1750" />
          <g
             style="fill:#aa0000"
             id="g1667">
            <path
               transform="matrix(0.64844186,0,0,0.64844186,-37.841323,-37.065136)"
               d="M 149.38281 101.23438 C 146.19568 102.76689 143.44364 105.17566 141.87305 108.76367 L 122.52734 152.93945 C 118.87089 161.29024 123.54743 169.57348 129.80859 174.07812 C 131.1441 175.04197 132.58038 175.86103 134.08398 176.51953 C 138.70275 178.54337 144.20483 178.97766 149.02344 177.60352 L 149.38281 101.23438 z "
               style="fill:#ff9955;fill-opacity:1;stroke-width:1.54216"
               id="path1665" />
            <path
               transform="matrix(0.64844186,0,0,0.64844186,-37.841323,-37.065136)"
               d="M 149.38281 101.23438 L 149.02344 177.60352 C 153.41729 176.3505 157.24812 173.60258 159.25391 169.02539 L 178.59375 124.84961 C 182.19932 116.62065 177.43403 107.99253 171.42578 103.39844 L 171.36914 103.36133 C 171.36914 103.36133 169.19859 101.81901 167.07812 100.83203 C 164.85742 99.800327 162.47266 99.505859 162.47266 99.505859 C 158.30917 98.780869 153.47784 99.265307 149.38281 101.23438 z "
               style="fill:#ff6b08;fill-opacity:1;stroke-width:1.54216"
               id="path1745" />
            <path
               id="path2210"
               style="fill:#ff9955;fill-opacity:1;stroke-width:1.54216"
               d="M 149.38281 101.23438 C 146.19568 102.76689 143.44364 105.17566 141.87305 108.76367 L 122.52734 152.93945 C 118.87089 161.29024 123.54743 169.57348 129.80859 174.07812 C 131.1441 175.04197 132.58038 175.86103 134.08398 176.51953 C 138.70275 178.54337 144.20483 178.97766 149.02344 177.60352 L 149.38281 101.23438 z "
               transform="matrix(0.64844186,0,0,0.64844186,-37.841323,-37.065136)" />
          </g>
          <path
             style="fill:#ff6b08;fill-opacity:1"
             inkscape:connector-curvature="0"
             d="m 84.939965,45.407035 c -5.263,0 -10.754,-0.317 -13.907,-0.536 -3.03,-0.21 -5.316,-2.836 -5.106,-5.867 0.209,-3.029 2.8,-5.319 5.866,-5.107 8.536,0.591 19.204,0.728 21.478,-0.009 1.666,-0.666 6.426,-5.725 9.964005,-10.604 1.784,-2.458 5.222,-3.007 7.682,-1.224 2.459,1.783 3.007,5.222 1.225,7.681 -2.7,3.724 -9.597,12.597 -15.308005,14.554 -2.471,0.848 -7.087,1.112 -11.894,1.112 z"
             id="path1671" />
          <path
             transform="matrix(0.64844186,0,0,0.64844186,-37.841323,-37.065136)"
             d="M 149.0918 164.88086 C 148.90357 164.73363 148.8313 164.66648 148.64062 164.51758 C 144.27786 161.11249 137.97848 161.88682 134.57031 166.24805 C 131.16368 170.61235 131.93843 176.91019 136.30273 180.31836 C 140.50875 183.60244 145.01512 187.24563 149.0918 190.62109 L 149.0918 164.88086 z "
             style="fill:#ff9955;fill-opacity:1;stroke-width:1.54216"
             id="path1661" />
          <path
             transform="matrix(0.64844186,0,0,0.64844186,-37.841323,-37.065136)"
             d="M 149.0918 164.88086 L 149.0918 190.62109 C 153.62778 194.37686 157.62281 197.79822 159.89453 199.9668 C 158.60991 206.10767 153.9488 220.21138 149.62305 231.67578 C 149.21667 232.75282 149.12091 233.85389 149.0918 234.94336 L 149.0918 236.05859 C 149.41632 239.7782 151.73842 243.18468 155.46484 244.5918 C 156.63072 245.03131 157.82529 245.24219 159.00195 245.24219 C 163.0532 245.24219 166.86492 242.7666 168.38086 238.75391 C 183.10693 199.73731 180.78398 195.28289 178.91797 191.70508 C 177.98998 189.92874 175.70996 185.70165 149.0918 164.88086 z "
             style="fill:#ff6b08;fill-opacity:1;stroke-width:1.54216"
             id="path1755" />
          <path
             transform="matrix(0.64844186,0,0,0.64844186,-37.841323,-37.065136)"
             d="M 149.0918 98.880859 C 138.80841 98.379153 124.65305 97.974605 118.3457 100.13672 C 109.53844 103.15472 98.904062 116.84099 94.740234 122.58398 C 91.992108 126.37615 92.836328 131.67611 96.626953 134.42578 C 98.130557 135.51763 99.874345 136.04102 101.60156 136.04102 C 104.22632 136.04102 106.81329 134.82845 108.47266 132.54297 C 113.94115 125.01261 121.28253 117.20995 123.83789 116.1875 C 126.66231 115.27251 137.95893 115.38365 149.0918 115.87695 L 149.0918 98.880859 z "
             style="fill:#ff9955;fill-opacity:1;stroke-width:1.54216"
             id="path1669" />
        </g>
      </g>
    </g>
    <g
       style="fill:#aa0000"
       id="g1679" />
    <g
       style="fill:#aa0000"
       id="g1681" />
    <g
       style="fill:#aa0000"
       id="g1683" />
    <g
       style="fill:#aa0000"
       id="g1685" />
    <g
       style="fill:#aa0000"
       id="g1687" />
    <g
       style="fill:#aa0000"
       id="g1689" />
    <g
       style="fill:#aa0000"
       id="g1691" />
    <g
       style="fill:#aa0000"
       id="g1693" />
    <g
       style="fill:#aa0000"
       id="g1695" />
    <g
       style="fill:#aa0000"
       id="g1697" />
    <g
       style="fill:#aa0000"
       id="g1699" />
    <g
       style="fill:#aa0000"
       id="g1701" />
    <g
       style="fill:#aa0000"
       id="g1703" />
    <g
       style="fill:#aa0000"
       id="g1705" />
    <g
       style="fill:#aa0000"
       id="g1707" />
  </g>
</svg>
