<?xml version="1.0" encoding="UTF-8" standalone="no"?>
<svg
   xmlns:dc="http://purl.org/dc/elements/1.1/"
   xmlns:cc="http://creativecommons.org/ns#"
   xmlns:rdf="http://www.w3.org/1999/02/22-rdf-syntax-ns#"
   xmlns:svg="http://www.w3.org/2000/svg"
   xmlns="http://www.w3.org/2000/svg"
   xmlns:sodipodi="http://sodipodi.sourceforge.net/DTD/sodipodi-0.dtd"
   xmlns:inkscape="http://www.inkscape.org/namespaces/inkscape"
   height="300"
   viewBox="0 0 37.5 37.5"
   width="300"
   version="1.1"
   id="svg898"
   sodipodi:docname="wakeTime.svg"
   inkscape:version="1.0beta2 (2b71d25, 2019-12-03)"
   inkscape:export-filename="/Users/mike.xiao/Documents/Projects/DBT_icons/dbt_icons/wakeTime.png"
   inkscape:export-xdpi="197.75999"
   inkscape:export-ydpi="197.75999">
  <metadata
     id="metadata904">
    <rdf:RDF>
      <cc:Work
         rdf:about="">
        <dc:format>image/svg+xml</dc:format>
        <dc:type
           rdf:resource="http://purl.org/dc/dcmitype/StillImage" />
        <dc:title />
      </cc:Work>
    </rdf:RDF>
  </metadata>
  <defs
     id="defs902">
    <clipPath
       id="clipPath1046"
       clipPathUnits="userSpaceOnUse">
      <circle
         r="297.05664"
         cy="151.48233"
         cx="223.03902"
         id="circle1048"
         style="opacity:1;fill:#554133;fill-opacity:1;stroke-width:3.96249" />
    </clipPath>
  </defs>
  <sodipodi:namedview
     pagecolor="#ffffff"
     bordercolor="#666666"
     inkscape:document-rotation="0"
     borderopacity="1"
     objecttolerance="10"
     gridtolerance="10"
     guidetolerance="10"
     inkscape:pageopacity="0"
     inkscape:pageshadow="2"
     inkscape:window-width="1369"
     inkscape:window-height="805"
     id="namedview900"
     showgrid="false"
     inkscape:zoom="1.7330633"
     inkscape:cx="186.76718"
     inkscape:cy="137.53471"
     inkscape:window-x="7"
     inkscape:window-y="31"
     inkscape:window-maximized="0"
     inkscape:current-layer="g952" />
  <g
     id="flat"
     transform="matrix(0.75167814,0,0,0.75167814,7.6596622,17.693457)">
    <g
       id="g952"
       transform="matrix(1.3303566,0,0,1.3303566,-6.8571168,-28.160683)">
      <circle
         style="opacity:1;fill:#cdd6b9;fill-opacity:1;stroke-width:0.241773"
         id="path943"
         cx="16.388126"
         cy="22.367756"
         r="18.125" />
      <path
         style="fill:#745845;fill-opacity:1;stroke-width:0.0488502"
         id="path949-9"
         fill="#c99977"
         d="m 14.798818,8.2390496 h 0.380468 V 20.281508 h -0.380468 z"
         inkscape:connector-curvature="0" />
      <path
         id="path903"
         fill="#a27b60"
         d="m 22.275018,19.325361 v 1.512764 A 0.38046792,0.37819096 0 0 1 21.89455,21.216316 H 8.197705 A 0.38046792,0.37819096 0 0 1 7.8172371,20.838125 v -1.512764 z"
         inkscape:connector-curvature="0"
         style="fill:#735642;fill-opacity:1;stroke-width:0.047416" />
      <path
         style="fill:#bae9cf;stroke-width:0.047416;fill-opacity:1"
         id="path905"
         fill="#3775a4"
         d="M 9.3391087,8.3578234 H 20.753146 l 0.04684,11.0178556 H 9.3859477 Z"
         inkscape:connector-curvature="0"
         sodipodi:nodetypes="ccccc" />
      <path
         id="path911"
         fill="#f3f3f0"
         d="m 17.666594,19.348744 c -0.10314,-0.526243 0.244106,-0.790477 0.610238,-0.871424 0.07432,-0.241792 0.197168,-0.58226 0.404925,-0.728114 0.338854,-0.863267 1.26377,-1.331685 2.071389,-0.868849 l 0.0033,2.449466 z"
         inkscape:connector-curvature="0"
         sodipodi:nodetypes="cccccc"
         style="stroke-width:0.047416" />
      <path
         id="path913"
         fill="#e4e4e2"
         d="m 17.962881,19.348744 c -0.274651,-0.568232 -0.286109,0.349333 -0.32149,0.137832 0.07272,-0.423861 0.475225,-0.80871 0.889037,-0.933954 -0.05462,-0.138641 0.102259,-0.504502 0.43516,-0.750471 0.338855,-0.863267 1.276225,-1.033374 2.083845,-0.570539 l 0.04684,2.117132 z"
         inkscape:connector-curvature="0"
         sodipodi:nodetypes="ccccccc"
         style="stroke-width:0.047416" />
      <path
         id="path915"
         fill="#f3f3f0"
         d="m 15.046128,14.976165 a 1.3170373,1.3091553 0 0 1 -0.01379,0.189096 1.3316377,1.3236684 0 0 1 -1.317846,1.134573 h -3.424211 a 1.3309719,1.3230065 0 0 1 -1.3178462,-1.135046 1.3104266,1.3025842 0 0 1 -0.013792,-0.188623 1.3316377,1.3236684 0 0 1 0.8132502,-1.219666 0.75698849,0.75245819 0 0 1 0.89838,-0.457611 1.5222046,1.5130948 0 0 1 2.805951,0.353609 h 0.238268 a 1.3316377,1.3236684 0 0 1 1.331638,1.323668 z"
         inkscape:connector-curvature="0"
         style="stroke-width:0.047416" />
      <path
         id="path917"
         fill="#e4e4e2"
         d="M 15.032336,15.165261 A 1.3316377,1.3236684 0 0 1 13.71449,16.299834 H 10.290279 A 1.3309719,1.3230065 0 0 1 8.9724328,15.164788 1.3313524,1.3233847 0 0 1 9.771891,14.13469 a 0.75698849,0.75245819 0 0 1 0.89838,-0.457611 1.5222046,1.5130948 0 0 1 2.805951,0.353609 h 0.238268 a 1.3311146,1.3231483 0 0 1 1.317846,1.134573 z"
         inkscape:connector-curvature="0"
         style="stroke-width:0.047416" />
      <g
         id="g931"
         fill="#fbb540"
         transform="matrix(0.04755849,0,0,0.04727387,2.8711541,1.9285771)" />
      <path
         id="path947"
         fill="#c99977"
         d="M 8.9586408,8.3578234 H 9.3391087 V 19.703552 H 8.9586408 Z"
         inkscape:connector-curvature="0"
         style="fill:#745845;fill-opacity:1;stroke-width:0.047416" />
      <path
         id="path949"
         fill="#c99977"
         d="m 20.753146,8.3578234 h 0.380468 V 19.703552 h -0.380468 z"
         inkscape:connector-curvature="0"
         style="fill:#745845;fill-opacity:1;stroke-width:0.047416" />
      <path
         id="path923"
         fill="#a27b60"
         d="M 22.275018,8.7360144 H 7.8172371 V 7.2232505 A 0.38046792,0.37819096 0 0 1 8.197705,6.8450596 H 21.89455 a 0.38046792,0.37819096 0 0 1 0.380468,0.3781909 z"
         inkscape:connector-curvature="0"
         style="fill:#735642;fill-opacity:1;stroke-width:0.047416" />
      <path
         id="path1568"
         style="fill:#fff0b5;fill-opacity:1;stroke-width:0.316014;stroke-linecap:round;paint-order:stroke fill markers;stop-color:#000000"
         d="m 16.760157,18.24765 a 1.7939681,1.875 0 0 1 -1.793969,1.875 1.7939681,1.875 0 0 1 -1.793968,-1.875 1.7939681,1.875 0 0 1 1.793968,-1.875 1.7939681,1.875 0 0 1 1.793969,1.875 z" />
      <path
         d="m 17.020453,18.324296 a 2.1084854,2.2037239 0 0 1 -2.108485,2.203724 2.1084854,2.2037239 0 0 1 -2.108486,-2.203724 2.1084854,2.2037239 0 0 1 2.108486,-2.203724 2.1084854,2.2037239 0 0 1 2.108485,2.203724 z"
         style="fill:#fff0b5;fill-opacity:0.266129;stroke-width:0.371418;stroke-linecap:round;paint-order:stroke fill markers;stop-color:#000000"
         id="path1568-5"
         inkscape:connector-curvature="0" />
      <path
         id="path945"
         fill="#8d6b54"
         d="M 7.8172371,19.325361 H 22.275018 V 20.45237 H 7.8172371 Z"
         inkscape:connector-curvature="0"
         style="fill:#85634c;fill-opacity:1;stroke-width:0.047416"
         sodipodi:nodetypes="ccccc" />
      <g
         clip-path="url(#clipPath1046)"
         transform="matrix(0.0610153,0,0,0.0610153,2.8468208,12.946501)"
         id="g899">
        <g
           fill-rule="evenodd"
           id="g868">
          <path
             inkscape:connector-curvature="0"
             d="m 64.039062,202.79687 c -124.195312,216.37891 331.941408,206.6836 259.257808,14.21875 -5.92968,-1.66406 -10.51562,-15.71093 -16.79296,-16.55468 -55.86328,-7.625 -109.30078,-2.07422 -182.83203,-5.51953 -11.39063,-0.23438 -38.285161,-0.84766 -59.632818,7.85546 z m 0,0"
             fill="#e6e6e6"
             id="path840" />
          <path
             style="fill:#945c27;fill-opacity:1"
             sodipodi:nodetypes="csssscssscsc"
             inkscape:connector-curvature="0"
             d="M 0,305.875 V 427.96875 C 0,441.19531 10.804688,452 24.03125,452 H 487.96484 C 501.16406,452 512,441.19531 512,427.96484 V 305.875 H 74.347656 c -5.664062,0 -10.308594,-4.64063 -10.308594,-10.30859 V 101.78906 c 0,-17.609372 -10.854765,-16.078864 -28.46414,-16.078864 C 17.938204,85.714102 0,84.179688 0,101.78906 Z"
             fill="#b5722f"
             id="path842" />
          <path
             inkscape:connector-curvature="0"
             d="m 110.03125,194.88281 c 1.375,52.38672 38.54687,96.36328 89.30078,110.99219 h 95.40234 l 25.90235,-42.98438 -17.95703,-45.875 c -1.34375,12.9375 -5.66797,21.69922 -15.2461,31.33594 -0.23437,0.23438 -0.49609,0.4961 -0.75781,0.72656 -8.20703,8.03125 -18.57422,14.3125 -29.60937,18.63282 -20.44141,7.9414 -43.21875,9.08203 -59.07813,1.86718 l -37.14453,-16.90625 c -25.64063,-11.65234 -36.70703,-34.05078 -37.17188,-57.73046 -3.39062,-0.0586 -8.11718,-0.17579 -13.64062,-0.0586 z m 0,0"
             fill="#c2c7cc"
             id="path844" />
          <path
             style="fill:#7e4b16;fill-opacity:1"
             inkscape:connector-curvature="0"
             d="m 255.98437,333.41406 c -3.44531,38.13672 36.38672,78.14063 75.66407,81.03125 H 450.5 c 47.39453,0 61.5,-9.86719 61.5,-54.86719 V 305.87891 H 262.73047 c -2.86328,8.32031 -5.72266,16.32031 -6.7461,27.53515 z m 0,0"
             fill="#91561a"
             id="path846" />
          <g
             id="g1586"
             transform="matrix(0.48065884,0.9158943,0.9158943,-0.48065884,-69.762362,92.999843)">
            <path
               id="path848"
               fill="#eda93b"
               d="m 236.18537,110.49254 -5.69532,12.46875 28.21094,12.84765 c 3.03516,1.3711 6.01563,3.15625 8.90625,5.25781 4.84766,-10.30859 -0.64062,-26.60156 -11.125,-31.36328 l -8.23437,-3.73828 c -4.5586,-2.07422 -9.98828,-0.0586 -12.0625,4.52735 z m 0,0"
               inkscape:connector-curvature="0"
               style="fill:#efb860;fill-opacity:1" />
            <path
               id="path850"
               fill="#ffdda6"
               d="m 222.98828,116.03906 c -6.10547,95.98438 -51.07422,69.67188 -62.14453,136.63281 l 37.14453,16.90625 c 15.85938,7.21485 38.63672,6.07422 59.07813,-1.86718 11.38671,-4.44141 22.04687,-10.98047 30.37109,-19.35938 9.57812,-9.63672 13.89844,-18.39844 15.24219,-31.33594 0.11718,-0.90234 0.17578,-1.83984 0.26172,-2.83203 0.23437,-3.41797 0.23437,-6.89062 0,-10.39453 -0.55469,-8.26562 -2.39454,-16.61719 -5.19922,-24.55859 -5.98438,-16.87891 -16.46875,-32.00391 -28.70313,-41.02735 -2.89062,-2.10156 -5.87109,-3.88671 -8.90625,-5.25781 l -28.21094,-12.84765 z m 0,0"
               inkscape:connector-curvature="0"
               style="fill:#ffd592;fill-opacity:1" />
            <path
               id="path852"
               fill="#808080"
               d="m 222.98828,116.03906 c -54.31641,-24.703122 -98.70312,27.73828 -99.3164,76.30078 -0.0312,0.87891 -0.0312,1.75391 0,2.60157 0.46484,23.67968 11.53515,46.07812 37.17187,57.73046 11.07031,-66.95703 56.03906,-40.64843 62.14453,-136.63281 z m 0,0"
               inkscape:connector-curvature="0"
               style="fill:#636363;fill-opacity:1" />
            <path
               id="path854"
               fill="#666"
               d="m 222.98828,116.03906 c -38.14062,-17.347654 -71.37109,3.32813 -88.01562,34.01953 18.25,-20.20703 45.49609,-30.45703 75.80859,-16.64843 l 8.9375,4.0625 0.93359,0.4375 c 1.05078,-6.51172 1.83985,-13.75391 2.33594,-21.8711 z m 0,0"
               inkscape:connector-curvature="0"
               style="fill:#4e4e4e;fill-opacity:1" />
            <path
               id="path856"
               fill="#fcc368"
               d="m 222.98828,116.03906 c -0.49609,7.91407 -1.25781,15.00781 -2.25,21.375 l 27.15625,12.35156 c 3.06641,1.40235 6.04688,3.1836 8.91016,5.28516 12.26172,8.99219 22.71875,24.12109 28.70312,41.02734 2.83594,7.94141 4.64453,16.26563 5.19922,24.5586 0.23438,3.47265 0.23438,6.97656 0,10.39453 -0.0586,0.96484 -0.14453,1.92969 -0.23437,2.83203 -0.61328,5.75391 -1.8125,10.69141 -3.79688,15.21484 0.26563,-0.23437 0.52735,-0.49609 0.76172,-0.73046 9.57813,-9.63282 13.89844,-18.39454 15.24219,-31.33204 0.11719,-0.90625 0.17578,-1.83984 0.26172,-2.83203 0.23437,-3.41797 0.23437,-6.89062 0,-10.39843 -0.55469,-8.26172 -2.39453,-16.61329 -5.19922,-24.55469 -5.98438,-16.87891 -16.46875,-32.00781 -28.70313,-41.03125 -2.89062,-2.10156 -5.87109,-3.88281 -8.90625,-5.25391 l -28.21093,-12.84765 z m 0,0"
               inkscape:connector-curvature="0"
               style="fill:#efb860;fill-opacity:1" />
          </g>
          <path
             style="fill:#ff9955;fill-opacity:1"
             inkscape:connector-curvature="0"
             d="m 294.73828,305.875 c -2.92187,31.33594 16.29297,59.36719 47.19141,66.57812 H 459.81641 C 500.02734,372.45312 512,364.33594 512,327.36719 V 165.21484 c 0,-9.63672 -7.88672,-17.52343 -17.51953,-17.52343 H 370.75 c -63.66016,0 -64.24609,22.6914 -67.80859,56.09765 0.23437,3.50391 0.23437,6.97656 0,10.39453 -0.0859,0.99219 -0.14454,1.92578 -0.26172,2.83203 11.125,57.35157 -5.375,61.44141 -7.94141,88.85938 z m 0,0"
             fill="#f78411"
             id="path858" />
          <path
             style="fill:#ffd592;fill-opacity:1"
             inkscape:connector-curvature="0"
             d="m 356.4546,166.47784 1.46835,-11.85807 2.00978,-16.11074 c 0.83333,-6.56063 -1.74046,-11.31313 -4.97999,-10.90701 -19.07401,2.47908 -22.27027,-23.00018 -0.63685,-24.81801 5.30152,-0.42082 4.5883,-8.367815 5.11661,-10.984071 0.3143,-1.459215 0.71576,-2.818125 1.19528,-4.14113 0.52814,-1.494141 1.17452,-2.899489 1.92773,-4.191203 11.80553,-20.703232 46.78386,-15.058792 47.46246,21.830294 0.0572,2.88558 -0.10649,5.9619 -0.48253,9.22865 l -7.25528,60.49526 c -1.73249,14.53565 -6.98169,23.4336 -16.6292,34.13525 l -22.26037,24.70017 -34.19682,-15.72878 10.83806,-23.84408 10.69418,-12.69682 c 4.25877,-6.46416 4.77522,-7.51221 5.7286,-15.10971 z m 0,0"
             fill="#ffdda6"
             id="path860"
             inkscape:transform-center-x="-1.6389386"
             inkscape:transform-center-y="0.78387687" />
          <path
             style="fill:#efb860;fill-opacity:1"
             inkscape:connector-curvature="0"
             d="m 368.56319,201.29756 c 9.62267,-10.71307 14.90026,-19.59798 16.63274,-34.13363 l 5.24399,-43.68007 1.98809,-16.83016 c 0.40087,-3.25532 0.56299,-6.32809 0.50574,-9.21366 -0.22329,-11.741812 -3.89828,-20.307233 -9.21637,-25.870519 12.834,0.468248 25.86199,11.349151 26.30412,33.729999 0.0537,2.88395 -0.10648,5.9619 -0.48089,9.22511 l -1.8929,15.78183 -5.36239,44.71343 c -0.013,0.0284 -0.0245,0.0533 -0.009,0.0947 0,0 -0.0114,0.0249 -0.0245,0.0533 -0.13075,1.19105 -0.30495,2.33632 -0.48931,3.43823 -2.13052,12.45643 -7.28315,20.72376 -16.08693,30.49778 -0.0115,0.0249 -0.0115,0.0249 -0.0245,0.0533 l -22.2552,24.69825 -0.13658,-0.54439 c 0.0114,-0.0248 0.0114,-0.0248 -0.0135,-0.0362 -0.004,-0.0663 -0.0157,-0.1061 -0.0212,-0.16881 -0.75327,-3.11111 -2.05317,-6.15551 -3.55947,-9.09703 -1.40664,-2.67211 -2.96872,-5.28672 -4.51901,-7.86153 z m 0,0"
             fill="#fcc368"
             id="path862"
             inkscape:transform-center-x="-2.4307605"
             inkscape:transform-center-y="0.78446638" />
          <g
             id="g1590"
             transform="matrix(1,0,0,-1,-19.038373,452.21557)">
            <path
               id="path864"
               fill="#64b0d9"
               d="m 302.94141,203.78906 30.19531,42.05078 c 7.67969,10.71485 21.375,19.32813 34.63281,16.52735 1.87109,-0.38282 3.73828,-0.9961 5.57813,-1.8711 4.55859,-2.1875 27.56641,-20.88277 31.80078,-23.85933 6.10157,-4.32422 -4.55469,5.9023 0.0312,-0.0274 l 0.34765,-0.4375 c 9.08203,-12.05859 9.84375,-29.17187 0.67188,-42.13671 l -23.39063,-33.17188 c -3.79297,-5.22656 -7.85547,-9.57812 -12.05859,-13.17187 -33.96094,-28.73047 -78.08594,-6.10157 -73.00391,31.53906 2.80078,7.9414 4.64063,16.29297 5.19532,24.55859 z"
               inkscape:connector-curvature="0"
               style="fill:#64b0d9;fill-opacity:1"
               sodipodi:nodetypes="cccccccccccc" />
            <path
               id="path866"
               fill="#4a83c9"
               d="m 364.76172,175.66797 23.39062,33.17187 c 4.11719,5.83985 6.22266,12.5 6.48438,19.1836 0.11719,2.71875 -0.11719,5.46093 -0.61328,8.14843 -1.01953,5.31641 -3.24219,10.39454 -6.53906,14.83594 0.0273,-0.0312 0.0547,-0.0586 0.11718,-0.0898 3.38672,-2.39453 7.03516,-4.73047 10.42188,-7.35938 2.66015,-2.07422 5.11328,-4.32031 7.125,-6.92187 0.0312,0 0.0312,0 0.0312,-0.0273 l 0.34765,-0.4375 c 1.89844,-2.51171 3.41797,-5.28515 4.58594,-8.14843 4.37891,-10.92188 3.32813,-23.74219 -3.91406,-33.98828 l -23.39063,-33.17579 c -3.79297,-5.22656 -7.85547,-9.57812 -12.05859,-13.16796 -24.73438,-20.9375 -54.89844,-14.60157 -67.45703,4.96484 14.42578,-5.89844 33.08594,-3.94141 49.41015,9.86719 4.20313,3.5664 8.26563,7.91797 12.0586,13.14453 z m 0,0"
               inkscape:connector-curvature="0"
               style="fill:#4a83c9;fill-opacity:1" />
          </g>
        </g>
      </g>
      <path
         inkscape:connector-curvature="0"
         d="m 20.750123,15.164788 v 0.380468 H 8.9724328 v -0.380468 z"
         fill="#c99977"
         id="path949-9-9"
         style="fill:#745845;fill-opacity:1;stroke-width:0.0483102" />
      <rect
         ry="0"
         y="8.7946835"
         x="9.3916636"
         height="6.3701048"
         width="11.358459"
         id="rect1029"
         style="fill:#96d4d4;fill-opacity:0.43145165;stroke-width:0.337761;stroke-linecap:round;paint-order:stroke fill markers;stop-color:#000000" />
      <path
         style="fill:#745845;fill-opacity:1;stroke-width:0.0138811"
         id="path949-9-9-6"
         fill="#c99977"
         d="m 15.795865,14.800719 v 0.386224 h -0.95788 v -0.386224 z"
         inkscape:connector-curvature="0" />
      <path
         sodipodi:nodetypes="ccssssc"
         id="path923-2"
         fill="#a27b60"
         d="M 22.308151,8.4046817 7.7841038,8.3715484 7.817237,7.0424299 C 7.8199535,6.9334591 7.9875783,6.8450596 8.197705,6.8450596 H 21.89455 c 0.210127,0 0.380468,0.088366 0.380468,0.1973703 z"
         inkscape:connector-curvature="0"
         style="fill:#85634c;fill-opacity:1;stroke-width:0.0342539" />
    </g>
  </g>
</svg>
