<?xml version="1.0" encoding="UTF-8" standalone="no"?>
<svg
   xmlns:dc="http://purl.org/dc/elements/1.1/"
   xmlns:cc="http://creativecommons.org/ns#"
   xmlns:rdf="http://www.w3.org/1999/02/22-rdf-syntax-ns#"
   xmlns:svg="http://www.w3.org/2000/svg"
   xmlns="http://www.w3.org/2000/svg"
   xmlns:sodipodi="http://sodipodi.sourceforge.net/DTD/sodipodi-0.dtd"
   xmlns:inkscape="http://www.inkscape.org/namespaces/inkscape"
   inkscape:export-ydpi="358.39999"
   inkscape:export-xdpi="358.39999"
   inkscape:export-filename="/Users/mike.xiao/Documents/Projects/DBT_icons/dbt_icons/wisemind.png"
   sodipodi:docname="wisemind.svg"
   inkscape:version="1.0beta2 (2b71d25, 2019-12-03)"
   id="svg870"
   version="1.1"
   viewBox="0 0 7.9375 7.9375004"
   height="30"
   width="30">
  <defs
     id="defs864" />
  <sodipodi:namedview
     showguides="false"
     inkscape:window-maximized="0"
     inkscape:window-y="84"
     inkscape:window-x="220"
     inkscape:window-height="700"
     inkscape:window-width="1388"
     units="px"
     showgrid="false"
     inkscape:document-rotation="0"
     inkscape:current-layer="layer1"
     inkscape:document-units="mm"
     inkscape:cy="15"
     inkscape:cx="18.770287"
     inkscape:zoom="17.8"
     inkscape:pageshadow="2"
     inkscape:pageopacity="0.0"
     borderopacity="1.0"
     bordercolor="#666666"
     pagecolor="#ffffff"
     id="base" />
  <metadata
     id="metadata867">
    <rdf:RDF>
      <cc:Work
         rdf:about="">
        <dc:format>image/svg+xml</dc:format>
        <dc:type
           rdf:resource="http://purl.org/dc/dcmitype/StillImage" />
        <dc:title />
      </cc:Work>
    </rdf:RDF>
  </metadata>
  <g
     id="layer1"
     inkscape:groupmode="layer"
     inkscape:label="Layer 1">
    <circle
       inkscape:export-ydpi="98.742859"
       inkscape:export-xdpi="98.742859"
       r="3.8364584"
       cy="3.97843"
       cx="4.0039864"
       id="path2291-7-0"
       style="opacity:0.996117;fill:#b64dd0;fill-opacity:1;stroke-width:0.459604;stroke-linecap:round;stroke-linejoin:round;paint-order:stroke fill markers" />
    <path
       transform="scale(0.26458333)"
       d="M 14.736328 29.548828 A 14.500001 14.500001 0 0 0 14.855469 29.552734 A 14.500001 14.500001 0 0 0 15.173828 29.556641 A 14.500001 14.500001 0 0 0 15.216797 29.556641 A 14.500001 14.500001 0 0 0 15.537109 29.550781 A 14.500001 14.500001 0 0 0 15.857422 29.541016 A 14.500001 14.500001 0 0 0 16.175781 29.521484 A 14.500001 14.500001 0 0 0 16.496094 29.496094 A 14.500001 14.500001 0 0 0 16.814453 29.462891 A 14.500001 14.500001 0 0 0 17.132812 29.423828 A 14.500001 14.500001 0 0 0 17.449219 29.376953 A 14.500001 14.500001 0 0 0 17.763672 29.322266 A 14.500001 14.500001 0 0 0 18.078125 29.261719 A 14.500001 14.500001 0 0 0 18.392578 29.195312 A 14.500001 14.500001 0 0 0 18.703125 29.121094 A 14.500001 14.500001 0 0 0 19.013672 29.039062 A 14.500001 14.500001 0 0 0 19.320312 28.951172 A 14.500001 14.500001 0 0 0 19.626953 28.855469 A 14.500001 14.500001 0 0 0 19.929688 28.753906 A 14.500001 14.500001 0 0 0 20.232422 28.646484 A 14.500001 14.500001 0 0 0 20.53125 28.53125 A 14.500001 14.500001 0 0 0 20.826172 28.410156 A 14.500001 14.500001 0 0 0 21.119141 28.28125 A 14.500001 14.500001 0 0 0 21.410156 28.146484 A 14.500001 14.500001 0 0 0 21.697266 28.005859 A 14.500001 14.500001 0 0 0 21.982422 27.859375 A 14.500001 14.500001 0 0 0 22.263672 27.705078 A 14.500001 14.500001 0 0 0 22.541016 27.544922 A 14.500001 14.500001 0 0 0 22.814453 27.380859 A 14.500001 14.500001 0 0 0 23.085938 27.208984 A 14.500001 14.500001 0 0 0 23.351562 27.03125 A 14.500001 14.500001 0 0 0 23.615234 26.847656 A 14.500001 14.500001 0 0 0 23.873047 26.658203 A 14.500001 14.500001 0 0 0 24.126953 26.462891 A 14.500001 14.500001 0 0 0 24.376953 26.261719 A 14.500001 14.500001 0 0 0 24.621094 26.056641 A 14.500001 14.500001 0 0 0 24.861328 25.845703 A 14.500001 14.500001 0 0 0 25.097656 25.628906 A 14.500001 14.500001 0 0 0 25.328125 25.40625 A 14.500001 14.500001 0 0 0 25.554688 25.179688 A 14.500001 14.500001 0 0 0 25.775391 24.949219 A 14.500001 14.500001 0 0 0 25.992188 24.712891 A 14.500001 14.500001 0 0 0 26.203125 24.470703 A 14.500001 14.500001 0 0 0 26.408203 24.224609 A 14.500001 14.500001 0 0 0 26.607422 23.974609 A 14.500001 14.500001 0 0 0 26.800781 23.720703 A 14.500001 14.500001 0 0 0 26.990234 23.460938 A 14.500001 14.500001 0 0 0 27.171875 23.199219 A 14.500001 14.500001 0 0 0 27.349609 22.931641 A 14.500001 14.500001 0 0 0 27.521484 22.660156 A 14.500001 14.500001 0 0 0 27.685547 22.386719 A 14.500001 14.500001 0 0 0 27.84375 22.107422 A 14.500001 14.500001 0 0 0 27.996094 21.826172 A 14.500001 14.500001 0 0 0 28.142578 21.542969 A 14.500001 14.500001 0 0 0 28.283203 21.253906 A 14.500001 14.500001 0 0 0 28.417969 20.962891 A 14.500001 14.500001 0 0 0 28.544922 20.669922 A 14.500001 14.500001 0 0 0 28.664062 20.373047 A 14.500001 14.500001 0 0 0 28.779297 20.074219 A 14.500001 14.500001 0 0 0 28.876953 19.800781 L 23.011719 10.707031 L 8.4570312 19.658203 L 14.736328 29.548828 z "
       style="fill:#000000;fill-opacity:0.233871;stroke:none;stroke-width:0.999999px;stroke-linecap:butt;stroke-linejoin:miter;stroke-opacity:1"
       id="path2691" />
    <g
       transform="matrix(0.01149734,0,0,0.01149734,1.6570785,2.20293)"
       id="g2289">
      <path
         style="fill:#2a7fff;fill-opacity:1;stroke-width:2.11071"
         inkscape:connector-curvature="0"
         d="m 370.53522,197.43608 c 2.77032,8.03061 4.2544,16.64661 4.2544,25.60066 0,43.5747 -35.32147,78.90442 -78.89616,78.90442 -3.00944,0 -5.97763,-0.17308 -8.92108,-0.52768 -3.88338,22.45931 -23.44047,39.5594 -47.01284,39.5594 h -0.37104 c -17.92457,-0.13192 -32.29557,-14.91517 -32.29557,-32.83975 V -3.9886835 c 0,-6.3733675 2.41577,-12.5406095 6.77737,-17.1660405 13.41458,-14.214339 32.41101,-23.094178 53.46867,-23.094178 37.14363,0 67.84791,27.546465 72.79489,63.329666 39.22961,15.37688 67.03168,53.5841 67.03168,98.280106 0.008,32.03999 -14.28031,60.7325 -36.83032,80.07521 z m 0,0"
         fill="#fc3e81"
         id="path2166" />
      <path
         style="fill:#0055d4;fill-opacity:1;stroke-width:2.11071"
         inkscape:connector-curvature="0"
         d="m 287.00537,317.788 c -0.841,0 -1.69847,-0.0659 -2.55595,-0.20622 -18.51822,-2.90223 -35.72548,-11.43576 -49.74195,-24.68545 -6.57124,-6.20022 -6.85982,-16.55591 -0.6596,-23.1189 6.20848,-6.57125 16.55591,-6.85982 23.11893,-0.6596 9.20138,8.69019 20.38158,14.27205 32.35327,16.1519 8.92108,1.40164 15.02235,9.76205 13.62071,18.69136 -1.26149,8.06358 -8.22024,13.82682 -16.13541,13.82682 z m 0,0"
         fill="#f01054"
         id="path2168" />
      <path
         style="fill:#0055d4;fill-opacity:1;stroke-width:2.11071"
         inkscape:connector-curvature="0"
         d="m 281.30809,70.545904 c -3.23203,3.52885 -7.65959,5.31801 -12.0624,5.31801 -3.96584,0 -7.91517,-1.41814 -11.05653,-4.29563 -12.38394,-11.36158 -29.00581,-16.50645 -45.55349,-14.13189 -1.83037,0.26384 -3.64427,0.19788 -5.34274,-0.10719 v -32.14716 c 0.21438,-0.066 0.45348,-0.0825 0.70082,-0.13192 26.29324,-3.76795 52.63593,4.38633 72.28372,22.4016 6.67842,6.10128 7.1154,16.44048 1.03062,23.09418 z m 0,0"
         fill="#f01054"
         id="path2170" />
      <path
         sodipodi:nodetypes="scscscsscscscs"
         style="fill:#ff6da6;fill-opacity:1;stroke-width:2.11071"
         inkscape:connector-curvature="0"
         d="M 207.29293,-3.9886835 V 152.07222 308.13313 c 0,17.92458 -14.37099,32.70783 -32.29557,32.83975 h -0.39576 c -23.57239,0 -43.12947,-17.10009 -47.01286,-39.5594 -2.91872,0.35454 -5.91165,0.52768 -8.92106,0.52768 -43.574703,0 -78.896173,-35.32972 -78.896173,-78.90442 0,-8.95405 1.50057,-17.57005 4.2544,-25.60066 -22.52526,-19.34271 -36.8138154,-48.03522 -36.8138154,-80.07521 0,-44.704256 27.7855754,-82.911476 67.0316654,-98.280106 4.95521,-35.783201 35.634783,-63.329666 72.770153,-63.329666 21.09066,0 40.08708,8.879839 53.47692,23.094178 4.37809,4.625431 6.8021,10.792673 6.8021,17.1660405 z"
         fill="#fd82ac"
         id="path2172" />
      <path
         style="fill:#ff438e;fill-opacity:1;stroke-width:2.11071"
         inkscape:connector-curvature="0"
         d="m 127.57225,317.788 c -7.91517,0 -14.87392,-5.76324 -16.14367,-13.82682 -1.39338,-8.92106 4.70789,-17.28973 13.62897,-18.69137 11.96344,-1.87161 23.15189,-7.46171 32.34502,-16.1519 6.56301,-6.20022 16.9187,-5.90341 23.11893,0.6596 6.20847,6.56299 5.91164,16.91868 -0.65135,23.1189 -14.02472,13.24969 -31.22373,21.78322 -49.7502,24.69371 -0.85748,0.13192 -1.7067,0.19777 -2.5477,0.19777 z m 0,0"
         fill="#fd6096"
         id="path2174" />
      <path
         style="fill:#ff438e;fill-opacity:1;stroke-width:2.11071"
         inkscape:connector-curvature="0"
         d="m 207.29293,25.182044 v 32.14716 c -1.69845,0.30507 -3.51236,0.37103 -5.34275,0.10718 -16.55591,-2.37455 -33.16953,2.77032 -45.55349,14.13189 -3.14133,2.8775 -7.10717,4.29564 -11.05651,4.29564 -4.42756,0 -8.83036,-1.78916 -12.06239,-5.31802 -6.1013,-6.65369 -5.64781,-16.99289 1.00588,-23.09417 19.64777,-18.01528 45.99047,-26.16956 72.30844,-22.4016 0.2391,0.0495 0.4782,0.0742 0.70082,0.13192 z m 0,0"
         fill="#fd6096"
         id="path2176" />
      <path
         style="fill:#0055d4;fill-opacity:1;stroke-width:2.11071"
         inkscape:connector-curvature="0"
         d="m 385.82965,191.62337 c -11.60068,-30.50641 -37.59709,-52.89977 -68.63943,-59.56171 -0.99765,-14.96463 -5.5901,-29.15424 -13.44755,-41.356796 -4.88927,-7.59362 -15.00586,-9.77854 -22.60773,-4.89751 -7.59363,4.89751 -9.77853,15.014096 -4.88927,22.607726 5.52413,8.59126 8.4511,18.91398 8.4511,29.87154 0,12.77146 -4.04003,24.81737 -11.37807,33.91982 -5.67255,7.03299 -4.55946,17.32272 2.46525,22.99526 3.02592,2.44052 6.65371,3.61954 10.25676,3.61954 4.77384,0 9.5147,-2.07775 12.74673,-6.08479 6.57949,-8.16253 11.52648,-17.669 14.66781,-27.90925 18.66663,5.17785 34.67012,19.65602 41.80204,38.4216 2.48173,6.53002 8.69844,10.54532 15.28617,10.54532 1.93757,0 3.89988,-0.34629 5.81271,-1.07185 8.44286,-3.20729 12.68902,-12.64779 9.47348,-21.0989 z m 0,0"
         fill="#f01054"
         id="path2178" />
      <path
         style="fill:#ff438e;fill-opacity:1;stroke-width:2.11071"
         inkscape:connector-curvature="0"
         d="m 129.88085,138.28662 c 0,-10.95756 2.91871,-21.28028 8.45111,-29.86329 4.89751,-7.59363 2.70435,-17.718466 -4.88928,-22.607726 -7.59361,-4.88928 -17.71845,-2.70436 -22.60773,4.88926 -7.85745,12.202556 -12.449903,26.392166 -13.455813,41.356796 -31.03408,6.67019 -57.03049,29.0553 -68.63942,59.56996 -3.20729,8.44286 1.03064,17.89159 9.4735,21.09889 1.91283,0.72555 3.88337,1.07186 5.81269,1.07186 6.59598,0 12.80446,-4.01532 15.29445,-10.54534 7.13189,-18.76555 23.12715,-33.25198 41.802013,-38.42158 3.14133,10.24026 8.08832,19.73847 14.66781,27.901 3.23204,4.0153 7.96466,6.09304 12.74673,6.09304 3.60305,0 7.22261,-1.17904 10.24851,-3.61956 7.03296,-5.67254 8.1378,-15.9705 2.46525,-22.99523 -7.32979,-9.11071 -11.36982,-21.15662 -11.36982,-33.92808 z m 0,0"
         fill="#fd6096"
         id="path2180" />
    </g>
  </g>
</svg>
